<svg width="285" height="285" viewBox="0 0 285 285" fill="none" xmlns="http://www.w3.org/2000/svg">
<path d="M54.9368 231.135V235.421H87.0278V231.135H54.9368Z" fill="#E0E0E0"/>
<path d="M59.3143 231.306C59.4226 231.306 59.5138 232.207 59.5138 233.318C59.5138 234.43 59.4226 235.325 59.3143 235.325C59.206 235.325 59.1091 234.424 59.1091 233.318C59.1091 232.212 59.2003 231.306 59.3143 231.306Z" fill="#FAFAFA"/>
<path d="M58.6131 231.221C58.7271 231.221 58.8126 232.121 58.8126 233.227C58.8126 234.333 58.7271 235.239 58.6131 235.239C58.4991 235.239 58.4136 234.339 58.4136 233.227C58.4136 232.116 58.4991 231.221 58.6131 231.221Z" fill="#FAFAFA"/>
<path d="M84.5481 231.306C84.6621 231.306 84.7533 232.207 84.7533 233.318C84.7533 234.43 84.6621 235.325 84.5481 235.325C84.4341 235.325 84.3486 234.424 84.3486 233.318C84.3486 232.212 84.4398 231.306 84.5481 231.306Z" fill="#FAFAFA"/>
<path d="M83.8529 231.221C83.9612 231.221 84.0524 232.121 84.0524 233.227C84.0524 234.333 83.9612 235.239 83.8529 235.239C83.7446 235.239 83.6477 234.339 83.6477 233.227C83.6477 232.116 83.7389 231.221 83.8529 231.221Z" fill="#FAFAFA"/>
<path d="M79.6577 233.404C79.6577 233.518 75.9812 233.603 71.4497 233.603C66.9182 233.603 63.2417 233.518 63.2417 233.404C63.2417 233.29 66.9182 233.204 71.4497 233.204C75.9812 233.204 79.6577 233.29 79.6577 233.404Z" fill="#FAFAFA"/>
<path d="M54.7998 250.436V259.008H86.8908V250.436H54.7998Z" fill="#E0E0E0"/>
<path d="M87.3013 256.597C87.3013 256.597 87.25 256.637 87.1303 256.694C87.0106 256.751 86.8339 256.837 86.5945 256.939C85.897 257.235 85.1657 257.444 84.4171 257.56C83.2177 257.778 81.9801 257.602 80.8888 257.059C80.2138 256.699 79.6381 256.178 79.213 255.543C78.7251 254.818 78.5221 253.939 78.643 253.075C78.7131 252.605 78.9102 252.163 79.213 251.798C79.3752 251.598 79.5816 251.438 79.816 251.331C80.0505 251.224 80.3065 251.173 80.5639 251.182C80.8289 251.204 81.0866 251.28 81.3209 251.405C81.5553 251.531 81.7613 251.703 81.9262 251.912C82.2772 252.326 82.4939 252.837 82.5475 253.377C82.5912 253.933 82.5152 254.492 82.3244 255.016C82.1336 255.54 81.8326 256.017 81.4417 256.415C80.6296 257.274 79.5344 257.81 78.358 257.925C77.1467 258.042 75.9245 257.89 74.7784 257.481C73.5536 257.098 72.4664 256.367 71.6491 255.377C71.2276 254.846 70.9736 254.201 70.9195 253.525C70.8854 253.173 70.929 252.818 71.0472 252.485C71.1654 252.153 71.3553 251.85 71.6035 251.598C71.8751 251.337 72.2308 251.182 72.6067 251.159C72.9783 251.149 73.3442 251.253 73.6555 251.456C74.2571 251.85 74.6805 252.464 74.8354 253.166C74.9696 253.851 74.9236 254.56 74.7018 255.222C74.48 255.885 74.09 256.478 73.57 256.945C72.5512 257.805 71.286 258.32 69.9562 258.415C68.6958 258.56 67.4189 258.434 66.2113 258.045C65.0259 257.672 64.0143 256.885 63.3613 255.828C63.0366 255.326 62.8353 254.755 62.7739 254.16C62.7124 253.566 62.7926 252.965 63.0079 252.408C63.1145 252.128 63.2901 251.88 63.5184 251.687C63.7466 251.494 64.02 251.361 64.3132 251.302C64.5952 251.251 64.8846 251.259 65.1632 251.326C65.4418 251.393 65.7036 251.517 65.932 251.689C66.3321 252.041 66.6184 252.503 66.7544 253.018C66.8905 253.533 66.8701 254.076 66.6958 254.579C66.3838 255.478 65.8223 256.269 65.077 256.859C63.8425 257.905 62.2933 258.507 60.6766 258.569C59.6926 258.604 58.7122 258.432 57.799 258.064C56.8858 257.696 56.0602 257.14 55.3756 256.432C55.2386 256.291 55.1092 256.142 54.988 255.987C54.9452 255.936 54.9071 255.88 54.874 255.822C55.5516 256.57 56.3612 257.186 57.2623 257.64C58.3241 258.162 59.5009 258.405 60.6823 258.347C62.242 258.259 63.7288 257.657 64.9117 256.637C65.6061 256.075 66.1276 255.328 66.4165 254.482C66.5675 254.042 66.5847 253.566 66.4661 253.116C66.3474 252.666 66.0981 252.261 65.7496 251.952C65.5581 251.809 65.3395 251.707 65.1072 251.652C64.8749 251.597 64.6338 251.591 64.3987 251.632C64.1604 251.682 63.9387 251.792 63.7551 251.951C63.5714 252.111 63.4319 252.315 63.3499 252.544C63.1625 253.048 63.0964 253.588 63.1568 254.122C63.2172 254.656 63.4025 255.168 63.6976 255.617C64.3096 256.594 65.2523 257.318 66.3538 257.657C67.5093 258.024 68.7295 258.14 69.9334 257.999C71.1779 257.907 72.362 257.426 73.3192 256.626C73.7887 256.203 74.1406 255.665 74.3404 255.066C74.5402 254.467 74.5811 253.826 74.4592 253.206C74.3307 252.603 73.9731 252.074 73.4617 251.729C73.2311 251.559 72.9479 251.474 72.6615 251.491C72.375 251.508 72.1035 251.624 71.8942 251.821C71.687 252.03 71.5285 252.283 71.4299 252.561C71.3314 252.839 71.2953 253.135 71.3242 253.428C71.3722 254.027 71.5963 254.598 71.9683 255.07C72.7366 255.997 73.7557 256.684 74.9038 257.047C75.9982 257.441 77.1655 257.591 78.3238 257.486C79.4081 257.382 80.4191 256.892 81.1738 256.107C81.5336 255.747 81.8119 255.314 81.9899 254.837C82.1679 254.36 82.2414 253.85 82.2055 253.342C82.1863 252.881 82.0112 252.44 81.7089 252.091C81.4066 251.742 80.9949 251.506 80.5411 251.422C80.3299 251.415 80.1199 251.457 79.9272 251.543C79.7345 251.63 79.5643 251.76 79.4296 251.923C79.1516 252.247 78.9682 252.642 78.8995 253.063C78.7829 253.861 78.9678 254.674 79.4182 255.343C79.8135 255.952 80.3516 256.455 80.9857 256.808C82.0388 257.349 83.2372 257.538 84.4057 257.35C85.1453 257.248 85.8716 257.067 86.5717 256.808C87.0505 256.688 87.2956 256.58 87.3013 256.597Z" fill="#FAFAFA"/>
<path d="M57.667 235.541V250.418H86.8909V235.541H57.667Z" fill="#EBEBEB"/>
<path d="M62.5233 236.054C62.6316 236.054 62.7228 239.275 62.7228 243.253C62.7228 247.232 62.6316 250.452 62.5233 250.452C62.415 250.452 62.3181 247.232 62.3181 243.253C62.3181 239.275 62.4093 236.054 62.5233 236.054Z" fill="#E0E0E0"/>
<path d="M64.7406 235.866C64.8489 235.866 64.9401 239.053 64.9401 242.974C64.9401 246.896 64.8489 250.082 64.7406 250.082C64.6323 250.082 64.5354 246.901 64.5354 242.974C64.5354 239.047 64.6266 235.866 64.7406 235.866Z" fill="#E0E0E0"/>
<path d="M83.5907 235.41C83.699 235.41 83.7902 238.762 83.7902 242.9C83.7902 247.038 83.699 250.384 83.5907 250.384C83.4824 250.384 83.3855 247.032 83.3855 242.9C83.3855 238.767 83.4767 235.41 83.5907 235.41Z" fill="#E0E0E0"/>
<path d="M80.9857 235.593C81.094 235.593 81.1852 238.853 81.1852 242.883C81.1852 246.913 81.094 250.173 80.9857 250.173C80.8774 250.173 80.7805 246.913 80.7805 242.883C80.7805 238.853 80.8717 235.593 80.9857 235.593Z" fill="#E0E0E0"/>
<path d="M238.3 203.068C241.332 201.501 244.895 201.301 248.264 201.854C250.07 202.156 251.951 202.692 253.183 204.054C254.414 205.417 254.642 207.799 253.234 208.962C252.39 209.658 251.222 209.766 250.127 209.749C247.494 209.72 244.576 209.259 242.472 210.843C241.27 211.744 240.472 213.249 239.052 213.693C237.633 214.138 236.066 213.3 235.325 212.034C234.64 210.715 234.489 209.182 234.903 207.754C235.071 206.764 235.464 205.827 236.054 205.014C236.643 204.201 237.412 203.535 238.3 203.068Z" fill="#EBEBEB"/>
<path d="M231.357 189.668C233.21 192.312 236.812 191.435 238.482 189.822C240.153 188.208 240.859 185.866 241.498 183.631C242.968 178.536 244.445 173.183 243.356 167.991C243.095 166.415 242.402 164.944 241.355 163.738C240.826 163.144 240.15 162.699 239.395 162.447C238.64 162.195 237.832 162.145 237.052 162.302C235.239 162.786 234.111 164.582 233.295 166.252C230.894 171.248 229.634 176.715 229.608 182.258C229.608 184.834 229.904 187.536 231.357 189.668Z" fill="#EBEBEB"/>
<path d="M226.29 193.464C228.302 191.075 228.684 187.593 227.789 184.606C226.894 181.619 224.871 179.066 222.539 176.991C219.797 174.549 216.604 172.665 213.14 171.445C211.8 170.905 210.36 170.66 208.916 170.726C208.195 170.768 207.495 170.986 206.877 171.36C206.259 171.735 205.742 172.255 205.371 172.875C204.379 174.762 205.331 177.048 206.357 178.917C208.165 182.204 210.227 185.345 212.525 188.311C214.377 190.699 216.515 193.053 219.313 194.131C222.112 195.208 225.065 195.077 226.558 193.122" fill="#EBEBEB"/>
<path d="M231.232 229.579C231.33 229.185 231.387 228.782 231.403 228.376C231.489 227.504 231.591 226.404 231.722 225.099C231.886 223.482 232.131 221.874 232.458 220.282C232.886 218.338 233.472 216.432 234.207 214.582C234.93 212.745 235.906 211.018 237.109 209.452C238.089 208.176 239.341 207.134 240.774 206.403C241.748 205.924 242.79 205.599 243.863 205.439C244.267 205.427 244.669 205.369 245.06 205.268C244.655 205.224 244.246 205.224 243.84 205.268C242.726 205.353 241.635 205.637 240.62 206.106C239.112 206.819 237.79 207.871 236.755 209.179C235.498 210.768 234.484 212.535 233.746 214.422C233.009 216.294 232.437 218.226 232.036 220.197C231.725 221.807 231.51 223.434 231.392 225.07C231.289 226.461 231.249 227.589 231.232 228.37C231.19 228.772 231.19 229.177 231.232 229.579Z" fill="#E0E0E0"/>
<path d="M231.46 227.054C231.494 226.866 231.506 226.675 231.494 226.484C231.494 226.068 231.494 225.538 231.494 224.888C231.494 223.509 231.494 221.502 231.563 219.028C231.688 214.081 232.133 208.768 232.936 201.244C233.717 194.188 234.76 185.968 235.866 180.628C236.1 179.413 236.339 178.319 236.567 177.361C236.795 176.404 236.961 175.577 237.137 174.91C237.314 174.244 237.411 173.77 237.508 173.36C237.559 173.174 237.593 172.983 237.61 172.79C237.523 172.956 237.458 173.132 237.416 173.314C237.291 173.713 237.137 174.221 236.949 174.842C236.761 175.463 236.533 176.324 236.294 177.282C236.054 178.239 235.781 179.328 235.524 180.542C234.155 186.859 233.125 193.244 232.44 199.671C231.62 207.195 231.249 214.047 231.215 219.006C231.186 221.485 231.215 223.492 231.3 224.877C231.34 225.526 231.374 226.057 231.397 226.473C231.394 226.668 231.415 226.864 231.46 227.054Z" fill="#E0E0E0"/>
<path d="M231.494 213.841C231.538 213.288 231.538 212.731 231.494 212.177C231.431 211.105 231.283 209.555 230.981 207.663C230.618 205.444 230.129 203.248 229.516 201.085C228.797 198.423 227.877 195.82 226.763 193.299C224.856 188.65 222.119 184.388 218.686 180.719C218.088 180.092 217.452 179.502 216.782 178.952C216.492 178.707 216.212 178.462 215.973 178.268L215.238 177.76C214.794 177.422 214.323 177.121 213.83 176.86C213.75 176.968 215.819 178.182 218.43 180.964C221.75 184.665 224.415 188.906 226.307 193.504C227.396 196.008 228.316 198.583 229.06 201.21C229.784 203.627 230.263 205.85 230.628 207.72C230.993 209.589 231.169 211.14 231.289 212.194C231.313 212.748 231.382 213.299 231.494 213.841Z" fill="#E0E0E0"/>
<path d="M217.837 235.142L219.165 253.279H242.461L243.789 235.142H217.837Z" fill="#EBEBEB"/>
<path d="M246.565 227.995H215.585V235.142H246.565V227.995Z" fill="#EBEBEB"/>
<path d="M215.585 252.584V254.568H217.045H246.058V252.584H215.585Z" fill="#E0E0E0"/>
<path d="M218.47 257.834L217.045 254.351H244.946L243.282 257.834H218.47Z" fill="#E0E0E0"/>
<path d="M243.356 241.07C243.327 241.13 243.291 241.186 243.248 241.236C243.151 241.361 243.037 241.509 242.9 241.697L241.538 243.436L241.481 243.516L241.424 243.43C240.569 242.25 239.429 240.677 238.089 238.819H238.26L234.977 243.47L234.874 243.613L234.76 243.476L230.884 238.83H231.107L230.896 239.098L227.43 243.476L227.31 243.624L227.208 243.47C226.022 241.8 224.928 240.232 223.919 238.825H224.113L220.066 243.436L219.997 243.516L219.94 243.424L218.675 241.298C218.538 241.065 218.436 240.877 218.35 240.728C218.308 240.666 218.274 240.599 218.247 240.529C218.3 240.582 218.346 240.641 218.384 240.706L218.743 241.276L220.071 243.367H219.946L223.936 238.699L224.033 238.585L224.124 238.711L227.442 243.339H227.214L230.691 238.967L230.901 238.693L231.015 238.557L231.129 238.693L235.011 243.333H234.795L238.112 238.705L238.209 238.568L238.3 238.705L241.566 243.367H241.446C242.045 242.649 242.512 242.085 242.86 241.657L243.236 241.219C243.305 241.11 243.35 241.065 243.356 241.07Z" fill="#F5F5F5"/>
<path d="M244.114 235.022C244.114 235.102 238.271 235.165 231.072 235.165C223.873 235.165 218.031 235.102 218.031 235.022C218.031 234.943 223.868 234.88 231.072 234.88C238.277 234.88 244.114 234.943 244.114 235.022Z" fill="#F5F5F5"/>
<path d="M111.27 46.0789C111.27 46.0789 111.218 46.0789 111.133 46.039L110.757 45.8908L109.32 45.2923L104.048 43.0123L86.7199 35.4655L86.1157 35.1976H86.2411L69.2608 42.4879L64.1308 44.6425L62.7286 45.2125C62.5688 45.2858 62.4028 45.345 62.2327 45.3892C62.384 45.299 62.5422 45.2208 62.7058 45.1555L64.0852 44.5285L69.2152 42.277L86.1556 34.9297H86.2183H86.281L86.8852 35.1919L104.179 42.8299L109.406 45.1726L110.819 45.8281L111.184 46.0048C111.216 46.0261 111.244 46.0509 111.27 46.0789Z" fill="#E0E0E0"/>
<path d="M138.299 43.5938H26.9839V126.945H138.299V43.5938Z" fill="#E0E0E0"/>
<path d="M134.828 47.4697H30.877V123.519H134.828V47.4697Z" fill="#FAFAFA"/>
<path d="M53.8367 80.6948C53.8367 80.6948 53.945 93.4571 54.5948 97.3559L70.6061 96.5978C70.6061 96.5978 69.2039 84.0578 69.7454 80.6948H53.8367Z" fill="#E0E0E0"/>
<path d="M61.7253 82.4963H61.959C62.1818 82.488 62.405 82.4995 62.6259 82.5305C62.9767 82.5825 63.3183 82.6843 63.6405 82.8326C64.0669 83.0438 64.4438 83.343 64.7463 83.7104C65.118 84.1572 65.3814 84.6839 65.5158 85.2494C65.641 85.9115 65.5839 86.5952 65.3505 87.2273C65.2312 87.571 65.0804 87.903 64.9002 88.2191C64.7089 88.5407 64.5375 88.8739 64.3872 89.2166C64.0679 89.9435 63.8493 90.7106 63.7374 91.4966V91.5479H63.6861H62.1072H60.4485H60.3858V91.4909C60.3147 90.7088 60.0502 89.9566 59.6163 89.3021C59.4225 88.9715 59.2116 88.6694 59.0463 88.3559C58.8393 88.0608 58.6491 87.7544 58.4763 87.4382C58.1839 86.8326 58.0959 86.1486 58.2255 85.4888C58.3185 84.9191 58.5302 84.3754 58.8468 83.8928C59.1171 83.5049 59.4718 83.1834 59.8842 82.9523C60.3933 82.6822 60.9516 82.5174 61.5258 82.4678H61.7538C61.7538 82.4678 61.7538 82.4678 61.6968 82.4678H61.5258C61.3082 82.4934 61.0929 82.5354 60.8817 82.5932C60.5446 82.6812 60.2207 82.8134 59.9184 82.9865C59.515 83.2144 59.1698 83.5324 58.9095 83.9156C58.615 84.394 58.4211 84.9273 58.3395 85.4831C58.2151 86.1225 58.3032 86.7851 58.5903 87.3698C58.7648 87.6813 58.955 87.9838 59.1603 88.2761C59.3598 88.5782 59.5707 88.8917 59.7645 89.2223C60.2144 89.8918 60.487 90.6645 60.5568 91.4681L60.4941 91.4054H62.1528H63.7374L63.6747 91.4624C63.7886 90.6663 64.0111 89.8896 64.3359 89.1539C64.4923 88.8084 64.6674 88.4716 64.8603 88.145C65.0373 87.836 65.1861 87.5117 65.3049 87.176C65.5356 86.5633 65.5967 85.8996 65.4816 85.2551C65.3516 84.7032 65.1004 84.1873 64.7463 83.7446C64.4522 83.3816 64.0852 83.0845 63.669 82.8725C63.3535 82.7199 63.0175 82.6143 62.6715 82.559C62.4544 82.5257 62.2355 82.5067 62.016 82.502H61.8393C61.7481 82.502 61.7253 82.502 61.7253 82.4963Z" fill="white"/>
<path d="M62.5462 91.3939C62.545 91.3768 62.545 91.3597 62.5462 91.3426V91.1944C62.5462 91.0633 62.4949 90.8695 62.4607 90.6244C62.3866 90.1228 62.2783 89.4046 62.2099 88.5097C62.2099 88.2874 62.1757 88.0537 62.17 87.8086C62.1557 87.5523 62.1557 87.2954 62.17 87.0391C62.1762 86.7641 62.2362 86.493 62.3467 86.2411C62.4699 85.969 62.6891 85.7518 62.9623 85.6312C63.1078 85.57 63.2682 85.5531 63.4232 85.5825C63.5783 85.6119 63.7213 85.6863 63.8344 85.7965C63.8946 85.8522 63.9421 85.9203 63.9735 85.996C64.005 86.0718 64.0198 86.1534 64.0168 86.2354C64.0135 86.4005 63.9576 86.5603 63.8572 86.6914C63.7541 86.8246 63.6214 86.9319 63.4696 87.0049C63.3189 87.0757 63.16 87.1274 62.9965 87.1588C62.3287 87.2953 61.6427 87.3185 60.9673 87.2272C60.8002 87.2044 60.6371 87.1584 60.4828 87.0904C60.3323 87.0227 60.1967 86.9258 60.0838 86.8054C59.9681 86.6848 59.8874 86.5351 59.8501 86.3722C59.8142 86.2126 59.8344 86.0456 59.9071 85.8991C59.9731 85.7515 60.0936 85.6351 60.2434 85.5742C60.3145 85.5436 60.3911 85.5278 60.4686 85.5278C60.546 85.5278 60.6226 85.5436 60.6937 85.5742C60.8313 85.6366 60.9495 85.7351 61.0357 85.8592C61.116 85.981 61.1739 86.1161 61.2067 86.2582C61.255 86.5292 61.2817 86.8037 61.2865 87.079L61.3663 88.5439C61.4062 89.4388 61.4461 90.1627 61.4689 90.67C61.4689 90.9151 61.4689 91.1089 61.4689 91.24V91.4395C61.4701 91.4224 61.4701 91.4053 61.4689 91.3882C61.4689 91.354 61.4689 91.3027 61.4689 91.24C61.4689 91.1773 61.4689 90.9094 61.4347 90.67C61.4347 90.1627 61.3606 89.4388 61.3093 88.5439C61.3093 88.0993 61.258 87.6091 61.2295 87.079C61.2258 86.8071 61.1972 86.5362 61.144 86.2696C61.1161 86.1331 61.0619 86.0034 60.9844 85.8877C60.8998 85.7716 60.7883 85.6777 60.6595 85.6141C60.5937 85.586 60.523 85.5716 60.4515 85.5716C60.3799 85.5716 60.3092 85.586 60.2434 85.6141C60.1047 85.6719 59.9928 85.7797 59.9299 85.9162C59.8643 86.0547 59.8462 86.211 59.8786 86.3608C59.917 86.5124 59.9935 86.6517 60.1009 86.7655C60.3323 86.9937 60.6332 87.1381 60.9559 87.1759C61.2903 87.2198 61.6278 87.235 61.9648 87.2215C62.3019 87.2127 62.6375 87.1745 62.968 87.1075C63.1281 87.0769 63.2833 87.0252 63.4297 86.9536C63.5741 86.8842 63.7008 86.7828 63.8002 86.6572C63.8943 86.534 63.9481 86.3846 63.9541 86.2297C63.9538 86.1543 63.9385 86.0797 63.9092 86.0102C63.8798 85.9407 63.837 85.8778 63.7831 85.825C63.6759 85.7227 63.5415 85.6533 63.3961 85.625C63.2506 85.5967 63.1001 85.6107 62.9623 85.6654C62.7092 85.7796 62.5065 85.9823 62.3923 86.2354C62.2839 86.484 62.2239 86.7509 62.2156 87.022C62.2156 87.2842 62.2156 87.535 62.2156 87.7801C62.2156 88.0252 62.2156 88.2589 62.2555 88.4869C62.3239 89.3818 62.4265 90.1 62.4892 90.5959C62.5234 90.8467 62.5519 91.0348 62.569 91.1659V91.3141C62.5646 91.3415 62.5569 91.3683 62.5462 91.3939Z" fill="white"/>
<path d="M60.4202 91.4794C60.4461 91.655 60.4614 91.832 60.4658 92.0095C60.4658 92.3895 60.4886 92.8512 60.5342 93.3946V93.3604L61.6172 94.6201H61.5602L62.8085 94.5517H62.7572L63.3728 93.7993L63.6863 93.4174V93.4687C63.6863 92.7334 63.6521 92.0437 63.6407 91.4167L63.7091 91.4794H61.3778H60.4202C60.4939 91.4689 60.5687 91.4689 60.6425 91.4794L61.298 91.4452L63.6692 91.354H63.7376V91.4224C63.7376 92.0551 63.7775 92.7448 63.8003 93.4744V93.4801C63.6977 93.6055 63.5951 93.7366 63.4868 93.862L62.8655 94.6201H62.8313L61.583 94.6828H61.5602L60.5 93.4231C60.5 92.8531 60.5 92.3971 60.5 91.9981C60.4632 91.8269 60.4365 91.6537 60.4202 91.4794Z" fill="white"/>
<path d="M63.6577 93.2809C63.6577 93.2809 63.6121 93.2809 63.538 93.2296C63.432 93.1821 63.3235 93.1403 63.2131 93.1042C62.8471 92.9764 62.4605 92.9184 62.0731 92.9332C61.6816 92.9417 61.295 93.0229 60.9331 93.1726L60.6196 93.3208L60.5056 93.3778C60.535 93.347 60.5698 93.3219 60.6082 93.3037C60.7093 93.2423 60.814 93.187 60.9217 93.1384C61.2812 92.9788 61.6685 92.8916 62.0617 92.8819C62.4505 92.8675 62.8382 92.9315 63.2017 93.07C63.3116 93.1092 63.4183 93.1569 63.5209 93.2125L63.6577 93.2809Z" fill="white"/>
<path d="M63.652 92.7849L63.538 92.7336L63.2131 92.6025C62.8463 92.4781 62.4603 92.4202 62.0731 92.4315C61.6822 92.4455 61.2966 92.5265 60.9331 92.6709C60.7963 92.7279 60.6937 92.7792 60.6196 92.8191L60.5056 92.8761L60.6082 92.802C60.7083 92.7406 60.8132 92.6872 60.9217 92.6424C61.2807 92.4807 61.6681 92.3916 62.0617 92.3802C62.4501 92.3714 62.8367 92.4352 63.2017 92.5683C63.3385 92.6253 63.4468 92.6766 63.5209 92.7165C63.595 92.7564 63.6577 92.7792 63.652 92.7849Z" fill="white"/>
<path d="M63.6235 92.306L63.5095 92.2603C63.4297 92.2261 63.3214 92.1749 63.1846 92.1293C62.8177 92.0051 62.4317 91.9472 62.0446 91.9583C61.6529 91.966 61.2662 92.0472 60.9046 92.1976C60.7678 92.2546 60.6652 92.3059 60.5911 92.3458L60.4771 92.4028L60.5797 92.3287C60.68 92.2661 60.7848 92.2109 60.8932 92.1635C61.2535 92.0067 61.6404 91.9197 62.0332 91.907C62.4215 91.8987 62.808 91.9625 63.1732 92.0951C63.2829 92.137 63.3895 92.1865 63.4924 92.2433C63.5398 92.2553 63.5843 92.2766 63.6235 92.306Z" fill="white"/>
<path d="M36.0071 59.8501C36.0071 59.8501 36.1154 72.6181 36.7652 76.5112L52.7765 75.7531C52.7765 75.7531 51.3686 63.2131 51.9101 59.8501H36.0071Z" fill="#EBEBEB"/>
<path d="M49.499 65.1853C47.7218 65.4483 45.9309 65.6082 44.1353 65.6641C42.3448 65.8291 40.546 65.8843 38.7488 65.8294C40.5263 65.5697 42.317 65.4098 44.1125 65.3506C45.9033 65.1923 47.7018 65.1372 49.499 65.1853Z" fill="white"/>
<path d="M49.4989 67.8869C47.7222 68.1545 45.9311 68.3163 44.1352 68.3714C42.3462 68.5296 40.5497 68.5848 38.7544 68.5367C40.5315 68.2732 42.3224 68.1134 44.1181 68.0579C45.9068 67.8963 47.7035 67.8392 49.4989 67.8869Z" fill="white"/>
<path d="M46.78 70.5432C45.7757 70.7598 44.7521 70.8744 43.7248 70.8852C42.7052 70.989 41.6778 70.989 40.6582 70.8852C41.6606 70.6688 42.6823 70.5542 43.7077 70.5432C44.7292 70.4394 45.7585 70.4394 46.78 70.5432Z" fill="white"/>
<path d="M35.2488 97.3848C35.2488 97.3848 35.3571 110.147 36.0069 114.046L52.0182 113.288C52.0182 113.288 50.6103 100.748 51.1518 97.3848H35.2488Z" fill="#EBEBEB"/>
<path d="M48.7408 102.743C46.964 103.01 45.173 103.171 43.3771 103.227C41.5882 103.386 39.7916 103.441 37.9963 103.393C39.7715 103.129 41.5605 102.969 43.3543 102.914C45.145 102.752 46.9435 102.695 48.7408 102.743Z" fill="white"/>
<path d="M48.7408 105.45C46.9638 105.714 45.1728 105.874 43.3771 105.929C41.5882 106.087 39.7916 106.142 37.9963 106.094C39.7734 105.831 41.5644 105.671 43.36 105.615C45.149 105.457 46.9456 105.402 48.7408 105.45Z" fill="white"/>
<path d="M46.0219 108.106C45.0196 108.322 43.9978 108.435 42.9724 108.443C41.9519 108.556 40.9226 108.566 39.9001 108.471C40.9025 108.255 41.9242 108.14 42.9496 108.129C43.9702 108.016 44.9998 108.008 46.0219 108.106Z" fill="white"/>
<path d="M79.0078 63.2075L80.5924 100.03L126.557 100.582L124.494 63.692L79.0078 63.2075Z" fill="#EBEBEB"/>
<path d="M124.135 62.9453H78.4719V97.4246H124.135V62.9453Z" fill="#F5F5F5"/>
<path d="M124.135 97.4245C124.135 97.4245 124.135 97.2022 124.135 96.7804C124.135 96.3586 124.135 95.743 124.135 94.945C124.135 93.3262 124.135 90.955 124.1 87.9682C124.1 81.9547 124.061 73.3534 124.032 62.9452L124.163 63.0706H78.5061L78.6657 62.9167C78.6657 75.3142 78.6657 87.0562 78.6657 97.396L78.5232 97.2535L111.458 97.3219L120.829 97.3618H123.32H123.964H124.186H123.348L120.84 97.4701L111.509 97.51L78.4491 97.5784H78.3066V97.4416C78.3066 87.1018 78.3066 75.3598 78.3066 62.9623V62.8027H78.4662H124.123H124.26V62.9338C124.26 73.3705 124.209 82.006 124.192 88.0138C124.192 91.0063 124.192 93.349 124.157 94.9621C124.157 95.7487 124.157 96.3529 124.157 96.7747C124.146 97.2193 124.135 97.4245 124.135 97.4245Z" fill="#E0E0E0"/>
<path d="M102.492 70.2471H83.9839V93.543H102.492V70.2471Z" fill="#F5F5F5"/>
<path d="M102.492 93.5426C102.485 93.503 102.485 93.4626 102.492 93.4229V93.0923C102.492 92.7845 102.492 92.3627 102.492 91.8212C102.492 90.6812 102.492 89.0795 102.458 87.0389C102.458 82.9406 102.412 77.138 102.383 70.2467L102.526 70.3892H84.0181C83.9782 70.3892 84.3145 70.0928 84.172 70.2353V76.568C84.172 78.6371 84.172 80.6549 84.172 82.61C84.172 86.5259 84.172 90.191 84.172 93.5198L84.0466 93.3887L97.4473 93.4571L101.204 93.4913H102.201H102.554C102.446 93.4992 102.338 93.4992 102.23 93.4913H101.261L97.5271 93.5255L84.0466 93.5939H83.9155V93.4628C83.9155 90.134 83.9155 86.4689 83.9155 82.553C83.9155 80.5979 83.9155 78.563 83.9155 76.511V70.2581C83.773 70.3949 84.1036 70.0586 84.0751 70.0985H102.583H102.725V70.241C102.697 77.1665 102.668 83.0033 102.651 87.1244L102.617 91.8725C102.617 92.4045 102.617 92.8206 102.617 93.1208C102.617 93.2462 102.617 93.3488 102.617 93.4343C102.58 93.4753 102.538 93.5116 102.492 93.5426Z" fill="#E0E0E0"/>
<path d="M120.162 64.9175H84.6907V68.2748H120.162V64.9175Z" fill="#F5F5F5"/>
<path d="M120.162 68.2749C120.162 68.2749 120.162 68.1894 120.162 68.0469C120.162 67.9044 120.162 67.665 120.162 67.3914C120.162 66.8214 120.162 65.9835 120.122 64.9176L120.184 64.9803C114.205 65.0373 100.571 65.0772 84.7134 65.0772C85.0269 64.758 84.7989 64.986 84.873 64.9176V68.2635L84.7191 68.1039L109.862 68.1723L117.409 68.2179H119.461H120.002C120.065 68.2133 120.128 68.2133 120.19 68.2179H120.025H119.506H117.488L109.976 68.2692L84.7191 68.3319H84.5652V68.178C84.5652 67.6422 84.5652 67.0893 84.5652 66.5307V64.8207L84.7248 64.6611C100.582 64.6611 114.217 64.701 120.196 64.758H120.264V64.8207C120.264 65.898 120.264 66.7416 120.23 67.3344C120.23 67.6023 120.23 67.8075 120.23 67.9671C120.225 68.0729 120.202 68.1771 120.162 68.2749Z" fill="#E0E0E0"/>
<path d="M120.162 70.2471H104.755V84.2862H120.162V70.2471Z" fill="#F5F5F5"/>
<path d="M120.162 84.286C120.162 84.286 120.162 84.1891 120.162 84.0181V83.2543C120.162 82.5703 120.162 81.607 120.128 80.4043C120.128 77.9305 120.088 74.4478 120.059 70.2583L120.19 70.3951H104.8L104.954 70.2412V74.0089C104.954 75.2401 104.954 76.4485 104.954 77.6284C104.954 79.9825 104.954 82.1884 104.954 84.2746L104.812 84.1378L115.927 84.2062L119.079 84.2461H119.922C120.021 84.2378 120.12 84.2378 120.219 84.2461C120.13 84.2544 120.04 84.2544 119.951 84.2461H119.136L116.018 84.2803L104.812 84.3487H104.675V84.2062C104.675 82.1485 104.675 79.9141 104.675 77.56C104.675 76.3801 104.675 75.1717 104.675 73.9405V70.1728C104.532 70.3096 104.863 69.979 104.835 70.0132H120.225H120.361V70.1443C120.333 74.368 120.31 77.8849 120.293 80.4043C120.293 81.6013 120.264 82.5532 120.259 83.2543C120.259 83.5545 120.259 83.7996 120.259 83.9896C120.24 84.0924 120.208 84.1921 120.162 84.286Z" fill="#E0E0E0"/>
<path d="M120.162 86.4863H104.755V93.5429H120.162V86.4863Z" fill="#F5F5F5"/>
<path d="M120.162 93.5427C120.162 93.5427 120.162 93.3603 120.162 93.0297L120.133 91.6161C120.133 90.3678 120.099 88.6293 120.07 86.4861L120.185 86.6001L104.795 86.6457C104.652 86.7882 104.983 86.4519 104.948 86.4918V90.1227C104.948 91.3026 104.948 92.4483 104.948 93.5427L104.795 93.3945L115.813 93.4629L119.027 93.5085H119.894H120.202C120.111 93.5169 120.019 93.5169 119.928 93.5085H119.09L115.915 93.5541L104.795 93.6225H104.646V93.4743C104.646 92.3799 104.646 91.2342 104.646 90.0543V86.4234C104.612 86.4234 104.943 86.1213 104.806 86.2638L120.196 86.3037H120.27V86.4177C120.27 88.5894 120.224 90.3564 120.213 91.6161C120.213 92.1861 120.213 92.6592 120.213 93.0069C120.213 93.1867 120.196 93.3662 120.162 93.5427Z" fill="#E0E0E0"/>
<path d="M102.03 70.2866C96.296 78.2039 89.7068 85.6253 83.9783 93.5426L102.03 70.2866Z" fill="white"/>
<path d="M83.9839 93.5429C83.9839 93.5429 84.0238 93.446 84.1321 93.2807L84.6166 92.5739C85.0384 91.9583 85.6711 91.0862 86.4691 90.0203C88.0594 87.8771 90.3337 84.9815 92.8873 81.818C95.4409 78.6545 97.738 75.7817 99.3682 73.6784L101.3 71.1875L101.831 70.5092C101.956 70.361 102.024 70.2812 102.036 70.2869C101.994 70.3798 101.943 70.4677 101.882 70.5491L101.397 71.2559C100.976 71.8715 100.343 72.7436 99.5449 73.8152C97.9546 75.9527 95.6803 78.8483 93.1267 82.0118C90.5731 85.1753 88.2817 88.0481 86.6458 90.1514L84.7135 92.648L84.1834 93.3206C84.1258 93.4022 84.0588 93.4768 83.9839 93.5429Z" fill="#E0E0E0"/>
<path d="M102.492 93.5429C102.423 93.5942 98.2225 88.413 93.1153 81.9948C88.0081 75.5766 83.9155 70.304 83.9953 70.247C84.0751 70.19 88.2589 75.377 93.3718 81.8009C98.4847 88.2248 102.56 93.4802 102.492 93.5429Z" fill="#E0E0E0"/>
<path d="M80.5925 70.2984C80.5925 70.8711 80.4226 71.431 80.1045 71.9071C79.7863 72.3833 79.3341 72.7545 78.805 72.9736C78.2759 73.1928 77.6937 73.2501 77.132 73.1384C76.5703 73.0267 76.0543 72.7509 75.6494 72.3459C75.2444 71.941 74.9686 71.425 74.8569 70.8633C74.7452 70.3016 74.8025 69.7194 75.0217 69.1903C75.2409 68.6612 75.612 68.209 76.0882 67.8908C76.5643 67.5727 77.1242 67.4028 77.6969 67.4028C78.4644 67.4043 79.2 67.7099 79.7427 68.2526C80.2854 68.7953 80.591 69.5309 80.5925 70.2984Z" fill="#E0E0E0"/>
<path d="M127.954 63.2701C127.954 63.8428 127.784 64.4026 127.466 64.8788C127.148 65.355 126.695 65.7261 126.166 65.9453C125.637 66.1645 125.055 66.2218 124.493 66.1101C123.932 65.9983 123.416 65.7226 123.011 65.3176C122.606 64.9127 122.33 64.3967 122.218 63.835C122.107 63.2733 122.164 62.6911 122.383 62.162C122.602 61.6329 122.973 61.1807 123.449 60.8625C123.926 60.5443 124.485 60.3745 125.058 60.3745C125.826 60.376 126.561 60.6816 127.104 61.2243C127.647 61.767 127.952 62.5026 127.954 63.2701Z" fill="#E0E0E0"/>
<path d="M241.224 83.4365H207.856V131.807H241.224V83.4365Z" fill="#E0E0E0"/>
<path d="M239.554 83.4365H206.186V131.807H239.554V83.4365Z" fill="#F5F5F5"/>
<path d="M235.41 88.6748H210.33V126.568H235.41V88.6748Z" fill="white"/>
<path d="M235.41 126.569C235.41 126.569 235.41 126.5 235.41 126.381C235.41 126.261 235.41 126.078 235.41 125.845C235.41 125.366 235.41 124.671 235.41 123.764C235.41 121.952 235.41 119.301 235.41 115.961C235.41 109.281 235.41 99.8186 235.37 88.6751L235.456 88.7606H210.33L210.421 88.6694C210.421 102.965 210.421 116.143 210.421 126.563L210.347 126.489L228.587 126.529H233.632H234.954H235.416H234.971H233.66H228.633L210.336 126.563H210.262V126.495C210.262 116.075 210.262 102.897 210.262 88.601V88.5098H210.33H235.41H235.49V88.5896C235.49 99.7559 235.461 109.235 235.45 115.95C235.45 119.284 235.45 121.923 235.45 123.736C235.45 124.631 235.45 125.32 235.45 125.793C235.45 126.027 235.45 126.198 235.45 126.324L235.41 126.569Z" fill="#E0E0E0"/>
<path d="M239.645 83.4365C239.484 83.7435 239.293 84.0337 239.075 84.3029C238.688 84.8216 238.135 85.5227 237.508 86.2865C236.881 87.0503 236.294 87.7229 235.86 88.2074C235.639 88.4787 235.393 88.7287 235.125 88.9541C235.315 88.6601 235.529 88.3818 235.764 88.1219L237.371 86.1725L238.973 84.2231C239.177 83.9448 239.402 83.6819 239.645 83.4365Z" fill="#E0E0E0"/>
<path d="M235.536 126.443C236.781 128.427 238.247 130.263 239.907 131.915L235.536 126.443Z" fill="white"/>
<path d="M239.907 131.915C239.63 131.712 239.376 131.479 239.149 131.22C238.566 130.63 238.015 130.009 237.496 129.362C236.978 128.714 236.493 128.041 236.043 127.344C235.842 127.063 235.672 126.761 235.536 126.443C235.76 126.704 235.965 126.98 236.151 127.27C236.516 127.789 237.035 128.49 237.639 129.248C238.243 130.006 238.819 130.661 239.241 131.134C239.483 131.377 239.706 131.638 239.907 131.915Z" fill="#E0E0E0"/>
<path d="M206.181 131.767L210.552 126.375L206.181 131.767Z" fill="white"/>
<path d="M210.552 126.375C210.587 126.375 209.64 127.64 208.438 129.128C207.725 130.047 206.964 130.928 206.158 131.767C207.52 129.894 208.979 128.095 210.53 126.375H210.552Z" fill="#E0E0E0"/>
<path d="M206.186 83.4365C206.935 84.2459 207.643 85.0925 208.307 85.973C209.014 86.8194 209.675 87.7042 210.284 88.6235C209.533 87.8103 208.825 86.9579 208.164 86.0699C207.455 85.2309 206.794 84.3516 206.186 83.4365Z" fill="#E0E0E0"/>
<path d="M227.595 96.3701H219.199V120.213H227.595V96.3701Z" fill="#E0E0E0"/>
<path d="M233.534 32.0411L228.757 32.0669L228.886 55.8355L233.662 55.8097L233.534 32.0411Z" fill="#E0E0E0"/>
<path d="M199.745 32.104L187.376 32.1709L187.447 45.2921L199.816 45.2252L199.745 32.104Z" fill="#EBEBEB"/>
<path d="M212.051 32.0434L199.682 32.1104L199.753 45.2316L212.122 45.1646L212.051 32.0434Z" fill="#F5F5F5"/>
<path d="M187.393 35.8077C195.613 35.8761 203.855 35.8077 212.074 35.6937C212.109 35.6937 212.142 35.6798 212.167 35.6553C212.192 35.6307 212.205 35.5973 212.205 35.5626C212.205 35.5278 212.192 35.4944 212.167 35.4699C212.142 35.4453 212.109 35.4315 212.074 35.4315C203.847 35.3859 195.62 35.4353 187.393 35.5797C187.363 35.5797 187.334 35.5917 187.313 35.613C187.291 35.6344 187.279 35.6634 187.279 35.6937C187.279 35.7239 187.291 35.7529 187.313 35.7743C187.334 35.7956 187.363 35.8077 187.393 35.8077Z" fill="#E0E0E0"/>
<path d="M202.135 45.0132L179.66 45.1348L179.718 55.8278L202.193 55.7062L202.135 45.0132Z" fill="#EBEBEB"/>
<path d="M224.507 44.8921L202.032 45.0137L202.09 55.7067L224.564 55.5851L224.507 44.8921Z" fill="#F5F5F5"/>
<path d="M179.676 48.1137C194.61 48.2847 209.589 48.1137 224.517 47.8914C224.552 47.8914 224.586 47.8776 224.61 47.853C224.635 47.8284 224.649 47.7951 224.649 47.7603C224.649 47.7255 224.635 47.6922 224.61 47.6676C224.586 47.643 224.552 47.6292 224.517 47.6292C209.583 47.5494 194.604 47.5608 179.676 47.8857C179.645 47.8857 179.616 47.8977 179.595 47.9191C179.574 47.9405 179.562 47.9695 179.562 47.9997C179.562 48.0299 179.574 48.0589 179.595 48.0803C179.616 48.1017 179.645 48.1137 179.676 48.1137Z" fill="#E0E0E0"/>
<path d="M258.347 55.8315H171.274V59.6619H258.347V55.8315Z" fill="#E0E0E0"/>
<path d="M189.063 57.6729H185.529V70.743H189.063V57.6729Z" fill="#E0E0E0"/>
<path d="M241.828 57.6729H238.294V70.743H241.828V57.6729Z" fill="#E0E0E0"/>
<path d="M238.194 23.1807L233.417 23.2065L233.594 55.8956L238.371 55.8697L238.194 23.1807Z" fill="#EBEBEB"/>
<path d="M245.66 29.268L238.238 29.3081L238.382 55.8013L245.803 55.7612L245.66 29.268Z" fill="#F5F5F5"/>
<path d="M245.607 34.377C243.14 34.5512 240.664 34.5512 238.197 34.377C240.665 34.2103 243.14 34.2103 245.607 34.377Z" fill="#E0E0E0"/>
<path d="M245.607 33.2651C243.14 33.4394 240.664 33.4394 238.197 33.2651C240.665 33.0985 243.14 33.0985 245.607 33.2651Z" fill="#E0E0E0"/>
<path d="M245.607 51.7788C243.14 51.9531 240.664 51.9531 238.197 51.7788C240.665 51.6121 243.14 51.6121 245.607 51.7788Z" fill="#E0E0E0"/>
<path d="M245.607 50.6675C243.14 50.8417 240.664 50.8417 238.197 50.6675C240.665 50.5008 243.14 50.5008 245.607 50.6675Z" fill="#E0E0E0"/>
<path d="M242.016 48.239C241.942 48.239 241.885 45.5657 241.885 42.2711C241.885 38.9765 241.942 36.3032 242.016 36.3032C242.09 36.3032 242.142 38.9765 242.142 42.2711C242.142 45.5657 242.085 48.239 242.016 48.239Z" fill="#E0E0E0"/>
<path d="M253.764 35.7788H245.687V55.7744H253.764V35.7788Z" fill="#EBEBEB"/>
<path d="M249.956 50.5935C249.716 50.6075 249.475 50.5706 249.25 50.4851C249.025 50.3996 248.82 50.2675 248.65 50.0975C248.479 49.9274 248.346 49.7232 248.26 49.4983C248.174 49.2734 248.136 49.0328 248.15 48.7923C248.137 48.5302 248.19 48.269 248.304 48.0329C248.419 47.7968 248.591 47.5934 248.805 47.4414L248.987 47.6979C248.816 47.8229 248.678 47.9881 248.586 48.179C248.493 48.3698 248.449 48.5804 248.457 48.7923C248.457 49.1899 248.615 49.5712 248.896 49.8523C249.178 50.1335 249.559 50.2914 249.956 50.2914C250.354 50.2914 250.735 50.1335 251.016 49.8523C251.298 49.5712 251.456 49.1899 251.456 48.7923C251.464 48.5798 251.419 48.3685 251.326 48.1774C251.232 47.9864 251.093 47.8216 250.92 47.6979L251.108 47.4414C251.319 47.5955 251.489 47.7994 251.603 48.0352C251.716 48.2709 251.769 48.531 251.758 48.7923C251.771 49.0323 251.733 49.2724 251.647 49.4969C251.562 49.7214 251.429 49.9253 251.259 50.0952C251.089 50.2652 250.886 50.3974 250.661 50.4833C250.437 50.5691 250.196 50.6067 249.956 50.5935Z" fill="#FAFAFA"/>
<path d="M251.302 46.9454L251.034 46.7915C251.314 46.4229 251.464 45.9719 251.461 45.509C251.461 44.7623 251.193 44.4602 250.794 44.4602C249.757 44.4602 250.521 46.82 249.124 46.82C248.588 46.82 248.15 46.3697 248.15 45.4691C248.143 45.0371 248.264 44.6126 248.497 44.2493L248.771 44.4089C248.556 44.7222 248.444 45.0949 248.452 45.4748C248.452 46.1702 248.737 46.478 249.119 46.478C250.184 46.478 249.432 44.1182 250.789 44.1182C251.359 44.1182 251.758 44.6198 251.758 45.5261C251.775 46.0377 251.614 46.5395 251.302 46.9454Z" fill="#FAFAFA"/>
<path d="M251.302 43.6905L251.034 43.5366C251.314 43.168 251.464 42.717 251.461 42.2541C251.461 41.5074 251.193 41.2053 250.794 41.2053C249.757 41.2053 250.521 43.5594 249.124 43.5594C248.588 43.5594 248.15 43.1148 248.15 42.2142C248.143 41.7822 248.264 41.3577 248.497 40.9944L248.771 41.1483C248.557 41.4641 248.445 41.8383 248.452 42.2199C248.452 42.9153 248.737 43.2231 249.119 43.2231C250.184 43.2231 249.432 40.8633 250.789 40.8633C251.359 40.8633 251.758 41.3592 251.758 42.2655C251.776 42.779 251.615 43.2829 251.302 43.6905Z" fill="#FAFAFA"/>
<path d="M235.735 30.1473C236.494 30.1473 237.109 29.5323 237.109 28.7736C237.109 28.0149 236.494 27.3999 235.735 27.3999C234.976 27.3999 234.361 28.0149 234.361 28.7736C234.361 29.5323 234.976 30.1473 235.735 30.1473Z" fill="#E0E0E0"/>
<path d="M236.157 32.5474H235.307V51.9958H236.157V32.5474Z" fill="#E0E0E0"/>
<path d="M268.362 258.78C268.362 258.86 213.305 258.928 145.407 258.928C77.5086 258.928 22.4409 258.871 22.4409 258.78C22.4409 258.689 77.4858 258.632 145.407 258.632C213.328 258.632 268.362 258.712 268.362 258.78Z" fill="#263238"/>
<path d="M89.0227 62.8368C79.8742 77.2236 80.4727 97.1736 90.4705 110.985C97.1338 120.196 107.126 126.375 115.06 134.503C122.995 142.631 129.025 154.63 124.836 165.197C120.572 175.953 108.083 180.325 98.7355 187.142C88.4216 194.654 81.4197 205.871 79.2005 218.436C76.9813 231.001 79.7172 243.937 86.8339 254.528H183.973C183.973 254.528 201.039 222.009 179.1 197.22C157.16 172.431 145.379 172.032 146.188 155.775C146.997 139.519 158.375 134.246 164.878 128.147C171.382 122.048 203.068 107.838 184.378 62.8311L89.0227 62.8368Z" fill="#FAFAFA"/>
<path d="M89.0226 62.8369H90.6927H95.6175H114.576L184.378 62.7856H184.452V62.854C185.883 66.2619 187.101 69.7551 188.1 73.3135C189.149 77.0392 189.84 80.8566 190.163 84.7135C190.5 88.7453 190.293 92.8039 189.548 96.7804C188.73 100.903 187.247 104.864 185.159 108.511C184.077 110.371 182.853 112.145 181.499 113.818C180.118 115.513 178.623 117.112 177.025 118.606C175.407 120.126 173.712 121.563 171.946 122.909C170.179 124.277 168.332 125.565 166.531 126.933C165.631 127.612 164.821 128.376 163.943 129.139C163.066 129.903 162.194 130.616 161.293 131.334C159.497 132.77 157.685 134.184 155.975 135.774C152.406 138.868 149.663 142.801 147.995 147.22C147.193 149.486 146.687 151.846 146.49 154.242C146.439 154.812 146.359 155.439 146.336 156.043C146.313 156.648 146.291 157.252 146.336 157.856C146.349 159.069 146.471 160.279 146.701 161.47C147.153 163.884 148.138 166.166 149.585 168.15C151.074 170.134 152.76 171.962 154.618 173.605C158.306 176.974 162.222 180.194 165.967 183.671C169.712 187.148 173.377 190.773 176.911 194.61C178.714 196.508 180.401 198.515 181.961 200.617C183.531 202.746 184.896 205.019 186.037 207.406C188.343 212.243 189.761 217.457 190.22 222.796C190.685 228.209 190.367 233.662 189.274 238.984C188.743 241.673 188.046 244.327 187.188 246.93C186.344 249.555 185.316 252.117 184.11 254.596L184.07 254.676H86.754L86.7141 254.613C82.1588 247.755 79.365 239.879 78.5802 231.682C77.7906 223.809 78.9454 215.863 81.9432 208.54C84.7924 201.541 89.1794 195.272 94.7796 190.198C97.4972 187.799 100.432 185.658 103.546 183.802C106.579 181.921 109.64 180.177 112.529 178.273C115.422 176.465 118.08 174.306 120.441 171.844C122.696 169.426 124.369 166.525 125.332 163.362C126.175 160.276 126.308 157.039 125.719 153.894C125.157 150.86 124.144 147.926 122.715 145.191C121.348 142.556 119.709 140.073 117.825 137.781C116.006 135.581 114.028 133.518 111.908 131.607C107.798 127.823 103.586 124.511 99.8013 121.108C97.9032 119.398 96.1077 117.688 94.449 115.938C92.8413 114.225 91.3593 112.398 90.0144 110.472C87.5831 106.939 85.7087 103.054 84.4569 98.9521C83.3604 95.4099 82.7244 91.7413 82.5645 88.0366C82.4847 87.193 82.5189 86.3608 82.5189 85.5457C82.5189 84.7306 82.5189 83.9383 82.593 83.1688C82.6671 82.3993 82.707 81.6469 82.764 80.8888C82.821 80.1307 82.9749 79.4524 83.0718 78.7627C83.7015 74.5641 84.9864 70.4903 86.8794 66.6901C87.1358 66.1023 87.429 65.5311 87.7572 64.9801L88.4583 63.7888C88.8288 63.1561 89.0283 62.8369 89.0283 62.8369L88.4583 63.8059L87.78 64.9801C87.4596 65.5336 87.1704 66.1045 86.9136 66.6901C85.0377 70.4996 83.7684 74.5786 83.1516 78.7798C83.0547 79.4638 82.9407 80.1706 82.8552 80.8945C82.7697 81.6184 82.7412 82.3765 82.6842 83.146C82.6272 83.9155 82.6272 84.7078 82.6215 85.5172C82.6158 86.3266 82.593 87.1588 82.6728 88.0024C82.8377 91.6948 83.4795 95.3503 84.5823 98.878C85.8326 102.965 87.7052 106.835 90.1341 110.352C91.4757 112.27 92.9559 114.088 94.563 115.79C96.216 117.546 98.0115 119.256 99.9096 120.92C103.694 124.34 107.89 127.617 112.028 131.408C114.164 133.333 116.157 135.411 117.99 137.627C119.885 139.936 121.534 142.436 122.909 145.088C124.352 147.84 125.374 150.793 125.941 153.849C126.539 157.027 126.406 160.3 125.554 163.419C124.587 166.619 122.898 169.554 120.618 171.998C118.245 174.474 115.576 176.648 112.672 178.473C109.771 180.382 106.71 182.127 103.683 184.008C100.582 185.858 97.6588 187.991 94.9506 190.38C89.3849 195.428 85.0235 201.662 82.1883 208.62C79.2086 215.905 78.0636 223.811 78.8538 231.642C79.6387 239.792 82.4186 247.622 86.9478 254.442L86.8338 254.38H183.973L183.842 254.46C185.046 251.986 186.071 249.43 186.909 246.81C187.763 244.218 188.456 241.576 188.983 238.899C190.071 233.602 190.388 228.177 189.924 222.79C189.473 217.48 188.065 212.295 185.769 207.486C184.636 205.116 183.283 202.859 181.727 200.743C180.17 198.651 178.492 196.652 176.7 194.758C173.185 190.931 169.543 187.291 165.773 183.837C162.034 180.365 158.129 177.15 154.43 173.765C152.558 172.108 150.856 170.267 149.351 168.27C147.876 166.262 146.866 163.951 146.393 161.504C146.165 160.295 146.041 159.069 146.023 157.839C145.994 157.229 146.023 156.619 146.023 156.009C146.023 155.399 146.125 154.795 146.171 154.191C146.38 151.781 146.897 149.407 147.71 147.129C149.393 142.671 152.161 138.704 155.764 135.586C157.474 134.001 159.304 132.565 161.099 131.134C162 130.416 162.883 129.692 163.744 128.951C164.605 128.21 165.454 127.412 166.343 126.728C168.156 125.36 169.997 124.072 171.758 122.71C173.518 121.369 175.21 119.94 176.825 118.429C178.413 116.942 179.9 115.353 181.277 113.67C182.62 112.003 183.838 110.238 184.919 108.391C186.996 104.77 188.471 100.835 189.286 96.7405C190.027 92.7963 190.236 88.7704 189.907 84.7705C189.588 80.9142 188.903 77.0969 187.861 73.3705C186.876 69.8022 185.673 66.2977 184.258 62.8768L184.355 62.9395L114.593 62.8882H95.6232H90.687L89.0226 62.8369Z" fill="#263238"/>
<path d="M180.502 89.2221C194.809 91.5762 172.254 116.918 159.48 126.916C152.07 132.702 144.147 138.983 140.636 147.693C136.646 157.576 139.604 168.68 137.678 178.621C137.616 178.964 137.426 179.27 137.147 179.479C136.869 179.688 136.521 179.784 136.175 179.747C135.828 179.71 135.509 179.543 135.28 179.281C135.051 179.018 134.93 178.678 134.942 178.33C135.033 171.804 134.862 165.283 133.802 158.859C132.268 149.739 128.769 140.739 122.402 134.064C117.186 128.609 110.352 124.99 104.794 119.894C96.6776 112.455 88.3385 102.862 87.5234 91.884C87.5234 91.884 103.107 79.344 111.76 80.9115C121.872 82.764 131.824 98.3649 147.487 96.5808C158.386 95.3325 163.909 86.4975 180.502 89.2221Z" fill="#136AFD"/>
<path d="M181.773 224.854C181.414 221.274 180.456 217.227 177.281 215.54C175.36 214.514 173.018 214.628 170.909 215.181C168.8 215.734 166.822 216.697 164.736 217.318C160.588 218.538 156.159 218.396 152.099 216.914C148.217 215.489 144.888 212.924 141.269 210.883C137.649 208.843 133.448 207.349 129.436 208.347C122.516 210.057 118.913 218.401 112.073 220.414C109.03 221.303 105.763 220.801 102.674 220.106C99.5846 219.41 96.4781 218.504 93.3146 218.624C90.8294 218.715 88.2473 219.576 86.5088 221.274L86.4632 221.326C86.1738 221.609 85.9105 221.918 85.6766 222.249C83.5562 225.099 83.2142 228.878 83.8697 232.332C84.5993 236.203 86.4062 239.776 88.3442 243.202C90.6242 247.238 93.2234 251.251 96.9968 253.941C101.659 257.264 107.513 254.973 113.219 255.423C126.517 256.472 140.824 257.184 154.128 256.158C161.156 255.588 167.74 256.375 173.314 252.06C177.236 249.028 179.789 244.456 181.021 239.657C182.252 234.857 182.269 229.784 181.773 224.854Z" fill="#136AFD"/>
<g opacity="0.24">
<path d="M156.67 218.002C155.923 219.142 155.599 220.693 156.322 221.856C157.046 223.018 158.032 224.084 158.34 225.424C158.836 227.521 157.571 229.573 156.63 231.517C154.889 234.992 154.232 238.91 154.744 242.763C155.283 246.629 157.279 250.142 160.324 252.584C161.675 253.627 163.43 254.437 165.061 253.924C166.594 253.445 167.58 251.889 167.911 250.31C168.241 248.731 167.962 247.107 167.762 245.516C166.834 238.105 167.026 230.595 168.332 223.241C168.549 222.015 168.754 220.613 167.979 219.638C167.42 219.071 166.71 218.675 165.933 218.498C162.969 217.512 159.771 218.607 156.699 218.025" fill="black"/>
</g>
<path d="M79.7031 258.94C79.7031 258.94 79.4352 254.482 85.2492 251.997H187.422C187.422 251.997 192.751 254.699 193.407 258.837L79.7031 258.94Z" fill="#263238"/>
<path d="M185.25 63.3784L185.085 63.4525L89.0113 62.8369C89.0113 62.8369 88.6693 62.6203 88.162 62.2156C87.5631 61.7464 87.1261 61.1015 86.9125 60.3713C86.6988 59.6411 86.7191 58.8623 86.9706 58.1443C87.2221 57.4263 87.6922 56.805 88.3148 56.3677C88.9374 55.9305 89.6812 55.6991 90.442 55.7062L183.694 56.4586C187.53 56.4928 188.739 61.7368 185.25 63.3784Z" fill="#263238"/>
<g opacity="0.24">
<path d="M169.86 100.03C170.054 100.4 169.33 101.17 167.956 102.424C166.583 103.678 164.536 105.325 161.994 107.394C158.942 109.916 155.702 112.202 152.304 114.234C150.193 115.456 147.972 116.477 145.669 117.283C144.422 117.715 143.148 118.067 141.856 118.338C140.499 118.626 139.121 118.805 137.735 118.874C134.927 119.027 132.115 118.64 129.453 117.734C127.099 116.878 124.862 115.729 122.795 114.314C120.88 113.048 119.233 111.794 117.665 110.592C116.098 109.389 114.701 108.232 113.436 107.137C108.391 102.766 105.735 99.5507 106.248 98.9294C106.761 98.3081 110.352 100.332 115.938 103.752L120.498 106.545C122.134 107.536 123.884 108.637 125.674 109.651C127.45 110.694 129.332 111.544 131.288 112.188C133.29 112.787 135.381 113.034 137.467 112.917C141.845 112.689 146.091 111.15 149.768 109.372C153.444 107.593 156.773 105.519 159.657 103.9C161.94 102.553 164.326 101.39 166.793 100.423C168.6 99.7901 169.695 99.6705 169.86 100.03Z" fill="black"/>
</g>
<path d="M135.01 190.528C135.414 190.368 135.865 190.372 136.265 190.542C136.666 190.711 136.983 191.031 137.149 191.433C137.315 191.835 137.316 192.286 137.152 192.688C136.988 193.091 136.672 193.412 136.272 193.583C135.873 193.755 135.422 193.762 135.017 193.603C134.613 193.444 134.287 193.132 134.111 192.735C133.934 192.338 133.921 191.887 134.075 191.481C134.228 191.074 134.536 190.744 134.93 190.562" fill="#136AFD"/>
<path d="M100.651 115.927C100.526 115.824 100.411 115.71 100.309 115.585L99.3794 114.57C98.9861 114.12 98.4674 113.596 97.9373 112.929L96.1247 110.649C95.5034 109.771 94.8023 108.825 94.0955 107.799L93.0524 106.14C92.8757 105.855 92.6876 105.57 92.5166 105.268L92.015 104.344C90.498 101.656 89.3096 98.795 88.4753 95.8229C87.637 92.8534 87.1848 89.7881 87.1301 86.7029C87.1301 85.9904 87.17 85.3007 87.1814 84.6224C87.1814 84.2861 87.1814 83.9555 87.227 83.6306C87.2726 83.3057 87.2954 82.9865 87.3296 82.673C87.4037 82.046 87.4493 81.4361 87.5348 80.8547C87.6203 80.2733 87.74 79.7147 87.8369 79.196C87.9965 78.1301 88.2815 77.201 88.481 76.346C88.5893 75.9356 88.6748 75.548 88.7831 75.206L89.0966 74.2541L89.5355 72.9488C89.5775 72.7934 89.6347 72.6426 89.7065 72.4985C89.6831 72.6575 89.6449 72.814 89.5925 72.9659C89.4956 73.2965 89.3702 73.7354 89.2049 74.2883L88.9199 75.2402C88.823 75.5879 88.7432 75.9755 88.6406 76.3802C88.4582 77.2067 88.1903 78.1415 88.0706 79.2302C87.9794 79.7546 87.8882 80.3075 87.7913 80.8832C87.6944 81.4589 87.6716 82.0631 87.6032 82.6901C87.6032 83.0036 87.5405 83.3171 87.5063 83.642C87.4721 83.9669 87.5063 84.2975 87.4721 84.6281C87.4721 85.3007 87.4265 85.9847 87.4322 86.6915C87.4879 89.7586 87.9342 92.806 88.7603 95.7602C89.5902 98.7104 90.7629 101.553 92.2544 104.23C92.4197 104.538 92.585 104.846 92.7446 105.154C92.9042 105.462 93.1037 105.724 93.2747 106.02L94.3007 107.679C94.9961 108.728 95.6858 109.674 96.29 110.529L98.0684 112.809C98.5814 113.487 99.0887 114.017 99.4649 114.485L100.354 115.539C100.461 115.662 100.56 115.792 100.651 115.927Z" fill="#263238"/>
<path d="M95.2412 200.606C95.2694 200.54 95.3038 200.477 95.3438 200.418L95.6858 199.882C95.8397 199.643 96.0278 199.358 96.2558 199.016L96.6149 198.446C96.7574 198.257 96.9227 198.069 97.088 197.876L98.228 196.508C98.6669 196.034 99.1685 195.544 99.6986 195.008C100.928 193.825 102.234 192.724 103.609 191.714C106.636 189.434 110.54 187.154 114.769 184.481C116.993 183.11 119.131 181.604 121.171 179.972C123.358 178.229 125.291 176.188 126.91 173.907C129.875 169.352 131.486 164.049 131.556 158.614C131.628 154.184 130.886 149.779 129.367 145.618C128.361 142.81 127.098 140.1 125.594 137.524C125.064 136.606 124.63 135.911 124.334 135.438L123.998 134.902C123.924 134.782 123.889 134.714 123.889 134.714C123.94 134.765 123.984 134.822 124.021 134.885L124.385 135.409C124.699 135.865 125.149 136.549 125.691 137.467C127.241 140.029 128.539 142.736 129.567 145.55C131.127 149.728 131.9 154.16 131.847 158.62C131.822 159.906 131.718 161.189 131.533 162.461C131.348 163.793 131.068 165.109 130.695 166.4C129.917 169.134 128.706 171.726 127.11 174.078C125.474 176.383 123.52 178.446 121.307 180.206C119.256 181.839 117.107 183.347 114.872 184.72C110.626 187.37 106.715 189.628 103.689 191.891C102.314 192.888 101.004 193.971 99.767 195.134C99.2369 195.664 98.7296 196.143 98.285 196.61L97.145 197.95C96.974 198.155 96.8087 198.343 96.6662 198.52L96.2957 199.061L95.7257 199.91L95.3609 200.429C95.3258 200.491 95.2858 200.55 95.2412 200.606Z" fill="#263238"/>
<path d="M89.9403 210.678C89.9059 210.771 89.8639 210.86 89.8149 210.946L89.4045 211.67C89.2221 211.978 89.0055 212.365 88.7832 212.81C88.5609 213.254 88.2759 213.779 88.0365 214.377C87.9111 214.674 87.7743 214.982 87.6375 215.301C87.5007 215.62 87.3867 215.973 87.2499 216.327C86.9763 217.034 86.7597 217.809 86.5089 218.607C85.5174 222.18 85.1757 225.902 85.5 229.596C85.5969 230.44 85.6653 231.249 85.8135 231.99C85.8762 232.361 85.9275 232.726 86.0016 233.068C86.0757 233.41 86.1555 233.74 86.2296 234.054C86.355 234.686 86.5431 235.239 86.6799 235.73C86.8167 236.22 86.9535 236.642 87.0789 236.984L87.3468 237.77C87.3852 237.859 87.4102 237.953 87.4209 238.049C87.3659 237.97 87.3218 237.884 87.2898 237.793C87.2043 237.582 87.1017 237.331 86.9706 237.023C86.7983 236.618 86.648 236.203 86.5203 235.781C86.3664 235.291 86.1669 234.738 86.0244 234.105C85.9446 233.792 85.8648 233.461 85.7793 233.119C85.6938 232.777 85.6425 232.406 85.5684 232.036C85.4088 231.284 85.329 230.474 85.2264 229.625C84.8695 225.908 85.2137 222.157 86.241 218.567C86.4975 217.746 86.7255 216.965 87.0162 216.258C87.1587 215.905 87.2727 215.557 87.4209 215.232L87.8427 214.303C88.0935 213.733 88.4127 213.203 88.635 212.747C88.8358 212.355 89.0585 211.974 89.3019 211.607L89.7579 210.906C89.8719 210.752 89.9289 210.672 89.9403 210.678Z" fill="#263238"/>
<path d="M160.409 224.38L160.295 224.46L159.942 224.683L158.557 225.515L157.554 226.085C157.178 226.296 156.761 226.489 156.317 226.712C155.416 227.145 154.424 227.698 153.25 228.142L151.426 228.889C150.794 229.14 150.104 229.339 149.408 229.579C148.023 230.086 146.484 230.451 144.883 230.867C137.85 232.514 130.555 232.708 123.445 231.437C121.815 231.106 120.264 230.821 118.851 230.388C118.144 230.183 117.449 230.023 116.799 229.818L114.941 229.14C113.749 228.758 112.723 228.262 111.806 227.875C111.35 227.675 110.922 227.498 110.54 227.305L109.503 226.763L108.078 226.005L107.713 225.8L107.593 225.726C107.593 225.726 107.645 225.726 107.73 225.777L108.106 225.954L109.554 226.66L110.597 227.173C110.985 227.356 111.418 227.521 111.874 227.715C112.792 228.08 113.818 228.564 115.015 228.929L116.85 229.596C117.5 229.813 118.195 229.966 118.902 230.166C120.31 230.588 121.855 230.856 123.462 231.181C130.539 232.406 137.79 232.212 144.791 230.611C146.387 230.2 147.921 229.852 149.306 229.357C150.001 229.123 150.685 228.935 151.318 228.684L153.142 227.96C154.316 227.527 155.314 226.991 156.214 226.575C156.659 226.358 157.081 226.17 157.457 226.005L158.471 225.435L159.879 224.648L160.25 224.455C160.364 224.392 160.409 224.375 160.409 224.38Z" fill="#263238"/>
<path d="M166.354 103.74C166.32 103.782 166.279 103.818 166.235 103.849L165.859 104.156C165.511 104.436 165.026 104.829 164.405 105.296C163.14 106.3 161.304 107.753 158.984 109.486C156.285 111.552 153.453 113.441 150.508 115.14C148.757 116.12 146.931 116.961 145.048 117.654C143.016 118.393 140.897 118.864 138.744 119.056C134.557 119.291 130.382 118.422 126.637 116.537C125.017 115.714 123.454 114.785 121.957 113.755C120.566 112.775 119.295 111.823 118.172 110.905C115.892 109.093 114.148 107.559 112.917 106.51L111.509 105.291L111.15 104.971L111.03 104.852C111.03 104.852 111.082 104.852 111.167 104.943L111.549 105.245L112.991 106.419C114.245 107.445 116.035 108.95 118.303 110.74C119.443 111.635 120.703 112.575 122.1 113.544C123.591 114.556 125.147 115.47 126.757 116.28C130.465 118.128 134.59 118.979 138.727 118.748C140.854 118.56 142.948 118.096 144.957 117.369C146.827 116.685 148.642 115.856 150.383 114.889C153.324 113.221 156.158 111.373 158.87 109.355C161.196 107.645 163.048 106.22 164.342 105.245L165.83 104.105L166.223 103.82C166.263 103.787 166.307 103.76 166.354 103.74Z" fill="#263238"/>
<g opacity="0.24">
<path d="M114.946 229.169C117.648 227.083 121.444 227.584 124.784 228.291C128.125 228.998 131.488 230.132 134.868 229.659C137.416 229.3 139.753 228.052 142.278 227.504C144.803 226.957 147.841 227.362 149.237 229.522C138.076 233.119 126.048 232.995 114.963 229.169" fill="black"/>
</g>
<path d="M209.19 213.699L196.935 199.956L196.81 216.663L200.503 227.379L163.784 233.746L162.228 204.772L159.583 182.542C159.426 181.217 159.712 179.877 160.396 178.731C161.081 177.586 162.126 176.699 163.368 176.21L173.474 172.22L187.724 174.83L193.452 177.008C195.854 177.922 197.995 179.412 199.688 181.345L216.925 201.056" fill="#136AFD"/>
<path d="M196.08 196.65C196.772 196.64 197.463 196.591 198.149 196.501C199.802 196.249 201.343 195.509 202.572 194.376C203.802 193.242 204.666 191.767 205.052 190.14C205.194 189.461 205.298 188.774 205.365 188.083C205.412 188.269 205.429 188.461 205.417 188.653C205.421 189.17 205.367 189.686 205.257 190.192C204.912 191.884 204.043 193.425 202.773 194.596C201.504 195.768 199.898 196.51 198.183 196.718C197.671 196.784 197.153 196.796 196.639 196.752C196.448 196.748 196.259 196.714 196.08 196.65Z" fill="white"/>
<path d="M197.146 215.95C197.231 215.95 197.254 210.159 197.197 203.022C197.14 195.886 197.02 190.101 196.935 190.101C196.849 190.101 196.827 195.886 196.884 203.028C196.941 210.17 197.06 215.95 197.146 215.95Z" fill="#263238"/>
<path d="M195.801 220.197L173.616 211.265C172.739 210.912 171.978 210.321 171.419 209.558C170.86 208.796 170.526 207.892 170.453 206.95L168.828 185.678C168.828 185.678 169.022 176.626 163.368 176.187L160.17 177.452C156.015 179.658 154.989 185.712 155.553 190.38C156.357 197.015 156.693 206.408 157.588 212.165C158.329 216.879 161.008 221.023 165.636 222.237L192.962 228.154L195.801 220.197Z" fill="#136AFD"/>
<path d="M169.147 188.92C169.185 189.08 169.207 189.242 169.216 189.405C169.25 189.753 169.301 190.22 169.358 190.807C169.472 192.055 169.632 193.811 169.826 195.966C170.02 198.12 170.236 200.748 170.487 203.621C170.544 204.345 170.607 205.08 170.669 205.832C170.713 206.598 170.809 207.36 170.954 208.112C171.109 208.874 171.495 209.568 172.06 210.102C172.668 210.636 173.359 211.067 174.106 211.378C180.223 214.023 185.86 216.212 189.952 217.745L194.815 219.535L196.137 220.02C196.292 220.071 196.442 220.134 196.587 220.208C196.426 220.178 196.268 220.134 196.114 220.077L194.775 219.643C193.635 219.256 191.925 218.68 189.884 217.933C185.763 216.451 180.12 214.297 173.981 211.663C173.205 211.337 172.487 210.887 171.855 210.33C171.249 209.754 170.835 209.006 170.669 208.186C170.522 207.422 170.429 206.649 170.39 205.872C170.327 205.114 170.27 204.379 170.213 203.655C169.991 200.805 169.786 198.183 169.643 195.994C169.501 193.805 169.358 192.078 169.267 190.83C169.227 190.26 169.199 189.77 169.182 189.422C169.156 189.256 169.144 189.088 169.147 188.92Z" fill="#263238"/>
<path d="M156.436 200.486C156.459 200.579 156.473 200.675 156.476 200.771L156.55 201.592C156.619 202.35 156.704 203.37 156.813 204.613C156.921 205.855 157.092 207.4 157.314 209.076C157.532 210.891 157.866 212.69 158.312 214.462C158.522 215.375 158.888 216.245 159.395 217.033C159.89 217.756 160.445 218.437 161.053 219.068C162.091 220.135 163.289 221.033 164.605 221.73C165.831 222.353 167.146 222.784 168.503 223.007C168.407 223.019 168.309 223.019 168.213 223.007C167.937 222.988 167.663 222.952 167.392 222.898C166.389 222.711 165.418 222.383 164.508 221.924C163.155 221.243 161.923 220.345 160.86 219.267C160.229 218.63 159.657 217.937 159.15 217.198C158.617 216.388 158.231 215.491 158.01 214.548C157.557 212.762 157.228 210.947 157.024 209.116C156.818 207.406 156.682 205.912 156.59 204.635C156.499 203.359 156.448 202.321 156.419 201.603C156.419 201.272 156.419 200.999 156.419 200.777C156.41 200.679 156.415 200.581 156.436 200.486Z" fill="#263238"/>
<path d="M165.921 215.369C165.98 214.953 166.117 214.553 166.326 214.189C166.783 213.28 167.417 212.472 168.19 211.812C168.963 211.151 169.86 210.651 170.829 210.341C171.222 210.191 171.64 210.12 172.06 210.13C171.687 210.286 171.307 210.423 170.92 210.541C170.004 210.895 169.154 211.402 168.406 212.04C167.661 212.679 167.027 213.438 166.531 214.286C166.132 214.941 165.967 215.386 165.921 215.369Z" fill="#263238"/>
<path d="M170.287 199.192C170.336 199.206 170.382 199.227 170.424 199.255L170.823 199.466C171.338 199.719 171.867 199.942 172.408 200.132C174.402 200.832 176.542 201.017 178.627 200.668C181.723 200.116 184.49 198.396 186.356 195.863C187.471 194.4 188.17 192.663 188.379 190.836C188.483 189.875 188.382 188.904 188.083 187.986C187.768 187.048 187.218 186.206 186.487 185.54C185.766 184.866 184.858 184.425 183.882 184.275C183.42 184.192 182.944 184.215 182.492 184.343C182.04 184.47 181.623 184.698 181.271 185.01C180.953 185.322 180.769 185.745 180.758 186.19C180.768 186.633 180.92 187.06 181.192 187.41C181.475 187.748 181.822 188.026 182.213 188.229C182.605 188.431 183.032 188.554 183.472 188.59C185.015 188.782 186.582 188.584 188.029 188.013C189.476 187.443 190.757 186.518 191.754 185.324C192.509 184.395 193.078 183.328 193.429 182.183C193.691 181.315 193.833 180.416 193.851 179.51C193.858 178.937 193.816 178.365 193.726 177.8C193.692 177.623 193.663 177.475 193.646 177.361C193.641 177.31 193.641 177.258 193.646 177.207C193.882 177.944 193.997 178.714 193.988 179.487C193.994 180.407 193.867 181.322 193.612 182.206C192.977 184.335 191.607 186.171 189.746 187.385C187.885 188.599 185.653 189.113 183.449 188.835C182.978 188.793 182.52 188.659 182.102 188.44C181.683 188.221 181.312 187.921 181.009 187.558C180.7 187.16 180.528 186.672 180.519 186.167C180.519 185.649 180.724 185.151 181.089 184.782C181.472 184.44 181.927 184.189 182.42 184.047C182.914 183.905 183.433 183.876 183.939 183.962C184.976 184.115 185.94 184.583 186.703 185.301C187.475 185.998 188.053 186.884 188.379 187.872C188.69 188.827 188.795 189.837 188.687 190.836C188.465 192.703 187.742 194.475 186.595 195.966C185.013 198.125 182.767 199.706 180.201 200.468C177.634 201.23 174.889 201.13 172.385 200.184C171.645 199.947 170.94 199.613 170.287 199.192Z" fill="white"/>
<path d="M155.752 193.521C155.849 193.35 155.972 193.196 156.117 193.065C156.482 192.679 156.882 192.33 157.314 192.022C158.769 191.022 160.462 190.422 162.222 190.283C163.188 190.174 164.164 190.215 165.118 190.403C165.892 190.564 166.642 190.828 167.346 191.189C167.819 191.428 168.272 191.702 168.703 192.01C168.869 192.112 169.019 192.239 169.147 192.386C169.113 192.432 168.452 191.93 167.255 191.378C165.695 190.654 163.964 190.378 162.256 190.58C160.541 190.715 158.885 191.269 157.434 192.193C156.334 192.928 155.792 193.561 155.752 193.521Z" fill="white"/>
<path d="M159.304 178.307C159.844 178.817 160.448 179.255 161.099 179.612C161.81 179.977 162.584 180.205 163.379 180.285C164.347 180.382 165.325 180.245 166.229 179.886C167.116 179.508 167.898 178.921 168.509 178.176C169.014 177.554 169.4 176.845 169.649 176.084C169.854 175.37 169.971 174.633 169.997 173.89C170.052 174.086 170.077 174.29 170.071 174.494C170.08 175.053 170.006 175.61 169.849 176.147C169.616 176.948 169.229 177.695 168.709 178.347C168.084 179.165 167.254 179.802 166.302 180.194C165.351 180.587 164.313 180.72 163.294 180.581C162.467 180.488 161.667 180.232 160.939 179.829C160.45 179.56 160.004 179.218 159.617 178.814C159.482 178.666 159.376 178.494 159.304 178.307Z" fill="white"/>
<path d="M178.638 213.288C178.639 213.146 178.654 213.005 178.684 212.866C178.763 212.471 178.895 212.087 179.077 211.726C179.802 210.399 180.979 209.375 182.394 208.842C184.478 208.014 186.783 207.931 188.921 208.608C190.095 208.956 191.44 209.389 192.341 210.535C192.567 210.828 192.71 211.176 192.754 211.544C192.799 211.911 192.742 212.283 192.592 212.621C192.248 213.281 191.691 213.805 191.013 214.109C190.358 214.433 189.64 214.612 188.909 214.633C188.184 214.669 187.469 214.446 186.892 214.006C186.625 213.779 186.407 213.499 186.253 213.184C186.098 212.87 186.009 212.527 185.991 212.177C185.954 211.522 186.057 210.867 186.293 210.256C187.152 208.178 188.788 206.517 190.853 205.627C192.223 205.017 193.724 204.758 195.219 204.875C195.764 204.916 196.3 205.029 196.815 205.211C196.815 205.251 196.245 205.063 195.208 204.989C193.969 204.922 192.73 205.108 191.565 205.536C190.401 205.965 189.336 206.626 188.436 207.48C187.601 208.28 186.949 209.253 186.527 210.33C186.306 210.905 186.21 211.521 186.247 212.137C186.264 212.449 186.344 212.754 186.484 213.033C186.623 213.312 186.818 213.56 187.057 213.761C187.578 214.162 188.224 214.364 188.881 214.331C189.566 214.313 190.239 214.146 190.853 213.841C191.473 213.565 191.982 213.089 192.301 212.49C192.429 212.199 192.477 211.879 192.439 211.563C192.401 211.247 192.278 210.947 192.084 210.695C191.687 210.193 191.177 209.791 190.597 209.52C190.034 209.251 189.448 209.032 188.847 208.865C186.766 208.192 184.517 208.25 182.474 209.03C181.089 209.531 179.924 210.501 179.179 211.772C178.933 212.251 178.751 212.761 178.638 213.288Z" fill="white"/>
<path d="M163.864 221.297C163.864 221.24 164.707 221.171 165.99 220.727C167.664 220.137 169.164 219.137 170.353 217.819C171.542 216.501 172.381 214.906 172.795 213.18C173.12 211.857 173.109 210.997 173.166 211.002C173.206 211.199 173.215 211.401 173.194 211.601C173.181 212.147 173.116 212.691 173.001 213.225C172.631 215.007 171.793 216.658 170.573 218.008C169.352 219.357 167.794 220.357 166.058 220.903C165.538 221.073 165.004 221.193 164.462 221.262C164.265 221.303 164.064 221.314 163.864 221.297Z" fill="white"/>
<path d="M156.67 204.761C156.755 204.714 156.845 204.677 156.938 204.653C157.12 204.596 157.383 204.516 157.73 204.425C158.717 204.165 159.738 204.061 160.757 204.117C161.465 204.17 162.158 204.342 162.809 204.624C163.567 204.951 164.227 205.47 164.724 206.129C165.27 206.877 165.534 207.793 165.471 208.717C165.434 209.208 165.284 209.684 165.032 210.108C164.777 210.554 164.374 210.897 163.892 211.077C163.638 211.163 163.366 211.181 163.103 211.129C162.84 211.077 162.595 210.957 162.393 210.78C162.051 210.403 161.865 209.91 161.874 209.401C161.845 208.493 162.024 207.59 162.399 206.762C162.919 205.582 163.818 204.609 164.954 203.999C166.09 203.389 167.398 203.175 168.669 203.393C168.942 203.435 169.211 203.502 169.472 203.593C169.649 203.661 169.74 203.701 169.735 203.712C169.729 203.724 169.353 203.593 168.652 203.507C167.661 203.387 166.656 203.516 165.727 203.883C164.352 204.435 163.252 205.509 162.667 206.87C162.318 207.661 162.153 208.52 162.182 209.384C162.17 209.82 162.325 210.244 162.615 210.569C162.779 210.708 162.976 210.803 163.186 210.843C163.397 210.883 163.615 210.867 163.818 210.797C164.24 210.641 164.595 210.343 164.821 209.954C165.048 209.57 165.184 209.139 165.22 208.694C165.28 207.838 165.04 206.987 164.542 206.289C164.079 205.661 163.46 205.166 162.746 204.852C162.123 204.569 161.456 204.392 160.774 204.328C159.777 204.253 158.775 204.324 157.799 204.539C157.063 204.681 156.682 204.784 156.67 204.761Z" fill="white"/>
<g opacity="0.3">
<path d="M189.422 217.66C187.051 216.32 184.731 215.289 182.252 214.166C179.772 213.043 177.338 211.589 175.714 209.401C172.653 205.274 173.001 199.317 169.871 195.248C170.077 197.984 170.28 200.721 170.481 203.461C170.669 205.969 170.287 208.454 171.901 210.159C173.263 211.595 175.919 212.695 177.8 213.317C181.579 214.565 185.649 216.417 189.422 217.66Z" fill="black"/>
</g>
<path d="M228 248.924C228 248.924 246.565 254.054 247.312 254.328C248.452 254.721 248.241 258.82 246.502 258.751C245.676 258.723 232.252 259.253 230.542 259.15C228.832 259.048 223.702 257.024 223.702 257.024L228 248.924Z" fill="#136AFD"/>
<path d="M235.712 256.01C235.941 255.327 236.216 254.661 236.533 254.015C236.932 253.417 237.37 252.846 237.844 252.305C237.183 252.666 236.635 253.203 236.259 253.855C235.883 254.508 235.694 255.251 235.712 256.004V256.01Z" fill="#263238"/>
<path d="M233.774 255.132C233.865 255.132 234.053 254.271 234.549 253.302C235.045 252.333 235.627 251.655 235.564 251.592C235.022 252.014 234.58 252.551 234.271 253.164C233.961 253.777 233.792 254.451 233.774 255.138V255.132Z" fill="#263238"/>
<path d="M231.99 254.647C232.081 253.983 232.226 253.327 232.423 252.686C232.714 252.082 233.052 251.5 233.432 250.948C232.843 251.344 232.39 251.911 232.132 252.572C231.875 253.233 231.825 253.957 231.99 254.647Z" fill="#263238"/>
<path d="M232.292 252.248C232.456 251.807 232.524 251.337 232.491 250.868C232.486 250.358 232.423 249.849 232.303 249.352C232.232 249.059 232.139 248.771 232.024 248.492C231.97 248.315 231.868 248.157 231.728 248.036C231.634 247.966 231.519 247.931 231.402 247.938C231.286 247.944 231.175 247.991 231.089 248.07C230.945 248.208 230.858 248.395 230.844 248.594C230.83 248.757 230.83 248.921 230.844 249.084C230.846 249.39 230.884 249.694 230.958 249.991C231.082 250.488 231.273 250.966 231.528 251.41C231.732 251.838 232.015 252.225 232.36 252.55C232.406 252.55 232.092 252.088 231.722 251.33C231.505 250.892 231.343 250.428 231.237 249.951C231.177 249.672 231.147 249.387 231.146 249.101C231.146 248.816 231.146 248.463 231.317 248.326C231.351 248.296 231.395 248.279 231.44 248.279C231.485 248.279 231.529 248.296 231.562 248.326C231.655 248.417 231.725 248.528 231.768 248.651C231.877 248.919 231.97 249.193 232.047 249.472C232.177 249.945 232.26 250.43 232.292 250.92C232.326 251.718 232.241 252.242 232.292 252.248Z" fill="#263238"/>
<path d="M232.269 252.059C231.891 251.902 231.481 251.835 231.072 251.866C230.628 251.865 230.186 251.919 229.755 252.025C229.49 252.085 229.233 252.179 228.992 252.305C228.84 252.382 228.717 252.506 228.642 252.66C228.567 252.813 228.543 252.986 228.576 253.154C228.618 253.314 228.702 253.46 228.819 253.577C228.937 253.694 229.082 253.778 229.242 253.821C229.516 253.889 229.802 253.889 230.075 253.821C230.514 253.72 230.926 253.526 231.283 253.251C231.621 253.024 231.913 252.736 232.144 252.401C231.801 252.602 231.472 252.825 231.158 253.068C230.813 253.305 230.426 253.473 230.018 253.564C229.791 253.621 229.554 253.621 229.328 253.564C229.221 253.537 229.123 253.482 229.044 253.405C228.965 253.328 228.907 253.232 228.878 253.125C228.86 253.021 228.878 252.914 228.927 252.82C228.977 252.726 229.055 252.651 229.151 252.607C229.363 252.49 229.589 252.402 229.824 252.344C230.233 252.228 230.653 252.155 231.078 252.128C231.802 252.037 232.258 252.111 232.269 252.059Z" fill="#263238"/>
<path d="M238.562 256.209C238.642 255.641 238.765 255.081 238.933 254.533C239.193 254.024 239.496 253.538 239.839 253.08C239.298 253.374 238.876 253.847 238.643 254.417C238.411 254.987 238.382 255.62 238.562 256.209Z" fill="#263238"/>
<path d="M225.612 257.07C225.837 257.212 226.078 257.327 226.33 257.412C227.004 257.668 227.693 257.881 228.393 258.05C230.721 258.558 233.102 258.784 235.484 258.723C238.266 258.689 240.774 258.563 242.592 258.489L244.741 258.375C245.005 258.371 245.268 258.344 245.527 258.295C245.266 258.254 245 258.241 244.735 258.255H242.586L235.484 258.392C233.124 258.453 230.764 258.262 228.445 257.822C226.666 257.463 225.634 257.007 225.612 257.07Z" fill="#263238"/>
<path d="M225.064 257.491C225.064 257.531 225.595 257.235 226.455 256.859C227.549 256.342 228.766 256.145 229.966 256.289C231.147 256.545 232.213 257.177 233.005 258.09C233.334 258.479 233.69 258.845 234.07 259.184C233.826 258.731 233.521 258.313 233.164 257.942C232.798 257.516 232.385 257.134 231.933 256.802C231.366 256.382 230.708 256.105 230.012 255.992C228.752 255.84 227.476 256.081 226.358 256.682C225.886 256.88 225.449 257.154 225.064 257.491Z" fill="#263238"/>
<path d="M208.272 243.8C208.272 243.8 190.705 255.303 190.078 255.77C189.132 256.483 190.215 259.886 191.856 259.299C192.631 259.019 207.372 254.915 208.956 254.3C210.541 253.684 214.81 250.23 214.81 250.23L208.272 243.8Z" fill="#136AFD"/>
<path d="M203.057 252.898C202.845 252.174 202.438 251.523 201.881 251.016C201.324 250.508 200.639 250.163 199.899 250.019C200.517 250.389 201.109 250.801 201.672 251.25C202.167 251.77 202.63 252.32 203.057 252.898Z" fill="#263238"/>
<path d="M204.63 251.473C204.406 250.822 204.042 250.229 203.562 249.736C203.082 249.243 202.498 248.863 201.854 248.623C201.808 248.702 202.578 249.193 203.336 249.945C204.094 250.697 204.55 251.518 204.63 251.473Z" fill="#263238"/>
<path d="M206.215 250.458C206.212 249.74 205.939 249.05 205.451 248.525C205.042 247.946 204.433 247.539 203.741 247.385C204.269 247.798 204.767 248.25 205.228 248.736C205.602 249.283 205.932 249.859 206.215 250.458Z" fill="#263238"/>
<path d="M205.2 248.275C205.246 248.275 205.006 247.779 204.807 246.958C204.687 246.482 204.616 245.995 204.596 245.505C204.576 245.216 204.576 244.927 204.596 244.638C204.594 244.508 204.627 244.38 204.693 244.268C204.717 244.229 204.756 244.201 204.801 244.191C204.846 244.18 204.893 244.187 204.932 244.211C205.132 244.291 205.234 244.633 205.331 244.906C205.415 245.177 205.472 245.456 205.502 245.738C205.546 246.227 205.531 246.719 205.456 247.203C205.337 248.035 205.171 248.543 205.217 248.56C205.452 248.152 205.607 247.703 205.673 247.237C205.782 246.738 205.821 246.226 205.787 245.716C205.764 245.41 205.709 245.108 205.622 244.815C205.575 244.657 205.518 244.503 205.451 244.353C205.375 244.167 205.233 244.014 205.052 243.926C204.946 243.877 204.826 243.866 204.714 243.896C204.601 243.927 204.503 243.996 204.436 244.091C204.342 244.25 204.293 244.431 204.294 244.615C204.231 245.427 204.324 246.244 204.567 247.021C204.687 247.479 204.903 247.906 205.2 248.275Z" fill="#263238"/>
<path d="M205.137 248.087C205.137 248.132 205.57 247.927 206.277 247.75C206.69 247.651 207.112 247.594 207.537 247.579C207.779 247.563 208.023 247.578 208.261 247.625C208.366 247.639 208.463 247.687 208.539 247.761C208.615 247.835 208.665 247.931 208.683 248.035C208.687 248.149 208.662 248.261 208.609 248.361C208.556 248.461 208.477 248.546 208.38 248.605C208.184 248.729 207.962 248.803 207.731 248.822C207.314 248.863 206.894 248.82 206.494 248.697C206.122 248.557 205.741 248.445 205.354 248.36C205.675 248.617 206.043 248.811 206.437 248.93C206.86 249.092 207.313 249.16 207.765 249.13C208.046 249.115 208.319 249.029 208.557 248.879C208.698 248.792 208.813 248.669 208.891 248.523C208.968 248.377 209.004 248.212 208.996 248.047C208.976 247.877 208.901 247.718 208.783 247.595C208.665 247.472 208.509 247.39 208.341 247.363C208.074 247.315 207.801 247.304 207.531 247.329C207.088 247.358 206.65 247.44 206.226 247.574C205.828 247.658 205.456 247.834 205.137 248.087Z" fill="#263238"/>
<path d="M194.091 258.666C194.091 258.694 194.387 258.489 194.524 257.988C194.66 257.332 194.542 256.649 194.193 256.078C194.024 255.772 193.834 255.479 193.623 255.2C193.452 254.963 193.251 254.748 193.025 254.562C192.863 254.428 192.664 254.347 192.455 254.328C192.307 254.328 192.232 254.357 192.232 254.374C192.232 254.391 192.546 254.402 192.871 254.733C193.062 254.927 193.233 255.141 193.378 255.371C193.583 255.646 193.773 255.932 193.948 256.226C194.263 256.738 194.399 257.339 194.336 257.936C194.269 258.184 194.187 258.428 194.091 258.666Z" fill="#263238"/>
<path d="M200.4 253.952C200.424 253.644 200.381 253.334 200.274 253.043C200.166 252.753 199.998 252.49 199.779 252.271C199.604 252.016 199.374 251.802 199.108 251.646C198.841 251.489 198.543 251.393 198.234 251.364C198.7 251.695 199.137 252.065 199.54 252.47C199.868 252.939 200.156 253.435 200.4 253.952Z" fill="#263238"/>
<path d="M213.003 250.84C212.73 250.992 212.471 251.167 212.228 251.364C211.532 251.848 210.809 252.291 210.062 252.692C208.957 253.278 207.815 253.791 206.642 254.226C205.308 254.722 203.792 255.189 202.242 255.645C199.078 256.557 196.217 257.389 194.153 258.01L191.697 258.78C191.393 258.86 191.098 258.967 190.813 259.099C191.124 259.057 191.431 258.99 191.731 258.9L194.199 258.21C196.279 257.64 199.147 256.842 202.31 255.93C203.889 255.468 205.388 254.989 206.722 254.476C207.909 254.025 209.061 253.488 210.17 252.869C210.915 252.447 211.628 251.971 212.302 251.444C212.552 251.262 212.787 251.06 213.003 250.84Z" fill="#263238"/>
<path d="M213.653 251.074C213.18 250.865 212.679 250.731 212.165 250.675C210.917 250.443 209.627 250.603 208.472 251.131C207.847 251.457 207.311 251.931 206.91 252.51C206.579 252.967 206.302 253.46 206.083 253.981C205.855 254.442 205.692 254.933 205.599 255.44C205.857 254.999 206.086 254.542 206.283 254.072C206.758 252.959 207.583 252.031 208.631 251.427C209.735 250.931 210.955 250.755 212.154 250.92C213.066 250.994 213.642 251.119 213.653 251.074Z" fill="#263238"/>
<path d="M244.781 215.75C244.781 215.75 250.053 217.631 250.07 223.542C250.116 234.857 227.202 247.334 227.202 247.334L196.707 227.133L194.797 226.358C194.797 226.358 235.98 210.9 244.781 215.75Z" fill="#263238"/>
<path d="M212.154 237.337C212.435 237.181 212.702 237.002 212.952 236.801C213.448 236.436 214.16 235.9 215.032 235.222C216.782 233.877 219.154 231.961 221.713 229.767C224.272 227.572 226.518 225.515 228.114 223.993C228.912 223.235 229.55 222.608 229.989 222.169C230.226 221.955 230.444 221.72 230.639 221.468C230.377 221.651 230.131 221.857 229.904 222.083L227.966 223.833C226.33 225.31 224.061 227.344 221.508 229.533C218.954 231.722 216.606 233.66 214.901 235.051L212.878 236.704C212.62 236.895 212.378 237.107 212.154 237.337Z" fill="#455A64"/>
<path d="M236.174 219.98C234.18 219.769 232.183 220.357 230.622 221.616C230.673 221.701 231.762 220.989 233.324 220.544C234.886 220.1 236.174 220.077 236.174 219.98Z" fill="#455A64"/>
<path d="M233.546 218.196C232.841 218.495 232.22 218.964 231.738 219.56C231.257 220.157 230.931 220.863 230.787 221.616C230.878 221.616 231.209 220.698 231.979 219.758C232.748 218.817 233.597 218.276 233.546 218.196Z" fill="#455A64"/>
<path d="M246.457 254.037C246.457 254.003 246.092 253.929 245.67 254.277C245.173 254.74 244.861 255.368 244.792 256.044C244.692 256.708 244.787 257.387 245.066 257.999C245.282 258.461 245.522 258.677 245.55 258.654C245.475 258.401 245.382 258.153 245.271 257.913C245.071 257.327 245.013 256.702 245.1 256.089C245.168 255.479 245.418 254.903 245.818 254.436C246.143 254.1 246.462 254.089 246.457 254.037Z" fill="#263238"/>
<path d="M237.764 197.254L226.905 224.785L180.148 225.549L179.282 223.018L195.669 222.425L203.547 198.001L237.764 197.254Z" fill="#455A64"/>
<path d="M215.927 209.19C216.286 209.009 216.69 208.937 217.089 208.98C217.489 209.024 217.867 209.181 218.179 209.435C218.444 209.684 218.627 210.007 218.705 210.362C218.784 210.716 218.753 211.087 218.618 211.424C218.471 211.761 218.234 212.05 217.931 212.258C217.629 212.467 217.275 212.586 216.908 212.604C216.522 212.629 216.138 212.527 215.815 212.314C215.492 212.101 215.247 211.789 215.118 211.424C214.996 211.016 215.006 210.58 215.148 210.179C215.289 209.777 215.554 209.431 215.905 209.19" fill="#EBEBEB"/>
<path d="M230.086 248.714C230.086 248.714 187.006 220.453 185.25 219.866C183.494 219.279 179.219 216.486 174.961 217.66C170.704 218.834 166.873 222.659 164.964 228.245C163.869 231.437 163.356 236.881 163.111 240.968C162.785 245.855 164.368 250.678 167.529 254.42C168.929 256.166 170.788 257.486 172.898 258.233C173.348 258.375 173.816 258.495 174.295 258.598C182.44 260.365 190.825 256.705 195.385 249.74L196.388 248.212C196.388 248.212 224.574 258.563 225.013 258.421L230.086 248.714Z" fill="#263238"/>
<path d="M176.791 240.933C176.867 240.971 176.945 241.006 177.025 241.036L177.732 241.315L180.462 242.369L190.614 246.194C194.923 247.801 200.087 249.717 205.884 251.826C211.681 253.935 218.099 256.243 224.962 258.563L225.082 258.609L225.144 258.489L228.513 252.059L230.223 248.782L230.286 248.656L230.166 248.582L197.305 227.72L187.433 221.496L184.754 219.82L184.053 219.393C183.893 219.296 183.808 219.256 183.808 219.256L184.036 219.421L184.72 219.871L187.37 221.581L197.22 227.903L230.029 248.845L229.972 248.639C229.431 249.682 228.832 250.794 228.262 251.917L224.899 258.346L225.087 258.272C218.247 255.958 211.806 253.655 206.004 251.563L190.711 246L180.502 242.25L177.754 241.246L177.036 240.996L176.791 240.933Z" fill="#455A64"/>
<path d="M181.26 140.585C181.995 138.595 183.62 137.735 185.677 137.239C186.712 136.998 187.79 137.01 188.819 137.275C189.848 137.54 190.798 138.05 191.588 138.761C192.631 139.712 193.395 141.041 194.683 141.611C196.81 142.574 199.528 141.166 201.523 142.346C202.123 142.699 202.581 143.249 202.821 143.902C203.061 144.554 203.067 145.27 202.839 145.927C202.61 146.584 202.161 147.142 201.568 147.505C200.975 147.869 200.274 148.015 199.585 147.92C200.971 148.57 201.227 150.656 200.275 151.853C199.323 153.05 197.562 153.375 196.086 152.959C194.63 152.458 193.34 151.569 192.352 150.389C191.315 149.249 190.403 148.023 189.274 146.969C188.191 145.868 186.753 145.186 185.216 145.042C183.147 144.962 181.226 146.359 180.148 148.12C179.071 149.881 178.655 151.973 178.353 154.025C178.051 156.077 177.823 158.163 177.031 160.079C176.939 160.307 176.803 160.552 176.569 160.603C176.221 160.677 175.97 160.295 175.834 159.97C174.274 156.31 173.449 152.378 173.405 148.399C173.377 146.119 173.639 143.936 175.07 142.129C176.5 140.322 179.801 139.199 181.243 140.556" fill="#263238"/>
<path d="M176.404 149.778L173.234 172.795C173.107 173.725 173.171 174.67 173.421 175.574C173.671 176.479 174.102 177.322 174.689 178.055C175.275 178.787 176.005 179.392 176.833 179.833C177.661 180.274 178.57 180.542 179.504 180.621C181.274 180.775 183.035 180.243 184.423 179.134C185.811 178.025 186.719 176.425 186.96 174.665C187.194 172.955 187.393 171.49 187.433 171.313C187.433 171.313 193.367 171.57 194.587 165.83C195.157 163.054 195.926 157.24 196.547 151.973C196.861 149.247 196.138 146.504 194.522 144.286C192.907 142.069 190.517 140.54 187.826 140.003L187.256 139.895C181.186 139.028 177.082 143.702 176.404 149.778Z" fill="#FFBE9D"/>
<path d="M187.427 171.233C184.759 170.744 182.297 169.472 180.354 167.58C180.354 167.58 181.3 172.071 187.142 172.71L187.427 171.233Z" fill="#EB996E"/>
<path d="M194.068 155.496C194.028 155.71 193.905 155.901 193.726 156.025C193.546 156.15 193.325 156.199 193.11 156.163C193.004 156.151 192.902 156.118 192.809 156.065C192.716 156.013 192.635 155.942 192.57 155.858C192.505 155.773 192.457 155.676 192.431 155.573C192.404 155.47 192.399 155.362 192.415 155.256C192.454 155.041 192.576 154.849 192.755 154.723C192.935 154.598 193.156 154.547 193.372 154.584C193.479 154.596 193.581 154.63 193.674 154.683C193.767 154.736 193.849 154.807 193.913 154.893C193.978 154.978 194.025 155.075 194.052 155.179C194.078 155.282 194.084 155.39 194.068 155.496Z" fill="#263238"/>
<path d="M194.718 154.55C194.592 154.641 194.062 154.054 193.179 153.877C192.295 153.7 191.554 154.02 191.469 153.877C191.383 153.735 191.577 153.649 191.902 153.501C192.335 153.308 192.818 153.258 193.281 153.358C193.742 153.446 194.161 153.68 194.478 154.025C194.723 154.299 194.775 154.516 194.718 154.55Z" fill="#263238"/>
<path d="M185.335 154.059C185.297 154.275 185.174 154.467 184.995 154.592C184.816 154.718 184.594 154.769 184.378 154.732C184.272 154.719 184.169 154.684 184.077 154.631C183.984 154.578 183.902 154.507 183.837 154.422C183.772 154.337 183.724 154.241 183.697 154.137C183.669 154.034 183.662 153.926 183.677 153.82C183.72 153.607 183.843 153.418 184.021 153.292C184.199 153.167 184.419 153.115 184.634 153.147C184.741 153.16 184.844 153.194 184.937 153.247C185.03 153.3 185.112 153.371 185.177 153.456C185.242 153.541 185.29 153.638 185.317 153.742C185.344 153.845 185.351 153.953 185.335 154.059Z" fill="#263238"/>
<path d="M185.991 152.982C185.866 153.068 185.335 152.48 184.452 152.304C183.568 152.127 182.827 152.446 182.742 152.304C182.656 152.161 182.85 152.076 183.175 151.928C183.609 151.738 184.091 151.688 184.555 151.785C185.015 151.878 185.435 152.111 185.757 152.452C185.997 152.76 186.048 152.942 185.991 152.982Z" fill="#263238"/>
<path d="M187.889 160.17C188.384 160.115 188.884 160.124 189.377 160.198C189.61 160.198 189.833 160.198 189.901 160.067C189.974 159.841 189.974 159.598 189.901 159.372C189.799 158.802 189.69 158.163 189.576 157.514C189.137 154.88 188.869 152.737 188.972 152.72C189.075 152.703 189.542 154.823 189.958 157.457C190.061 158.106 190.163 158.722 190.255 159.315C190.344 159.616 190.321 159.94 190.192 160.227C190.143 160.299 190.079 160.359 190.004 160.402C189.929 160.446 189.845 160.471 189.759 160.478C189.628 160.496 189.496 160.496 189.365 160.478C188.862 160.437 188.366 160.333 187.889 160.17Z" fill="#263238"/>
<path d="M185.164 160.272C185.313 160.272 185.119 161.253 185.803 162.096C186.487 162.94 187.513 163.042 187.513 163.179C187.513 163.316 187.251 163.316 186.817 163.242C186.253 163.138 185.743 162.839 185.375 162.398C185.027 161.971 184.858 161.426 184.902 160.876C184.948 160.466 185.102 160.249 185.164 160.272Z" fill="#263238"/>
<path d="M186.909 149.556C186.778 149.784 185.917 149.494 184.851 149.408C183.785 149.323 182.896 149.442 182.799 149.197C182.759 149.083 182.953 148.889 183.335 148.724C183.842 148.524 184.388 148.446 184.931 148.496C185.477 148.538 186.004 148.71 186.47 148.998C186.817 149.226 186.96 149.454 186.909 149.556Z" fill="#263238"/>
<path d="M194.9 151.927C194.706 152.098 194.142 151.768 193.407 151.608C192.671 151.449 192.027 151.477 191.93 151.238C191.885 151.124 192.022 150.941 192.335 150.804C192.743 150.644 193.191 150.614 193.618 150.719C194.047 150.81 194.437 151.035 194.729 151.363C194.94 151.62 194.991 151.842 194.9 151.927Z" fill="#263238"/>
<path d="M176.022 154.133C175.93 154.071 172.3 152.173 171.638 156.134C170.977 160.096 175.093 159.942 175.115 159.828C175.138 159.714 176.022 154.133 176.022 154.133Z" fill="#FFBE9D"/>
<path d="M174.158 158.124C174.158 158.124 174.084 158.164 173.958 158.198C173.782 158.24 173.597 158.213 173.44 158.124C173.209 157.92 173.037 157.658 172.943 157.365C172.849 157.072 172.835 156.759 172.904 156.459C172.949 156.117 173.072 155.79 173.263 155.502C173.317 155.384 173.398 155.28 173.5 155.2C173.602 155.119 173.722 155.065 173.85 155.04C173.933 155.033 174.017 155.055 174.085 155.103C174.154 155.151 174.204 155.221 174.226 155.302C174.26 155.416 174.226 155.496 174.226 155.502C174.226 155.507 174.323 155.45 174.317 155.285C174.311 155.184 174.271 155.087 174.203 155.011C174.157 154.96 174.101 154.919 174.038 154.891C173.975 154.862 173.907 154.847 173.839 154.846C173.671 154.851 173.508 154.899 173.364 154.984C173.221 155.07 173.101 155.191 173.018 155.336C172.791 155.652 172.645 156.018 172.59 156.402C172.482 157.206 172.767 158.021 173.314 158.278C173.415 158.327 173.527 158.352 173.639 158.352C173.752 158.352 173.863 158.327 173.964 158.278C174.135 158.221 174.169 158.135 174.158 158.124Z" fill="#EB996E"/>
<path d="M197.972 151.05C196.633 151.122 195.295 150.876 194.07 150.331C192.844 149.786 191.765 148.958 190.921 147.915C189.781 146.444 189.023 144.523 187.376 143.634C186.809 143.355 186.192 143.191 185.561 143.152C184.93 143.113 184.297 143.199 183.7 143.406C182.51 143.831 181.42 144.495 180.496 145.356C181.021 148.502 179.624 151.626 178.262 154.476C178.144 154.812 177.917 155.099 177.618 155.291C177.082 155.559 176.443 155.137 176.119 154.629C175.663 153.779 175.465 152.815 175.549 151.854C175.561 149.664 176.006 147.498 176.86 145.481C177.726 143.458 179.167 141.734 181.003 140.522C183.359 139.084 186.181 138.616 188.875 139.217C191.554 139.84 193.969 141.289 195.778 143.361C196.659 144.278 197.3 145.401 197.642 146.627" fill="#263238"/>
</svg>
