<svg width="269" height="269" viewBox="0 0 269 269" fill="none" xmlns="http://www.w3.org/2000/svg">
<path d="M51.123 20.0095L46.5577 35.0355L65.9644 40.9317L70.5297 25.9057L51.123 20.0095Z" fill="#EBEBEB"/>
<path d="M70.5265 25.9047H70.4296L70.1499 25.8294L69.0739 25.5227L65.0981 24.3176L51.1101 20.1266L51.2715 20.0459L46.6931 35.0722C46.6931 35.1153 46.5155 34.744 46.6016 34.9001H46.6447H46.7254L46.8975 34.9485L47.2311 35.0507L47.9036 35.2551L49.2324 35.6586L51.8525 36.4549L56.8936 37.9936L65.9589 40.7643L65.8136 40.845C67.2124 36.3365 68.3637 32.6028 69.1761 29.9774L70.1337 26.9323C70.2413 26.5933 70.3274 26.3243 70.392 26.1307C70.4187 26.0356 70.451 25.9422 70.4888 25.8509C70.4732 25.9401 70.4516 26.0282 70.4243 26.1145C70.3705 26.3082 70.2951 26.5718 70.1983 26.9054L69.3052 29.9397L66.0342 40.9095L66.0019 41.0225L65.8943 40.9848C63.129 40.1563 60.0785 39.231 56.8182 38.2464L51.8095 36.7777L49.1894 35.9814L47.8821 35.5779L47.2096 35.3735L46.876 35.2713L46.7038 35.2229H46.6231H46.5801H46.5424C46.6231 35.3789 46.4241 35.013 46.4456 35.0453C48.0919 29.633 49.6736 24.5167 51.024 20.0244L51.0616 19.906L51.18 19.9383L65.2003 24.21L69.1492 25.442L70.1875 25.7702L70.4458 25.8563C70.505 25.8886 70.5319 25.8993 70.5265 25.9047Z" fill="#E0E0E0"/>
<path d="M67.2769 36.3204C67.1343 36.304 66.9938 36.2733 66.8573 36.2289L65.6844 35.9115L61.5472 34.7064H61.4827V34.6418C61.2567 33.8079 61.0038 32.8933 60.7402 31.9518L60.8317 32.0487L58.4322 31.3224L55.64 30.467H55.753L53.1975 32.1186L53.149 32.1509H53.0952L49.4368 30.9888L48.42 30.6284C48.2984 30.593 48.1812 30.5443 48.0703 30.4831C48.1964 30.4948 48.3208 30.5201 48.4415 30.5584L49.4799 30.8382L53.1652 31.9142H53.063L55.5808 30.1711L55.6346 30.1334H55.6938L58.4968 30.9781L60.8909 31.742H60.9662V31.8173C61.2244 32.7804 61.4665 33.7003 61.6871 34.5342L61.601 34.4482L65.7113 35.7501L66.8627 36.1321C67.0089 36.175 67.1484 36.2384 67.2769 36.3204Z" fill="#E0E0E0"/>
<path d="M68.864 31.0318C68.719 31.0231 68.576 30.9942 68.439 30.9458L67.2662 30.6283L63.1289 29.4232H63.0644V29.3587C62.833 28.5248 62.5856 27.6102 62.3219 26.6687L62.4134 26.7601L60.0139 26.0392L57.2163 25.1838H57.3293L54.8007 26.8946L54.7523 26.9269H54.6985L51.0347 25.7648L50.034 25.3452C49.9125 25.3098 49.7952 25.2611 49.6843 25.1999C49.8037 25.2157 49.921 25.2446 50.034 25.286L51.11 25.555L54.8007 26.631H54.6985L57.2109 24.8879L57.2647 24.8502H57.3293L60.1269 25.6949L62.5264 26.4266H62.5963V26.5019L63.3119 29.1919L63.2258 29.1058L67.3361 30.4078L68.4874 30.7897C68.6195 30.8598 68.7454 30.9408 68.864 31.0318Z" fill="#E0E0E0"/>
<path d="M35.1368 41.9102L42.2169 33.356C42.914 32.6189 43.7562 32.0342 44.6905 31.6388C45.6248 31.2435 46.6309 31.0459 47.6453 31.0588H47.7583L45.3588 38.9835L35.9331 43.6318L35.1368 41.9102Z" fill="#E0E0E0"/>
<path d="M72.0167 51.0616L70.7417 41.1409C70.5736 40.1401 70.2001 39.1851 69.6445 38.336C69.0889 37.4869 68.3634 36.7621 67.5137 36.2074L67.4168 36.1482L65.0173 44.0461L70.2628 53.1544L72.0167 51.0616Z" fill="#E0E0E0"/>
<path d="M30.7709 87.4285L26.2057 102.455L45.6124 108.351L50.1776 93.3247L30.7709 87.4285Z" fill="#EBEBEB"/>
<path d="M45.6117 108.342H45.5257L45.2567 108.267L44.2129 107.966L40.2479 106.798L26.1684 102.586L26.0447 102.548L26.0823 102.43C27.4435 97.9322 28.9929 92.8104 30.6338 87.3981C30.5962 87.3981 30.9674 87.2206 30.8114 87.3067H30.849H30.8921L30.9781 87.3336L31.1449 87.382L31.4839 87.4842L32.151 87.6886L33.4852 88.0975L36.1053 88.8938L41.141 90.4271L50.2063 93.1978L50.3192 93.2354L50.287 93.343L46.9029 104.281C46.4941 105.572 46.1766 106.583 45.9561 107.299C45.8485 107.627 45.7624 107.891 45.7032 108.079C45.644 108.267 45.6117 108.342 45.6117 108.337C45.6294 108.24 45.6546 108.145 45.6871 108.052C45.7409 107.853 45.8216 107.578 45.9184 107.24C46.1282 106.513 46.4564 105.486 46.8169 104.178C47.6023 101.542 48.716 97.7977 50.0449 93.2785L50.1202 93.4237L41.0441 90.6853L36.0461 89.1628L33.426 88.3665L32.0918 87.963L31.4193 87.7586L31.0857 87.6563L30.919 87.6079L30.8329 87.581H30.7898L30.962 87.4896C29.3103 92.9019 27.734 98.0236 26.3836 102.511L26.2975 102.355L40.2855 106.659L44.2614 107.901L45.3374 108.24L45.6117 108.326V108.342Z" fill="#E0E0E0"/>
<path d="M48.7051 97.8784C48.5601 97.8701 48.417 97.8411 48.2801 97.7923L47.1073 97.4695L42.9701 96.2697L43.0884 96.2428L40.9795 98.1043L40.9257 98.1527H40.8503L38.4509 97.4264L35.6533 96.571H35.5887V96.5118C35.1852 95.4896 34.8086 94.5374 34.4697 93.6658L34.545 93.7358L30.8597 92.536L29.8429 92.1971C29.7213 92.1617 29.604 92.113 29.4932 92.0518C29.6194 92.0626 29.744 92.0878 29.8644 92.1271L30.9027 92.4069L34.5934 93.4829H34.6472V93.5367C34.9969 94.4083 35.3843 95.3551 35.7985 96.372L35.7124 96.2913L38.51 97.1359L40.9095 97.8676L40.7804 97.8999L42.9001 96.0545L42.9539 96.0115H43.0185L47.1288 97.3135L48.2801 97.6954C48.4268 97.7441 48.569 97.8053 48.7051 97.8784Z" fill="#E0E0E0"/>
<path d="M47.0965 103.162C46.9533 103.152 46.8121 103.123 46.6769 103.075L45.504 102.758L41.3668 101.553H41.4798L39.3762 103.414L39.317 103.463H39.2471L36.8476 102.736L34.05 101.881H33.9855V101.822L32.818 98.9113L32.8933 98.9812L29.2349 97.8192L28.2181 97.4748C28.0965 97.4395 27.9793 97.3908 27.8684 97.3296C27.9945 97.3413 28.1189 97.3666 28.2396 97.4049L29.2726 97.6847L32.9633 98.7607H33.0171V98.8145C33.3721 99.6806 33.7595 100.633 34.1684 101.644L34.0823 101.564L36.8853 102.408L39.2794 103.145H39.1503L41.3023 101.305L41.3561 101.257H41.4206L45.5309 102.559L46.6823 102.941C46.8278 102.999 46.9667 103.073 47.0965 103.162Z" fill="#E0E0E0"/>
<path d="M24.9686 75.7827L26.1146 86.8117C26.2804 87.8131 26.6531 88.7691 27.2088 89.6185C27.7646 90.4679 28.4913 91.1922 29.3426 91.7452L29.4394 91.8043L31.8389 83.928L26.5934 74.782L24.9686 75.7827Z" fill="#E0E0E0"/>
<path d="M60.9663 88.232L54.1498 96.1567C53.4527 96.8939 52.6105 97.4785 51.6762 97.8739C50.7419 98.2693 49.7358 98.4668 48.7214 98.454H48.6084L51.0079 90.5562L60.4336 85.9025L60.9663 88.232Z" fill="#E0E0E0"/>
<path d="M22.3593 52.3689L25.3183 53.262L23.3115 59.8794L20.3525 58.9809C20.5214 56.6551 21.2069 54.3963 22.3593 52.3689Z" fill="#EBEBEB"/>
<path d="M22.3593 52.3689C22.3075 52.5359 22.2409 52.6979 22.1603 52.8531C22.0258 53.1598 21.8213 53.6063 21.59 54.1766C20.953 55.7172 20.5801 57.3541 20.4871 59.0186L20.3903 58.8841L23.3224 59.718L23.1502 59.8095C23.9303 57.2378 24.6512 54.9083 25.1946 53.2082L25.2645 53.3319L23.1394 52.6325C22.8645 52.5511 22.5949 52.4522 22.3324 52.3366C22.5986 52.3796 22.8612 52.4426 23.1179 52.5249C23.629 52.6594 24.3822 52.8693 25.3237 53.1383H25.4152V53.2405C24.9202 54.9567 24.2262 57.2916 23.4407 59.8633L23.4031 59.9978L23.2686 59.9601L20.3418 59.067L20.2396 59.0347V58.9325C20.3509 57.258 20.7647 55.6175 21.4609 54.0905C21.7137 53.5202 21.9397 53.0845 22.1065 52.7886C22.1794 52.6422 22.264 52.5018 22.3593 52.3689Z" fill="#E0E0E0"/>
<path d="M20.6323 57.1356C21.1713 57.2499 21.6975 57.4175 22.2033 57.6359C23.0479 57.9265 23.7742 58.0125 23.7742 58.0932C23.2137 58.1958 22.6353 58.1303 22.1118 57.9049C21.5653 57.7677 21.0586 57.5042 20.6323 57.1356Z" fill="#E0E0E0"/>
<path d="M21.1649 55.414C21.7181 55.4399 22.2633 55.5562 22.7789 55.7583C23.3193 55.8746 23.836 56.082 24.3068 56.3716C23.7537 56.3457 23.2084 56.2294 22.6928 56.0273C22.1524 55.911 21.6358 55.7036 21.1649 55.414Z" fill="#E0E0E0"/>
<path d="M21.7513 53.7623C22.3049 53.7851 22.8507 53.9015 23.3653 54.1067C23.905 54.2226 24.4215 54.4281 24.8933 54.7146C24.3397 54.6919 23.7939 54.5755 23.2793 54.3703C22.7387 54.2572 22.2218 54.0515 21.7513 53.7623Z" fill="#E0E0E0"/>
<path d="M61.1745 88.147C74.2388 81.4818 79.4262 65.4879 72.761 52.4236C66.0958 39.3593 50.1019 34.1718 37.0377 40.837C23.9734 47.5022 18.7859 63.4961 25.4511 76.5604C32.1163 89.6247 48.1102 94.8122 61.1745 88.147Z" fill="#EBEBEB"/>
<path d="M23.699 56.7751C23.699 56.7751 23.699 56.9204 23.6075 57.1948C23.516 57.4692 23.4461 57.8888 23.317 58.4268L23.0964 59.3306C23.0318 59.6642 22.9942 60.0408 22.935 60.4389C22.8758 60.837 22.822 61.2728 22.7575 61.7355C22.6984 62.2283 22.6678 62.7241 22.666 63.2204C22.5331 65.7781 22.7888 68.3413 23.4246 70.8223C24.2411 74.1165 25.6861 77.222 27.6802 79.9683L28.5141 81.1089C28.8207 81.4801 29.1543 81.8352 29.4771 82.1849C29.7997 82.5603 30.1409 82.9194 30.4993 83.2609C30.8651 83.6052 31.2417 83.9441 31.6183 84.2938L32.1886 84.8318C32.3984 84.9879 32.6082 85.1439 32.8127 85.3053L34.0824 86.2522C34.5181 86.5588 34.9916 86.7902 35.4489 87.1076C35.9075 87.4065 36.3836 87.6778 36.8746 87.92C37.873 88.4348 38.9046 88.8823 39.9627 89.2596C40.5007 89.4425 41.0387 89.6631 41.5767 89.8245L43.2768 90.2495C43.5619 90.3141 43.8471 90.4001 44.1376 90.4486L45.0199 90.5777C45.6117 90.653 46.2035 90.7606 46.8061 90.8144C48.0269 90.9078 49.2527 90.9204 50.4752 90.8521L51.406 90.7983L51.874 90.7714L52.3421 90.696L54.2143 90.4055C54.8384 90.2764 55.4517 90.0935 56.0758 89.9428C56.3825 89.8568 56.6999 89.7976 57.0065 89.6846L57.9211 89.3564C59.1549 88.9122 60.3589 88.3892 61.5257 87.7908L63.242 86.7633L63.6724 86.505L64.0812 86.2091L64.8936 85.6119L65.7437 85.004L66.5076 84.3261L67.2662 83.6429L67.6536 83.3039L68.0033 82.9273L69.4021 81.4048L70.6556 79.7424C73.9654 75.0951 75.6657 69.4936 75.4976 63.7907C75.4599 63.0913 75.4223 62.3972 75.3792 61.7086C75.3362 61.02 75.1694 60.3421 75.0618 59.6642L74.9811 59.1585L74.8574 58.6581L74.5991 57.6682L74.3463 56.6783L74.002 55.726L73.6576 54.7738L73.4801 54.3003L73.2649 53.8484L72.4095 52.0407C71.7752 50.892 71.0653 49.7866 70.2844 48.732L69.7087 47.9519C69.5204 47.6883 69.2837 47.4624 69.0793 47.2203C68.6435 46.7468 68.2346 46.2519 67.7881 45.7999L66.3946 44.5141L66.0503 44.1967L65.6737 43.9116L64.9313 43.3736C63.9556 42.6323 62.9331 41.9548 61.8701 41.3453C61.3321 41.0602 60.7941 40.8073 60.2561 40.5544L59.4544 40.1671C59.1854 40.0433 58.9164 39.9626 58.6259 39.855L56.9689 39.274C56.4309 39.0965 55.8498 38.9835 55.2957 38.8382C54.2083 38.56 53.1027 38.3586 51.987 38.2357C51.452 38.1625 50.9129 38.123 50.373 38.1173C49.835 38.1173 49.297 38.0527 48.759 38.0635L47.1773 38.1496L46.3757 38.198L45.6117 38.311L44.1053 38.5423C43.6103 38.6123 43.1369 38.7737 42.6581 38.8813C42.1793 38.9889 41.7058 39.118 41.2431 39.2525L39.9035 39.7367C36.7256 40.9121 33.8032 42.6874 31.2955 44.966C29.3889 46.68 27.756 48.6758 26.4535 50.884C26.1804 51.2994 25.929 51.7285 25.7003 52.1699L25.13 53.3481C24.9579 53.7139 24.7803 54.0475 24.6458 54.3595C24.5113 54.6716 24.4253 54.9728 24.3284 55.2311L23.8873 56.4147C23.785 56.6837 23.7259 56.8182 23.7259 56.8182C23.7259 56.8182 23.7689 56.6783 23.8604 56.4093C23.9518 56.1403 24.0917 55.7314 24.2746 55.2149L24.5813 54.3326C24.7104 54.0152 24.8826 53.6816 25.0547 53.3104L25.5927 52.1268C25.781 51.691 26.0769 51.2875 26.3352 50.8249C27.6385 48.6077 29.2711 46.6014 31.1772 44.8746C33.6851 42.5551 36.617 40.7412 39.8121 39.5322L41.1624 39.0427C41.6251 38.9028 42.1039 38.7952 42.5828 38.6661C43.0644 38.5266 43.5528 38.4117 44.0461 38.3217L45.5633 38.0796L46.3326 37.9667L47.1181 37.9182L48.7321 37.8268C49.2701 37.8268 49.8081 37.8644 50.3461 37.8806C50.8985 37.8836 51.4501 37.9213 51.9978 37.9936C53.1235 38.1177 54.2397 38.3172 55.3387 38.5907C55.8767 38.7414 56.4632 38.8544 57.0227 39.0319L58.6851 39.6291C58.9649 39.7313 59.2231 39.8174 59.5244 39.9411L60.3368 40.3285C60.8748 40.5921 61.4128 40.8342 61.9508 41.1247C63.0425 41.7322 64.0938 42.4097 65.0981 43.153L65.8513 43.7233C65.975 43.8147 66.1041 43.9062 66.2279 44.0084L66.5776 44.3312L67.9871 45.6278C68.439 46.0797 68.8533 46.58 69.2891 47.0589C69.4989 47.301 69.7356 47.5323 69.9293 47.7959L70.5103 48.5868C71.3025 49.6504 72.0215 50.7666 72.6623 51.9278L73.5285 53.7516L73.7437 54.2089L73.9213 54.6877L74.271 55.6453L74.6207 56.6084L74.8789 57.609L75.1371 58.6097L75.2663 59.1101L75.347 59.6481C75.4546 60.3295 75.5622 61.0182 75.6698 61.714C75.7074 62.408 75.7451 63.1128 75.7881 63.8122C75.8363 66.6737 75.4555 69.5263 74.6583 72.2749C73.7929 75.0025 72.5234 77.5849 70.8923 79.936L69.628 81.6146L68.2077 83.1533C68.0893 83.277 67.9764 83.4115 67.858 83.5299L67.4706 83.8796L66.7121 84.5467L65.9427 85.23L65.0981 85.8379L64.2749 86.4405L63.8607 86.7417L63.4249 87L61.6925 88.033C60.5132 88.6409 59.2946 89.1693 58.0449 89.6147L57.1249 89.9482C56.8182 90.0558 56.4954 90.115 56.1834 90.2011C55.5539 90.3571 54.9299 90.54 54.3058 90.6691L52.412 90.9597L51.944 91.035C51.7826 91.035 51.6265 91.035 51.4705 91.035L50.529 91.0888C49.2938 91.1554 48.0555 91.141 46.8222 91.0457C46.2143 90.9919 45.6171 90.879 45.0199 90.7983L44.1161 90.696C43.8202 90.6476 43.535 90.5615 43.2499 90.4916L41.5337 90.0612C40.9957 89.8998 40.4577 89.6792 39.8874 89.4909C38.8214 89.1077 37.7825 88.653 36.7777 88.1298C36.2826 87.8849 35.8029 87.61 35.3413 87.3066C34.8786 87.0161 34.4052 86.7686 33.964 86.4458L32.6889 85.4828L32.0649 85.004L31.4946 84.466L30.3648 83.4223C29.9828 83.0887 29.6815 82.6852 29.3426 82.3463C29.0036 82.0073 28.6808 81.6146 28.3688 81.2434L27.5188 80.0813C25.5212 77.3127 24.0797 74.1829 23.2739 70.8654C22.6449 68.3688 22.4035 65.7903 22.5584 63.2204C22.5661 62.7222 22.6002 62.2247 22.6606 61.7301C22.7306 61.2674 22.7951 60.837 22.8543 60.4335C22.9135 60.03 22.9619 59.6588 23.0318 59.3199L23.2632 58.416C23.4031 57.878 23.5107 57.4745 23.5806 57.1948C23.6505 56.915 23.699 56.7751 23.699 56.7751Z" fill="#E0E0E0"/>
<path d="M51.8564 89.4884C65.6609 87.9693 75.6201 75.547 74.101 61.7425C72.5818 47.938 60.1596 37.9788 46.3551 39.498C32.5506 41.0171 22.5914 53.4394 24.1105 67.2439C25.6297 81.0483 38.0519 91.0076 51.8564 89.4884Z" fill="white"/>
<path d="M49.0979 89.9106C45.128 89.9085 41.2137 88.9766 37.6688 87.1896C34.1238 85.4026 31.0466 82.8101 28.6838 79.6199C26.3209 76.4297 24.7381 72.7305 24.0621 68.8185C23.3862 64.9066 23.6358 60.8907 24.7911 57.0926C26.1623 52.5892 28.7572 48.5552 32.2867 45.4403C35.8161 42.3253 40.1414 40.2518 44.7802 39.4509C49.419 38.65 54.1891 39.1532 58.5587 40.9044C62.9283 42.6556 66.7257 45.5859 69.5275 49.3688C72.3293 53.1517 74.0254 57.6383 74.4268 62.3287C74.8281 67.019 73.9189 71.7286 71.8005 75.9324C69.6821 80.1363 66.4378 83.6692 62.4292 86.1373C58.4207 88.6054 53.8054 89.9117 49.0979 89.9106ZM49.0979 39.6022C42.7973 39.6057 36.7312 41.992 32.117 46.2824C27.5028 50.5727 24.682 56.4494 24.2208 62.7331C23.7596 69.0168 25.6921 75.2425 29.6305 80.1605C33.5688 85.0785 39.2216 88.325 45.4541 89.2484C51.6867 90.1717 58.0379 88.7036 63.233 85.1387C68.4281 81.5737 72.0826 76.1758 73.4631 70.0283C74.8436 63.8808 73.8478 57.4386 70.6757 51.9948C67.5036 46.5509 62.3899 42.5083 56.3609 40.6782C54 39.9583 51.5447 39.5956 49.0764 39.6022H49.0979Z" fill="#E0E0E0"/>
<path d="M44.1538 81.039C44.1258 81.6201 44.0022 82.1927 43.7879 82.7337C43.6611 83.3021 43.445 83.8468 43.1477 84.3477C43.1817 83.765 43.3069 83.1913 43.5189 82.6476C43.6475 82.0822 43.8615 81.5397 44.1538 81.039Z" fill="#E0E0E0"/>
<path d="M36.7831 76.3207C36.4666 76.8116 36.0723 77.2477 35.6156 77.6119C35.2264 78.0431 34.7682 78.4067 34.2599 78.6879C34.5777 78.2012 34.9698 77.7673 35.422 77.4021C35.8164 76.9727 36.2757 76.6078 36.7831 76.3207Z" fill="#E0E0E0"/>
<path d="M32.7804 68.482C32.2766 68.7578 31.7316 68.9504 31.1664 69.0523C30.616 69.2441 30.0383 69.3458 29.4556 69.3536C29.9605 69.0804 30.5051 68.888 31.0696 68.7833C31.6199 68.5915 32.1976 68.4898 32.7804 68.482Z" fill="#E0E0E0"/>
<path d="M54.0475 48.2317C54.0788 47.6487 54.2042 47.0746 54.4187 46.5316C54.5467 45.9644 54.7608 45.4201 55.0535 44.9176C55.0224 45.4984 54.8989 46.0704 54.6877 46.6123C54.5614 47.1826 54.3453 47.7292 54.0475 48.2317Z" fill="#E0E0E0"/>
<path d="M45.2997 48.0488C45.0335 47.5285 44.8519 46.9692 44.7617 46.3918C44.586 45.8351 44.5007 45.2538 44.5088 44.6702C44.775 45.1904 44.9566 45.7498 45.0468 46.3272C45.2225 46.8839 45.3079 47.4651 45.2997 48.0488Z" fill="#E0E0E0"/>
<path d="M37.6116 52.3366C37.1312 52.0078 36.7077 51.6025 36.3581 51.1369C35.9291 50.7333 35.5661 50.2649 35.2821 49.7489C35.779 50.0746 36.2189 50.4799 36.5841 50.9486C36.9978 51.354 37.3447 51.8225 37.6116 52.3366Z" fill="#E0E0E0"/>
<path d="M29.9236 59.0724C30.6102 59.1358 31.2852 59.2914 31.9303 59.5351C32.6023 59.6862 33.2503 59.9288 33.8564 60.256C33.1697 60.1926 32.4947 60.037 31.8496 59.7933C31.1777 59.6422 30.5296 59.3996 29.9236 59.0724Z" fill="#E0E0E0"/>
<path d="M61.585 52.724C61.9019 52.235 62.2962 51.8007 62.7524 51.4382C63.1448 51.0103 63.6023 50.6471 64.1082 50.3622C63.7929 50.8508 63.4004 51.285 62.9461 51.648C62.5536 52.078 62.0939 52.4413 61.585 52.724Z" fill="#E0E0E0"/>
<path d="M65.5876 60.5681C66.0938 60.2975 66.6379 60.1053 67.2016 59.9978C67.7527 59.8092 68.3301 59.7093 68.9125 59.7019C68.4059 59.9713 67.8619 60.1635 67.2985 60.2722C66.7474 60.4604 66.17 60.5603 65.5876 60.5681Z" fill="#E0E0E0"/>
<path d="M53.0683 81.0067C53.3355 81.5265 53.5172 82.086 53.6063 82.6637C53.7811 83.2186 53.8647 83.7982 53.8538 84.3799C53.5879 83.8595 53.4063 83.3002 53.3158 82.7229C53.1425 82.1676 53.0589 81.5883 53.0683 81.0067Z" fill="#E0E0E0"/>
<path d="M60.7563 76.7134C61.2333 77.0488 61.656 77.4552 62.0099 77.9185C62.4307 78.3217 62.7832 78.7904 63.0536 79.3066C62.5767 78.9713 62.1539 78.5648 61.8001 78.1015C61.3793 77.6984 61.0268 77.2296 60.7563 76.7134Z" fill="#E0E0E0"/>
<path d="M68.4444 69.9831C67.7578 69.9161 67.083 69.7587 66.4376 69.515C65.7648 69.3617 65.1165 69.1155 64.5116 68.7833C65.1982 68.8503 65.8729 69.0077 66.5183 69.2514C67.1908 69.4059 67.8389 69.6521 68.4444 69.9831Z" fill="#E0E0E0"/>
<path d="M52.6918 50.3353C52.6448 50.3244 52.5954 50.3309 52.5528 50.3537C52.5103 50.3764 52.4774 50.4139 52.4604 50.459L47.2418 65.4639L47.8498 65.6898L52.8263 50.572C52.8381 50.5228 52.8308 50.471 52.8058 50.4271C52.7808 50.3831 52.7401 50.3503 52.6918 50.3353Z" fill="#E0E0E0"/>
<path d="M47.6291 65.636L57.7866 67.3415C57.8151 67.3415 57.8425 67.3528 57.8627 67.373C57.8828 67.3932 57.8942 67.4205 57.8942 67.4491C57.8942 67.4776 57.8828 67.505 57.8627 67.5251C57.8425 67.5453 57.8151 67.5567 57.7866 67.5567L47.344 67.25L47.6291 65.636Z" fill="#E0E0E0"/>
<path d="M47.1611 65.0496L37.7354 54.1228L37.4341 54.2896L46.2358 65.9319L47.1611 65.0496Z" fill="#E0E0E0"/>
<path d="M48.1619 66.9971C48.0187 67.1933 47.8206 67.3426 47.5925 67.426C47.3645 67.5095 47.1168 67.5234 46.8809 67.4659C46.645 67.4085 46.4314 67.2824 46.2672 67.1034C46.103 66.9245 45.9956 66.7009 45.9586 66.4609C45.9217 66.2209 45.9567 65.9753 46.0595 65.7553C46.1622 65.5352 46.3279 65.3506 46.5356 65.2249C46.7433 65.0991 46.9836 65.0378 47.2262 65.0487C47.4688 65.0596 47.7027 65.1423 47.8982 65.2863C48.1595 65.4786 48.3339 65.7667 48.3833 66.0873C48.4327 66.4079 48.3531 66.7351 48.1619 66.9971Z" fill="#EBEBEB"/>
<path d="M48.1618 66.9971C48.1618 66.9971 48.1994 66.8895 48.2586 66.712C48.3377 66.4653 48.3377 66.2001 48.2586 65.9534C48.2001 65.7778 48.0994 65.6192 47.9653 65.4916C47.8311 65.364 47.6676 65.2713 47.4893 65.2217C47.3358 65.1724 47.1733 65.1574 47.0134 65.1777C46.8534 65.198 46.6998 65.2531 46.5635 65.3391C46.4271 65.4252 46.3113 65.5401 46.2242 65.6757C46.137 65.8114 46.0807 65.9645 46.0591 66.1243C46.0375 66.2841 46.0512 66.4466 46.0993 66.6005C46.1474 66.7544 46.2286 66.8959 46.3372 67.0151C46.4459 67.1342 46.5793 67.228 46.7282 67.29C46.877 67.352 47.0377 67.3806 47.1988 67.3737C47.4577 67.3763 47.7113 67.2993 47.9251 67.1532C48.0757 67.0456 48.151 66.9595 48.1672 66.9756C48.1833 66.9918 48.1672 67.0886 47.995 67.2339C47.7821 67.4403 47.5005 67.561 47.2041 67.5728C46.9804 67.5829 46.7578 67.5359 46.5573 67.4361C46.3568 67.3363 46.185 67.1871 46.0582 67.0025C45.8996 66.7726 45.8165 66.4991 45.8204 66.2198C45.8244 65.9406 45.9152 65.6695 46.0802 65.4441C46.2452 65.2188 46.4762 65.0504 46.7413 64.9624C47.0063 64.8743 47.2922 64.871 47.5592 64.9527C47.7716 65.024 47.9621 65.1484 48.1128 65.3142C48.2635 65.4799 48.3692 65.6815 48.42 65.8996C48.4981 66.1851 48.4694 66.4892 48.3393 66.755C48.264 66.9326 48.1725 67.0079 48.1618 66.9971Z" fill="#F5F5F5"/>
<path d="M49.41 73.0819C48.3955 72.9225 47.3979 72.6704 46.4295 72.3287C45.4357 72.074 44.467 71.7301 43.535 71.3011C44.5481 71.4613 45.5441 71.7153 46.5102 72.0597C47.5052 72.3137 48.4757 72.6558 49.41 73.0819Z" fill="#E0E0E0"/>
<path d="M51.5351 75.4168C51.5351 75.4868 48.9312 74.7712 45.7731 73.8028C42.615 72.8344 40.0649 72.0059 40.0864 71.9306C40.108 71.8553 42.6904 72.5762 45.8538 73.5446C49.0172 74.513 51.5566 75.32 51.5351 75.4168Z" fill="#E0E0E0"/>
<path d="M244.61 158.667L240.488 157.676C233.311 155.95 226.095 160.369 224.37 167.545L216.577 199.956C214.851 207.132 219.27 214.348 226.446 216.074L230.568 217.065C237.744 218.79 244.96 214.372 246.686 207.196L254.479 174.785C256.204 167.609 251.786 160.393 244.61 158.667Z" fill="#EBEBEB"/>
<path d="M233.094 159.969C233.228 159.431 237.398 148.51 238.576 145.378C238.665 145.149 238.833 144.959 239.051 144.844C239.269 144.729 239.52 144.698 239.76 144.754L251.095 147.482C251.341 147.54 251.556 147.687 251.698 147.895C251.84 148.103 251.9 148.357 251.865 148.606L249.799 163.67L233.094 159.969Z" fill="#EBEBEB"/>
<path d="M237.366 215.356C237.231 215.894 233.062 226.815 231.883 229.941C231.797 230.172 231.629 230.363 231.41 230.479C231.192 230.594 230.939 230.624 230.7 230.565L219.364 227.843C219.118 227.784 218.904 227.636 218.761 227.427C218.619 227.218 218.56 226.963 218.595 226.713L220.661 211.649L237.366 215.356Z" fill="#EBEBEB"/>
<path d="M244.257 159.7L240.333 158.757C233.513 157.117 226.654 161.317 225.014 168.137L217.387 199.858C215.747 206.679 219.946 213.537 226.767 215.177L230.69 216.121C237.511 217.761 244.37 213.561 246.01 206.74L253.637 175.02C255.277 168.199 251.077 161.34 244.257 159.7Z" fill="#E0E0E0"/>
<path d="M235.154 170.332L234.924 170.277C234.595 170.198 234.263 170.4 234.184 170.73L233.087 175.291C233.008 175.62 233.211 175.952 233.54 176.031L233.771 176.086C234.1 176.165 234.431 175.963 234.51 175.633L235.607 171.072C235.686 170.743 235.483 170.411 235.154 170.332Z" fill="white"/>
<path d="M233.569 176.857L233.338 176.801C233.009 176.722 232.678 176.925 232.599 177.254L231.501 181.815C231.422 182.145 231.625 182.476 231.954 182.555L232.184 182.61C232.513 182.69 232.845 182.487 232.924 182.158L234.021 177.596C234.101 177.267 233.898 176.936 233.569 176.857Z" fill="white"/>
<path d="M231.605 185.026L231.375 184.971C231.045 184.891 230.714 185.094 230.635 185.424L229.537 189.985C229.458 190.314 229.661 190.645 229.99 190.724L230.22 190.78C230.55 190.859 230.881 190.656 230.96 190.327L232.058 185.766C232.137 185.437 231.934 185.105 231.605 185.026Z" fill="white"/>
<path d="M230.036 191.522L229.806 191.466C229.477 191.387 229.146 191.59 229.066 191.919L227.969 196.48C227.89 196.81 228.092 197.141 228.422 197.22L228.652 197.276C228.981 197.355 229.312 197.152 229.392 196.823L230.489 192.262C230.568 191.932 230.366 191.601 230.036 191.522Z" fill="white"/>
<path d="M238.426 171.152L238.196 171.097C237.867 171.017 237.536 171.22 237.456 171.55L236.359 176.111C236.28 176.44 236.482 176.771 236.812 176.85L237.042 176.906C237.371 176.985 237.702 176.782 237.782 176.453L238.879 171.892C238.958 171.563 238.756 171.231 238.426 171.152Z" fill="white"/>
<path d="M236.89 177.627L236.66 177.571C236.33 177.492 235.999 177.695 235.92 178.024L234.824 182.586C234.745 182.915 234.948 183.246 235.277 183.326L235.507 183.381C235.837 183.46 236.168 183.257 236.247 182.928L237.343 178.366C237.422 178.037 237.219 177.706 236.89 177.627Z" fill="white"/>
<path d="M244.45 172.573L244.22 172.517C243.891 172.438 243.559 172.641 243.48 172.97L242.383 177.532C242.304 177.861 242.507 178.192 242.836 178.271L243.066 178.327C243.396 178.406 243.727 178.203 243.806 177.874L244.903 173.312C244.982 172.983 244.779 172.652 244.45 172.573Z" fill="white"/>
<path d="M242.865 179.088L242.635 179.033C242.305 178.953 241.974 179.156 241.895 179.485L240.797 184.047C240.718 184.376 240.921 184.707 241.25 184.786L241.48 184.842C241.81 184.921 242.141 184.718 242.22 184.389L243.318 179.828C243.397 179.499 243.194 179.167 242.865 179.088Z" fill="white"/>
<path d="M240.013 189.017L239.783 188.961C239.454 188.882 239.122 189.085 239.043 189.414L238.529 191.548C238.45 191.878 238.653 192.209 238.982 192.288L239.212 192.343C239.542 192.423 239.873 192.22 239.952 191.891L240.466 189.756C240.545 189.427 240.342 189.096 240.013 189.017Z" fill="white"/>
<path d="M233.406 193.345L233.176 193.289C232.846 193.21 232.515 193.413 232.436 193.743L232.005 195.537C231.926 195.866 232.129 196.197 232.458 196.276L232.688 196.332C233.018 196.411 233.349 196.208 233.428 195.879L233.859 194.084C233.938 193.755 233.735 193.424 233.406 193.345Z" fill="white"/>
<path d="M239.229 171.718L239.173 171.948C239.094 172.278 239.297 172.609 239.626 172.688L242.43 173.362C242.76 173.441 243.091 173.238 243.17 172.909L243.225 172.678C243.304 172.349 243.101 172.018 242.772 171.939L239.968 171.265C239.639 171.186 239.308 171.389 239.229 171.718Z" fill="white"/>
<path d="M234.318 186.282L234.263 186.512C234.183 186.842 234.386 187.173 234.716 187.252L240.177 188.565C240.506 188.644 240.837 188.441 240.916 188.112L240.972 187.882C241.051 187.553 240.848 187.221 240.519 187.142L235.058 185.829C234.728 185.75 234.397 185.953 234.318 186.282Z" fill="white"/>
<path d="M232.894 191.918L232.839 192.148C232.759 192.477 232.962 192.808 233.291 192.888L238.852 194.226C239.181 194.305 239.512 194.102 239.592 193.773L239.647 193.543C239.726 193.213 239.523 192.882 239.194 192.803L233.634 191.465C233.305 191.386 232.973 191.588 232.894 191.918Z" fill="white"/>
<path d="M231.623 197.083L231.567 197.313C231.488 197.643 231.691 197.974 232.02 198.053L237.351 199.334C237.68 199.413 238.011 199.21 238.09 198.881L238.146 198.65C238.225 198.321 238.022 197.99 237.693 197.911L232.362 196.63C232.033 196.551 231.702 196.754 231.623 197.083Z" fill="white"/>
<path d="M236.532 182.9L236.477 183.13C236.398 183.459 236.6 183.791 236.93 183.87L239.734 184.544C240.063 184.623 240.394 184.42 240.473 184.091L240.529 183.861C240.608 183.532 240.405 183.2 240.076 183.121L237.272 182.447C236.943 182.368 236.611 182.571 236.532 182.9Z" fill="white"/>
<path d="M235.515 203.111C235.456 202.724 235.295 202.36 235.048 202.056C234.801 201.753 234.478 201.521 234.111 201.384C233.368 201.137 231.889 201.384 231.534 202.46C231.722 201.325 230.512 200.437 229.737 200.308C229.347 200.266 228.954 200.327 228.596 200.486C228.238 200.644 227.928 200.895 227.698 201.212C227.249 201.86 227.057 202.652 227.16 203.434C227.259 204.211 227.515 204.96 227.913 205.634C228.512 206.628 229.263 207.522 230.14 208.281C231.266 208.002 232.34 207.548 233.325 206.936C233.986 206.516 234.555 205.967 234.998 205.322C235.437 204.674 235.621 203.887 235.515 203.111Z" fill="#F5F5F5"/>
<path d="M255.012 251.187C255.012 251.268 201.938 251.327 136.485 251.327C71.0321 251.327 17.9423 251.246 17.9423 251.187C17.9423 251.128 71.0052 251.047 136.485 251.047C201.965 251.047 255.012 251.112 255.012 251.187Z" fill="#263238"/>
<path d="M105.663 43.04C105.38 42.4249 104.941 41.8944 104.39 41.501C103.839 41.1075 103.195 40.8647 102.521 40.7965C101.139 40.6889 98.6907 41.652 98.5347 43.5511C98.3787 41.652 95.9254 40.6889 94.5481 40.7965C93.8744 40.8647 93.2302 41.1075 92.6792 41.501C92.1281 41.8944 91.6893 42.4249 91.4062 43.04C90.9019 44.2429 90.8923 45.5961 91.3793 46.806C91.892 48.021 92.6461 49.1192 93.5959 50.034C95.058 51.4126 96.7238 52.5576 98.5347 53.4288C100.345 52.5563 102.01 51.4114 103.474 50.034C104.423 49.1205 105.176 48.0218 105.685 46.806C106.176 45.5973 106.169 44.243 105.663 43.04Z" fill="#136AFD"/>
<path d="M67.2177 126.059C67.0726 125.744 66.8471 125.472 66.5637 125.272C66.2804 125.072 65.9493 124.95 65.6037 124.918C64.9043 124.864 63.6562 125.354 63.5809 126.317C63.5002 125.354 62.252 124.864 61.5526 124.918C61.2075 124.951 60.8771 125.074 60.594 125.274C60.311 125.474 60.085 125.745 59.9386 126.059C59.6857 126.676 59.6857 127.368 59.9386 127.985C60.1953 128.607 60.5782 129.169 61.063 129.636C61.8075 130.337 62.6548 130.919 63.5755 131.363C64.4937 130.918 65.339 130.336 66.0826 129.636C66.5674 129.169 66.9502 128.607 67.207 127.985C67.3365 127.681 67.4042 127.354 67.406 127.023C67.4079 126.692 67.3439 126.364 67.2177 126.059Z" fill="#136AFD"/>
<path d="M217.433 119.285C217.095 118.547 216.569 117.91 215.908 117.438C215.248 116.966 214.475 116.676 213.667 116.595C212.02 116.472 209.099 117.618 208.911 119.883C208.728 117.618 205.801 116.472 204.155 116.595C203.347 116.675 202.574 116.966 201.913 117.438C201.252 117.91 200.727 118.547 200.389 119.285C199.782 120.729 199.773 122.354 200.362 123.805C200.964 125.267 201.864 126.587 203.004 127.684C204.746 129.326 206.731 130.691 208.889 131.729C211.059 130.694 213.055 129.329 214.807 127.684C215.945 126.586 216.845 125.266 217.449 123.805C218.042 122.355 218.036 120.73 217.433 119.285Z" fill="#136AFD"/>
<path d="M103.7 132.197C105.4 129.421 107.686 126.973 108.886 123.95C109.588 121.938 110.038 119.847 110.225 117.725C112.377 101.144 94.6235 110.554 112.824 59.761H165.731C173.898 72.6515 178.736 87.3688 179.81 102.591C180.348 110.435 180.295 119.323 186.03 124.698C188.451 126.968 191.851 128.544 192.916 131.692C193.825 134.382 192.685 137.351 193.196 140.138C193.798 143.404 196.494 145.798 198.484 148.461C201.348 152.323 202.852 157.024 202.761 161.83C202.708 164.122 202.127 166.672 200.211 167.915C199.022 168.69 197.548 168.824 196.133 168.932C165.225 171.321 133.978 173.699 103.355 168.862C101.741 162.783 100.127 156.649 99.7883 150.366C99.4493 144.082 100.423 137.567 103.7 132.197Z" fill="#263238"/>
<path d="M180.768 172.37C180.768 172.37 180.816 172.3 180.897 172.16L181.241 171.531C181.683 170.711 182.064 169.86 182.382 168.986C182.859 167.602 183.19 166.172 183.372 164.719C183.613 162.793 183.597 160.842 183.323 158.92C182.974 156.588 182.232 154.332 181.128 152.249C179.945 150.005 178.299 147.832 177.18 145.255C176.888 144.595 176.648 143.913 176.464 143.216C176.303 142.509 176.209 141.788 176.184 141.064C176.181 139.557 176.362 138.056 176.722 136.593C177.045 135.086 177.47 133.569 177.798 132.009C178.165 130.421 178.346 128.796 178.336 127.167C178.277 123.853 177.443 120.711 176.529 117.763C175.614 114.815 174.581 112.012 173.839 109.273C172.486 104.431 171.564 99.4778 171.084 94.4728C170.773 91.0983 170.656 87.7087 170.734 84.3207C170.772 83.121 170.804 82.1687 170.847 81.5608C170.847 81.2541 170.847 81.0228 170.88 80.8399C170.912 80.6569 170.88 80.5924 170.88 80.5924C170.866 80.6743 170.857 80.757 170.853 80.8399C170.853 81.012 170.815 81.2487 170.793 81.5554C170.734 82.1849 170.68 83.1156 170.632 84.3154C170.509 87.7087 170.597 91.1065 170.896 94.4889C171.345 99.5075 172.245 104.475 173.586 109.332C174.328 112.076 175.334 114.89 176.276 117.833C177.217 120.776 178.008 123.891 178.062 127.156C178.116 130.422 177.104 133.505 176.448 136.523C176.093 138.01 175.921 139.535 175.937 141.064C175.963 141.806 176.06 142.545 176.227 143.269C176.402 143.975 176.633 144.666 176.916 145.335C178.056 147.966 179.714 150.134 180.892 152.329C181.993 154.388 182.739 156.618 183.098 158.925C183.594 162.282 183.303 165.708 182.247 168.932C181.942 169.804 181.583 170.655 181.171 171.482C181.037 171.756 180.929 171.972 180.849 172.122L180.768 172.37Z" fill="#455A64"/>
<path d="M110.532 72.4793C111.135 63.1881 117.316 51.804 126.57 52.8047L147.982 58.2654C154.853 60.0193 159.431 65.7974 159.931 72.8936C159.958 73.2433 159.996 72.8129 159.99 73.0819L156.391 127.651L139.132 160.432L124.95 130.196C124.95 125.677 124.95 118.833 124.95 118.855C124.95 118.876 113.082 116.859 110.661 101.37C109.445 93.6873 109.86 82.7982 110.532 72.4793Z" fill="#FFBF9D"/>
<path d="M116.746 85.7195C116.739 86.2379 116.934 86.7386 117.291 87.1146C117.648 87.4906 118.138 87.7121 118.656 87.7317C118.908 87.7522 119.163 87.7219 119.403 87.6427C119.644 87.5635 119.866 87.437 120.057 87.2706C120.248 87.1041 120.404 86.9011 120.515 86.6736C120.627 86.446 120.691 86.1985 120.706 85.9455C120.712 85.4275 120.516 84.9276 120.159 84.5519C119.802 84.1762 119.313 83.9543 118.796 83.9334C118.543 83.9129 118.289 83.9431 118.049 84.0223C117.808 84.1015 117.586 84.228 117.395 84.3945C117.204 84.5609 117.048 84.7639 116.936 84.9915C116.825 85.219 116.76 85.4666 116.746 85.7195Z" fill="#263238"/>
<path d="M112.856 78.548C113.104 78.8116 114.61 77.6979 116.746 77.7087C118.882 77.7195 120.447 78.7847 120.679 78.5318C120.792 78.4135 120.544 77.9454 119.861 77.4558C118.939 76.8098 117.839 76.4675 116.714 76.4767C115.602 76.4695 114.517 76.8162 113.615 77.4666C112.98 77.9616 112.733 78.4296 112.856 78.548Z" fill="#263238"/>
<path d="M136.227 86.1876C136.22 86.7054 136.415 87.2055 136.773 87.5807C137.13 87.9558 137.619 88.1761 138.137 88.1943C138.389 88.2148 138.644 88.1846 138.884 88.1054C139.125 88.0262 139.347 87.8997 139.538 87.7332C139.729 87.5668 139.885 87.3638 139.996 87.1362C140.108 86.9087 140.172 86.6611 140.187 86.4082C140.193 85.8907 139.996 85.3914 139.64 85.0166C139.283 84.6418 138.794 84.421 138.277 84.4014C138.024 84.3802 137.77 84.4099 137.529 84.4888C137.288 84.5677 137.065 84.6942 136.874 84.8608C136.683 85.0274 136.527 85.2306 136.416 85.4586C136.305 85.6865 136.241 85.9344 136.227 86.1876Z" fill="#263238"/>
<path d="M133.15 78.548C133.397 78.8116 134.903 77.698 137.039 77.7087C139.175 77.7195 140.741 78.7847 140.972 78.5319C141.085 78.4135 140.843 77.9454 140.154 77.4559C139.234 76.8082 138.133 76.4658 137.007 76.4767C135.897 76.4703 134.814 76.817 133.914 77.4666C133.257 77.9616 133.031 78.4296 133.15 78.548Z" fill="#263238"/>
<path d="M126.468 95.3282C126.468 95.2045 125.15 94.9731 122.998 94.6934C122.46 94.6342 121.922 94.5266 121.846 94.1554C121.771 93.7841 121.948 93.1708 122.217 92.5414C122.755 91.2233 123.293 89.8514 123.831 88.3934C126.086 82.4754 127.721 77.6334 127.479 77.5312C127.237 77.4289 125.22 82.1633 122.965 88.0706L121.41 92.2508C121.206 92.8695 120.846 93.5689 121.125 94.4028C121.203 94.5953 121.324 94.7672 121.479 94.9053C121.634 95.0434 121.818 95.1439 122.018 95.1991C122.32 95.283 122.631 95.3282 122.944 95.3336C125.117 95.4358 126.462 95.4519 126.468 95.3282Z" fill="#263238"/>
<path d="M145.475 113.367C145.475 113.367 140.434 124.004 124.94 122.513V118.898C132.165 118.993 139.275 117.079 145.475 113.367Z" fill="#FF9A6C"/>
<path d="M133.822 70.8223C134.032 71.4034 136.162 71.1343 138.664 71.441C141.166 71.7477 143.2 72.4363 143.533 71.9145C143.684 71.667 143.329 71.1182 142.516 70.5533C141.426 69.8625 140.193 69.4285 138.911 69.284C137.628 69.1395 136.33 69.2884 135.113 69.7194C134.193 70.0906 133.731 70.5479 133.822 70.8223Z" fill="#263238"/>
<path d="M113.55 72.0059C113.927 72.4955 115.401 72.0059 117.171 71.9736C118.941 71.9414 120.442 72.3072 120.786 71.8015C120.937 71.554 120.7 71.0644 120.049 70.6071C119.171 70.0549 118.148 69.7759 117.111 69.8056C116.073 69.8353 115.068 70.1723 114.223 70.7739C113.593 71.2689 113.389 71.7692 113.55 72.0059Z" fill="#263238"/>
<path d="M131.724 99.3847C132.128 99.9137 132.398 100.532 132.512 101.188C132.625 101.844 132.578 102.518 132.375 103.152C132.173 103.786 131.82 104.361 131.346 104.829C130.873 105.298 130.294 105.645 129.658 105.841C129.154 106.013 128.607 106.013 128.103 105.841C127.232 105.513 126.796 104.555 126.452 103.689C126.161 102.973 125.876 102.252 125.585 101.537C125.521 101.423 125.481 101.298 125.467 101.168C125.453 101.039 125.466 100.908 125.505 100.784C125.586 100.669 125.69 100.573 125.81 100.502C125.931 100.43 126.065 100.385 126.204 100.369L131.584 99.0835" fill="#FF9A6C"/>
<path d="M128.222 105.604C128.222 105.658 129.168 105.765 130.653 105.297C131.562 105.009 132.33 104.391 132.805 103.565C133.079 103.058 133.193 102.481 133.133 101.908C133.098 101.316 132.954 100.737 132.708 100.197C132.466 99.6719 132.125 99.1987 131.702 98.8037L131.562 98.6746L131.385 98.7391C127.84 99.9873 125.063 100.622 125.096 100.773C125.128 100.923 127.974 100.547 131.589 99.3309L131.272 99.2664C131.629 99.6084 131.918 100.016 132.122 100.466C132.531 101.424 132.692 102.532 132.283 103.291C131.892 104.008 131.265 104.569 130.508 104.878C129.158 105.416 128.195 105.486 128.222 105.604Z" fill="#263238"/>
<path d="M133.79 44.272C143.178 43.422 152.421 45.0198 159.512 51.2284C166.021 56.9258 169.083 62.3865 170.105 71.2366C170.455 74.2709 169.54 81.0551 168.491 83.9119C167.442 86.7686 164.418 94.0316 161.615 95.2368C158.812 96.4419 157.139 91.6483 155.019 89.4533C153.717 88.1136 153.066 86.2952 152.421 84.5413C149.731 77.1384 146.503 69.7571 141.446 63.7207C136.388 57.6844 129.12 53.0683 121.244 52.724L116.229 52.9015C122.255 46.311 127.603 44.8369 133.79 44.272Z" fill="#455A64"/>
<path d="M116.208 52.5303C119.371 49.3023 123.627 47.3655 128.001 46.2895C131.783 45.3272 135.717 45.1224 139.579 45.687C148.187 45.687 159.232 57.8458 161.255 66.2063C162.218 70.1982 161.895 74.3785 161.389 78.4512C161.136 80.5225 160.824 82.626 159.926 84.5037C159.027 86.3813 157.435 88.0437 155.401 88.5333C153.368 89.0229 150.952 88.0437 150.226 86.0908C149.688 84.622 150.129 82.9327 149.612 81.4532C148.423 78.0746 143.237 77.8486 141.542 74.6798C140.337 72.3933 141.413 69.3643 140.095 67.1478C138.777 64.9312 135.91 64.56 133.548 63.6508C131.597 62.8717 129.859 61.64 128.477 60.0573C127.096 58.4746 126.11 56.5862 125.601 54.5478H125.408C116.025 54.8007 111.592 69.6979 110.425 73.8082C109.3 67.9386 112.017 56.7859 116.208 52.5303Z" fill="#263238"/>
<path d="M155.326 55.9143C155.226 55.9184 155.127 55.931 155.03 55.952L154.18 56.1026C153.809 56.178 153.357 56.2587 152.83 56.334C152.302 56.4093 151.711 56.5223 151.043 56.5976C149.72 56.7805 148.127 56.9204 146.363 57.0226C144.598 57.1248 142.645 57.1195 140.606 57.0226C138.567 56.9258 136.625 56.7267 134.877 56.4846C133.128 56.2425 131.552 55.9466 130.25 55.6346C129.593 55.4947 129.007 55.3387 128.496 55.2096C127.985 55.0804 127.533 54.9621 127.172 54.8545L126.344 54.6231C126.247 54.5943 126.148 54.5728 126.048 54.5586C126.135 54.6107 126.229 54.6505 126.328 54.6769L127.145 54.9567C127.501 55.0751 127.936 55.2149 128.453 55.3548C128.969 55.4947 129.529 55.6722 130.207 55.8175C131.509 56.1511 133.08 56.4523 134.839 56.7321C136.598 57.0119 138.54 57.1948 140.595 57.297C142.651 57.3992 144.598 57.3562 146.374 57.2647C148.149 57.1733 149.741 56.9903 151.07 56.7805C151.737 56.6944 152.335 56.5761 152.857 56.4792C153.378 56.3824 153.836 56.2909 154.196 56.1995L155.041 56.0004C155.14 55.9864 155.236 55.9574 155.326 55.9143Z" fill="#455A64"/>
<path d="M159.377 61.332C159.256 61.3479 159.137 61.3767 159.022 61.4181L158.016 61.714L157.295 61.9346C157.031 62.0099 156.757 62.0691 156.424 62.1444C155.794 62.2843 155.089 62.4887 154.272 62.5963L153.018 62.8061C152.582 62.8814 152.12 62.903 151.646 62.9568C150.699 63.0751 149.682 63.0859 148.612 63.1182C146.291 63.109 143.976 62.8802 141.698 62.4349C139.426 61.9494 137.204 61.2542 135.06 60.3582L133.65 59.718C133.182 59.5189 132.762 59.2607 132.337 59.0455C131.912 58.8303 131.503 58.6259 131.127 58.3891L130.051 57.7274C129.351 57.3239 128.77 56.8666 128.238 56.5061C127.974 56.3232 127.7 56.1564 127.506 55.9681L126.914 55.5001L126.086 54.8599C125.993 54.7807 125.894 54.7088 125.79 54.6447C125.79 54.6447 125.87 54.7415 126.053 54.8975C126.236 55.0535 126.516 55.301 126.844 55.5808L127.425 56.0704C127.641 56.2479 127.888 56.4147 128.146 56.6084C128.684 56.9796 129.249 57.4476 129.949 57.8673L131.025 58.5452C131.401 58.7873 131.821 58.9863 132.235 59.223C132.649 59.4598 133.085 59.7072 133.553 59.9117L134.984 60.568C137.139 61.4821 139.377 62.1883 141.666 62.677C143.97 63.1296 146.313 63.353 148.66 63.3441C149.736 63.3065 150.758 63.2849 151.711 63.1558C152.189 63.0966 152.652 63.0751 153.088 62.989L154.347 62.7631C155.072 62.636 155.791 62.4708 156.499 62.2681C156.811 62.1874 157.107 62.1229 157.37 62.0368L158.086 61.7947L159.076 61.445C159.179 61.4149 159.28 61.3771 159.377 61.332Z" fill="#455A64"/>
<path d="M155.073 87.3658C155.127 86.2898 156.477 83.885 157.532 83.7774C160.335 83.4868 165.344 83.971 165.021 91.0457C164.585 100.73 154.966 98.2818 154.96 98.0021C154.955 97.7223 154.874 91.0081 155.073 87.3658Z" fill="#FFBF9D"/>
<path d="M158.08 94.4728C158.124 94.4728 158.242 94.5965 158.522 94.7418C158.915 94.9308 159.366 94.9597 159.781 94.8225C160.819 94.4943 161.755 92.9126 161.879 91.1748C161.941 90.3458 161.818 89.5132 161.518 88.7377C161.441 88.4313 161.291 88.1483 161.08 87.913C160.869 87.6778 160.604 87.4973 160.308 87.3873C160.117 87.3275 159.912 87.3362 159.727 87.4118C159.543 87.4875 159.39 87.6254 159.296 87.8016C159.151 88.0706 159.205 88.2643 159.151 88.2804C159.097 88.2965 158.952 88.1082 159.049 87.7101C159.114 87.4738 159.259 87.2669 159.458 87.1237C159.733 86.9356 160.071 86.8622 160.399 86.9193C160.793 87.0169 161.155 87.2134 161.452 87.4902C161.748 87.767 161.969 88.1149 162.094 88.501C162.466 89.3577 162.623 90.2921 162.551 91.2233C162.401 93.1654 161.325 94.9462 159.904 95.2852C159.641 95.3486 159.367 95.3521 159.103 95.2953C158.838 95.2385 158.59 95.1229 158.376 94.957C158.086 94.688 158.048 94.4889 158.08 94.4728Z" fill="#FF9A6C"/>
<path d="M159.974 96.953C160.566 97.1732 161.05 97.6143 161.324 98.1836C161.598 98.753 161.641 99.4063 161.443 100.006C161.245 100.606 160.823 101.107 160.264 101.402C159.706 101.697 159.054 101.764 158.447 101.59C157.84 101.415 157.324 101.012 157.008 100.464C156.692 99.9175 156.6 99.2693 156.752 98.6559C156.904 98.0426 157.287 97.5119 157.822 97.1753C158.356 96.8387 159.001 96.7224 159.619 96.8508" fill="#E0E0E0"/>
<path d="M114.379 128.044L127.587 125.187L156.397 124.574L167.732 128.378C167.732 128.378 157.822 138.971 149.44 140.052C141.268 141.128 128.254 141.51 123.078 138.293C117.903 135.076 114.379 128.044 114.379 128.044Z" fill="#FFBF9D"/>
<path d="M183.517 202.826L179.278 172.881L206.054 176.367L198.522 153.206C196.617 147.041 192.911 138.47 189.209 135.544C184.303 131.659 175.221 127.64 164.079 126.452C164.079 126.452 156.402 137.308 137.927 136.501C119.452 135.694 115.67 127.065 115.67 127.065C115.035 127.463 97.3403 131.907 91.6483 136.706C85.9563 141.505 81.1143 158.398 81.1143 158.398L102.527 198.646C102.527 198.646 90.1527 224.47 89.9159 251.187H194.955C194.955 251.187 189.263 233.664 186.401 218.616C185.26 212.634 183.517 202.826 183.517 202.826Z" fill="#455A64"/>
<path d="M168.932 128.006C168.923 128.067 168.909 128.126 168.889 128.184C168.851 128.313 168.798 128.48 168.738 128.69C168.536 129.34 168.292 129.976 168.007 130.594C167.546 131.571 166.995 132.502 166.36 133.376C165.527 134.54 164.563 135.605 163.487 136.55C160.678 139.011 157.349 140.808 153.75 141.806C151.629 142.381 149.458 142.753 147.267 142.92C144.917 143.087 142.558 143.087 140.208 142.92C137.798 142.753 135.452 142.468 133.214 142.134C130.976 141.801 128.792 141.44 126.758 140.983C123.104 140.259 119.593 138.941 116.364 137.082C114.202 135.804 112.286 134.147 110.71 132.192C110.127 131.48 109.622 130.708 109.203 129.889C109.203 129.889 109.246 129.938 109.311 130.035L109.596 130.481C109.965 131.05 110.366 131.598 110.796 132.122C112.389 134.039 114.309 135.66 116.466 136.91C119.687 138.733 123.18 140.025 126.812 140.735C128.851 141.182 131.014 141.537 133.268 141.865C135.522 142.193 137.857 142.473 140.262 142.64C142.59 142.803 144.928 142.803 147.256 142.64C149.437 142.485 151.599 142.125 153.712 141.564C157.283 140.586 160.592 138.823 163.396 136.405C164.466 135.476 165.43 134.431 166.269 133.29C166.909 132.43 167.471 131.516 167.947 130.556C168.24 129.945 168.499 129.319 168.722 128.679C168.792 128.469 168.851 128.308 168.9 128.179C168.905 128.12 168.916 128.063 168.932 128.006Z" fill="#263238"/>
<path d="M161.438 204.978L161.33 205.048L161.007 205.22L159.748 205.855C158.672 206.393 157.058 207.173 155.057 208.088C151.07 209.906 145.475 212.246 139.154 214.431C132.832 216.615 126.979 218.224 122.712 219.246C120.56 219.784 118.855 220.144 117.65 220.381L116.267 220.655L115.907 220.72C115.864 220.726 115.82 220.726 115.778 220.72L115.896 220.682L116.256 220.591L117.628 220.263C118.823 219.994 120.544 219.579 122.669 219.041C126.914 217.965 132.741 216.351 139.062 214.156C145.384 211.961 150.974 209.669 154.976 207.894C156.978 207.006 158.592 206.28 159.7 205.742L160.98 205.15L161.319 205.005C161.4 204.978 161.432 204.978 161.438 204.978Z" fill="#263238"/>
<path d="M163.165 195.579C163.044 195.67 162.916 195.751 162.783 195.821L161.658 196.478C160.679 197.042 159.248 197.828 157.456 198.775C153.884 200.663 148.848 203.122 143.173 205.5C137.497 207.878 132.192 209.718 128.334 210.928C126.408 211.536 124.838 212.004 123.751 212.3L122.492 212.639C122.347 212.682 122.2 212.716 122.051 212.741C122.187 212.676 122.329 212.623 122.476 212.585L123.718 212.193C124.794 211.864 126.355 211.369 128.275 210.74C132.111 209.486 137.373 207.614 143.06 205.242C148.746 202.869 153.777 200.443 157.37 198.597C159.167 197.677 160.598 196.919 161.604 196.381L162.756 195.773C162.887 195.697 163.023 195.633 163.165 195.579Z" fill="#263238"/>
<path d="M118.398 130.734C117.404 131.351 116.365 131.891 115.288 132.348C114.251 132.888 113.171 133.344 112.06 133.709C113.051 133.091 114.089 132.552 115.164 132.095C116.203 131.554 117.285 131.099 118.398 130.734Z" fill="#263238"/>
<path d="M118.36 137.932C119.731 136.206 121.409 134.747 123.31 133.628C123.353 133.693 122.185 134.57 120.819 135.78C119.452 136.991 118.408 137.986 118.36 137.932Z" fill="#263238"/>
<path d="M125.171 140.827C125.93 138.899 126.859 137.043 127.947 135.28C127.615 136.262 127.193 137.211 126.688 138.115C126.264 139.063 125.757 139.97 125.171 140.827Z" fill="#263238"/>
<path d="M133.424 141.962C133.472 140.05 133.836 138.16 134.5 136.367C134.395 137.313 134.228 138.251 134 139.175C133.869 140.116 133.676 141.047 133.424 141.962Z" fill="#263238"/>
<path d="M140.197 142.57C140.083 141.597 140.059 140.615 140.127 139.638C140.105 138.656 140.173 137.675 140.332 136.706C140.453 137.68 140.479 138.664 140.407 139.643C140.433 140.623 140.363 141.604 140.197 142.57Z" fill="#263238"/>
<path d="M147.686 141.881C147.349 140.999 147.098 140.085 146.939 139.154C146.688 138.243 146.53 137.309 146.465 136.367C146.802 137.25 147.053 138.163 147.213 139.095C147.46 140.006 147.618 140.939 147.686 141.881Z" fill="#263238"/>
<path d="M154.207 141.698C153.982 141.403 153.8 141.077 153.669 140.73C153.309 139.923 153 139.095 152.744 138.25C152.487 137.404 152.282 136.544 152.13 135.673C152.046 135.321 152.012 134.959 152.028 134.597C152.109 134.597 152.41 136.211 153.013 138.191C153.615 140.171 154.282 141.661 154.207 141.698Z" fill="#263238"/>
<path d="M160.362 138.578C160.286 138.61 159.512 137.217 158.446 135.554C157.381 133.892 156.44 132.601 156.504 132.552C157.344 133.411 158.075 134.368 158.683 135.404C159.367 136.392 159.93 137.457 160.362 138.578Z" fill="#263238"/>
<path d="M166.242 134.565C165.402 133.763 164.627 132.895 163.923 131.971C163.148 131.104 162.445 130.176 161.82 129.195C163.434 130.869 164.912 132.668 166.242 134.575V134.565Z" fill="#263238"/>
<path d="M111.005 169.029C112.29 164.734 114.781 160.899 118.182 157.978C121.249 155.342 124.692 152.453 125.585 151.974C126.901 151.362 128.307 150.968 129.749 150.807C129.749 150.807 150.699 147.423 154.998 147.681C159.296 147.939 158.382 152.109 154.347 152.238C150.312 152.367 141.462 155.095 141.462 155.095C141.991 155.347 142.427 155.76 142.707 156.275C142.987 156.79 143.097 157.381 143.022 157.962C142.893 160.173 141.591 160.437 141.591 160.437C141.591 160.437 142.5 162.39 142.371 163.557C142.242 164.725 141.069 166.28 141.069 166.28C141.069 166.28 142.371 167.985 141.72 169.545C141.069 171.106 138.729 173.058 138.729 173.058C138.729 173.058 129.341 178.266 127.463 178.137C126.099 178.064 124.732 178.064 123.369 178.137L121.55 179.961L111.005 169.029Z" fill="#FFBF9D"/>
<path d="M141.494 154.998C140.908 155.179 140.299 155.273 139.686 155.278C139.082 155.368 138.467 155.368 137.863 155.278C138.445 155.09 139.053 154.996 139.665 154.998C140.271 154.907 140.888 154.907 141.494 154.998Z" fill="#FF9A6C"/>
<path d="M141.725 160.421C141.152 160.619 140.558 160.752 139.955 160.819C139.37 160.976 138.769 161.066 138.164 161.088C138.706 160.8 139.297 160.617 139.907 160.55C140.499 160.391 141.117 160.347 141.725 160.421Z" fill="#FF9A6C"/>
<path d="M141.65 165.51C141.026 165.785 140.38 166.004 139.719 166.167C139.082 166.416 138.425 166.61 137.755 166.748C138.324 166.352 138.96 166.064 139.633 165.898C140.275 165.645 140.959 165.514 141.65 165.51Z" fill="#FF9A6C"/>
<g opacity="0.3">
<path d="M94.0962 229.317C97.8889 228.558 101.526 227.164 104.856 225.196C110.876 221.634 115.686 216.281 119.501 210.417C123.315 204.553 126.204 198.135 129.077 191.754L125.65 189.763L96.84 212.854L94.1123 223.205L94.0962 229.317Z" fill="#263238"/>
</g>
<path d="M81.0927 158.678C81.0927 158.678 72.2749 187.289 71.2689 191.318C70.2628 195.348 68.6488 206.624 70.2628 212.467C71.8768 218.31 77.9777 228.79 86.4028 227.977C94.8279 227.165 99.8044 222.953 106.363 217.648C115.18 210.509 128.205 187.283 127.49 187.089L111.366 164.128L95.6618 182.484L81.0927 158.678Z" fill="#455A64"/>
<path d="M86.3383 192.776C86.3383 192.776 86.3706 192.728 86.4459 192.636L86.7902 192.227L88.1352 190.656L93.2462 184.738L111.253 164.031L111.361 163.907L111.452 164.042C116.127 170.691 121.367 178.153 126.887 186.013L127.576 186.998L127.624 187.068L127.587 187.138C123.638 195.03 119.404 202.331 114.772 208.41C112.579 211.292 110.182 214.012 107.6 216.55C105.395 218.788 103.023 220.854 100.504 222.732C95.834 226.143 91.2664 227.687 88.0653 227.988L86.9301 228.112L85.9294 228.139H85.074L84.3692 228.096L83.4062 228.031C83.191 228.031 83.0834 227.999 83.0834 227.999C83.0834 227.999 83.191 227.999 83.4116 227.999L84.3692 228.037H85.074L85.9294 228.004L86.9247 227.961L88.0491 227.827C91.2287 227.493 95.7587 225.933 100.391 222.522C102.897 220.64 105.257 218.57 107.449 216.33C110.02 213.815 112.407 211.12 114.594 208.265C119.199 202.197 123.417 194.907 127.366 187.025V187.17L126.672 186.186L111.248 164.198H111.447L93.3592 184.841L88.1998 190.699L86.8225 192.244L86.462 192.636C86.4236 192.685 86.3823 192.732 86.3383 192.776Z" fill="#263238"/>
<path d="M79.6509 191.969C79.752 191.777 79.8748 191.596 80.0167 191.431C80.1405 191.259 80.3126 191.065 80.5117 190.839C80.7107 190.613 80.9475 190.361 81.2218 190.097C82.6599 188.733 84.2717 187.564 86.0154 186.621C87.7477 185.66 89.5953 184.922 91.5138 184.426C91.885 184.335 92.2186 184.26 92.5198 184.217C92.7721 184.166 93.0272 184.13 93.2838 184.109C93.5024 184.073 93.7244 184.062 93.9455 184.077C93.9455 184.13 93.0148 184.211 91.5676 184.615C89.6832 185.159 87.866 185.914 86.1499 186.864C84.4256 187.796 82.8167 188.929 81.3563 190.237C80.2481 191.243 79.6939 192.001 79.6509 191.969Z" fill="#263238"/>
<path d="M97.0337 180.526C96.8346 180.303 96.6547 180.063 96.4957 179.81C96.1782 179.342 95.7263 178.654 95.1937 177.793C94.1177 176.066 92.7135 173.634 91.2932 170.88C89.8729 168.125 88.6893 165.58 87.8608 163.73C87.4411 162.799 87.1129 162.051 86.8977 161.524C86.7708 161.258 86.6647 160.983 86.5803 160.701C86.7414 160.948 86.8801 161.209 86.9946 161.481L88.0383 163.633C88.9152 165.462 90.1257 167.99 91.5407 170.74C92.9556 173.489 94.3329 175.931 95.3605 177.68L96.5871 179.74C96.7594 179.988 96.9088 180.251 97.0337 180.526Z" fill="#263238"/>
<path d="M181.462 108.165L187.461 115.487C188.181 116.281 188.612 117.296 188.682 118.365C188.849 121.055 189.129 126.215 188.816 127.011C188.391 128.087 183.436 140.375 183.544 142.075C183.652 143.775 184.227 147.035 184.227 147.035L169.056 151.302C169.056 151.302 167.915 145.26 167.366 142.118C166.818 138.976 167.296 130.766 167.296 130.766C167.296 130.766 166.99 128.512 166.785 127.856C166.581 127.199 165.413 125.402 165.645 123.762C165.716 123.293 165.905 122.85 166.194 122.473C166.483 122.097 166.862 121.8 167.296 121.61L168.41 121.341C168.47 121.024 168.596 120.725 168.782 120.462C168.968 120.199 169.208 119.979 169.486 119.818C170.438 119.226 172.639 119.382 172.639 119.382C172.639 119.382 172.827 117.408 174.468 116.837C174.935 116.669 175.436 116.618 175.927 116.69C176.418 116.763 176.884 116.955 177.282 117.252C177.282 117.252 177.228 115.197 178.546 114.782C179.415 114.562 180.335 114.683 181.118 115.121C181.118 115.121 179.654 112.431 180.042 110.247C180.44 108.165 181.462 108.165 181.462 108.165Z" fill="#FFBF9D"/>
<path d="M171.816 125.558C171.773 125.558 171.751 125.236 171.584 124.762C171.345 124.144 170.978 123.583 170.508 123.116C170.035 122.647 169.522 122.22 168.975 121.841C168.555 121.534 168.303 121.341 168.324 121.303C168.596 121.384 168.852 121.509 169.083 121.674C169.673 122.017 170.216 122.437 170.697 122.922C171.188 123.418 171.545 124.031 171.735 124.703C171.847 124.974 171.875 125.272 171.816 125.558Z" fill="#FF9A6C"/>
<path d="M175.544 122.406C175.474 122.449 174.958 121.733 174.188 120.975C173.419 120.216 172.703 119.7 172.746 119.63C173.376 119.877 173.938 120.27 174.387 120.776C174.897 121.219 175.294 121.778 175.544 122.406Z" fill="#FF9A6C"/>
<path d="M179.504 120.361C179.057 119.86 178.656 119.32 178.304 118.747C177.876 118.221 177.496 117.658 177.169 117.063C178.195 117.973 178.995 119.109 179.504 120.383V120.361Z" fill="#FF9A6C"/>
<path d="M186.094 121.018C185.624 119.787 184.963 118.638 184.136 117.612C183.238 116.646 182.216 115.803 181.096 115.105C181.482 115.202 181.846 115.368 182.172 115.595C182.984 116.085 183.711 116.705 184.324 117.429C184.951 118.153 185.447 118.979 185.793 119.872C185.964 120.232 186.066 120.62 186.094 121.018Z" fill="#FF9A6C"/>
<path d="M177.072 124.187C176.436 124.211 175.82 124.412 175.292 124.767C174.765 125.123 174.347 125.619 174.086 126.199C174.054 126.199 174.059 125.962 174.204 125.618C174.411 125.183 174.731 124.811 175.13 124.542C175.533 124.267 176.004 124.111 176.491 124.09C176.857 124.074 177.077 124.154 177.072 124.187Z" fill="#FF9A6C"/>
<path d="M182.081 121.62C182.081 121.663 181.849 121.588 181.505 121.55C181.056 121.496 180.6 121.561 180.184 121.739C179.768 121.918 179.407 122.204 179.138 122.567C178.928 122.847 178.836 123.051 178.793 123.035C178.75 123.019 178.793 122.788 178.976 122.46C179.224 122.029 179.6 121.686 180.052 121.48C180.514 121.283 181.027 121.24 181.516 121.357C181.908 121.448 182.097 121.588 182.081 121.62Z" fill="#FF9A6C"/>
<path d="M172.262 126.478C171.756 126.537 171.269 126.702 170.831 126.963C170.438 127.286 170.115 127.687 169.884 128.141C169.847 128.141 169.836 127.942 169.938 127.657C170.085 127.281 170.342 126.958 170.675 126.731C171.001 126.499 171.389 126.371 171.789 126.365C172.095 126.365 172.273 126.43 172.262 126.478Z" fill="#FF9A6C"/>
<path d="M168.19 146.675C168.19 146.675 170.826 159.049 171.342 161.405C171.859 163.762 176.679 190.194 176.679 190.194L176.889 191.738L188.725 199.087C189.021 199.146 192.706 189.209 192.706 189.209L196.343 177.723C196.343 177.723 192.991 170.352 191.657 166.963C190.323 163.574 183.049 141.042 183.049 141.042L175.41 146.675H168.19Z" fill="#FFBF9D"/>
<path d="M186.641 146.941L183.313 147.781L184.399 152.079L187.727 151.239L186.641 146.941Z" fill="#136AFD"/>
<path d="M187.724 151.248C187.58 150.847 187.456 150.44 187.353 150.027C187.138 149.273 186.842 148.224 186.514 146.982L186.67 147.073L183.345 147.95L183.447 147.783V147.853V147.923L183.485 148.074L183.56 148.37L183.706 148.951C183.795 149.331 183.887 149.702 183.98 150.064C184.157 150.785 184.319 151.458 184.469 152.076L184.33 151.996C185.314 151.759 186.137 151.576 186.729 151.458C187.044 151.374 187.364 151.313 187.687 151.275C187.406 151.386 187.119 151.478 186.826 151.549C186.256 151.716 185.416 151.953 184.389 152.227L184.276 152.254V152.141C184.109 151.522 183.937 150.85 183.738 150.14C183.646 149.774 183.55 149.403 183.453 149.021C183.404 148.832 183.356 148.639 183.302 148.445L183.227 148.149L183.189 147.998V147.923V147.885V147.859C183.103 148.009 183.313 147.649 183.291 147.686L186.621 146.858L186.745 146.831L186.778 146.949C187.095 148.257 187.342 149.354 187.509 150.107C187.603 150.483 187.675 150.864 187.724 151.248Z" fill="#263238"/>
<path d="M185.406 151.813C185.205 151.424 185.058 151.009 184.97 150.581V150.516L185.018 150.462L185.433 150.016L185.4 150.14L185.26 149.602C185.207 149.386 185.158 149.182 185.11 148.978L185.185 149.069L184.582 148.779L184.529 148.752V148.698C184.414 148.325 184.358 147.937 184.362 147.547C184.548 147.883 184.682 148.246 184.76 148.623L184.69 148.547L185.309 148.805L185.363 148.832V148.897C185.411 149.101 185.465 149.306 185.524 149.516L185.653 150.054V150.129L185.605 150.183L185.169 150.613L185.196 150.5C185.332 150.925 185.403 151.367 185.406 151.813Z" fill="#263238"/>
<path d="M186.578 151.517C186.372 151.13 186.223 150.715 186.137 150.285V150.22L186.186 150.172L186.6 149.72L186.568 149.844C186.525 149.672 186.476 149.499 186.433 149.306C186.39 149.112 186.331 148.886 186.277 148.682L186.352 148.773L185.755 148.483L185.696 148.456V148.402C185.581 148.029 185.525 147.641 185.529 147.251C185.716 147.587 185.85 147.95 185.927 148.327L185.863 148.251L186.476 148.51L186.535 148.536V148.601L186.697 149.22C186.74 149.403 186.783 149.582 186.826 149.758V149.833L186.772 149.887L186.336 150.317L186.369 150.204C186.501 150.629 186.572 151.072 186.578 151.517Z" fill="#263238"/>
<path d="M180.736 146.427L183.13 146.793C183.347 146.838 183.552 146.929 183.732 147.059C183.912 147.188 184.062 147.355 184.174 147.546L182.425 147.988L180.494 146.75L180.736 146.427Z" fill="#136AFD"/>
<path d="M180.736 146.427C180.692 146.561 180.631 146.687 180.553 146.804V146.718C180.956 146.939 181.666 147.364 182.522 147.902H182.42L183.808 147.546L184.168 147.455L184.082 147.659C183.972 147.462 183.817 147.292 183.63 147.163C183.444 147.034 183.23 146.95 183.006 146.917L181.855 146.707C181.489 146.652 181.129 146.566 180.779 146.449C181.139 146.431 181.5 146.454 181.855 146.519L183.071 146.67C183.337 146.701 183.593 146.794 183.817 146.941C184.041 147.089 184.228 147.287 184.362 147.52L184.453 147.681L184.276 147.724L183.915 147.815L182.522 148.16H182.468L182.42 148.133C181.575 147.595 180.897 147.111 180.526 146.831L180.472 146.793L180.504 146.745C180.633 146.508 180.73 146.406 180.736 146.427Z" fill="#263238"/>
<g opacity="0.3">
<path d="M182.888 147.896C182.428 147.351 181.883 146.884 181.274 146.514L180.736 146.427L182.156 147.692L182.436 148.009L182.888 147.896Z" fill="black"/>
</g>
<path d="M183.184 154.363L184.894 153.002C185.06 152.857 185.193 152.679 185.285 152.48C185.378 152.281 185.428 152.065 185.432 151.845V151.818L183.684 152.259L182.57 154.271L183.184 154.363Z" fill="#136AFD"/>
<path d="M183.184 154.363C182.984 154.393 182.781 154.393 182.581 154.363H182.484L182.533 154.266C182.748 153.809 183.124 153.083 183.609 152.227L183.636 152.179H183.695L184.878 151.872L185.416 151.732L185.594 151.689V151.872C185.588 152.124 185.525 152.372 185.412 152.597C185.298 152.822 185.136 153.019 184.938 153.174L184.023 153.863C183.766 154.075 183.484 154.256 183.184 154.401C183.408 154.133 183.662 153.893 183.942 153.685C184.351 153.244 185.32 152.84 185.314 151.85L185.492 151.99L184.954 152.136L183.765 152.426L183.851 152.362C183.367 153.212 182.952 153.916 182.683 154.341L182.63 154.234C182.819 154.253 183.005 154.296 183.184 154.363Z" fill="#263238"/>
<g opacity="0.3">
<path d="M183.221 154.336L183.442 154.153C183.853 153.586 184.045 152.888 183.98 152.189L183.695 152.259L183.124 153.992L183.221 154.336Z" fill="black"/>
</g>
<path d="M183.759 147.272C183.716 147.337 183.506 147.272 183.275 147.17C183.044 147.068 182.845 146.976 182.861 146.896C182.877 146.815 183.114 146.804 183.399 146.896C183.684 146.987 183.802 147.208 183.759 147.272Z" fill="white"/>
<path d="M185.169 152.189C185.239 152.216 185.233 152.426 185.088 152.62C184.943 152.813 184.749 152.889 184.701 152.83C184.652 152.77 184.749 152.62 184.862 152.458C184.975 152.297 185.072 152.163 185.169 152.189Z" fill="white"/>
<path d="M171.73 150.742L168.402 151.583L169.488 155.881L172.816 155.04L171.73 150.742Z" fill="#136AFD"/>
<path d="M169.47 155.88C169.328 155.51 169.209 155.131 169.115 154.745C168.905 153.997 168.577 152.916 168.259 151.614L168.227 151.495L168.351 151.463L171.676 150.608L171.848 150.71V150.742V150.78V150.85L171.886 151L171.956 151.296L172.101 151.877L172.381 152.991C172.553 153.712 172.719 154.384 172.87 155.003L172.897 155.122L172.784 155.148C171.751 155.396 170.901 155.584 170.32 155.686C170.028 155.763 169.732 155.819 169.432 155.853C169.736 155.738 170.047 155.641 170.363 155.563C170.939 155.391 171.751 155.159 172.73 154.901L172.644 155.041C172.483 154.422 172.311 153.75 172.106 153.039C172.009 152.674 171.918 152.302 171.816 151.92L171.67 151.345L171.595 151.049L171.557 150.898V150.823V150.785V150.758C171.407 150.667 171.767 150.877 171.73 150.855L168.432 151.716L168.523 151.565C168.824 152.814 169.061 153.879 169.233 154.643C169.405 155.407 169.497 155.859 169.47 155.88Z" fill="#263238"/>
<path d="M171.794 155.278C171.586 154.891 171.437 154.476 171.353 154.046L171.434 154.137L170.847 153.959H170.777V153.884C170.734 153.712 170.686 153.534 170.637 153.346C170.589 153.158 170.535 152.926 170.487 152.722V152.657L170.524 152.609L170.944 152.071V152.168C170.83 151.797 170.774 151.41 170.777 151.022C170.966 151.357 171.1 151.721 171.175 152.098V152.146L171.138 152.195L170.75 152.733V152.62L170.912 153.239L171.041 153.777L170.949 153.68L171.531 153.879H171.6V153.943C171.729 154.376 171.795 154.826 171.794 155.278Z" fill="#263238"/>
<path d="M170.621 155.573C170.414 155.187 170.267 154.772 170.186 154.341L170.266 154.433L169.674 154.255H169.604V154.18L169.47 153.642C169.416 153.427 169.368 153.222 169.319 153.018V152.953L169.357 152.905L169.771 152.367V152.464C169.654 152.093 169.596 151.707 169.599 151.318C169.788 151.653 169.922 152.016 169.997 152.394V152.442L169.965 152.491L169.572 153.029V152.916L169.734 153.534C169.782 153.717 169.825 153.89 169.868 154.072L169.777 153.976L170.358 154.175H170.422V154.239C170.556 154.671 170.624 155.121 170.621 155.573Z" fill="#263238"/>
<path d="M173.236 148.343L171.299 149.801C171.135 149.947 171.003 150.126 170.91 150.326C170.818 150.526 170.767 150.743 170.761 150.963L172.51 150.522L173.623 148.51L173.236 148.343Z" fill="#136AFD"/>
<path d="M173.236 148.343C173.373 148.368 173.506 148.416 173.629 148.483H173.682L173.656 148.547C173.462 148.961 173.085 149.698 172.58 150.586V150.64H172.52L171.132 151L170.772 151.092L170.594 151.135V150.952C170.6 150.683 170.669 150.42 170.797 150.184C170.924 149.947 171.105 149.744 171.326 149.591L172.321 148.881C172.604 148.66 172.909 148.469 173.231 148.31C172.972 148.585 172.69 148.835 172.386 149.058C172.106 149.29 171.799 149.532 171.477 149.79C171.292 149.925 171.142 150.102 171.037 150.305C170.932 150.509 170.877 150.734 170.874 150.963L170.702 150.823L171.062 150.731L172.45 150.387L172.37 150.452C172.87 149.569 173.29 148.865 173.543 148.477L173.569 148.558C173.448 148.503 173.336 148.431 173.236 148.343Z" fill="#263238"/>
<g opacity="0.3">
<path d="M172.058 150.64C172.196 149.943 172.449 149.274 172.806 148.66L173.252 148.321L172.601 150.113L172.504 150.527L172.058 150.64Z" fill="black"/>
</g>
<path d="M174.979 156.488L172.725 156.106C172.508 156.058 172.304 155.966 172.124 155.836C171.944 155.705 171.794 155.539 171.681 155.347L173.43 154.906L175.361 156.149L174.979 156.488Z" fill="#136AFD"/>
<path d="M174.979 156.488C175.066 156.335 175.177 156.197 175.307 156.079V156.181C174.877 155.945 174.172 155.52 173.338 154.998H173.44L172.171 155.326L171.692 155.444L171.778 155.24C171.886 155.433 172.034 155.599 172.214 155.727C172.394 155.856 172.599 155.943 172.816 155.982L173.925 156.203C174.28 156.26 174.629 156.35 174.968 156.472C174.624 156.485 174.279 156.458 173.941 156.391L172.773 156.224C172.517 156.188 172.272 156.093 172.059 155.946C171.845 155.8 171.668 155.606 171.541 155.38L171.45 155.224L171.627 155.175L172.106 155.057L173.376 154.74H173.43L173.478 154.766C174.307 155.304 174.984 155.773 175.377 156.063L175.453 156.117L175.388 156.171C175.13 156.407 174.984 156.51 174.979 156.488Z" fill="#263238"/>
<g opacity="0.3">
<path d="M174.931 156.477L174.549 156.429C173.913 156.129 173.41 155.606 173.134 154.96L173.419 154.885L174.742 156.144L174.931 156.477Z" fill="black"/>
</g>
<path d="M170.992 150.522C170.923 150.489 170.993 150.253 171.154 150.032C171.315 149.811 171.557 149.709 171.6 149.768C171.643 149.828 171.53 150.011 171.369 150.204C171.208 150.398 171.084 150.559 170.992 150.522Z" fill="white"/>
<path d="M172.101 155.52C172.155 155.46 172.316 155.52 172.494 155.611C172.671 155.703 172.822 155.783 172.811 155.859C172.8 155.934 172.596 155.966 172.375 155.859C172.155 155.751 172.047 155.573 172.101 155.52Z" fill="white"/>
<path d="M177.336 145.217L177.502 145.873L176.039 146.239L175.872 145.588C176.325 145.355 176.826 145.228 177.336 145.217Z" fill="#136AFD"/>
<path d="M177.336 145.217C176.86 145.349 176.392 145.51 175.937 145.701L176.001 145.556C176.061 145.766 176.114 145.981 176.173 146.202L176.007 146.099C176.572 145.954 177.083 145.841 177.481 145.766L177.406 145.889C177.356 145.667 177.332 145.44 177.336 145.212C177.336 145.179 177.459 145.4 177.599 145.841L177.631 145.933L177.529 145.965C177.158 146.083 176.642 146.228 176.071 146.374L175.937 146.406L175.904 146.271L175.748 145.62L175.722 145.518L175.813 145.47C176.149 145.301 176.514 145.201 176.889 145.174C176.997 145.168 177.104 145.168 177.212 145.174C177.314 145.19 177.346 145.206 177.336 145.217Z" fill="#263238"/>
<path d="M176.249 145.432C176.324 145.432 176.426 145.551 176.475 145.744C176.523 145.938 176.502 146.105 176.426 146.126C176.351 146.148 176.249 146.002 176.2 145.814C176.152 145.626 176.174 145.448 176.249 145.432Z" fill="#263238"/>
<path d="M176.636 145.335C176.711 145.335 176.814 145.454 176.862 145.647C176.911 145.841 176.889 146.008 176.814 146.029C176.738 146.051 176.636 145.906 176.588 145.717C176.539 145.529 176.561 145.351 176.636 145.335Z" fill="#263238"/>
<path d="M177.002 145.26C177.077 145.26 177.18 145.378 177.228 145.572C177.276 145.766 177.255 145.933 177.18 145.954C177.104 145.976 177.002 145.83 176.954 145.642C176.905 145.454 176.932 145.26 177.002 145.26Z" fill="#263238"/>
<path d="M183.709 153.003C184.491 149.894 182.605 146.74 179.496 145.957C176.387 145.174 173.233 147.06 172.45 150.169C171.667 153.278 173.553 156.433 176.662 157.216C179.771 157.998 182.926 156.112 183.709 153.003Z" fill="#136AFD"/>
<path d="M176.663 145.965C176.217 146.126 175.782 146.316 175.361 146.535C174.23 147.167 173.344 148.159 172.843 149.354C172.474 150.229 172.329 151.183 172.423 152.129C172.517 153.074 172.847 153.981 173.381 154.766C173.678 155.218 174.041 155.622 174.457 155.966C174.895 156.332 175.389 156.625 175.921 156.832C177.036 157.288 178.269 157.375 179.437 157.079C180.606 156.784 181.649 156.123 182.414 155.191C182.781 154.757 183.075 154.267 183.286 153.739C183.5 153.235 183.636 152.702 183.689 152.157C183.768 151.368 183.683 150.57 183.438 149.815C183.193 149.06 182.794 148.365 182.267 147.772C181.74 147.179 181.095 146.701 180.374 146.37C179.653 146.039 178.871 145.86 178.078 145.846C177.603 145.858 177.128 145.897 176.658 145.965C177.116 145.812 177.595 145.736 178.078 145.739C179.204 145.721 180.311 146.03 181.266 146.628C182.22 147.225 182.982 148.086 183.458 149.107C183.911 150.065 184.097 151.129 183.996 152.184C183.948 152.755 183.81 153.314 183.587 153.841C183.365 154.394 183.058 154.91 182.678 155.369C181.875 156.35 180.778 157.048 179.549 157.359C178.32 157.669 177.023 157.577 175.851 157.096C175.297 156.877 174.783 156.57 174.328 156.187C173.883 155.826 173.494 155.4 173.177 154.922C172.586 154.043 172.242 153.021 172.181 151.963C172.121 150.842 172.383 149.726 172.937 148.748C173.491 147.771 174.313 146.973 175.307 146.449C175.73 146.215 176.188 146.051 176.663 145.965Z" fill="#263238"/>
<path d="M176.738 146.261C177.793 145.994 178.903 146.045 179.927 146.409C180.952 146.773 181.846 147.433 182.496 148.305C183.146 149.177 183.523 150.222 183.579 151.308C183.635 152.394 183.368 153.473 182.811 154.407C182.254 155.341 181.432 156.089 180.45 156.556C179.468 157.023 178.369 157.189 177.293 157.031C176.217 156.874 175.211 156.401 174.404 155.672C173.597 154.944 173.023 153.992 172.757 152.937C172.4 151.524 172.619 150.027 173.366 148.775C174.112 147.523 175.325 146.618 176.738 146.261Z" fill="white"/>
<path d="M174.43 152.528C174.43 152.604 174.301 152.706 174.097 152.754C173.892 152.803 173.715 152.787 173.699 152.711C173.682 152.636 173.828 152.534 174.032 152.485C174.237 152.437 174.414 152.453 174.43 152.528Z" fill="#136AFD"/>
<path d="M174.479 150.64C174.479 150.71 174.28 150.726 174.081 150.672C173.882 150.618 173.731 150.505 173.752 150.436C173.774 150.366 173.951 150.344 174.156 150.403C174.36 150.462 174.5 150.543 174.479 150.64Z" fill="#136AFD"/>
<path d="M175.496 148.983C175.442 149.037 175.28 148.983 175.13 148.822C174.979 148.66 174.904 148.51 174.958 148.456C175.011 148.402 175.173 148.456 175.323 148.617C175.474 148.779 175.549 148.929 175.496 148.983Z" fill="#136AFD"/>
<path d="M181.688 150.678C181.688 150.602 181.817 150.5 182.016 150.452C182.215 150.403 182.398 150.419 182.42 150.495C182.441 150.57 182.291 150.672 182.086 150.721C181.882 150.769 181.704 150.753 181.688 150.678Z" fill="#136AFD"/>
<path d="M180.736 149.026C180.682 148.972 180.736 148.805 180.908 148.66C181.08 148.515 181.225 148.445 181.279 148.499C181.333 148.553 181.252 148.719 181.102 148.865C180.951 149.01 180.768 149.074 180.736 149.026Z" fill="#136AFD"/>
<path d="M179.063 148.068C178.987 148.041 178.982 147.864 179.063 147.665C179.143 147.466 179.235 147.321 179.31 147.342C179.385 147.364 179.396 147.546 179.31 147.746C179.224 147.945 179.154 148.09 179.063 148.068Z" fill="#136AFD"/>
<path d="M176.937 147.412C177.013 147.412 177.12 147.573 177.18 147.815C177.239 148.058 177.233 148.267 177.18 148.284C177.126 148.3 176.991 148.122 176.932 147.885C176.873 147.649 176.862 147.412 176.937 147.412Z" fill="#136AFD"/>
<path d="M181.693 152.598C181.693 152.523 181.892 152.507 182.097 152.566C182.301 152.625 182.441 152.727 182.425 152.803C182.409 152.878 182.221 152.889 182.022 152.835C181.822 152.781 181.672 152.674 181.693 152.598Z" fill="#136AFD"/>
<path d="M180.677 154.228C180.73 154.175 180.897 154.228 181.048 154.395C181.198 154.562 181.274 154.702 181.22 154.761C181.166 154.82 180.999 154.761 180.849 154.594C180.698 154.428 180.623 154.288 180.677 154.228Z" fill="#136AFD"/>
<path d="M175.442 154.191C175.496 154.25 175.415 154.411 175.27 154.557C175.124 154.702 174.952 154.772 174.898 154.718C174.845 154.664 174.898 154.503 175.071 154.358C175.243 154.212 175.388 154.137 175.442 154.191Z" fill="#136AFD"/>
<path d="M177.11 155.148C177.185 155.148 177.196 155.353 177.11 155.552C177.024 155.751 176.937 155.891 176.868 155.869C176.798 155.848 176.781 155.665 176.868 155.466C176.954 155.267 177.04 155.122 177.11 155.148Z" fill="#136AFD"/>
<path d="M179.24 155.826C179.165 155.826 179.052 155.665 178.993 155.423C178.933 155.181 178.944 154.976 179.019 154.955C179.095 154.933 179.202 155.116 179.267 155.358C179.331 155.6 179.315 155.81 179.24 155.826Z" fill="#136AFD"/>
<path d="M181.139 150.64C181.138 150.635 181.136 150.63 181.133 150.626C181.129 150.622 181.125 150.618 181.121 150.616C181.116 150.613 181.111 150.612 181.106 150.611C181.101 150.611 181.096 150.611 181.091 150.613L177.691 151.329L177.718 151.469L181.107 150.694C181.113 150.693 181.118 150.69 181.123 150.687C181.128 150.683 181.132 150.679 181.135 150.674C181.138 150.669 181.14 150.663 181.141 150.657C181.141 150.652 181.141 150.646 181.139 150.64Z" fill="#E0E0E0"/>
<path d="M177.701 151.442L178.53 153.534C178.53 153.561 178.498 153.583 178.487 153.534L177.368 151.549L177.701 151.442Z" fill="#136AFD"/>
<path d="M177.761 151.286L178.745 148.289L178.681 148.251L177.492 151.216L177.761 151.286Z" fill="#136AFD"/>
<path d="M177.508 151.716C177.438 151.708 177.374 151.673 177.329 151.619C177.284 151.565 177.261 151.496 177.266 151.425C177.272 151.354 177.307 151.288 177.362 151.242C177.417 151.196 177.487 151.174 177.559 151.181C177.63 151.187 177.696 151.222 177.742 151.277C177.788 151.332 177.81 151.403 177.804 151.474C177.795 151.545 177.76 151.61 177.705 151.655C177.65 151.7 177.579 151.722 177.508 151.716Z" fill="#136AFD"/>
<path d="M177.508 151.716C177.508 151.678 177.61 151.657 177.658 151.565C177.674 151.543 177.684 151.517 177.687 151.49C177.69 151.463 177.685 151.435 177.674 151.41C177.663 151.385 177.645 151.364 177.623 151.348C177.6 151.332 177.574 151.322 177.547 151.319C177.52 151.316 177.492 151.321 177.467 151.332C177.443 151.343 177.421 151.361 177.405 151.383C177.389 151.405 177.379 151.432 177.376 151.459C177.374 151.486 177.378 151.513 177.389 151.538C177.422 151.635 177.513 151.678 177.508 151.716C177.502 151.754 177.373 151.807 177.223 151.646C177.183 151.595 177.158 151.534 177.15 151.47C177.141 151.405 177.15 151.34 177.174 151.28C177.207 151.205 177.264 151.141 177.335 151.099C177.406 151.058 177.488 151.039 177.571 151.047C177.653 151.055 177.731 151.088 177.793 151.143C177.855 151.197 177.898 151.27 177.917 151.35C177.93 151.412 177.927 151.477 177.907 151.538C177.887 151.598 177.852 151.653 177.804 151.694C177.631 151.807 177.497 151.716 177.508 151.716Z" fill="#263238"/>
<path d="M176.512 152.614C176.437 152.614 176.303 152.356 176.211 151.996C176.12 151.635 176.109 151.334 176.211 151.313C176.313 151.291 176.421 151.571 176.512 151.931C176.604 152.292 176.588 152.593 176.512 152.614Z" fill="#E0E0E0"/>
<path d="M176.313 153.276C176.077 152.902 175.923 152.482 175.861 152.044C175.71 151.628 175.646 151.185 175.673 150.742C176.067 151.531 176.285 152.395 176.313 153.276Z" fill="#E0E0E0"/>
<path d="M170.912 169.309C170.912 169.309 169.201 180.644 169.336 181.451C169.47 182.258 173.44 205.301 175.033 208.55C176.625 211.8 188.262 218.74 193.944 216.238C199.625 213.737 207.803 208.803 208.47 200.324C209.137 191.845 209.131 184.722 206.043 176.367C202.955 168.012 195.439 159.426 195.439 159.426L170.912 169.309Z" fill="#455A64"/>
<path d="M191.41 216.766H191.119L190.269 216.674C189.806 216.632 189.346 216.562 188.892 216.464C188.265 216.358 187.646 216.216 187.036 216.039L185.96 215.722L184.787 215.275C184.362 215.118 183.945 214.938 183.539 214.737L182.888 214.42C182.667 214.307 182.452 214.172 182.231 214.049C180.216 212.881 178.399 211.399 176.851 209.659C174.993 207.53 173.505 205.104 172.451 202.482C171.396 199.422 170.512 196.305 169.804 193.147C168.19 186.498 166.646 179.116 165.101 171.315V171.197L165.214 171.159L168.093 170.116C176.319 167.135 184.104 164.198 190.888 161.174L190.968 161.136L191.028 161.201C192.782 163.027 194.34 165.032 195.676 167.183C196.338 168.195 196.881 169.244 197.43 170.25C197.979 171.256 198.431 172.284 198.829 173.29C200.275 176.764 201.319 180.392 201.938 184.104C202.354 186.51 202.6 188.942 202.675 191.383C202.713 192.233 202.675 192.884 202.675 193.325C202.675 193.535 202.675 193.702 202.675 193.825C202.675 193.949 202.675 193.992 202.675 193.992C202.669 193.937 202.669 193.881 202.675 193.825C202.675 193.702 202.675 193.535 202.675 193.325C202.675 192.884 202.675 192.249 202.616 191.388C202.506 188.954 202.236 186.53 201.809 184.13C201.168 180.436 200.108 176.826 198.651 173.37C198.253 172.364 197.747 171.375 197.252 170.347C196.757 169.319 196.176 168.308 195.498 167.302C194.163 165.174 192.611 163.191 190.866 161.384L191.012 161.411C184.222 164.477 176.437 167.404 168.211 170.385L165.327 171.428L165.419 171.267C166.958 179.063 168.507 186.444 170.089 193.094C170.792 196.243 171.665 199.351 172.703 202.406C173.733 204.99 175.186 207.385 177.002 209.492C178.52 211.226 180.305 212.706 182.291 213.877C182.511 214.006 182.721 214.14 182.942 214.253L183.587 214.571C183.987 214.784 184.401 214.973 184.825 215.135L185.981 215.587L187.057 215.916C187.663 216.099 188.279 216.248 188.903 216.362C189.353 216.468 189.809 216.545 190.269 216.593L191.119 216.717L191.41 216.766Z" fill="#263238"/>
<g opacity="0.3">
<path d="M166.651 178.234L165.247 182.742C165.247 182.742 167.732 207.673 174.032 213.92C180.332 220.166 186.686 219.762 186.686 219.762L185.61 215.517C185.61 215.517 175.307 212.123 171.821 199.668C168.959 189.462 166.651 178.234 166.651 178.234Z" fill="#263238"/>
</g>
</svg>
