<svg width="285" height="285" viewBox="0 0 285 285" fill="none" xmlns="http://www.w3.org/2000/svg">
<path d="M142.591 26.5332H18.7017V103.21H142.591V26.5332Z" fill="#FAFAFA"/>
<path d="M112.683 81.9715C104.093 78.7168 94.2096 87.7228 85.7907 84.0463C80.8887 81.9088 78.66 76.3798 76.266 71.5918C73.872 66.8038 69.7281 61.7764 64.41 62.3293C59.0919 62.8822 54.72 69.1009 49.5273 67.6018C46.2669 66.6613 44.631 63.0418 43.8273 59.7415C43.0236 56.4412 42.4422 52.7932 39.9513 50.479C37.4604 48.1648 32.2734 48.769 31.8801 52.189V92.8414H128.78C128.78 92.8414 115.653 83.1001 112.683 81.9715Z" fill="#EBEBEB"/>
<path d="M131.339 92.8129C131.339 92.8984 107.855 92.9725 78.8995 92.9725C49.9435 92.9725 26.4595 92.8984 26.4595 92.8129C26.4595 92.7274 49.9378 92.6533 78.8995 92.6533C107.861 92.6533 131.339 92.7274 131.339 92.8129Z" fill="#E0E0E0"/>
<path d="M131.339 75.0575C131.339 75.143 107.855 75.2172 78.8995 75.2172C49.9435 75.2172 26.4595 75.143 26.4595 75.0575C26.4595 74.972 49.9378 74.8979 78.8995 74.8979C107.861 74.8979 131.339 74.972 131.339 75.0575Z" fill="#E0E0E0"/>
<path d="M131.339 57.3022C131.339 57.3877 107.855 57.4618 78.8995 57.4618C49.9435 57.4618 26.4595 57.3877 26.4595 57.3022C26.4595 57.2167 49.9378 57.1426 78.8995 57.1426C107.861 57.1426 131.339 57.2167 131.339 57.3022Z" fill="#E0E0E0"/>
<path d="M131.339 40.4301C131.339 40.5156 107.855 40.584 78.8995 40.584C49.9435 40.584 26.4595 40.5156 26.4595 40.4301C26.4595 40.3446 49.9378 40.2705 78.8995 40.2705C107.861 40.2705 131.339 40.3389 131.339 40.4301Z" fill="#E0E0E0"/>
<path d="M222.437 42.18V22.5264C226.299 22.5252 230.076 23.6637 233.294 25.7992C236.512 27.9348 239.029 30.9725 240.528 34.5318C242.028 38.0912 242.444 42.0138 241.724 45.8085C241.004 49.6032 239.181 53.1011 236.482 55.8642C233.784 58.6272 230.33 60.5325 226.553 61.3414C222.776 62.1502 218.845 61.8267 215.251 60.4114C211.658 58.996 208.561 56.5518 206.351 53.3847C204.14 50.2177 202.913 46.4687 202.823 42.6075L222.437 42.18Z" fill="#EBEBEB"/>
<path d="M217.654 36.8617L198.035 37.3063C198.032 32.0625 200.018 27.0126 203.593 23.176C207.248 19.5069 212.175 17.3843 217.352 17.248L217.654 36.8617Z" fill="#F5F5F5"/>
<path d="M64.2047 217.084V199.329C60.7104 199.328 57.2938 200.359 54.3827 202.292C51.4717 204.225 49.1956 206.974 47.8396 210.194C46.4837 213.414 46.1081 216.963 46.7599 220.396C47.4118 223.829 49.0621 226.994 51.5041 229.493C53.9461 231.992 57.0713 233.715 60.4883 234.446C63.9052 235.178 67.4619 234.884 70.7129 233.603C73.9639 232.322 76.7646 230.111 78.7643 227.245C80.764 224.38 81.8737 220.988 81.9545 217.495L64.2047 217.084Z" fill="#EBEBEB"/>
<path d="M68.5369 212.296L86.2867 212.701C86.2918 207.956 84.4949 203.386 81.2593 199.916C77.9527 196.595 73.495 194.675 68.8105 194.552L68.5369 212.296Z" fill="#F5F5F5"/>
<path d="M180.422 86.0015H172.123V111.919H180.422V86.0015Z" fill="#F5F5F5"/>
<path d="M192.814 91.918H184.515V111.919H192.814V91.918Z" fill="#F5F5F5"/>
<path d="M204.282 100.041H195.983V111.919H204.282V100.041Z" fill="#F5F5F5"/>
<path d="M40.4929 231.397H23.6152V264.326H40.4929V231.397Z" fill="#136AFD"/>
<path d="M77.1326 244.872H60.2549V264.331H77.1326V244.872Z" fill="#136AFD"/>
<g opacity="0.79">
<path d="M77.1326 244.872H60.2549V264.331H77.1326V244.872Z" fill="white"/>
</g>
<path d="M111.178 264.331L94.3008 264.445V220.299H111.178V264.331Z" fill="#136AFD"/>
<path d="M146.821 241.081H129.943V264.331H146.821V241.081Z" fill="#136AFD"/>
<g opacity="0.79">
<path d="M146.821 241.081H129.943V264.331H146.821V241.081Z" fill="white"/>
</g>
<path d="M181.864 220.293H164.987V264.326H181.864V220.293Z" fill="#136AFD"/>
<path d="M216.577 163.989H199.7V264.332H216.577V163.989Z" fill="#136AFD"/>
<g opacity="0.79">
<path d="M216.577 163.989H199.7V264.332H216.577V163.989Z" fill="white"/>
</g>
<path d="M40.4701 247.078C40.6012 247.209 36.9475 251.188 32.3077 255.953C27.6679 260.718 23.7976 264.503 23.6665 264.343C23.5354 264.184 27.1891 260.233 31.8289 255.463C36.4687 250.692 40.3561 246.941 40.4701 247.078Z" fill="white"/>
<path d="M77.0185 247.38C77.1496 247.517 73.4959 251.495 68.8561 256.26C64.2163 261.026 60.3403 264.81 60.2092 264.651C60.0781 264.491 63.7318 260.541 68.3773 255.77C73.0228 250.999 76.8874 247.232 77.0185 247.38Z" fill="#136AFD"/>
<path d="M146.787 247.061C146.918 247.198 143.264 251.17 138.624 255.941C133.984 260.712 130.108 264.48 129.96 264.332C129.812 264.184 133.483 260.216 138.128 255.451C142.774 250.686 146.655 246.924 146.787 247.061Z" fill="#136AFD"/>
<path d="M40.2592 231.739C40.3903 231.87 36.7366 235.849 32.0968 240.614C27.457 245.379 23.5867 249.164 23.4556 249.004C23.3245 248.845 26.9782 244.895 31.618 240.124C36.2578 235.353 40.1281 231.602 40.2592 231.739Z" fill="white"/>
<path d="M111.435 247.323C111.566 247.459 107.912 251.438 103.273 256.203C98.6328 260.968 94.7568 264.753 94.6257 264.594C94.4946 264.434 98.1483 260.484 102.794 255.713C107.439 250.942 111.304 247.192 111.435 247.323Z" fill="white"/>
<path d="M111.207 231.99C111.338 232.127 107.684 236.105 103.045 240.871C98.4048 245.636 94.5288 249.421 94.3977 249.261C94.2666 249.101 97.9203 245.151 102.566 240.38C107.211 235.609 111.076 231.853 111.207 231.99Z" fill="white"/>
<path d="M105.946 220.293C106.083 220.43 103.603 223.195 100.411 226.472C97.2193 229.75 94.5289 232.298 94.3978 232.172C94.2667 232.047 96.7462 229.271 99.9382 225.993C103.13 222.716 105.815 220.162 105.946 220.293Z" fill="white"/>
<path d="M216.486 247.061C216.617 247.198 212.958 251.17 208.318 255.941C203.678 260.712 199.808 264.491 199.677 264.332C199.546 264.172 203.199 260.216 207.845 255.451C212.49 250.686 216.355 246.924 216.486 247.061Z" fill="#136AFD"/>
<path d="M216.258 231.722C216.389 231.859 212.735 235.832 208.09 240.602C203.444 245.373 199.58 249.124 199.449 248.993C199.318 248.862 202.971 244.877 207.617 240.112C212.262 235.347 216.127 231.585 216.258 231.722Z" fill="#136AFD"/>
<path d="M216.258 214.628C216.389 214.764 212.735 218.737 208.09 223.508C203.444 228.279 199.58 232.03 199.449 231.899C199.318 231.768 202.971 227.789 207.617 223.018C212.262 218.247 216.127 214.491 216.258 214.628Z" fill="#136AFD"/>
<path d="M182.275 247.061C182.406 247.198 178.752 251.17 174.112 255.941C169.472 260.712 165.596 264.491 165.465 264.332C165.334 264.172 168.988 260.216 173.633 255.451C178.279 250.686 182.144 246.924 182.275 247.061Z" fill="white"/>
<path d="M182.047 231.722C182.178 231.859 178.524 235.832 173.884 240.602C169.244 245.373 165.368 249.124 165.237 248.993C165.106 248.862 168.76 244.877 173.405 240.112C178.051 235.347 181.916 231.585 182.047 231.722Z" fill="white"/>
<path d="M176.7 220.145C176.831 220.282 174.374 222.995 171.217 226.267C168.059 229.539 165.391 232.03 165.26 231.899C165.129 231.767 167.586 229.049 170.744 225.777C173.901 222.505 176.54 220.02 176.7 220.145Z" fill="white"/>
<path d="M216.486 198.097C216.617 198.234 212.958 202.207 208.318 206.978C203.678 211.749 199.808 215.499 199.677 215.363C199.546 215.226 203.199 211.253 207.845 206.488C212.49 201.723 216.355 197.961 216.486 198.097Z" fill="#136AFD"/>
<path d="M216.486 167.358C216.617 167.494 212.958 171.467 208.318 176.238C203.678 181.009 199.808 184.76 199.677 184.623C199.546 184.486 203.199 180.513 207.845 175.748C212.49 170.983 216.355 167.221 216.486 167.358Z" fill="#136AFD"/>
<path d="M216.258 182.759C216.389 182.896 212.735 186.869 208.09 191.64C203.444 196.41 199.58 200.19 199.449 200.024C199.318 199.859 202.971 195.915 207.617 191.149C212.262 186.384 216.127 182.622 216.258 182.759Z" fill="#136AFD"/>
<path d="M252.293 103.483H236.345V264.332H252.293V103.483Z" fill="#136AFD"/>
<g opacity="0.6">
<path d="M252.368 248.012C252.493 248.138 249.039 251.894 244.656 256.403C240.272 260.911 236.613 264.48 236.487 264.331C236.362 264.183 239.816 260.444 244.2 255.941C248.583 251.438 252.242 247.881 252.368 248.012Z" fill="white"/>
</g>
<g opacity="0.6">
<path d="M252.151 233.517C252.276 233.643 248.822 237.399 244.439 241.908C240.056 246.416 236.396 249.962 236.271 249.836C236.145 249.711 239.6 245.949 243.989 241.446C248.378 236.943 252.031 233.386 252.151 233.517Z" fill="white"/>
</g>
<g opacity="0.6">
<path d="M252.151 217.364C252.276 217.495 248.822 221.251 244.439 225.754C240.056 230.257 236.396 233.808 236.271 233.7C236.145 233.591 239.6 229.812 243.989 225.309C248.378 220.806 252.031 217.238 252.151 217.364Z" fill="white"/>
</g>
<g opacity="0.6">
<path d="M252.368 201.74C252.493 201.871 249.039 205.627 244.656 210.13C240.272 214.633 236.613 218.19 236.487 218.059C236.362 217.928 239.816 214.177 244.2 209.669C248.583 205.16 252.242 201.615 252.368 201.74Z" fill="white"/>
</g>
<g opacity="0.6">
<path d="M252.151 187.245C252.276 187.376 248.822 191.132 244.439 195.635C240.056 200.138 236.396 203.695 236.271 203.564C236.145 203.433 239.6 199.682 243.989 195.174C248.378 190.665 252.031 187.12 252.151 187.245Z" fill="white"/>
</g>
<g opacity="0.6">
<path d="M252.151 171.097C252.276 171.222 248.822 174.978 244.439 179.487C240.056 183.996 236.396 187.541 236.271 187.41C236.145 187.279 239.6 183.528 243.989 179.02C248.378 174.511 252.031 170.966 252.151 171.097Z" fill="white"/>
</g>
<g opacity="0.6">
<path d="M252.151 152.133C252.276 152.258 248.822 156.014 244.439 160.523C240.056 165.032 236.396 168.577 236.271 168.452C236.145 168.326 239.6 164.564 243.989 160.061C248.378 155.558 252.031 152.007 252.151 152.133Z" fill="white"/>
</g>
<g opacity="0.6">
<path d="M252.368 132.28C252.493 132.411 249.039 136.167 244.656 140.67C240.272 145.173 236.613 148.73 236.487 148.599C236.362 148.468 239.816 144.717 244.2 140.208C248.583 135.7 252.242 132.154 252.368 132.28Z" fill="white"/>
</g>
<g opacity="0.6">
<path d="M252.157 112.786C252.276 112.911 248.822 116.667 244.439 121.176C240.056 125.685 236.396 129.23 236.271 129.105C236.145 128.979 239.6 125.217 243.989 120.714C248.378 116.211 252.031 112.655 252.157 112.786Z" fill="white"/>
</g>
<g opacity="0.6">
<path d="M245.767 103.17C245.892 103.295 243.869 105.586 241.247 108.3C238.625 111.013 236.396 113.076 236.271 112.951C236.145 112.825 238.175 110.534 240.797 107.821C243.419 105.108 245.67 103.061 245.767 103.17Z" fill="white"/>
</g>
<path d="M267.518 102.098L266.806 101.602L265.939 100.992L264.708 100.194C261.968 98.4629 259.04 97.0479 255.981 95.9761C253.771 95.2008 251.495 94.6285 249.181 94.2661C246.431 93.8392 243.637 93.776 240.871 94.078C234.92 94.7164 228.388 97.5265 222.693 102.474C219.717 105.07 217.028 107.979 214.673 111.15C212.251 114.478 209.84 118.024 207.343 121.695C202.361 129.048 197.249 137.039 191.953 145.492C186.658 153.945 181.123 162.866 175.241 171.997C172.283 176.557 169.244 181.174 166.07 185.802C164.479 188.111 162.974 190.499 161.43 192.893C159.885 195.287 158.323 197.681 156.71 200.07C153.567 204.831 150.141 209.399 146.45 213.75C144.642 215.881 142.655 217.855 140.511 219.649C139.456 220.544 138.31 221.326 137.091 221.98C135.879 222.663 134.524 223.054 133.135 223.12C131.765 222.997 130.431 222.61 129.208 221.98C127.971 221.41 126.797 220.766 125.639 220.099C123.359 218.748 121.131 217.278 118.982 215.784C114.695 212.781 110.637 209.663 106.733 206.545C104.776 204.987 102.864 203.429 100.998 201.871C99.1345 200.309 97.282 198.781 95.4409 197.311C91.7473 194.352 88.1221 191.531 84.514 188.955C80.9059 186.378 77.1895 184.172 73.2223 183.055C69.4094 182.018 65.4085 181.875 61.5316 182.639C58.0264 183.399 54.6725 184.737 51.6079 186.6C48.8742 188.26 46.3119 190.186 43.9585 192.352C39.5353 196.41 35.8075 199.984 32.7808 202.925C29.7541 205.866 27.4342 208.192 25.8667 209.765L24.0826 211.561L23.4727 212.171C23.4727 212.171 23.6665 211.948 24.0427 211.538C24.4189 211.128 25.0345 210.518 25.804 209.725C27.3601 208.135 29.6686 205.804 32.6839 202.845C35.6992 199.887 39.4156 196.296 43.8274 192.226C46.186 190.048 48.754 188.108 51.4939 186.435C54.5762 184.56 57.9492 183.212 61.4746 182.445C65.3838 181.667 69.4201 181.803 73.2679 182.844C77.2579 183.984 81.0541 186.15 84.6394 188.761C88.2247 191.371 91.8898 194.164 95.5834 197.117C97.4302 198.593 99.2884 200.121 101.152 201.677C103.016 203.233 104.931 204.789 106.886 206.345C110.791 209.452 114.866 212.57 119.13 215.562C121.273 217.05 123.468 218.52 125.771 219.86C126.911 220.527 128.09 221.177 129.31 221.73C130.497 222.337 131.79 222.712 133.118 222.835C134.462 222.757 135.77 222.367 136.937 221.695C138.14 221.053 139.275 220.289 140.323 219.415C142.452 217.631 144.426 215.669 146.222 213.55C149.907 209.213 153.333 204.662 156.482 199.921C158.095 197.539 159.657 195.139 161.196 192.745C162.735 190.351 164.246 187.968 165.842 185.654C169.016 181.026 172.055 176.409 175.013 171.855C180.907 162.735 186.413 153.814 191.737 145.361C197.06 136.908 202.185 128.922 207.172 121.575C209.675 117.904 212.091 114.364 214.525 111.03C216.893 107.852 219.597 104.939 222.591 102.343C228.319 97.384 234.903 94.5682 240.888 93.9412C243.669 93.6422 246.477 93.715 249.238 94.1578C251.557 94.515 253.837 95.0874 256.05 95.8678C259.114 96.9508 262.043 98.3854 264.776 100.143L266.002 100.952L266.857 101.579C267.284 101.916 267.518 102.098 267.518 102.098Z" fill="#136AFD"/>
<path d="M69.6881 183.306C69.668 183.958 69.4564 184.589 69.0799 185.12C68.7033 185.652 68.1785 186.062 67.5708 186.297C66.9631 186.532 66.2996 186.584 65.6629 186.444C65.0263 186.305 64.4449 185.981 63.9911 185.513C63.5374 185.046 63.2315 184.455 63.1116 183.814C62.9917 183.173 63.0631 182.512 63.3169 181.912C63.5707 181.311 63.9957 180.799 64.5388 180.439C65.0819 180.079 65.7191 179.887 66.3707 179.886C66.8134 179.892 67.2505 179.985 67.657 180.161C68.0635 180.336 68.4314 180.59 68.7396 180.907C69.0478 181.225 69.2902 181.601 69.453 182.012C69.6158 182.424 69.6957 182.864 69.6881 183.306Z" fill="#136AFD"/>
<path d="M66.371 189.394C65.1613 189.422 63.9706 189.089 62.9509 188.438C61.9313 187.786 61.1289 186.846 60.6462 185.736C60.1635 184.627 60.0224 183.398 60.241 182.208C60.4595 181.018 61.0278 179.92 61.8732 179.055C62.7186 178.189 63.8028 177.595 64.9875 177.348C66.1721 177.101 67.4033 177.213 68.524 177.67C69.6447 178.126 70.604 178.906 71.2794 179.91C71.9548 180.914 72.3157 182.096 72.3161 183.306C72.3328 184.901 71.7164 186.438 70.6019 187.579C69.4874 188.72 67.9659 189.373 66.371 189.394ZM66.371 177.789C65.2741 177.76 64.1936 178.06 63.2677 178.648C62.3418 179.237 61.6125 180.089 61.1729 181.094C60.7334 182.099 60.6036 183.213 60.8001 184.293C60.9966 185.372 61.5106 186.368 62.2762 187.154C63.0419 187.94 64.0245 188.48 65.0985 188.705C66.1726 188.93 67.2892 188.829 68.3057 188.416C69.3223 188.003 70.1925 187.296 70.8054 186.386C71.4182 185.476 71.7457 184.403 71.7461 183.306C71.7628 181.862 71.2064 180.471 70.1989 179.436C69.1913 178.402 67.8147 177.81 66.371 177.789Z" fill="#136AFD"/>
<path d="M247.979 93.8048C247.958 94.4561 247.747 95.0871 247.37 95.619C246.994 96.1509 246.469 96.5601 245.861 96.7955C245.254 97.0309 244.59 97.0822 243.953 96.9428C243.317 96.8035 242.735 96.4797 242.282 96.0119C241.828 95.5442 241.522 94.9531 241.402 94.3125C241.282 93.672 241.353 93.0103 241.607 92.4101C241.861 91.8099 242.286 91.2977 242.829 90.9375C243.372 90.5773 244.009 90.3851 244.661 90.3848C245.104 90.39 245.541 90.4827 245.948 90.6577C246.355 90.8327 246.723 91.0864 247.032 91.4043C247.34 91.7222 247.582 92.0979 247.745 92.5099C247.907 92.9219 247.987 93.362 247.979 93.8048Z" fill="#136AFD"/>
<path d="M244.661 99.8866C243.451 99.9137 242.261 99.5798 241.242 98.9274C240.223 98.275 239.421 97.3336 238.94 96.2236C238.458 95.1136 238.318 93.8852 238.538 92.6953C238.758 91.5054 239.327 90.4079 240.173 89.5431C241.019 88.6782 242.104 88.0851 243.289 87.8396C244.474 87.594 245.705 87.7071 246.825 88.1645C247.946 88.6218 248.904 89.4026 249.579 90.4072C250.253 91.4118 250.613 92.5946 250.612 93.8047C250.627 95.3997 250.009 96.9356 248.894 98.0757C247.778 99.2158 246.256 99.867 244.661 99.8866ZM244.661 88.2871C243.564 88.2599 242.485 88.5602 241.559 89.1497C240.634 89.7392 239.906 90.5911 239.467 91.5966C239.028 92.6022 238.899 93.7156 239.097 94.7948C239.294 95.8739 239.808 96.8698 240.574 97.6552C241.34 98.4406 242.323 98.9799 243.397 99.2041C244.47 99.4283 245.587 99.3273 246.603 98.914C247.619 98.5007 248.489 97.7939 249.102 96.8838C249.714 95.9737 250.042 94.9017 250.042 93.8047C250.059 92.3599 249.502 90.9674 248.493 89.933C247.484 88.8985 246.106 88.3066 244.661 88.2871Z" fill="#136AFD"/>
<path d="M25.8096 132.086V161.704H62.3637L69.0783 171.114V161.704H77.0241V132.086H25.8096Z" fill="#FAFAFA"/>
<path d="M25.8096 132.086H26.0433H26.7501H29.5203L40.014 132.052L77.0241 131.984H77.1552V132.121C77.1552 141.195 77.1552 151.199 77.1552 161.761V161.88H69.0612L69.2094 161.732V171.57L68.9415 171.194L62.244 161.789L62.3637 161.846L25.8096 161.812H25.6956V161.704C25.7241 152.584 25.7412 145.174 25.7583 140.015C25.7583 137.462 25.7583 135.455 25.7868 134.127C25.7868 133.46 25.7868 132.953 25.7868 132.599C25.7868 132.246 25.7868 132.086 25.7868 132.086C25.7868 132.086 25.7868 132.275 25.7868 132.622C25.7868 132.97 25.7868 133.494 25.7868 134.167C25.7868 135.529 25.7868 137.519 25.7868 140.084C25.7868 145.214 25.821 152.589 25.8438 161.704L25.7355 161.59L62.2896 161.561H62.358L62.4036 161.618L69.1239 171.029L68.856 171.114V161.555H76.95L76.8018 161.704C76.8018 151.164 76.8018 141.184 76.8018 132.064L76.9386 132.2L40.014 132.132L29.4918 132.098H26.6988H25.9749L25.8096 132.086Z" fill="#263238"/>
<path d="M67.5336 143.914C67.5336 143.994 60.3174 144.062 51.414 144.062C42.5106 144.062 35.2944 143.994 35.2944 143.914C35.2944 143.834 42.5106 143.766 51.414 143.766C60.3174 143.766 67.5336 143.828 67.5336 143.914Z" fill="#263238"/>
<path d="M67.5336 150.44C67.5336 150.52 60.3174 150.588 51.414 150.588C42.5106 150.588 35.2944 150.52 35.2944 150.44C35.2944 150.36 42.5106 150.292 51.414 150.292C60.3174 150.292 67.5336 150.36 67.5336 150.44Z" fill="#263238"/>
<path d="M268.174 48.6099H221.154V75.2859H228.929L228.348 75.3942L235.005 83.8815L234.572 75.2859H268.174V48.6099Z" fill="#FAFAFA"/>
<path d="M268.174 48.6041C268.174 48.6041 268.174 48.758 268.174 49.0658C268.174 49.3736 268.174 49.8467 268.174 50.4452C268.174 51.6707 268.174 53.4548 268.202 55.7519C268.202 60.386 268.236 67.0664 268.259 75.2858V75.3998H268.151L234.521 75.434L234.663 75.2801C234.8 78.0047 234.948 80.9117 235.102 83.8757V84.3374L234.817 83.9726L228.228 75.4853L228.08 75.2915L228.319 75.2459L228.889 75.1433L228.918 75.434H220.995V75.2858C220.995 65.7896 220.995 56.7836 220.995 48.6041V48.4502H221.16L255.143 48.5186L264.771 48.5528H267.313H268.179H267.946H267.284H264.714L255.052 48.587L221.16 48.7409L221.297 48.6041C221.297 56.7836 221.297 65.7896 221.297 75.2858L221.149 75.1376H228.923L228.952 75.434L228.382 75.5423L228.473 75.3029C230.753 78.2099 232.999 81.0713 235.131 83.7902L234.868 83.8871C234.72 80.9288 234.578 78.0218 234.441 75.2972V75.1433H234.595L268.225 75.1775L268.111 75.2858C268.139 67.0949 268.156 60.4373 268.174 55.8203C268.174 53.5118 268.174 51.7163 268.202 50.4851C268.202 49.8809 268.202 49.4135 268.202 49.0886C268.202 48.7637 268.174 48.6041 268.174 48.6041Z" fill="#263238"/>
<path d="M230.006 59.4055C230.006 59.3257 236.567 59.2573 244.661 59.2573C252.755 59.2573 259.321 59.3257 259.321 59.4055C259.321 59.4853 252.761 59.5537 244.661 59.5537C236.561 59.5537 230.006 59.491 230.006 59.4055Z" fill="#263238"/>
<path d="M230.006 65.1228C230.006 65.043 236.567 64.9746 244.661 64.9746C252.755 64.9746 259.321 65.043 259.321 65.1228C259.321 65.2026 252.761 65.271 244.661 65.271C236.561 65.271 230.006 65.2083 230.006 65.1228Z" fill="#263238"/>
<path d="M101.42 88.5153C104.755 83.1062 105.946 76.645 104.757 70.4024C103.569 64.1599 100.088 58.588 94.9986 54.7826C89.9094 50.9772 83.5804 49.2139 77.2567 49.8395C70.9329 50.465 65.0721 53.4342 60.827 58.1629C56.582 62.8916 54.2599 69.0376 54.3177 75.392C54.3755 81.7463 56.8088 87.8491 61.1392 92.4999C65.4695 97.1507 71.3833 100.013 77.7174 100.523C84.0515 101.034 90.3474 99.1556 95.3666 95.2584L106.767 97.9488L101.42 88.5153Z" fill="white"/>
<path d="M95.5376 95.19H95.3039C91.8017 97.8834 87.6513 99.6057 83.2712 100.183C81.9607 100.362 80.6369 100.425 79.3154 100.371C78.6371 100.326 77.9474 100.309 77.2463 100.252L75.143 99.921C68.8713 98.6721 63.3098 95.0833 59.5877 89.8833C57.5178 87.0128 56.0872 83.7319 55.3925 80.2617C54.6791 76.5945 54.7823 72.8152 55.6946 69.1923C56.6361 65.4069 58.4648 61.8998 61.0298 58.9608C63.6374 55.9522 66.9238 53.6075 70.6172 52.1208C74.1587 50.7233 77.9688 50.139 81.7664 50.4108C85.3662 50.6467 88.8695 51.6744 92.0264 53.4204C97.6992 56.5665 101.949 61.7689 103.899 67.9554C104.688 70.5877 105.073 73.3245 105.039 76.0722C104.932 80.4663 103.668 84.7544 101.374 88.5039L101.346 88.5552L101.374 88.6065L106.812 97.9887L101.574 88.5552C103.9 84.7985 105.194 80.4946 105.324 76.0779C105.371 73.2868 104.988 70.505 104.19 67.83C102.239 61.5557 97.9545 56.2694 92.2202 53.0613C89.0199 51.2869 85.4685 50.238 81.8177 49.989C77.96 49.7009 74.087 50.2854 70.4861 51.699C66.7316 53.2083 63.3919 55.5925 60.7448 58.653C58.1235 61.6406 56.2533 65.2109 55.2899 69.0669C54.3652 72.7502 54.264 76.5919 54.9935 80.3187C55.7122 83.8341 57.1736 87.1553 59.2799 90.06C63.0642 95.3268 68.7152 98.9515 75.0803 100.195L77.2178 100.514C77.9189 100.577 78.62 100.594 79.3097 100.628C80.6431 100.678 81.9784 100.609 83.2997 100.423C87.6995 99.8237 91.8627 98.0716 95.3666 95.3439L106.767 97.926L95.5376 95.19Z" fill="#263238"/>
<path d="M77.9019 66.4508L78.6201 77.8508C78.653 78.2934 78.8437 78.7095 79.1576 79.0233C79.4714 79.3371 79.8875 79.5279 80.3301 79.5608C80.8024 79.5871 81.2669 79.4317 81.6283 79.1264C81.9897 78.8212 82.2207 78.3893 82.2738 77.9192L83.5392 66.4679C83.5618 66.2638 83.5408 66.0573 83.4776 65.862C83.4143 65.6667 83.3102 65.487 83.1722 65.335C83.0342 65.183 82.8655 65.0621 82.6771 64.9803C82.4888 64.8984 82.2853 64.8576 82.08 64.8605L79.2984 64.9004C79.1037 64.9068 78.9122 64.9524 78.7356 65.0346C78.5589 65.1167 78.4006 65.2337 78.2702 65.3784C78.1399 65.5232 78.04 65.6928 77.9767 65.8771C77.9134 66.0613 77.888 66.2565 77.9019 66.4508Z" fill="#136AFD"/>
<path d="M83.3738 85.9789C83.1997 86.4991 82.8753 86.956 82.4417 87.292C82.008 87.628 81.4846 87.8279 80.9374 87.8667C80.3902 87.9054 79.8438 87.7811 79.3672 87.5095C78.8905 87.2379 78.5051 86.8312 78.2594 86.3407C78.0138 85.8502 77.919 85.2979 77.987 84.7536C78.055 84.2093 78.2827 83.6973 78.6415 83.2823C79.0002 82.8673 79.4739 82.5679 80.0027 82.4219C80.5315 82.2759 81.0916 82.2898 81.6125 82.462C81.9599 82.576 82.2813 82.7577 82.5582 82.9965C82.8351 83.2353 83.0619 83.5266 83.2257 83.8536C83.3894 84.1805 83.4868 84.5366 83.5122 84.9014C83.5376 85.2662 83.4906 85.6324 83.3738 85.9789Z" fill="#136AFD"/>
<path d="M175.697 182.48L177.977 188.864C177.977 188.864 188.414 198.446 189.947 211.276C191.48 224.107 191.486 226.906 191.486 226.906L188.254 264.332H118.714C118.714 264.332 116.434 234.076 117.261 225.521C118.087 216.965 123.086 207.281 123.086 207.281L128.387 194.45L128.547 187.992L175.697 182.48Z" fill="#263238"/>
<path d="M177.84 189.519C177.679 189.563 177.515 189.598 177.35 189.622L175.942 189.873L170.761 190.722C166.377 191.423 160.324 192.352 153.621 193.293C146.918 194.233 140.83 195.003 136.413 195.419C134.207 195.647 132.423 195.795 131.18 195.881L129.755 195.972C129.59 195.986 129.424 195.986 129.259 195.972C129.42 195.933 129.584 195.908 129.749 195.898L131.169 195.755C132.405 195.63 134.19 195.453 136.39 195.185C140.802 194.695 146.878 193.908 153.581 192.974C160.284 192.039 166.338 191.138 170.727 190.494L175.925 189.736L177.339 189.542C177.505 189.52 177.673 189.513 177.84 189.519Z" fill="#455A64"/>
<path d="M138.356 212.166C138.293 212.381 138.207 212.589 138.1 212.787C137.923 213.186 137.638 213.744 137.273 214.428C136.313 216.206 135.24 217.92 134.058 219.558C132.877 221.201 131.594 222.768 130.216 224.25C129.686 224.82 129.242 225.258 128.923 225.555C128.77 225.721 128.6 225.87 128.415 225.999C128.535 225.807 128.679 225.631 128.843 225.475L130.057 224.107C131.077 222.967 132.439 221.297 133.819 219.382C135.198 217.467 136.315 215.648 137.091 214.309L137.997 212.718C138.097 212.522 138.217 212.336 138.356 212.166Z" fill="#455A64"/>
<path d="M220.345 114.65C220.345 114.65 221.77 138.624 222.197 141.337C222.625 144.05 220.345 147.476 220.345 147.476C220.345 147.476 215.067 148.046 211.499 141.48L209.219 136.35C210.594 131.97 211.031 127.349 210.501 122.789C209.646 115.083 209.219 111.515 209.219 111.515L220.345 114.65Z" fill="#FFBE9D"/>
<path d="M213.944 81.2306C214.565 87.0161 214.514 92.0207 211.664 93.0467C211.424 93.1322 209.509 93.2063 209.258 93.2348C205.975 93.5882 202.766 88.7888 202.088 82.5188C201.41 76.2488 203.519 70.8737 206.802 70.5146C207.11 70.5146 208.859 70.2353 209.162 70.2866C212.074 70.811 213.328 75.5477 213.944 81.2306Z" fill="#455A64"/>
<path d="M223.058 101.944C223.058 101.944 225.464 102.748 225.025 105.068C224.506 107.254 223.849 109.405 223.058 111.509L220.066 114.821L209.236 111.509C208.718 110.508 208.463 109.392 208.495 108.266C208.569 106.447 208.495 101.944 208.495 101.944C209.441 100.723 210.112 99.3112 210.461 97.806C210.826 95.9307 211.088 93.7476 211.162 93.0807C211.166 93.0531 211.175 93.0265 211.189 93.0024C211.203 92.9784 211.222 92.9575 211.244 92.941C211.266 92.9244 211.292 92.9126 211.319 92.9063C211.346 92.8999 211.374 92.8992 211.402 92.904C211.893 93.0079 212.348 93.2413 212.719 93.58C213.089 93.9188 213.363 94.3506 213.511 94.8306C214.081 96.6489 213.95 97.1562 213.95 97.1562L223.058 101.944Z" fill="#FFBE9D"/>
<path d="M214.428 94.2153L212.878 91.7358L211.248 92.9898L214.269 98.9577L215.09 96.4554L214.428 94.2153Z" fill="#455A64"/>
<path d="M214.428 94.2152C214.428 94.2152 216.138 91.6502 217.706 92.87C219.273 94.0898 218.914 94.8194 217.706 97.0652C217.706 97.0652 220.795 96.6377 220.066 99.9152C220.066 99.9152 223.132 99.311 223.058 101.944C223.058 101.944 225.583 104.036 224.495 105.615C223.406 107.194 219.222 110.221 218.065 109.856C216.908 109.491 216.777 107.918 216.777 107.918C216.777 107.918 215.397 107.433 214.976 106.778C214.554 106.122 215.095 105.068 215.095 105.068C215.095 105.068 213.881 104.019 213.579 103.728C213.277 103.438 213.579 101.916 213.579 101.916L215.215 100.035C215.215 100.035 212.855 101.306 212.308 100.947C211.761 100.588 211.168 100.28 211.641 99.4877C212.34 98.5658 213.102 97.6935 213.921 96.8771L214.428 94.2152Z" fill="#FFBE9D"/>
<path d="M217.039 108.078C217.25 107.711 217.49 107.363 217.757 107.035C218.326 106.164 219.035 105.394 219.855 104.755C220.698 104.193 221.502 103.574 222.26 102.902C222.544 102.594 222.81 102.27 223.058 101.933C222.958 102.367 222.734 102.763 222.414 103.073C221.688 103.802 220.89 104.456 220.031 105.023C219.237 105.645 218.53 106.372 217.928 107.183C217.679 107.525 217.379 107.826 217.039 108.078Z" fill="#EB996E"/>
<path d="M215.09 105.53C215.784 104.482 216.56 103.491 217.41 102.566C218.082 101.785 218.652 101.032 219.159 100.559C219.404 100.273 219.715 100.052 220.066 99.915C220.094 99.9492 219.758 100.2 219.313 100.707C218.869 101.215 218.316 101.967 217.632 102.759C216.861 103.75 216.011 104.677 215.09 105.53Z" fill="#EB996E"/>
<path d="M215.215 100.035C215.609 99.4975 216.05 98.9959 216.532 98.5356C216.941 98.0216 217.322 97.485 217.672 96.9282C217.589 97.6159 217.268 98.2531 216.765 98.7294C216.345 99.2678 215.817 99.7124 215.215 100.035Z" fill="#EB996E"/>
<path d="M210.86 103.17C211.226 103.221 211.573 103.365 211.869 103.586C212.611 104.079 213.229 104.737 213.676 105.507C214.114 106.268 214.459 107.08 214.702 107.924C214.836 108.261 214.919 108.616 214.947 108.978C214.757 108.671 214.609 108.339 214.508 107.992C214.207 107.188 213.843 106.408 213.42 105.661C212.988 104.926 212.421 104.28 211.749 103.757C211.225 103.341 210.837 103.17 210.86 103.17Z" fill="#EB996E"/>
<path d="M211.4 93.0001C214.201 92.6968 215.921 87.3664 215.242 81.0945C214.563 74.8225 211.742 69.9839 208.94 70.2872C206.139 70.5905 204.419 75.9209 205.098 82.1928C205.777 88.4648 208.599 93.3034 211.4 93.0001Z" fill="#263238"/>
<path d="M210.364 92.8645C212.986 91.5535 214.554 86.7256 213.955 81.2023C213.357 75.679 210.82 71.347 207.993 70.5889C205.77 71.8543 204.505 76.648 205.103 82.177C205.702 87.706 207.936 92.0608 210.364 92.8645Z" fill="#E0E0E0"/>
<path d="M210.484 88.3498C210.231 86.5679 210.075 84.7736 210.017 82.9747C209.862 81.1817 209.803 79.3818 209.84 77.5825C210.1 79.3637 210.258 81.1584 210.313 82.9576C210.468 84.7506 210.525 86.5506 210.484 88.3498Z" fill="white"/>
<path d="M209.504 84.7247C209.343 84.2365 209.238 83.7317 209.19 83.2199C209.059 82.2851 208.922 80.9969 208.842 79.5605C208.763 78.1241 208.763 76.8302 208.791 75.8897C208.776 75.3812 208.818 74.8727 208.916 74.3735C208.989 74.8755 209.018 75.3828 209.002 75.8897C209.002 76.8302 209.059 78.1184 209.139 79.5491C209.219 80.9798 209.321 82.2623 209.401 83.1971C209.477 83.7027 209.511 84.2136 209.504 84.7247Z" fill="white"/>
<path d="M214.428 94.2041C214.436 94.2646 214.436 94.3259 214.428 94.3865L214.349 94.9052L214.012 96.8831C213.682 97.2251 213.311 97.6241 212.906 98.0687C212.459 98.5395 212.056 99.0509 211.704 99.5962C211.622 99.7356 211.588 99.8976 211.607 100.058C211.648 100.219 211.745 100.36 211.88 100.457C212.03 100.574 212.186 100.682 212.348 100.782C212.502 100.862 212.681 100.883 212.849 100.839C213.669 100.625 214.456 100.305 215.192 99.887L215.762 99.602L215.352 100.069L213.722 101.956L213.75 101.916C213.625 102.204 213.56 102.514 213.56 102.828C213.56 103.142 213.625 103.452 213.75 103.74C214.166 104.277 214.685 104.725 215.278 105.057L215.403 105.137L215.318 105.262C214.97 105.752 214.748 106.499 215.318 106.904C215.854 107.33 216.454 107.671 217.096 107.913L216.896 108.044V107.998C216.936 108.038 216.805 107.901 216.993 108.118C217.381 107.895 217.102 108.027 217.187 107.992V108.061V108.203C217.198 108.301 217.215 108.398 217.238 108.494C217.282 108.691 217.349 108.883 217.438 109.064C217.527 109.235 217.649 109.386 217.797 109.509C217.929 109.633 218.096 109.712 218.276 109.737C218.675 109.706 219.063 109.594 219.416 109.406C219.809 109.221 220.189 109.012 220.556 108.779C221.241 108.346 221.898 107.87 222.522 107.354C223.143 106.862 223.716 106.312 224.232 105.712C224.476 105.445 224.615 105.099 224.626 104.738C224.612 104.377 224.516 104.024 224.346 103.706C223.995 103.07 223.529 102.504 222.973 102.036L222.927 101.99V101.922C222.945 101.575 222.88 101.23 222.739 100.913C222.589 100.615 222.347 100.373 222.049 100.223C221.435 99.9672 220.76 99.8959 220.106 100.018H219.929L219.957 99.8356C219.986 99.6418 220.026 99.4423 220.049 99.2656C220.066 99.076 220.066 98.8853 220.049 98.6956C220.033 98.3299 219.889 97.9811 219.644 97.7096C219.387 97.4803 219.083 97.3105 218.753 97.212C218.423 97.1135 218.075 97.0887 217.734 97.1396H217.529L217.626 96.9629C217.944 96.4092 218.232 95.8384 218.487 95.2529C218.599 94.9911 218.663 94.711 218.675 94.4264C218.676 94.1628 218.598 93.905 218.453 93.6854C218.172 93.2854 217.809 92.9509 217.387 92.705C217.202 92.6219 217.002 92.5789 216.8 92.5789C216.597 92.5789 216.397 92.6219 216.212 92.705C215.686 92.9407 215.218 93.2912 214.844 93.731C214.708 93.8735 214.616 93.9931 214.548 94.0729C214.48 94.1527 214.451 94.1927 214.445 94.187C214.467 94.1402 214.493 94.0962 214.525 94.0558C214.609 93.9267 214.7 93.8029 214.799 93.6854C214.957 93.495 215.129 93.3159 215.312 93.1496C215.562 92.9112 215.851 92.7183 216.167 92.5796C216.369 92.4891 216.587 92.4424 216.808 92.4424C217.029 92.4424 217.248 92.4891 217.449 92.5796L217.763 92.7733L218.054 93.0071C218.27 93.1691 218.462 93.361 218.624 93.5771C218.795 93.8228 218.886 94.1154 218.886 94.415C218.879 94.7241 218.815 95.0294 218.698 95.3156C218.448 95.9134 218.162 96.4958 217.843 97.0598L217.734 96.9002C218.1 96.8604 218.471 96.8836 218.829 96.9685C219.218 97.0524 219.574 97.251 219.849 97.5385C220.137 97.8512 220.306 98.2544 220.328 98.6785C220.345 98.8853 220.345 99.0931 220.328 99.2999C220.328 99.5051 220.265 99.7103 220.231 99.9212L220.083 99.7673C220.793 99.6265 221.53 99.702 222.197 99.9839C222.549 100.159 222.834 100.443 223.013 100.793C223.177 101.15 223.253 101.541 223.235 101.933L223.184 101.819C223.772 102.309 224.263 102.904 224.631 103.575C224.827 103.924 224.935 104.315 224.945 104.715C224.945 104.928 224.905 105.139 224.825 105.336C224.738 105.526 224.627 105.704 224.495 105.866C223.983 106.492 223.41 107.064 222.785 107.576C222.151 108.105 221.482 108.59 220.784 109.03C220.417 109.265 220.036 109.479 219.644 109.668C219.243 109.883 218.799 110.004 218.344 110.022C218.096 109.998 217.858 109.911 217.652 109.769C217.447 109.628 217.281 109.436 217.17 109.212C217.07 109.015 216.993 108.806 216.942 108.591C216.918 108.486 216.899 108.379 216.885 108.272V108.106V108.004C216.971 107.964 216.697 108.101 217.079 107.878C217.267 108.089 217.136 107.952 217.176 107.998V108.3L216.976 108.22C216.307 107.964 215.68 107.606 215.118 107.16C214.972 107.033 214.855 106.875 214.776 106.698C214.701 106.518 214.675 106.322 214.702 106.128C214.752 105.769 214.892 105.429 215.107 105.137L215.147 105.342C214.518 104.986 213.969 104.505 213.533 103.928C213.349 103.615 213.262 103.254 213.283 102.891C213.289 102.549 213.349 102.211 213.459 101.888L215.107 100.018L215.249 100.2C214.49 100.629 213.674 100.949 212.827 101.152C212.605 101.207 212.37 101.175 212.171 101.061C212.012 100.947 211.846 100.845 211.692 100.713C211.521 100.587 211.402 100.403 211.356 100.195C211.333 99.9968 211.375 99.7969 211.476 99.6248C211.845 99.0719 212.265 98.5547 212.73 98.0801C213.14 97.6355 213.522 97.2479 213.87 96.9401C214.041 96.1022 214.172 95.441 214.269 94.9679L214.383 94.4606C214.38 94.3728 214.395 94.2854 214.428 94.2041Z" fill="#EB996E"/>
<path d="M119.86 200.07L98.3308 173.343C98.3308 173.343 86.8852 182.981 86.5831 183.284C86.281 183.586 104.487 201.301 116.183 208.158L119.86 205.724V200.07Z" fill="#FFBE9D"/>
<path d="M137.94 191.52C137.94 191.52 131.146 190.449 130.53 190.893C129.915 191.338 125.252 194.473 125.252 194.473C124.632 195.443 123.945 196.369 123.194 197.243C123.194 197.243 121.678 199.033 120.515 199.209C119.894 199.325 119.256 199.325 118.634 199.209L115.596 207.617C115.596 207.617 117.922 210.034 119.352 209.851C120.783 209.669 128.381 205.474 128.381 205.474L130.262 204.847C130.262 204.847 137.592 205.115 137.952 202.88V202.253L130.707 201.626L128.028 202.077L132.679 200.327C132.679 200.327 139.473 199.928 140.089 199.757C140.705 199.586 141.429 198.617 141.161 198.047L139.73 197.87C139.73 197.87 141.275 196.804 141.218 195.818L134.788 194.798C134.788 194.798 138.658 192.854 137.94 191.52Z" fill="#FFBE9D"/>
<path d="M140.471 197.79C140.279 197.785 140.087 197.758 139.901 197.71C139.53 197.642 138.983 197.551 138.311 197.454C136.96 197.254 135.09 197.015 133.021 196.787C132.774 196.751 132.524 196.73 132.274 196.724C132.04 196.728 131.807 196.769 131.585 196.844C131.146 197.021 130.707 197.226 130.302 197.414C129.487 197.796 128.763 198.166 128.17 198.503C127.703 198.763 127.25 199.048 126.814 199.358C126.66 199.483 126.496 199.595 126.323 199.694C126.434 199.527 126.575 199.382 126.74 199.266C127.156 198.918 127.598 198.602 128.062 198.32C128.632 197.961 129.367 197.568 130.182 197.18C130.593 196.981 131.009 196.781 131.488 196.61C131.737 196.522 131.999 196.474 132.263 196.468C132.528 196.474 132.792 196.495 133.055 196.53C135.13 196.764 137 197.032 138.345 197.289C139.017 197.414 139.559 197.534 139.929 197.636C140.116 197.661 140.299 197.713 140.471 197.79Z" fill="#EB996E"/>
<path d="M134.976 195.083C134.976 195.128 134.452 194.906 133.591 194.741C132.474 194.515 131.321 194.546 130.218 194.831C129.115 195.116 128.091 195.649 127.224 196.388C126.557 196.958 126.221 197.391 126.181 197.357C126.404 196.92 126.712 196.533 127.087 196.217C127.948 195.406 128.999 194.824 130.143 194.525C131.288 194.226 132.489 194.22 133.637 194.507C134.118 194.605 134.574 194.801 134.976 195.083Z" fill="#EB996E"/>
<path d="M222.249 142.266C223.008 143.675 223.455 145.23 223.56 146.826C223.56 149.055 222.255 152.954 222.255 152.954L220.63 154.487C220.63 154.487 221.696 159.361 215.5 160.757C209.304 162.154 174.768 142.284 174.768 142.284L173.85 115.927C173.85 115.927 178.866 118.019 182.486 121.627C186.105 125.235 206.728 140.437 206.728 140.437C206.728 140.437 207.566 135.056 208.489 135.409C209.412 135.763 222.249 142.266 222.249 142.266Z" fill="#E0E0E0"/>
<path d="M173.85 115.926L155.148 111.936L150.281 106.932L128.775 106.727L126.181 111.435L110.067 121.233C110.067 121.233 114.126 148.074 115.608 151.204C117.09 154.333 128.82 188.824 128.82 188.824L175.708 183.232L176.107 161.572L177.464 151.09C177.755 148.848 177.8 146.581 177.601 144.329C176.7 134.56 173.85 115.926 173.85 115.926Z" fill="#E0E0E0"/>
<path d="M104.492 179.807L89.1025 190.346L83.7331 182.691L85.1695 181.414C85.1695 181.414 77.2408 174.859 77.7196 170.236C78.1984 165.614 86.5546 153.706 86.5546 153.706C86.5546 153.706 104.47 124.385 110.021 121.216C110.797 120.777 117.54 137.051 117.54 143.446C117.54 149.842 116.28 149.842 116.28 149.842C116.28 149.842 110.859 155.103 108.3 159.891C105.741 164.679 101.426 169.86 98.5588 171.792L104.492 179.807Z" fill="#E0E0E0"/>
<path d="M89.9631 168.042C89.9631 168.042 90.1113 168.007 90.3792 167.996C90.7602 167.99 91.1412 168.011 91.5192 168.059C92.7609 168.217 93.9671 168.583 95.0874 169.142C96.2079 169.701 97.2317 170.436 98.1198 171.319C98.5038 171.666 98.8342 172.067 99.1002 172.51C99.0261 172.59 97.5498 170.686 94.9563 169.41C93.8611 168.867 92.6942 168.483 91.4907 168.27C90.5502 168.11 89.9631 168.093 89.9631 168.042Z" fill="#263238"/>
<path d="M94.6486 162.849C95.0798 163.109 95.465 163.438 95.7886 163.824C96.6201 164.712 97.2913 165.738 97.7722 166.856C98.253 167.974 98.5421 169.165 98.6272 170.379C98.6892 170.879 98.668 171.385 98.5645 171.878C98.5189 171.878 98.5303 171.308 98.422 170.396C98.2752 169.218 97.9643 168.067 97.4986 166.976C97.0247 165.886 96.3949 164.87 95.629 163.961C95.0476 163.265 94.6201 162.889 94.6486 162.849Z" fill="#263238"/>
<path d="M153.615 146.159C153.688 146.414 153.736 146.676 153.758 146.94C153.805 147.244 153.835 147.55 153.849 147.858C153.881 148.265 153.893 148.674 153.883 149.083C153.887 149.58 153.864 150.077 153.815 150.571C153.786 151.107 153.683 151.671 153.592 152.281C153.139 154.863 152.169 157.327 150.742 159.526C150.4 160.022 150.087 160.5 149.745 160.916C149.441 161.313 149.118 161.693 148.776 162.056C148.503 162.363 148.214 162.654 147.909 162.929C147.691 163.147 147.459 163.35 147.214 163.538C147.019 163.717 146.807 163.875 146.581 164.012C146.541 163.96 147.431 163.271 148.622 161.92C148.918 161.578 149.237 161.207 149.545 160.78C149.853 160.352 150.178 159.89 150.509 159.395C151.19 158.307 151.778 157.163 152.264 155.975C152.726 154.77 153.084 153.529 153.336 152.264C153.433 151.694 153.541 151.124 153.581 150.594C153.621 150.064 153.666 149.579 153.683 149.129C153.729 147.282 153.552 146.171 153.615 146.159Z" fill="#263238"/>
<path d="M152.458 135.945C152.328 135.866 152.205 135.775 152.093 135.671C151.854 135.489 151.523 135.198 151.073 134.856C150.184 134.15 148.861 133.146 147.18 132.006C145.498 130.866 143.469 129.51 141.218 128.016C138.736 126.393 136.356 124.619 134.093 122.704H134.315C134.076 123.046 133.83 123.422 133.602 123.81C132.654 125.417 131.989 127.176 131.636 129.008L131.55 129.458L131.368 129.042C129.592 125.034 128.182 120.873 127.156 116.611C126.774 115.02 126.512 113.761 126.363 112.854C126.278 112.415 126.232 112.073 126.198 111.84C126.176 111.723 126.163 111.605 126.158 111.486C126.202 111.596 126.233 111.711 126.249 111.828C126.301 112.085 126.369 112.398 126.46 112.837C126.643 113.715 126.928 114.986 127.332 116.565C128.415 120.798 129.853 124.932 131.63 128.923H131.357C131.711 127.056 132.383 125.265 133.346 123.627C133.58 123.234 133.83 122.852 134.07 122.487L134.167 122.351L134.292 122.465C136.543 124.373 138.903 126.148 141.36 127.783C143.6 129.31 145.629 130.667 147.294 131.852C148.958 133.038 150.269 134.036 151.136 134.771C151.58 135.124 151.899 135.432 152.122 135.632C152.241 135.728 152.353 135.833 152.458 135.945Z" fill="#263238"/>
<path d="M155.126 111.954C155.187 112.024 155.239 112.103 155.279 112.187C155.376 112.347 155.519 112.581 155.684 112.894C156.032 113.51 156.511 114.422 157.069 115.585C158.585 118.675 159.75 121.925 160.541 125.275L160.632 125.668L160.313 125.417C159.335 124.662 158.427 123.82 157.599 122.903C157.084 122.334 156.601 121.736 156.152 121.114L156.419 121.034C156.231 124.328 156.066 127.304 155.924 129.806C154.892 131.653 154.043 133.175 153.433 134.275L152.732 135.489C152.659 135.637 152.571 135.776 152.469 135.905C152.521 135.75 152.59 135.6 152.675 135.46C152.834 135.141 153.051 134.725 153.319 134.206C153.889 133.101 154.721 131.562 155.718 129.698V129.743C155.844 127.275 155.992 124.266 156.152 120.971V120.555L156.397 120.897C157.555 122.499 158.935 123.929 160.495 125.143L160.261 125.286C159.482 121.948 158.357 118.7 156.904 115.596C156.368 114.456 155.918 113.504 155.599 112.871C155.456 112.575 155.336 112.336 155.24 112.142C155.196 112.082 155.158 112.019 155.126 111.954Z" fill="#263238"/>
<path d="M177.84 145.458C177.755 145.458 177.27 140.944 176.729 135.363C176.187 129.783 175.839 125.246 175.919 125.24C175.999 125.235 176.489 129.749 177.025 135.335C177.561 140.921 177.914 145.447 177.84 145.458Z" fill="#263238"/>
<path d="M211.088 148.234C210.711 147.967 210.375 147.646 210.091 147.282C209.355 146.446 208.715 145.53 208.181 144.552C207.649 143.573 207.225 142.539 206.916 141.468C206.765 141.031 206.677 140.574 206.654 140.112C207.15 141.584 207.748 143.02 208.443 144.41C209.234 145.745 210.117 147.023 211.088 148.234Z" fill="#263238"/>
<path d="M208.29 148.889C208.29 148.889 208.175 148.787 208.01 148.565C207.778 148.252 207.572 147.92 207.395 147.573C206.203 145.263 205.926 142.588 206.619 140.083C206.721 139.708 206.853 139.342 207.013 138.989C207.062 138.853 207.134 138.726 207.224 138.612C207.269 138.612 207.041 139.182 206.825 140.134C206.544 141.36 206.465 142.623 206.591 143.873C206.726 145.122 207.061 146.34 207.583 147.482C207.987 148.359 208.329 148.855 208.29 148.889Z" fill="#263238"/>
<path d="M109.349 137.706C109.47 137.885 109.574 138.076 109.657 138.276L110.409 139.872L112.917 145.127C113.897 147.185 114.758 149.055 115.345 150.428C115.642 151.118 115.87 151.677 116.012 152.064C116.103 152.263 116.172 152.472 116.217 152.686C116.091 152.51 115.987 152.318 115.91 152.116L115.151 150.52C114.485 149.112 113.612 147.282 112.649 145.264C111.686 143.246 110.802 141.337 110.221 139.963C109.925 139.274 109.697 138.715 109.548 138.327C109.458 138.129 109.391 137.92 109.349 137.706Z" fill="#263238"/>
<path d="M164.576 168.977C164.55 169.214 164.494 169.448 164.411 169.672C164.285 170.111 164.086 170.744 163.841 171.524C163.316 173.075 162.53 175.201 161.561 177.492C160.592 179.784 159.56 181.819 158.785 183.261C158.397 183.985 158.072 184.56 157.833 184.971C157.723 185.173 157.594 185.364 157.445 185.541C157.518 185.314 157.616 185.096 157.736 184.891C157.964 184.424 158.255 183.842 158.597 183.152C159.321 181.693 160.307 179.653 161.287 177.367C162.268 175.081 163.088 172.972 163.658 171.439C163.926 170.715 164.149 170.111 164.331 169.626C164.392 169.402 164.474 169.185 164.576 168.977Z" fill="#263238"/>
<path d="M164.246 178.53C164.149 178.904 163.995 179.262 163.79 179.59C163.361 180.407 162.879 181.195 162.348 181.95C161.815 182.706 161.234 183.428 160.609 184.11C160.372 184.412 160.089 184.675 159.771 184.891C159.708 184.834 160.871 183.534 162.102 181.779C163.334 180.023 164.16 178.49 164.246 178.53Z" fill="#263238"/>
<path d="M160.911 178.53C160.877 178.385 160.857 178.239 160.848 178.091C160.814 177.777 160.774 177.355 160.723 176.825C160.62 175.725 160.461 174.135 160.256 172.174C159.828 168.247 159.161 162.826 158.016 156.915C157.055 151.857 155.822 146.855 154.322 141.93C154.043 140.984 153.752 140.134 153.524 139.388C153.296 138.641 153.074 137.997 152.891 137.478C152.709 136.959 152.589 136.572 152.487 136.27C152.43 136.132 152.39 135.989 152.367 135.842C152.434 135.975 152.493 136.112 152.544 136.253C152.658 136.549 152.806 136.942 153 137.438C153.193 137.934 153.427 138.578 153.678 139.336C153.929 140.094 154.248 140.921 154.521 141.867C156.086 146.777 157.35 151.778 158.306 156.841C159.446 162.769 160.09 168.201 160.467 172.134C160.643 174.101 160.774 175.697 160.837 176.802L160.905 178.068C160.925 178.221 160.927 178.376 160.911 178.53Z" fill="#263238"/>
<path d="M161.88 182.297C162.132 181.425 162.253 180.52 162.239 179.613C162.131 178.709 161.883 177.829 161.504 177.002C161.532 177.002 161.755 177.213 162 177.663C162.306 178.263 162.488 178.918 162.536 179.59C162.585 180.262 162.496 180.937 162.273 181.573C162.097 182.058 161.909 182.314 161.88 182.297Z" fill="#263238"/>
<path d="M160.997 185.051C160.911 185.051 160.865 184.68 160.894 184.235C160.922 183.791 161.008 183.426 161.088 183.432C161.168 183.437 161.219 183.802 161.19 184.253C161.162 184.703 161.076 185.056 160.997 185.051Z" fill="#263238"/>
<path d="M99.6418 174.027C99.4214 174.124 99.1924 174.2 98.9578 174.255C98.5132 174.386 97.8805 174.585 97.0996 174.859C96.3187 175.133 95.3896 175.497 94.4149 175.931C93.4402 176.364 92.3515 176.911 91.2514 177.521C89.381 178.577 87.5852 179.759 85.8763 181.061C85.2208 181.562 84.6964 181.973 84.3373 182.263C84.1639 182.427 83.9727 182.57 83.7673 182.691C83.9161 182.501 84.0864 182.329 84.2746 182.178C84.6109 181.859 85.1182 181.42 85.7566 180.895C87.4403 179.538 89.2344 178.323 91.1203 177.264C92.2261 176.649 93.3091 176.124 94.318 175.68C95.2105 175.294 96.1217 174.954 97.0483 174.66C97.6697 174.455 98.3014 174.284 98.9407 174.147C99.169 174.08 99.4043 174.04 99.6418 174.027Z" fill="#263238"/>
<path d="M99.0433 174.044C99.0433 174.095 98.2624 174.044 97.0141 174.18C95.3941 174.326 93.7968 174.661 92.2546 175.178C90.7151 175.707 89.2285 176.378 87.8143 177.184C86.7256 177.806 86.1043 178.239 86.053 178.199C86.174 178.062 86.3142 177.943 86.4691 177.845C86.867 177.545 87.2798 177.266 87.706 177.008C89.1044 176.133 90.6004 175.425 92.1634 174.899C93.7269 174.371 95.3549 174.058 97.0027 173.969C97.5 173.94 97.9987 173.94 98.4961 173.969C98.6812 173.966 98.8658 173.991 99.0433 174.044Z" fill="#263238"/>
<g opacity="0.3">
<path d="M110.42 139.747C110.098 142.029 110.429 144.356 111.375 146.458C112.321 148.559 113.844 150.349 115.767 151.62C114.422 148.2 112.096 143.264 110.42 139.747Z" fill="black"/>
</g>
<g opacity="0.3">
<path d="M132.206 126.432C132.928 127.899 133.92 129.218 135.13 130.319L135.073 127.201L149.323 133.545L134.024 122.55C133.186 123.958 133.044 125.012 132.206 126.42" fill="black"/>
</g>
<g opacity="0.3">
<path d="M158.568 124.004C157.958 123.046 156.288 121.022 156.288 121.022C156.231 122.516 156.1 124.562 156.049 126.061L155.832 129.647C156.055 128.398 156.22 125.987 156.442 124.733L159.098 127.253C159.263 126.706 159.301 126.13 159.209 125.567C159.117 125.004 158.898 124.469 158.568 124.004Z" fill="black"/>
</g>
<g opacity="0.3">
<path d="M175.993 127.68L177.84 144.118C178.604 138.766 180.063 135.859 175.993 127.68Z" fill="black"/>
</g>
<g opacity="0.3">
<path d="M216.6 151.38C215.916 150.81 214.4 150.457 213.619 150.035C210.079 148.109 208.204 144.586 206.825 140.801L206.699 140.379C206.842 145.452 210.062 150.879 214.679 152.965C215.145 153.215 215.674 153.326 216.201 153.284C216.462 153.253 216.703 153.128 216.877 152.931C217.052 152.735 217.148 152.481 217.147 152.218C217.077 151.88 216.881 151.581 216.6 151.38Z" fill="black"/>
</g>
<g opacity="0.3">
<path d="M143.178 165.477C149.038 163.533 151.865 158.016 153.37 153.193C153.454 155.285 153.202 157.377 152.623 159.389C152.029 161.413 150.805 163.194 149.129 164.474C148.286 165.098 147.308 165.514 146.274 165.688C145.24 165.863 144.179 165.79 143.178 165.477Z" fill="black"/>
</g>
<g opacity="0.3">
<path d="M98.5018 174.42C94.2081 174.147 89.9702 175.509 86.6401 178.233C86.4007 178.433 86.1385 178.718 86.2411 179.014C86.2937 179.117 86.3763 179.202 86.4781 179.257C86.58 179.312 86.6961 179.335 86.8111 179.322C87.0444 179.28 87.2659 179.189 87.4609 179.054C90.9393 177.041 94.6434 175.445 98.4961 174.3" fill="black"/>
</g>
<g opacity="0.3">
<path d="M168.817 162.957C168.6 162.752 168.314 162.636 168.016 162.631C167.718 162.625 167.428 162.732 167.204 162.929C166.768 163.342 166.446 163.86 166.269 164.434L159.309 181.71L158.244 184.27L165.54 172.038C166.993 169.598 168.475 167.09 168.96 164.291C169.031 164.071 169.056 163.839 169.031 163.609C169.007 163.379 168.934 163.157 168.817 162.957Z" fill="black"/>
</g>
<path d="M120.943 65.8691C125.258 59.8442 132.411 56.3216 139.701 54.9821C142.768 54.4121 144.78 54.8282 147.835 55.4495C150.89 55.9791 153.661 57.5672 155.661 59.9354C157.981 62.8196 159.988 66.0914 160.626 69.7394C161.282 73.49 161.937 77.2634 161.897 81.0653C161.857 84.8672 161.065 88.7489 159.047 91.9637L149.517 94.2437C144.21 94.7624 138.824 95.2811 133.557 94.4033C128.29 93.5255 123.08 91.0517 120.014 86.6855C115.75 80.6321 116.622 71.894 120.943 65.8691Z" fill="#263238"/>
<path d="M156.465 97.5781C156.465 97.5781 156.636 97.8061 157.075 98.0455C157.698 98.3863 158.39 98.5812 159.098 98.6155C160.168 98.6662 161.226 98.3812 162.125 97.8004C163.218 97.0464 163.975 95.8981 164.239 94.5971C164.503 93.296 164.252 91.9435 163.539 90.8236C162.937 89.9424 162.077 89.2693 161.076 88.897C160.414 88.6437 159.702 88.5443 158.996 88.6063C158.5 88.6576 158.243 88.7716 158.255 88.8001C158.266 88.8286 159.366 88.6006 160.922 89.2732C161.81 89.6634 162.564 90.3031 163.094 91.1143C163.703 92.1295 163.91 93.3357 163.675 94.4959C163.44 95.6561 162.779 96.6864 161.823 97.3843C161.019 97.926 160.074 98.2212 159.104 98.2336C157.417 98.1937 156.511 97.4698 156.465 97.5781Z" fill="#E0E0E0"/>
<path d="M113.493 93.2919C113.518 92.1935 113.793 91.1153 114.298 90.1394C114.803 89.1635 115.524 88.3156 116.405 87.6603C118.218 86.4291 120.857 86.3721 122.522 87.7971L124.152 89.5071C125.364 89.9716 126.401 90.804 127.117 91.8875C127.832 92.9711 128.191 94.2515 128.142 95.5491C128.045 96.8424 127.583 98.0815 126.809 99.122C126.035 100.162 124.981 100.961 123.77 101.426C122.547 101.856 121.234 101.964 119.958 101.741C118.681 101.517 117.483 100.969 116.48 100.149C115.489 99.3115 114.705 98.2575 114.187 97.0685C113.669 95.8795 113.432 94.5874 113.493 93.2919Z" fill="#263238"/>
<path d="M115.818 99.6646C115.415 99.1189 115.19 98.4619 115.174 97.7836C115.174 96.541 115.972 94.8709 117.107 93.3091C118.103 91.9732 119.345 90.8396 120.766 89.9689C121.86 89.2906 122.618 89.017 122.59 88.9429C121.884 89.0515 121.207 89.3016 120.601 89.6782C118.225 90.9538 116.36 93.0062 115.317 95.4922C114.989 96.2069 114.828 96.9862 114.844 97.7722C114.867 98.3144 115.049 98.8379 115.368 99.277C115.607 99.5905 115.801 99.6874 115.818 99.6646Z" fill="#455A64"/>
<path d="M120.658 102.213C120.817 102.213 119.974 99.3227 120.658 95.8229C121.342 92.3231 123.171 89.9633 123.035 89.8892C122.551 90.3149 122.151 90.8272 121.855 91.3997C120.243 94.0926 119.626 97.2651 120.11 100.366C120.178 101.01 120.363 101.636 120.658 102.213Z" fill="#455A64"/>
<path d="M150.508 109.885C150.229 106.51 149.973 103.746 149.973 103.763C149.973 103.78 157.77 102.395 159.298 92.1862C160.062 87.1132 159.731 78.8026 159.241 72.0139C158.802 65.9035 153.062 57.9064 145.51 58.3339L142.129 58.1572L129.589 64.0852C128.697 64.1876 127.876 64.621 127.288 65.2997C126.701 65.9783 126.389 66.8528 126.415 67.7503L129.156 111.412L152.435 135.922L153.769 129.008L150.508 109.885Z" fill="#FFBE9D"/>
<path d="M144.045 90.7954C144.092 90.2743 144.327 89.788 144.706 89.4274C145.05 89.0898 145.495 88.8749 145.973 88.8161C146.451 88.7574 146.936 88.8581 147.351 89.1025C147.785 89.3949 148.133 89.7979 148.36 90.2698C148.586 90.7418 148.683 91.2656 148.639 91.7872C148.439 92.1117 148.171 92.3895 147.855 92.6019C147.538 92.8142 147.18 92.9563 146.804 93.0184C146.682 93.0184 146.562 93.0298 146.444 93.0526C145.846 93.0879 145.256 92.8967 144.791 92.5168C144.545 92.3051 144.35 92.0401 144.22 91.7419C144.091 91.4438 144.031 91.1201 144.045 90.7954Z" fill="#EB996E"/>
<path d="M156.551 78.9393C156.557 79.2803 156.43 79.6103 156.197 79.8594C155.964 80.1084 155.643 80.2568 155.302 80.2731C155.136 80.2878 154.968 80.2691 154.81 80.218C154.651 80.1669 154.504 80.0844 154.377 79.9755C154.251 79.8665 154.147 79.7333 154.073 79.5837C153.999 79.4341 153.956 79.2712 153.946 79.1046C153.938 78.7646 154.064 78.4352 154.296 78.1869C154.528 77.9386 154.849 77.7913 155.188 77.7765C155.355 77.7609 155.522 77.7788 155.681 77.8292C155.841 77.8796 155.988 77.9614 156.115 78.0698C156.242 78.1783 156.346 78.3111 156.421 78.4604C156.496 78.6098 156.54 78.7726 156.551 78.9393Z" fill="#263238"/>
<path d="M156.984 75.9412C156.824 76.1122 155.844 75.3712 154.419 75.4054C152.994 75.4396 151.985 76.135 151.831 75.9754C151.757 75.9013 151.922 75.5935 152.367 75.2629C152.972 74.8342 153.695 74.6032 154.436 74.6017C155.166 74.5953 155.88 74.8186 156.477 75.2401C156.91 75.5593 157.064 75.8671 156.984 75.9412Z" fill="#263238"/>
<path d="M148.85 87.1244C148.85 87.0446 149.716 86.885 151.13 86.6912C151.489 86.6513 151.831 86.5772 151.888 86.3321C151.919 85.9611 151.831 85.5899 151.637 85.2719L150.554 82.5416C149.044 78.6599 147.944 75.4679 148.103 75.4109C148.263 75.3539 149.614 78.449 151.118 82.3307L152.162 85.0724C152.395 85.5025 152.466 86.0023 152.361 86.4803C152.312 86.6061 152.236 86.7192 152.137 86.8111C152.038 86.9029 151.92 86.9711 151.791 87.0104C151.595 87.0678 151.391 87.0985 151.187 87.1016C149.739 87.2099 148.856 87.2099 148.85 87.1244Z" fill="#263238"/>
<path d="M149.973 103.74C145.175 103.854 140.44 102.637 136.293 100.223C136.293 100.223 139.992 107.251 150.189 106.208L149.973 103.74Z" fill="#EB996E"/>
<path d="M144.717 88.1334C144.951 88.1334 144.968 89.6439 146.285 90.7212C147.602 91.7985 149.22 91.6104 149.238 91.8213C149.238 91.9182 148.878 92.1234 148.189 92.1462C147.296 92.1672 146.424 91.8725 145.726 91.314C145.056 90.7746 144.62 89.9961 144.512 89.1423C144.45 88.5096 144.615 88.1277 144.717 88.1334Z" fill="#263238"/>
<path d="M156.323 70.1386C156.077 70.4578 155.103 70.1386 153.94 70.1386C152.777 70.1386 151.785 70.3723 151.557 70.036C151.455 69.8764 151.609 69.5572 152.036 69.2494C152.613 68.8808 153.286 68.6922 153.97 68.7074C154.654 68.7226 155.318 68.941 155.878 69.3349C156.288 69.6541 156.431 69.979 156.323 70.1386Z" fill="#263238"/>
<path d="M140.727 79.23C140.741 79.5702 140.887 79.8918 141.134 80.126C141.381 80.3603 141.709 80.4888 142.05 80.484C142.216 80.4894 142.382 80.4614 142.538 80.4019C142.694 80.3423 142.836 80.2523 142.956 80.1371C143.077 80.022 143.173 79.884 143.24 79.7311C143.306 79.5783 143.342 79.4138 143.344 79.2471C143.33 78.9064 143.185 78.5843 142.938 78.3491C142.691 78.114 142.362 77.9842 142.021 77.9875C141.854 77.9821 141.688 78.0102 141.532 78.0702C141.376 78.1301 141.233 78.2206 141.113 78.3364C140.992 78.4521 140.896 78.5908 140.83 78.7443C140.764 78.8978 140.729 79.0629 140.727 79.23Z" fill="#263238"/>
<path d="M138.55 76.9898C138.721 77.1551 139.69 76.3742 141.081 76.3115C142.472 76.2488 143.549 76.91 143.691 76.7276C143.766 76.6478 143.583 76.3514 143.121 76.0436C142.494 75.6483 141.759 75.4589 141.018 75.5021C140.289 75.5311 139.588 75.7928 139.017 76.2488C138.601 76.6022 138.465 76.9157 138.55 76.9898Z" fill="#263238"/>
<path d="M138.567 75.0235C138.829 75.3313 139.781 74.9551 140.944 74.8867C142.107 74.8183 143.104 75.0007 143.315 74.6587C143.412 74.4934 143.241 74.1799 142.796 73.8949C142.2 73.5596 141.518 73.4087 140.836 73.4615C140.154 73.5142 139.503 73.7682 138.966 74.1913C138.573 74.539 138.453 74.8753 138.567 75.0235Z" fill="#263238"/>
<path d="M130.074 84.8899C130.074 84.1318 129.174 82.3477 128.427 82.2394C126.42 81.943 122.812 82.1368 122.824 87.2212C122.824 94.1752 129.818 92.7217 129.829 92.5222C129.84 92.3227 130.108 87.5119 130.074 84.8899Z" fill="#FFBE9D"/>
<path d="M127.11 89.8317C127.11 89.8317 126.99 89.9172 126.785 90.0141C126.494 90.1317 126.169 90.1317 125.879 90.0141C125.143 89.7462 124.522 88.5834 124.488 87.3294C124.474 86.7417 124.589 86.1582 124.824 85.6194C124.888 85.4023 125.004 85.2041 125.162 85.0421C125.32 84.8802 125.515 84.7594 125.731 84.6903C125.87 84.6523 126.018 84.6646 126.15 84.7251C126.281 84.7855 126.387 84.8903 126.449 85.0209C126.54 85.2147 126.494 85.3515 126.534 85.3629C126.574 85.3743 126.682 85.2489 126.625 84.9582C126.588 84.7863 126.491 84.633 126.352 84.525C126.257 84.4527 126.149 84.3999 126.033 84.3696C125.918 84.3393 125.797 84.332 125.679 84.3483C125.395 84.4069 125.129 84.5371 124.909 84.7266C124.689 84.9161 124.52 85.1586 124.42 85.4313C124.124 86.0335 123.981 86.699 124.003 87.3693C124.049 88.7715 124.773 90.0768 125.776 90.3675C125.963 90.4216 126.159 90.4327 126.351 90.4001C126.542 90.3676 126.724 90.2921 126.882 90.1794C127.11 90.0027 127.11 89.8431 127.11 89.8317Z" fill="#EB996E"/>
<path d="M127.338 82.12L129.213 83.83C136.344 76.0723 150.03 56.9203 149.266 58.0603C145.722 56.9868 141.965 56.8182 138.339 57.5701C132.753 58.8925 122.225 62.4037 122.812 69.0499C123.399 75.6961 127.338 82.12 127.338 82.12Z" fill="#263238"/>
<path d="M128.604 99.3565C128.604 99.3565 128.461 99.6016 128.034 99.898C127.453 100.305 126.789 100.577 126.09 100.696C125.037 100.88 123.953 100.731 122.989 100.269C122.401 99.9731 121.877 99.5641 121.447 99.0652C121.018 98.5663 120.691 97.9872 120.487 97.3615C120.048 96.1075 120.122 94.7311 120.692 93.5311C121.178 92.5791 121.946 91.8006 122.892 91.3024C123.518 90.9648 124.211 90.7701 124.921 90.7324C125.417 90.7324 125.685 90.8008 125.679 90.835C125.674 90.8692 124.539 90.778 123.092 91.6387C122.261 92.1413 121.594 92.8738 121.171 93.7477C120.704 94.8285 120.656 96.0439 121.035 97.1582C121.415 98.2725 122.194 99.2063 123.223 99.7783C124.091 100.214 125.068 100.386 126.033 100.274C127.737 100.086 128.547 99.2539 128.604 99.3565Z" fill="#E0E0E0"/>
<path d="M122.624 88.2073C122.647 87.6694 122.635 87.1306 122.59 86.5942C122.562 85.1346 122.663 83.6754 122.892 82.2337C123.717 77.4778 125.687 72.994 128.632 69.1693C131.617 65.3769 135.165 62.0646 139.154 59.3482C140.67 58.2823 141.93 57.4672 142.808 56.9086C143.276 56.6438 143.724 56.3446 144.147 56.0137C144.012 56.0508 143.883 56.1085 143.765 56.1847C143.52 56.3101 143.161 56.4925 142.711 56.7547C141.805 57.262 140.511 58.0372 138.96 59.0689C134.878 61.7335 131.26 65.0493 128.25 68.8843C125.249 72.7619 123.288 77.3409 122.55 82.1881C122.348 83.6495 122.296 85.1279 122.396 86.5999C122.396 87.1243 122.499 87.5233 122.527 87.7969C122.542 87.9371 122.575 88.075 122.624 88.2073Z" fill="#455A64"/>
<path d="M139.764 55.8599C139.626 55.895 139.494 55.9487 139.371 56.0195C139.114 56.1335 138.749 56.3216 138.282 56.5895C137.347 57.0797 136.002 57.8321 134.417 58.8695C132.554 60.0714 130.76 61.3769 129.042 62.7797C126.893 64.4594 124.953 66.3902 123.262 68.531C122.404 69.6687 121.702 70.9168 121.176 72.2417C120.706 73.4817 120.407 74.7799 120.287 76.1006C120.108 78.3274 120.256 80.5684 120.726 82.7525C121.102 84.6107 121.535 86.0813 121.866 87.0902C122.026 87.5975 122.151 87.9851 122.248 88.2302C122.285 88.3674 122.338 88.4995 122.407 88.6235C122.327 88.0815 122.207 87.5462 122.048 87.0218C121.792 86.0015 121.41 84.5195 121.079 82.6727C120.667 80.5173 120.553 78.3153 120.743 76.1291C120.874 74.849 121.173 73.5918 121.632 72.3899C122.147 71.1075 122.832 69.8998 123.667 68.7989C125.341 66.6849 127.253 64.7722 129.367 63.0989C131.058 61.681 132.82 60.3493 134.645 59.1089C136.207 58.0544 137.495 57.2621 138.413 56.7206C138.881 56.463 139.333 56.1755 139.764 55.8599Z" fill="#455A64"/>
<path d="M127.213 82.3024C127.529 82.0224 127.813 81.7089 128.062 81.3676L130.239 78.7171C132.058 76.4656 134.549 73.3363 137.273 69.8593C139.998 66.3823 142.449 63.2245 144.204 60.916L146.262 58.1743C146.53 57.8491 146.765 57.4978 146.963 57.1255C146.652 57.4079 146.367 57.719 146.114 58.0546L143.942 60.7051C142.118 62.9851 139.627 66.0916 136.903 69.5686C134.178 73.0456 131.727 76.2091 129.96 78.5119L127.902 81.2593C127.643 81.5867 127.412 81.9356 127.213 82.3024Z" fill="#E0E0E0"/>
<path d="M145.213 87.6888C144.784 87.6674 144.353 87.6807 143.925 87.7287C143.515 87.8623 143.116 88.0301 142.734 88.2303C142.66 88.1904 143.059 87.609 143.874 87.438C144.1 87.3635 144.342 87.3475 144.576 87.3913C144.81 87.4352 145.029 87.5375 145.213 87.6888Z" fill="#EB996E"/>
<path d="M137.98 78.9508C137.568 79.1292 137.112 79.1846 136.669 79.1104C136.222 79.1277 135.78 79.019 135.392 78.7969C135.821 78.7279 136.258 78.7279 136.686 78.7969C137.123 78.7847 137.559 78.8365 137.98 78.9508Z" fill="#EB996E"/>
<path d="M137.661 79.4296C137.661 79.5151 137.267 79.6348 136.783 79.7887C136.298 79.9426 135.899 80.0737 135.86 79.9939C135.82 79.9141 136.179 79.6633 136.697 79.5037C137.216 79.3441 137.655 79.3498 137.661 79.4296Z" fill="#EB996E"/>
<path d="M158.939 78.1583C158.967 78.2381 158.637 78.4319 158.198 78.5915C157.759 78.7511 157.383 78.8195 157.354 78.7397C157.326 78.6599 157.656 78.4718 158.095 78.3122C158.534 78.1526 158.91 78.0899 158.939 78.1583Z" fill="#EB996E"/>
<path d="M158.836 79.5262C158.808 79.606 158.443 79.5262 158.021 79.4065C157.599 79.2868 157.275 79.0759 157.303 79.0018C157.332 78.9277 157.696 79.0018 158.118 79.1215C158.54 79.2412 158.859 79.4521 158.836 79.5262Z" fill="#EB996E"/>
<path d="M274.216 264.332C274.216 264.412 216.024 264.48 144.256 264.48C72.487 264.48 14.2957 264.412 14.2957 264.332C14.2957 264.252 72.4699 264.184 144.256 264.184C216.041 264.184 274.216 264.246 274.216 264.332Z" fill="#263238"/>
</svg>
