<svg xmlns="http://www.w3.org/2000/svg" version="1.1" xmlns:xlink="http://www.w3.org/1999/xlink" width="512" height="512" x="0" y="0" viewBox="0 0 493.209 493.209" style="enable-background:new 0 0 512 512" xml:space="preserve" class=""><g><path d="M416.323 308.177c-4.273-24.843-8.309-48.307-6.933-65.872 4.514-57.586-20.662-88.824-42.577-104.89a7.214 7.214 0 0 0-5.397-1.307c-11.12 1.764-39.206 7.168-59.771 19.214a7.216 7.216 0 0 0-2.956 9.138c1.601 3.63 3.03 7.367 4.25 11.104 2.57 7.877 4.461 16.337 5.619 25.142.834 6.344-1.196 12.687-5.571 17.401-4.429 4.773-10.695 7.295-17.224 6.937-10.392-.582-18.944-8.573-20.334-19.002-.963-7.226-2.333-13.437-4.072-18.462-2.484-7.18-5.763-13.399-9.742-18.488-.035-.043-.069-.088-.105-.131-.103-.126-.202-.256-.301-.384l-.076-.099c-.036-.046-.072-.092-.11-.138-9.184-11.296-20.048-14.725-27.42-16.322-6.047-1.31-14.298-2.385-24.524-3.197a7.224 7.224 0 0 0-7.344 4.704c-6.918 18.818-9.263 35.367-9.292 35.571-1.423 10.681-10.615 18.736-21.383 18.736-.963 0-1.94-.064-2.902-.193-11.819-1.574-20.15-12.486-18.574-24.32.064-.474 1.604-11.79 5.947-27.271a7.234 7.234 0 0 0 .262-1.921 7.133 7.133 0 0 0 .777-1.672v-.001l.008-.025.108-.361c.204-.686.301-1.38.302-2.061a7.221 7.221 0 0 0-5.158-6.916c-3.464-1.032-7.081.663-8.576 3.833l-.929.004a7.22 7.22 0 0 0-4.935 1.984c-26.464 25.139-42.286 66.981-41.291 109.193.011.432.029.865.049 1.3.02.444.043.888.042 1.334-.038 28.333 9.315 60.228 27.048 92.239 16.983 30.655 40.425 59.411 67.792 83.156 22.774 19.761 47.698 35.302 72.078 44.946 20.407 8.072 40.299 12.129 59.365 12.129 6.236 0 12.384-.434 18.433-1.304 35.565-5.114 60.395-17.968 75.907-39.297 27.783-38.195 18.075-94.635 9.51-144.431z" style="" fill="#ef3a47" data-original="#ef3a47" class=""></path><path d="M102.512 183.322c-1.576 11.834 6.756 22.746 18.574 24.32.962.129 1.939.193 2.902.193 7.762 0 14.687-4.197 18.491-10.535a21.563 21.563 0 0 1-2.894-13.979c.063-.474 1.604-11.79 5.947-27.271a7.234 7.234 0 0 0 .262-1.921 7.133 7.133 0 0 0 .777-1.672v-.001l.008-.025.108-.361c.204-.686.301-1.38.302-2.061a7.221 7.221 0 0 0-5.158-6.916c-3.464-1.032-7.081.663-8.576 3.833l-.929.004a7.22 7.22 0 0 0-4.935 1.984c-9.878 9.383-18.27 21.094-24.862 34.282l-.017.126zM213.95 168.343c.037.045.074.091.11.138l.076.099c.099.128.198.258.301.384.036.043.07.087.105.131 3.98 5.088 7.257 11.308 9.742 18.488 1.739 5.025 3.109 11.236 4.072 18.462 1.39 10.429 9.942 18.42 20.334 19.002 6.529.358 12.795-2.164 17.224-6.937a21.654 21.654 0 0 0 2.594-3.431 22.004 22.004 0 0 1-3.079-8.634c-.963-7.226-2.333-13.437-4.072-18.462-2.484-7.18-5.763-13.399-9.742-18.488-.035-.043-.069-.088-.105-.131-.103-.126-.202-.256-.301-.384l-.076-.099c-.036-.046-.072-.092-.11-.138-9.184-11.296-20.048-14.725-27.42-16.322-6.047-1.31-14.298-2.385-24.524-3.197a7.22 7.22 0 0 0-7.283 4.572c6.765 2.098 14.969 6.111 22.154 14.947zM416.323 308.177c-4.273-24.843-8.309-48.307-6.933-65.872 4.514-57.586-20.662-88.824-42.577-104.89a7.214 7.214 0 0 0-5.397-1.307c-5.52.876-15.224 2.65-26.111 5.688 20.365 17.121 41.147 47.754 37.012 100.509-1.377 17.565 2.66 41.03 6.933 65.872 8.565 49.796 18.273 106.236-9.507 144.432-15.513 21.329-40.343 34.183-75.907 39.297-.05.008-.101.012-.152.019 6.343.852 12.611 1.285 18.793 1.285 6.236 0 12.384-.434 18.433-1.304 35.565-5.114 60.395-17.968 75.907-39.297 27.779-38.196 18.071-94.636 9.506-144.432z" style="" fill="#ce3043" data-original="#ce3043" class=""></path><path d="M249.088 386.997c-20.874-14.234-36.021-30.328-46.989-45.767h18.392a7.216 7.216 0 0 0 0-14.432h-27.623a172.109 172.109 0 0 1-10.991-22.894c-9.876-25.263-10.447-44.478-10.451-44.669a7.216 7.216 0 0 0-14.429.308c.016.793.476 18.23 8.778 42.36-5.213 14.991-8.576 41.863-8.725 43.069a7.216 7.216 0 0 0 14.323 1.771c.557-4.508 1.883-13.657 3.661-22.697a189.301 189.301 0 0 0 7.152 13.073c.204.426.447.828.727 1.204a192.712 192.712 0 0 0 24.313 31.882c-.623 6.995-1.66 22.656.462 32.068a7.22 7.22 0 0 0 8.627 5.454 7.217 7.217 0 0 0 5.453-8.626c-.872-3.868-1.012-9.882-.854-15.703a208.193 208.193 0 0 0 20.044 15.526 7.175 7.175 0 0 0 4.059 1.255 7.219 7.219 0 0 0 4.071-13.182zM388.487 266.007c-3.891-5.448-14.797-13.189-20.137-16.802-2.538-12.653-6.776-25.01-12.66-36.881a7.235 7.235 0 0 0-.496-1.002 161.933 161.933 0 0 0-12.416-20.6c-15.9-22.466-32.581-34.538-33.283-35.04a7.216 7.216 0 0 0-10.068 1.667 7.214 7.214 0 0 0 1.666 10.068c.384.275 24.271 17.744 40.624 49.353-1.115 9.04-13.68 23.477-22.824 31.325a7.216 7.216 0 0 0 4.699 12.696c1.66 0 3.328-.57 4.689-1.734.283-.242 6.997-6.013 13.712-13.954 2.98-3.523 5.491-6.923 7.54-10.195 5.379 15.465 8.421 33.367 6.77 53.477a7.215 7.215 0 0 0 7.2 7.807 7.218 7.218 0 0 0 7.185-6.627c.567-6.901.634-13.776.226-20.597 2.774 2.227 4.952 4.198 5.83 5.427a7.207 7.207 0 0 0 5.878 3.022 7.217 7.217 0 0 0 5.865-11.41z" style="" fill="#f2ca5a" data-original="#f2ca5a"></path><path d="M170.628 93.388a7.212 7.212 0 0 0-6.256-3.913c-29.659-.665-56.39.1-61.449.261-19.869.63-35.523 17.308-34.894 37.178.305 9.628 4.336 18.559 11.351 25.149 6.732 6.324 15.442 9.767 24.639 9.767.395 0 .791-.007 1.187-.019 9.221-.291 21.695-.465 33.369-.465a7.219 7.219 0 0 0 6.949-5.268c3.311-11.808 7.343-22.858 11.987-32.843 3.787-8.145 8.048-15.71 12.663-22.482a7.214 7.214 0 0 0 .454-7.365z" style="" fill="#f77474" data-original="#f77474" class=""></path><path d="M170.175 100.753a7.217 7.217 0 0 0-5.802-11.278c-11.148-.25-21.881-.298-31.206-.252-10.558 14.535-23.09 47.276-25.01 72.503 8.835-.239 19.945-.379 30.419-.379a7.219 7.219 0 0 0 6.949-5.268c3.311-11.808 7.343-22.858 11.987-32.843 3.786-8.146 8.047-15.71 12.663-22.483z" style="" fill="#e55555" data-original="#e55555" class=""></path><path d="M339.504 85.397c-5.949-7.227-12.605-13.659-19.835-19.172l8.581-28.494c1.959-6.504 1.267-13.382-1.947-19.366-3.215-5.985-8.566-10.359-15.07-12.317-6.505-1.961-13.383-1.268-19.368 1.946-5.984 3.214-10.358 8.566-12.316 15.071l-6.63 22.019-.709-.143v-19.51C272.211 11.408 260.803 0 246.78 0c-14.022 0-25.431 11.408-25.431 25.431v20.295c-.16.041-.319.084-.478.126l-6.861-22.786C209.966 9.64 195.752 2.007 182.326 6.048c-6.504 1.959-11.857 6.333-15.072 12.317-3.214 5.985-3.906 12.863-1.947 19.366l10.275 34.12c-12.191 11.805-22.661 27.021-31.159 45.298-14.65 31.507-18.968 62.937-19.145 64.262-2.628 19.726 11.267 37.911 30.973 40.536a36.37 36.37 0 0 0 4.809.32c17.972 0 33.315-13.44 35.683-31.214.021-.151 2.21-15.308 8.513-32.475l.029-.077c.325-.884.664-1.774 1.011-2.666l.201-.517a158.318 158.318 0 0 1 1.122-2.78c.362-.868.738-1.738 1.123-2.61l.292-.658c.397-.888.801-1.776 1.222-2.661 15.215-32.023 31.253-32.023 36.523-32.023 9.17 0 16.842 1.698 23.456 5.191a7.214 7.214 0 0 0 7.153-.237c15.768-9.709 35.336-17.286 58.158-22.523a7.215 7.215 0 0 0 3.958-11.62z" style="" fill="#9b3e2c" data-original="#9b3e2c" class=""></path><path d="M296.34 101.855c-12.645-10.338-29.342-17.624-51.317-17.624-75.792 0-87.816 130.565-87.816 130.565s-.142 3.034-.301 7.218a36.43 36.43 0 0 0 4.156.255c17.972 0 33.315-13.44 35.683-31.215.021-.151 2.21-15.308 8.513-32.475l.029-.077c.325-.884.664-1.774 1.011-2.666l.201-.517a158.318 158.318 0 0 1 1.122-2.78c.362-.868.738-1.738 1.123-2.61l.293-.658c.397-.888.801-1.776 1.222-2.661 15.215-32.023 31.253-32.023 36.523-32.023 9.17 0 16.842 1.698 23.456 5.191a7.214 7.214 0 0 0 7.153-.237c7.43-4.574 15.714-8.669 24.774-12.276a77.141 77.141 0 0 0-5.825-5.41z" style="" fill="#7a232e" data-original="#7a232e" class=""></path><path d="M407.431 110.246c-1.558-19.815-18.944-34.675-38.771-33.121-6.157.484-59.746 5.369-100.434 31.119a106.162 106.162 0 0 0-15.545-7.521 7.203 7.203 0 0 0-2.292-.482 78.783 78.783 0 0 0-3.61-.088c-20.476 0-36.687 13.17-49.56 40.262-1.946 4.096-3.791 8.508-5.484 13.113a7.215 7.215 0 0 0 6.203 9.684c9.585.761 17.193 1.742 22.612 2.915 5.675 1.229 12.983 3.62 19.223 11.254l.014.017c.165.215.332.429.503.641 2.977 3.82 5.476 8.618 7.429 14.262 1.423 4.113 2.569 9.378 3.405 15.649 2.304 17.287 16.534 30.537 33.864 31.507a36.113 36.113 0 0 0 28.581-11.533c7.307-7.876 10.697-18.482 9.301-29.101-1.274-9.684-3.363-19.017-6.208-27.737a131.175 131.175 0 0 0-2.216-6.253c19.324-9.471 46.257-14.696 59.913-15.821 19.79-1.58 34.627-18.971 33.072-38.766z" style="" fill="#f77474" data-original="#f77474" class=""></path><path d="M400.197 110.349a.073.073 0 0 1-.009-.008c-52.211 4.954-88.919 19.807-108.501 29.798-9.484 4.84-14.238 15.714-11.38 25.972 4.503 16.168 12.033 50.529 15.958 72.21a36.146 36.146 0 0 0 17.303-10.396c7.307-7.876 10.697-18.482 9.301-29.101-1.274-9.684-3.363-19.017-6.208-27.737a131.175 131.175 0 0 0-2.216-6.253c19.324-9.471 46.257-14.696 59.913-15.821 19.792-1.581 34.629-18.971 33.073-38.766v-.001c-.005-.067-.015-.133-.021-.199a66.316 66.316 0 0 0-7.213.302zM223.62 166.892c8.003-19.94 31.447-51.924 44.607-58.648a106.162 106.162 0 0 0-15.545-7.521 7.203 7.203 0 0 0-2.292-.482 78.783 78.783 0 0 0-3.61-.088c-20.476 0-36.687 13.17-49.56 40.262-1.946 4.096-3.791 8.508-5.484 13.113a7.215 7.215 0 0 0 6.203 9.684c9.585.761 17.193 1.742 22.612 2.915.976.213 2.007.463 3.069.765z" style="" fill="#e55555" data-original="#e55555" class=""></path></g></svg>