<svg xmlns="http://www.w3.org/2000/svg" version="1.1" xmlns:xlink="http://www.w3.org/1999/xlink" width="512" height="512" x="0" y="0" viewBox="0 0 512.259 512.259" style="enable-background:new 0 0 512 512" xml:space="preserve" class=""><g><path fill="#ff3f5c" d="M231.629 55.041H36.178C16.269 55.041.129 71.181.129 91.09v52.951l126.5 24.006 105-24.006 18.799-44.5z" opacity="1" data-original="#ff3f5c" class=""></path><path fill="#e40048" d="M427.081 55.041H231.629v89L342.5 156.188l120.629-12.147V91.09c0-19.909-16.139-36.049-36.048-36.049z" opacity="1" data-original="#e40048"></path><path fill="#f8f6f6" d="M.129 144.041v300h231.5L240.263 279l-8.634-134.959z" opacity="1" data-original="#f8f6f6" class=""></path><path fill="#eae8ea" d="M231.629 144.041h231.5v300h-231.5z" opacity="1" data-original="#eae8ea"></path><path fill="#6e67d5" d="M121.627 0c-16.568 0-30 13.431-30 30v62h60V30c0-16.569-13.431-30-30-30z" opacity="1" data-original="#6e67d5"></path><path fill="#554cce" d="M350.631 0c-16.569 0-30 13.431-30 30v62h60V30c0-16.569-13.431-30-30-30z" opacity="1" data-original="#554cce"></path><path fill="#90ea8f" d="M60.129 197h90v90h-90zM60.129 317h90v90h-90z" opacity="1" data-original="#90ea8f" class=""></path><path fill="#f8f6f6" d="M392 287c-58.061 0-105.129 47.068-105.129 105.129S333.939 497.258 392 497.258l8.921-114.161z" opacity="1" data-original="#f8f6f6" class=""></path><path fill="#eae8ea" d="M497.129 392.129C497.129 334.068 450.062 287 392 287v210.259c58.062-.001 105.129-47.069 105.129-105.13z" opacity="1" data-original="#eae8ea"></path><path fill="#54d8ff" d="M301.871 392.129c0-49.697 40.432-90.129 90.13-90.129l11.745-15L392 272c-66.24 0-120.13 53.89-120.13 120.129 0 66.24 53.89 120.13 120.13 120.13l11.745-15-11.745-15c-49.698 0-90.129-40.432-90.129-90.13z" opacity="1" data-original="#54d8ff"></path><path fill="#60b7ff" d="M392 272v30c49.697 0 90.129 40.432 90.129 90.129 0 49.698-40.432 90.13-90.129 90.13v30c66.239 0 120.129-53.89 120.129-120.13C512.129 325.89 458.24 272 392 272z" opacity="1" data-original="#60b7ff"></path><path fill="#7a83ea" d="M377 332.277v66.846l15 12.587 3.84-42.26-3.84-37.173z" opacity="1" data-original="#7a83ea"></path><path fill="#6e67d5" d="M437.75 410.938 407 385.135v-52.858h-15v79.433l26.466 22.208z" opacity="1" data-original="#6e67d5"></path><path fill="#90ea8f" d="M186.629 197v90h45l6.267-45-6.267-45z" opacity="1" data-original="#90ea8f" class=""></path><path fill="#00ba9f" d="M231.629 197h45v90h-45z" opacity="1" data-original="#00ba9f"></path></g></svg>