<svg xmlns="http://www.w3.org/2000/svg" version="1.1" xmlns:xlink="http://www.w3.org/1999/xlink" width="512" height="512" x="0" y="0" viewBox="0 0 512 512" style="enable-background:new 0 0 512 512" xml:space="preserve" class=""><g><path fill="#ff8088" d="M193.91 114.457c-17.16-18.125-44.996-20.973-65.48-6.719a286.347 286.347 0 0 0-22.106 17.078C38.32 182.77 0 268.273 0 357.625v54.2a98.408 98.408 0 0 0 14.484 51.394 50.44 50.44 0 0 0 43.028 24.11h91.527a50.451 50.451 0 0 0 39.625-19.22 151.364 151.364 0 0 0 32.484-93.695V163.32c.004-23.32-13.472-34.324-27.238-48.863zm0 0" opacity="1" data-original="#ff8088" class=""></path><path fill="#ff646f" d="M45.902 463.219a98.44 98.44 0 0 1-14.48-51.395v-54.199c0-89.352 38.316-174.855 106.324-232.809a284.852 284.852 0 0 1 22.106-17.078 50.404 50.404 0 0 1 13.136-6.535c-14.636-4.789-31.168-2.781-44.558 6.535a286.347 286.347 0 0 0-22.106 17.078C38.32 182.77 0 268.273 0 357.625v54.2a98.408 98.408 0 0 0 14.484 51.394 50.44 50.44 0 0 0 43.028 24.11h31.422a50.451 50.451 0 0 1-43.032-24.11zm0 0" opacity="1" data-original="#ff646f"></path><path fill="#ff8088" d="M405.676 124.816a284.851 284.851 0 0 0-22.106-17.078c-20.484-14.258-48.32-11.406-65.48 6.715-13.766 14.543-27.238 25.547-27.238 48.867v211.094a151.364 151.364 0 0 0 32.484 93.695 50.457 50.457 0 0 0 39.625 19.22h91.527a50.451 50.451 0 0 0 43.032-24.11A98.44 98.44 0 0 0 512 411.824v-54.199c0-89.352-38.32-174.855-106.324-232.809zm0 0" opacity="1" data-original="#ff8088" class=""></path><path fill="#ff646f" d="M354.758 468.11a151.368 151.368 0 0 1-32.488-93.696V163.32c0-23.316 13.476-34.324 27.242-48.863a50.257 50.257 0 0 1 20.922-13.254c-18.137-5.937-38.641-1.219-52.344 13.254-13.766 14.54-27.238 25.547-27.238 48.863v211.094a151.364 151.364 0 0 0 32.484 93.695 50.457 50.457 0 0 0 39.625 19.22h31.422a50.451 50.451 0 0 1-39.625-19.22zm0 0" opacity="1" data-original="#ff646f"></path><path fill="#ffe55a" d="m343.367 263.547-64.742-49.942a16.552 16.552 0 0 1-6.445-13.109V16.636c0-8.714-6.696-16.21-15.399-16.616-9.289-.438-16.96 6.964-16.96 16.16v184.316a16.56 16.56 0 0 1-6.442 13.11l-64.746 49.94c-7.074 5.458-8.387 15.618-2.93 22.692 5.457 7.078 15.621 8.387 22.695 2.93l63.38-48.89a6.917 6.917 0 0 1 8.445 0l63.382 48.89c7.079 5.46 17.239 4.145 22.692-2.93 5.457-7.074 4.144-17.234-2.93-22.691zm0 0" opacity="1" data-original="#ffe55a"></path><path fill="#ffd500" d="M187.68 286.238c-5.457-7.074-4.145-17.234 2.93-22.691l64.742-49.942a16.552 16.552 0 0 0 6.445-13.109V16.18c0-4.653 1.969-8.844 5.113-11.793-2.68-2.54-6.195-4.184-10.129-4.367-9.293-.438-16.96 6.964-16.96 16.16v184.316c0 5.133-2.383 9.973-6.446 13.11l-64.742 49.94c-7.074 5.458-8.387 15.618-2.93 22.692 5.457 7.078 15.617 8.387 22.692 2.93l1.167-.898a16.683 16.683 0 0 1-1.882-2.032zm0 0" opacity="1" data-original="#ffd500"></path><g fill="#ff4755"><path d="M461.73 188.438 435.8 224.23a7.714 7.714 0 0 0-1.472 4.532v6.465H415.09a7.726 7.726 0 1 0 0 15.453h19.238v10.293l-12.398 18.922a7.73 7.73 0 0 0 2.226 10.699 7.732 7.732 0 0 0 10.7-2.227l13.66-20.855a7.73 7.73 0 0 0 1.265-4.235v-32.011l20.727-28.606a304.281 304.281 0 0 0-8.778-14.223zM501.316 276.781l-17.574 28.746h-17.855c-4.27 0-7.727 3.461-7.727 7.727s3.457 7.726 7.727 7.726h22.191a7.73 7.73 0 0 0 6.594-3.695l11.613-19.004a312.944 312.944 0 0 0-4.969-21.5zM63.48 267.512l13.665 20.855a7.73 7.73 0 0 0 10.699 2.227c3.566-2.34 4.566-7.13 2.226-10.696l-12.398-18.925V250.68H96.91a7.725 7.725 0 1 0 0-15.45H77.672v-6.464a7.749 7.749 0 0 0-1.469-4.536l-25.93-35.789a300.332 300.332 0 0 0-8.78 14.223l20.726 28.606v32.011c0 1.504.437 2.973 1.261 4.23zM17.332 317.285a7.723 7.723 0 0 0 6.594 3.7h22.191a7.726 7.726 0 1 0 0-15.453h-17.86l-17.573-28.75a312.524 312.524 0 0 0-4.97 21.503zm0 0" fill="#ff4755" opacity="1" data-original="#ff4755"></path></g><path fill="#ff646f" d="M460.816 430.73c-23.765-.785-49.109-5.41-66.078-22.074-9.695-9.527-15.937-22.351-26.601-30.785-11.782-9.316-27.438-12.05-42.442-12.82-11.605-.594-23.351-.219-34.847-1.598v10.961a151.368 151.368 0 0 0 32.488 93.695 50.451 50.451 0 0 0 39.625 19.22h91.527a50.445 50.445 0 0 0 43.028-24.106 98.423 98.423 0 0 0 12.421-31.36c-16.21-1.453-32.78-.593-49.12-1.133zm0 0" opacity="1" data-original="#ff646f"></path><path fill="#ff4755" d="M394.379 487.328a50.444 50.444 0 0 1-39.621-19.219 151.368 151.368 0 0 1-32.488-93.695v-9.504c-10.489-.39-21.055-.215-31.422-1.46v10.964a151.48 151.48 0 0 0 32.488 93.695c9.59 12.168 24.305 19.22 39.621 19.22zm0 0" opacity="1" data-original="#ff4755"></path><path fill="#ff646f" d="M51.184 430.73c23.765-.785 49.109-5.41 66.078-22.074 9.695-9.527 15.937-22.351 26.601-30.785 11.782-9.316 27.438-12.05 42.442-12.82 11.605-.594 23.351-.219 34.847-1.598v10.961a151.368 151.368 0 0 1-32.488 93.695 50.451 50.451 0 0 1-39.625 19.22H57.512a50.445 50.445 0 0 1-43.028-24.106 98.423 98.423 0 0 1-12.421-31.36c16.21-1.453 32.78-.593 49.12-1.133zm0 0" opacity="1" data-original="#ff646f"></path><path fill="#ff4755" d="M88.934 487.328a50.44 50.44 0 0 1-43.028-24.11 98.337 98.337 0 0 1-12.597-32.277c-10.457.008-20.922-.003-31.246.922 4.496 21.61 15.19 42.657 35.64 51.39a50.378 50.378 0 0 0 19.809 4.075zm0 0" opacity="1" data-original="#ff4755"></path></g></svg>