<svg xmlns="http://www.w3.org/2000/svg" version="1.1" xmlns:xlink="http://www.w3.org/1999/xlink" width="512" height="512" x="0" y="0" viewBox="0 0 477.869 477.869" style="enable-background:new 0 0 512 512" xml:space="preserve" class=""><g><path d="M153.602 221.868H58.251l56.201-56.201c6.448-6.875 6.101-17.676-.775-24.123-6.569-6.16-16.793-6.156-23.357.008L4.986 226.885A17.067 17.067 0 0 0 1.3 245.471a17.077 17.077 0 0 0 3.686 5.547l85.333 85.333c6.78 6.548 17.584 6.36 24.132-.42 6.388-6.614 6.388-17.099 0-23.713L58.25 256h95.352v-34.132zM426.669 17.068H204.803c-28.277 0-51.2 22.923-51.2 51.2v153.6h187.733c9.426 0 17.067 7.641 17.067 17.067s-7.641 17.067-17.067 17.067H153.602v153.6c0 28.277 22.923 51.2 51.2 51.2h221.867c28.277 0 51.2-22.923 51.2-51.2V68.268c0-28.277-22.923-51.2-51.2-51.2z" fill="#8f9bb3" opacity="1" data-original="#000000" class=""></path></g></svg>