<svg width="20" height="20" viewBox="0 0 20 20" fill="none" xmlns="http://www.w3.org/2000/svg">
<g clip-path="url(#clip0_1870_8273)">
<path d="M19.8042 10.2273C19.8042 9.54751 19.7491 8.86406 19.6315 8.19531H10.1992V12.0461H15.6007C15.3765 13.2881 14.6563 14.3868 13.6018 15.0849V17.5835H16.8243C18.7166 15.8418 19.8042 13.2697 19.8042 10.2273Z" fill="#4285F4"/>
<path d="M10.2019 19.9978C12.8989 19.9978 15.1734 19.1123 16.8306 17.5837L13.6081 15.0851C12.7115 15.6951 11.5541 16.0405 10.2056 16.0405C7.59669 16.0405 5.38468 14.2804 4.591 11.9141H1.26562V14.4898C2.96322 17.8667 6.42087 19.9978 10.2019 19.9978Z" fill="#34A853"/>
<path d="M4.58467 11.9202C4.16578 10.6782 4.16578 9.33337 4.58467 8.09141V5.51562H1.26297C-0.155365 8.34127 -0.155365 11.6703 1.26297 14.496L4.58467 11.9202Z" fill="#FBBC04"/>
<path d="M10.2019 3.95805C11.6276 3.936 13.0055 4.47247 14.038 5.45722L16.893 2.60218C15.0852 0.904587 12.6858 -0.0287217 10.2019 0.000673888C6.42087 0.000673888 2.96322 2.13185 1.26562 5.51234L4.58732 8.08813C5.37733 5.71811 7.59302 3.95805 10.2019 3.95805Z" fill="#EA4335"/>
</g>
<defs>
<clipPath id="clip0_1870_8273">
<rect width="20" height="20" fill="white"/>
</clipPath>
</defs>
</svg>
