<svg fill="none" height="24" viewBox="0 0 24 24" width="24" xmlns="http://www.w3.org/2000/svg"><path clip-rule="evenodd" d="m5.25 10.0546v-2.0546c0-3.72792 3.02208-6.75 6.75-6.75 3.7279 0 6.75 3.02208 6.75 6.75v2.0546c1.1148.0833 1.8407.2934 2.3713.8241.8787.8787.8787 2.2929.8787 5.1213s0 4.2426-.8787 5.1213-2.2929.8787-5.1213.8787h-8c-2.82843 0-4.24264 0-5.12132-.8787s-.87868-2.2929-.87868-5.1213 0-4.2426.87868-5.1213c.53063-.5307 1.25657-.7408 2.37132-.8241zm1.5-2.0546c0-2.89949 2.35051-5.25 5.25-5.25 2.8995 0 5.25 2.35051 5.25 5.25v2.0036c-.383-.0036-.7985-.0036-1.25-.0036h-8c-.45151 0-.86699 0-1.25.0036zm1.25 9c.55228 0 1-.4477 1-1s-.44772-1-1-1-1 .4477-1 1 .44772 1 1 1zm4 0c.5523 0 1-.4477 1-1s-.4477-1-1-1-1 .4477-1 1 .4477 1 1 1zm5-1c0 .5523-.4477 1-1 1s-1-.4477-1-1 .4477-1 1-1 1 .4477 1 1z" fill="#1c274c" fill-rule="evenodd"/></svg>