<svg xmlns="http://www.w3.org/2000/svg" version="1.1" xmlns:xlink="http://www.w3.org/1999/xlink" width="512" height="512" x="0" y="0" viewBox="0 0 510 510" style="enable-background:new 0 0 512 512" xml:space="preserve"><g><path fill="#9cd6f4" d="m90 359.996-30.377-9.721C24.898 362.764 0 396.029 0 435v45l45 7.07 45-7.069 10-63.966z" opacity="1" data-original="#9cd6f4"></path><path fill="#7fa6fb" d="M120.363 350.271 90 359.995v120.003L127.333 490 180 480v-45c0-38.977-24.905-72.246-59.637-84.729z" opacity="1" data-original="#7fa6fb"></path><path fill="#f3d7b5" d="M37.5 307.5c0 28.948 23.552 52.5 52.5 52.5l10-53.336L90 255c-28.948 0-52.5 23.552-52.5 52.5z" opacity="1" data-original="#f3d7b5"></path><path fill="#eec1a7" d="M142.5 307.5c0-28.948-23.552-52.5-52.5-52.5v105c28.948 0 52.5-23.552 52.5-52.5z" opacity="1" data-original="#eec1a7"></path><path fill="#7fa6fb" d="M0 480v30h90l10-15-10-15z" opacity="1" data-original="#7fa6fb"></path><path fill="#6269de" d="M90 480h90v30H90z" opacity="1" data-original="#6269de"></path><path fill="#38617b" d="m420 359.996-30.378-9.721C354.898 362.764 330 396.029 330 435v45l45 7.07 45-7.069 10-63.966z" opacity="1" data-original="#38617b"></path><path fill="#2b495d" d="M450.363 350.271 420 359.995v120.003L457.333 490 510 480v-45c0-38.977-24.905-72.246-59.637-84.729z" opacity="1" data-original="#2b495d"></path><path fill="#ffddce" d="M367.5 307.5c0 28.948 23.552 52.5 52.5 52.5l10-53.336L420 255c-28.948 0-52.5 23.552-52.5 52.5z" opacity="1" data-original="#ffddce"></path><path fill="#ffcbbc" d="M472.5 307.5c0-28.948-23.552-52.5-52.5-52.5v105c28.948 0 52.5-23.552 52.5-52.5z" opacity="1" data-original="#ffcbbc"></path><path fill="#2b495d" d="M330 480v30h90l10-15-10-15z" opacity="1" data-original="#2b495d"></path><path fill="#1d313a" d="M420 480h90v30h-90z" opacity="1" data-original="#1d313a"></path><path fill="#dd4b4b" d="M120 135c0 74.436 60.559 135 135 135l10.333-132.334L255 0c-74.438 0-135 60.559-135 135z" opacity="1" data-original="#dd4b4b"></path><path fill="#b21061" d="M390 135C390 60.562 329.441 0 255 0v270c74.436 0 135-60.559 135-135z" opacity="1" data-original="#b21061"></path><path fill="#f1f1fa" d="M240 60V31.076c-45.915 6.598-82.327 43.006-88.924 88.924H180v30h-28.924c6.597 45.916 43.006 82.326 88.924 88.924V210h15l10.333-72.334L255 60h-15z" opacity="1" data-original="#f1f1fa"></path><path fill="#ded7f9" d="M270 238.924c45.917-6.598 82.326-43.006 88.924-88.924H330v-30h28.924C352.326 74.082 315.917 37.674 270 31.076V60h-15v150h15z" opacity="1" data-original="#ded7f9"></path><path fill="#38617b" d="M250.739 123.605 227.982 109.3l-15.965 25.398 42.982 27.018L257.667 141 255 117.347l-4.261 6.258z" opacity="1" data-original="#38617b"></path><path fill="#2b495d" d="M299.399 105.441 274.6 88.558l-19.601 28.788v44.37l4.261 2.678c4.855-7.13 35.253-51.775 40.139-58.953z" opacity="1" data-original="#2b495d"></path></g></svg>