<svg id="Layer_1" data-name="Layer 1" xmlns="http://www.w3.org/2000/svg" xmlns:xlink="http://www.w3.org/1999/xlink" viewBox="0 0 512 512"><defs><pattern id="USGS_8_Sewage_Disposal" data-name="USGS 8 Sewage Disposal" width="72" height="74.8" patternTransform="translate(-328.16 746.41) scale(2.71 2.71)" patternUnits="userSpaceOnUse" viewBox="0 0 72 74.8"><rect width="72" height="74.8" fill="none"/><line y1="73.95" x2="72" y2="73.95" fill="none" stroke="#1f191a" stroke-linecap="square" stroke-width="0.3"/><line y1="72.25" x2="72" y2="72.25" fill="none" stroke="#1f191a" stroke-linecap="square" stroke-width="0.3"/><line y1="70.55" x2="72" y2="70.55" fill="none" stroke="#1f191a" stroke-linecap="square" stroke-width="0.3"/><line y1="68.85" x2="72" y2="68.85" fill="none" stroke="#1f191a" stroke-linecap="square" stroke-width="0.3"/><line y1="67.15" x2="72" y2="67.15" fill="none" stroke="#1f191a" stroke-linecap="square" stroke-width="0.3"/><line y1="65.45" x2="72" y2="65.45" fill="none" stroke="#1f191a" stroke-linecap="square" stroke-width="0.3"/><line y1="63.75" x2="72" y2="63.75" fill="none" stroke="#1f191a" stroke-linecap="square" stroke-width="0.3"/><line y1="62.05" x2="72" y2="62.05" fill="none" stroke="#1f191a" stroke-linecap="square" stroke-width="0.3"/><line y1="60.35" x2="72" y2="60.35" fill="none" stroke="#1f191a" stroke-linecap="square" stroke-width="0.3"/><line y1="58.65" x2="72" y2="58.65" fill="none" stroke="#1f191a" stroke-linecap="square" stroke-width="0.3"/><line y1="56.95" x2="72" y2="56.95" fill="none" stroke="#1f191a" stroke-linecap="square" stroke-width="0.3"/><line y1="55.25" x2="72" y2="55.25" fill="none" stroke="#1f191a" stroke-linecap="square" stroke-width="0.3"/><line y1="53.55" x2="72" y2="53.55" fill="none" stroke="#1f191a" stroke-linecap="square" stroke-width="0.3"/><line y1="51.85" x2="72" y2="51.85" fill="none" stroke="#1f191a" stroke-linecap="square" stroke-width="0.3"/><line y1="50.15" x2="72" y2="50.15" fill="none" stroke="#1f191a" stroke-linecap="square" stroke-width="0.3"/><line y1="48.45" x2="72" y2="48.45" fill="none" stroke="#1f191a" stroke-linecap="square" stroke-width="0.3"/><line y1="46.75" x2="72" y2="46.75" fill="none" stroke="#1f191a" stroke-linecap="square" stroke-width="0.3"/><line y1="45.05" x2="72" y2="45.05" fill="none" stroke="#1f191a" stroke-linecap="square" stroke-width="0.3"/><line y1="43.35" x2="72" y2="43.35" fill="none" stroke="#1f191a" stroke-linecap="square" stroke-width="0.3"/><line y1="41.65" x2="72" y2="41.65" fill="none" stroke="#1f191a" stroke-linecap="square" stroke-width="0.3"/><line y1="39.95" x2="72" y2="39.95" fill="none" stroke="#1f191a" stroke-linecap="square" stroke-width="0.3"/><line y1="38.25" x2="72" y2="38.25" fill="none" stroke="#1f191a" stroke-linecap="square" stroke-width="0.3"/><line y1="36.55" x2="72" y2="36.55" fill="none" stroke="#1f191a" stroke-linecap="square" stroke-width="0.3"/><line y1="34.85" x2="72" y2="34.85" fill="none" stroke="#1f191a" stroke-linecap="square" stroke-width="0.3"/><line y1="33.15" x2="72" y2="33.15" fill="none" stroke="#1f191a" stroke-linecap="square" stroke-width="0.3"/><line y1="31.45" x2="72" y2="31.45" fill="none" stroke="#1f191a" stroke-linecap="square" stroke-width="0.3"/><line y1="29.75" x2="72" y2="29.75" fill="none" stroke="#1f191a" stroke-linecap="square" stroke-width="0.3"/><line y1="28.05" x2="72" y2="28.05" fill="none" stroke="#1f191a" stroke-linecap="square" stroke-width="0.3"/><line y1="26.35" x2="72" y2="26.35" fill="none" stroke="#1f191a" stroke-linecap="square" stroke-width="0.3"/><line y1="24.65" x2="72" y2="24.65" fill="none" stroke="#1f191a" stroke-linecap="square" stroke-width="0.3"/><line y1="22.95" x2="72" y2="22.95" fill="none" stroke="#1f191a" stroke-linecap="square" stroke-width="0.3"/><line y1="21.25" x2="72" y2="21.25" fill="none" stroke="#1f191a" stroke-linecap="square" stroke-width="0.3"/><line y1="19.55" x2="72" y2="19.55" fill="none" stroke="#1f191a" stroke-linecap="square" stroke-width="0.3"/><line y1="17.85" x2="72" y2="17.85" fill="none" stroke="#1f191a" stroke-linecap="square" stroke-width="0.3"/><line y1="16.15" x2="72" y2="16.15" fill="none" stroke="#1f191a" stroke-linecap="square" stroke-width="0.3"/><line y1="14.45" x2="72" y2="14.45" fill="none" stroke="#1f191a" stroke-linecap="square" stroke-width="0.3"/><line y1="12.75" x2="72" y2="12.75" fill="none" stroke="#1f191a" stroke-linecap="square" stroke-width="0.3"/><line y1="11.05" x2="72" y2="11.05" fill="none" stroke="#1f191a" stroke-linecap="square" stroke-width="0.3"/><line y1="9.35" x2="72" y2="9.35" fill="none" stroke="#1f191a" stroke-linecap="square" stroke-width="0.3"/><line y1="7.65" x2="72" y2="7.65" fill="none" stroke="#1f191a" stroke-linecap="square" stroke-width="0.3"/><line y1="5.95" x2="72" y2="5.95" fill="none" stroke="#1f191a" stroke-linecap="square" stroke-width="0.3"/><line y1="4.25" x2="72" y2="4.25" fill="none" stroke="#1f191a" stroke-linecap="square" stroke-width="0.3"/><line y1="2.55" x2="72" y2="2.55" fill="none" stroke="#1f191a" stroke-linecap="square" stroke-width="0.3"/><line y1="0.85" x2="72" y2="0.85" fill="none" stroke="#1f191a" stroke-linecap="square" stroke-width="0.3"/><line x1="-21.5" y1="7.65" x2="-10.25" y2="7.65" fill="none" stroke="#1f191a" stroke-linecap="square" stroke-width="0.3"/></pattern></defs><title>amazon-other</title><path d="M512,281.46C512,407.81,409.67,510,283.49,510S55.11,407.81,55.11,281.46,157.32,52.87,283.49,52.87,512,155.23,512,281.46Z" fill="url(#USGS_8_Sewage_Disposal)"/><path d="M495,264.48c0,126.35-102.33,228.59-228.51,228.59S38.15,390.84,38.15,264.48,140.36,35.9,266.54,35.9,495,138.26,495,264.48Z" fill="url(#USGS_8_Sewage_Disposal)"/><path d="M469.61,245.39C469.61,371.74,367.27,474,241.1,474S12.72,371.74,12.72,245.39,114.92,16.8,241.1,16.8,469.61,119.16,469.61,245.39Z" fill="#1f191a"/><path d="M463.25,234.78c0,126.35-102.33,228.59-228.51,228.59S6.36,361.13,6.36,234.78,108.56,6.19,234.74,6.19,463.25,108.55,463.25,234.78Z" fill="#333"/><path d="M469.61,245.39C469.61,371.74,367.27,474,241.1,474S12.72,371.74,12.72,245.39,114.92,16.8,241.1,16.8,469.61,119.16,469.61,245.39Z" fill="none" stroke="#1f191a" stroke-width="2.12"/><path d="M459,232.66C459,359,356.67,461.25,230.5,461.25S2.12,359,2.12,232.66,104.32,4.07,230.5,4.07,459,106.43,459,232.66Z" fill="#fff"/><path d="M459,232.66C459,359,356.67,461.25,230.5,461.25S2.12,359,2.12,232.66,104.32,4.07,230.5,4.07,459,106.43,459,232.66Z" fill="#fff"/><path d="M459,232.66C459,359,356.67,461.25,230.5,461.25S2.12,359,2.12,232.66,104.32,4.07,230.5,4.07,459,106.43,459,232.66Z" fill="none" stroke="#1f191a" stroke-width="4.24"/><path d="M232.76,336.78c-25.23,0-46.77-3.59-67.89-11.41a184.76,184.76,0,0,1-62.39-37.51c-2-1.59-2.11-3.49-.53-4.54,1.26-.85,2.54-.21,3.59.21,2.75,1.69,5.38,3.17,8.24,4.65A226.09,226.09,0,0,0,144,301.59a258.5,258.5,0,0,0,41.17,11.31,276.9,276.9,0,0,0,29.25,3.8c8.55.74,16.78.85,25.23.74a246.87,246.87,0,0,0,44.13-5.18,239.56,239.56,0,0,0,46-14.26,16.24,16.24,0,0,1,3.07-.74,3.91,3.91,0,0,1,4.32,2.43c.64,1.37,0,3.17-1.37,4.44a78.89,78.89,0,0,1-11.72,7.5c-20.49,12.26-42.86,19.55-66.41,23A132.4,132.4,0,0,1,232.76,336.78Z" fill="#434040" fill-rule="evenodd"/><path d="M334.74,288.17c-6.85,0-13,1-19.1,1.48a9.2,9.2,0,0,1-2.43.11c-1.58-.11-2.11-1.27-1.37-2.64a5.21,5.21,0,0,1,1.9-1.8,43.28,43.28,0,0,1,20.49-7.08,64.87,64.87,0,0,1,21.11,1.06c4,1.27,5.28,2.64,4.85,7-.53,13.84-5.07,26-14.15,36.46a16,16,0,0,1-3.37,2.64c-.84.53-1.9,1.06-3,.11-.84-.63-.63-1.8-.31-2.64a176,176,0,0,0,7.29-20.08,45.29,45.29,0,0,0,1.26-9.09,5,5,0,0,0-4-4.33A26.45,26.45,0,0,0,334.74,288.17Z" fill="#434040" fill-rule="evenodd"/><path d="M303.59,259.22c-1-1.27-1.89-2.64-3-3.7a34,34,0,0,1-7.18-19.65c-.22-21.56.31-42.9-.22-64.35A54.76,54.76,0,0,0,290.93,158c-3-10.14-9.92-17.22-19.22-22-10.66-5.49-22-7.61-34-7.5-2.54.21-5,0-7.6.21a80.23,80.23,0,0,0-21.33,4.86c-17.32,6.87-28.29,19.23-31.88,37.83-.22,1.48-.22,2.64.63,3.7a6.76,6.76,0,0,0,4.43,2.11c8.45,1.06,16.48,2.22,24.81,3a4.33,4.33,0,0,0,5-2.43,8.14,8.14,0,0,0,1.28-3,21.15,21.15,0,0,1,25-16.27c8.86,1,14,5.92,15.52,14.05,1,5.39.42,10.46.63,15.64,0,1.16-.74,1.37-1.79,1.37-7.07.53-14.36,1.37-21.43,2.11-10.35,1.48-20.49,3.7-30,7.92-12.88,5.92-22.16,15.22-26.39,28.85-2.75,8.35-2.75,17-1.69,25.68a38.14,38.14,0,0,0,30.4,32.65,61.94,61.94,0,0,0,19.74.42,44.34,44.34,0,0,0,17.85-4.76c6.54-3.38,11.82-8,17-13.21,1.79-1.69,1.79-1.69,3.06.32a79.05,79.05,0,0,0,11.83,13.95c3.79,4,7.71,3.7,11.41.42,6.12-5.5,12.45-10.78,18.57-16.17C305.71,265.24,306.13,262.39,303.59,259.22ZM252.5,238.4A35.31,35.31,0,0,1,243.73,254c-4.64,4.44-10,6.66-16.78,5.81A14.55,14.55,0,0,1,214.39,249c-3.07-9.62-2-19,4.75-26.84,4.23-4.65,9.71-7.08,15.84-8.56,5.59-1.27,11.41-1.48,17.1-1.69,1.48-.11,2.11.42,2.11,2-.21,2.22,0,4.76,0,8.14C254.19,226.78,254.19,232.91,252.5,238.4Z" fill="#434040" fill-rule="evenodd"/></svg>