<svg xmlns="http://www.w3.org/2000/svg" version="1.1" xmlns:xlink="http://www.w3.org/1999/xlink" width="512" height="512" x="0" y="0" viewBox="0 0 512 511" style="enable-background:new 0 0 512 512" xml:space="preserve"><g><path fill="#fac176" d="M256 124.086v52.965c-.027 9.738-7.918 17.629-17.656 17.656h-44.137c-9.738-.027-17.625-7.918-17.656-17.656v-61.793a33.728 33.728 0 0 1 9.84-25.473 33.714 33.714 0 0 1 25.472-9.836 44 44 0 0 1 31.246 12.887A44.013 44.013 0 0 1 256 124.086zm0 0" opacity="1" data-original="#fac176"></path><path fill="#fac176" d="M176.55 123.113v45.11c-.027 9.738-7.913 17.629-17.652 17.656h-35.312c-9.738-.027-17.625-7.918-17.656-17.656v-52.965a30.017 30.017 0 0 1 31.425-31.426 39.185 39.185 0 0 1 39.196 39.281zm0 0" opacity="1" data-original="#fac176"></path><path fill="#fac176" d="M105.93 122.145v37.253c-.028 9.739-7.914 17.625-17.653 17.653H61.793c-9.738-.028-17.625-7.914-17.656-17.653v-44.14a26.233 26.233 0 0 1 7.656-19.797 26.233 26.233 0 0 1 19.797-7.656c18.965.011 34.332 15.379 34.34 34.34zm0 0" opacity="1" data-original="#fac176"></path><path fill="#fac176" d="M44.137 122.762v32.043a4.282 4.282 0 0 1-3.883 4.593h-13.77c-9.738-.03-17.629-7.918-17.656-17.656v-23.57a16.481 16.481 0 0 1 15.71-18.273 18.101 18.101 0 0 1 13.86 6.71 24.993 24.993 0 0 1 5.739 16.153zm0 0" opacity="1" data-original="#fac176"></path><path fill="#fb7b76" d="M512 53.465v61.793a8.829 8.829 0 0 1-8.828 8.828v-5.914a16.481 16.481 0 0 0-15.71-18.273 18.101 18.101 0 0 0-13.86 6.71 24.993 24.993 0 0 0-5.739 16.153v-7.504a26.233 26.233 0 0 0-7.656-19.797 26.233 26.233 0 0 0-19.797-7.656c-18.965.011-34.332 15.379-34.34 34.34v-6.887a30.017 30.017 0 0 0-31.425-31.426 39.185 39.185 0 0 0-39.196 39.281v-7.855a33.728 33.728 0 0 0-9.84-25.473 33.714 33.714 0 0 0-25.472-9.836 44 44 0 0 0-31.246 12.887A44.013 44.013 0 0 0 256 124.086a44.013 44.013 0 0 0-12.89-31.25 44 44 0 0 0-31.247-12.887 33.714 33.714 0 0 0-25.472 9.836 33.728 33.728 0 0 0-9.84 25.473v7.855a39.185 39.185 0 0 0-39.195-39.281 30.017 30.017 0 0 0-31.426 31.426v6.887c-.008-18.961-15.375-34.329-34.34-34.34a26.233 26.233 0 0 0-19.797 7.656 26.233 26.233 0 0 0-7.656 19.797v7.504a24.993 24.993 0 0 0-5.739-16.153A18.101 18.101 0 0 0 24.54 99.9a16.481 16.481 0 0 0-15.71 18.273v5.914A8.829 8.829 0 0 1 0 115.258V53.465C0 24.246 114.582.5 256 .5s256 23.746 256 52.965zm0 0" opacity="1" data-original="#fb7b76"></path><path fill="#fac176" d="M335.45 115.258v61.793c-.032 9.738-7.919 17.629-17.657 17.656h-44.137c-9.738-.027-17.629-7.918-17.656-17.656v-52.965a44.013 44.013 0 0 1 12.89-31.25 44 44 0 0 1 31.247-12.887c9.5-.46 18.75 3.114 25.472 9.836a33.728 33.728 0 0 1 9.84 25.473zm0 0" opacity="1" data-original="#fac176"></path><path fill="#fac176" d="M406.07 115.258v52.965c-.03 9.738-7.918 17.629-17.656 17.656h-35.312c-9.739-.027-17.625-7.918-17.653-17.656v-45.11a39.185 39.185 0 0 1 39.195-39.281 30.017 30.017 0 0 1 31.426 31.426zm0 0" opacity="1" data-original="#fac176"></path><path fill="#fac176" d="M467.863 115.258v44.14c-.031 9.739-7.918 17.625-17.656 17.653h-26.484c-9.739-.028-17.625-7.914-17.653-17.653v-37.253c.008-18.961 15.375-34.329 34.34-34.34a26.233 26.233 0 0 1 19.797 7.656 26.233 26.233 0 0 1 7.656 19.797zm0 0" opacity="1" data-original="#fac176"></path><path fill="#fac176" d="M503.172 118.172v23.57c-.027 9.738-7.918 17.625-17.656 17.656h-13.77a4.282 4.282 0 0 1-3.883-4.593v-32.043a24.993 24.993 0 0 1 5.739-16.153 18.101 18.101 0 0 1 13.859-6.71 16.481 16.481 0 0 1 15.71 18.273zm0 0" opacity="1" data-original="#fac176"></path><path fill="#f5efca" d="M256 132.914v44.137c-.027 9.738-7.918 17.629-17.656 17.656h-44.137c-9.738-.027-17.625-7.918-17.656-17.656v-53.938a33.544 33.544 0 0 1 35.312-34.336A44.007 44.007 0 0 1 256 132.914zm0 0" opacity="1" data-original="#f5efca"></path><path fill="#f5efca" d="M176.55 131.941v36.282c-.027 9.738-7.913 17.629-17.652 17.656h-35.312c-9.738-.027-17.625-7.918-17.656-17.656v-44.137a30.026 30.026 0 0 1 8.757-22.672 30 30 0 0 1 22.668-8.754 39.169 39.169 0 0 1 27.75 11.508 39.171 39.171 0 0 1 11.446 27.773zm0 0" opacity="1" data-original="#f5efca"></path><path fill="#f9eab0" d="M105.93 130.973v28.425c-.028 9.739-7.914 17.625-17.653 17.653H61.793c-9.738-.028-17.625-7.914-17.656-17.653v-35.312a26.247 26.247 0 0 1 7.656-19.8 26.23 26.23 0 0 1 19.797-7.653c18.965.008 34.332 15.379 34.34 34.34zm0 0" opacity="1" data-original="#f9eab0"></path><path fill="#f9eab0" d="M44.137 131.59v23.215a4.282 4.282 0 0 1-3.883 4.593h-13.77c-9.738-.03-17.629-7.918-17.656-17.656V127c-.5-4.543.906-9.086 3.887-12.55a16.466 16.466 0 0 1 11.824-5.723 18.11 18.11 0 0 1 13.86 6.707 25.003 25.003 0 0 1 5.738 16.156zm0 0" opacity="1" data-original="#f9eab0"></path><path fill="#f5efca" d="M335.45 123.113v53.938c-.032 9.738-7.919 17.629-17.657 17.656h-44.137c-9.738-.027-17.629-7.918-17.656-17.656v-44.137a44.007 44.007 0 0 1 44.137-44.137 33.544 33.544 0 0 1 35.313 34.336zm0 0" opacity="1" data-original="#f5efca"></path><path fill="#f5efca" d="M406.07 124.086v44.137c-.03 9.738-7.918 17.629-17.656 17.656h-35.312c-9.739-.027-17.625-7.918-17.653-17.656V131.94a39.171 39.171 0 0 1 11.446-27.773 39.169 39.169 0 0 1 27.75-11.508 30 30 0 0 1 22.668 8.754 30.026 30.026 0 0 1 8.757 22.672zm0 0" opacity="1" data-original="#f5efca"></path><path fill="#f9eab0" d="M467.863 124.086v35.312c-.031 9.739-7.918 17.625-17.656 17.653h-26.484c-9.739-.028-17.625-7.914-17.653-17.653v-28.425c.008-18.961 15.375-34.332 34.34-34.34a26.23 26.23 0 0 1 19.797 7.652 26.247 26.247 0 0 1 7.656 19.8zm0 0" opacity="1" data-original="#f9eab0"></path><path fill="#f9eab0" d="M503.172 127v14.742c-.027 9.738-7.918 17.625-17.656 17.656h-13.77a4.282 4.282 0 0 1-3.883-4.593V131.59a25.003 25.003 0 0 1 5.739-16.156 18.11 18.11 0 0 1 13.859-6.707 16.466 16.466 0 0 1 11.824 5.722A16.476 16.476 0 0 1 503.172 127zm0 0" opacity="1" data-original="#f9eab0"></path><g fill="#fac176"><path d="M256 258.617v34.074a42.622 42.622 0 0 1-12.48 30.16 42.63 42.63 0 0 1-30.157 12.481h-1.5c-26.484 0-35.312-11.477-35.312-25.602v-51.113c0-14.137 11.46-25.597 25.601-25.597h28.246c14.141 0 25.602 11.46 25.602 25.597zm0 0" fill="#fac176" opacity="1" data-original="#fac176"></path><path d="M176.55 249.793v35.043a37.838 37.838 0 0 1-11.09 26.781 37.855 37.855 0 0 1-26.78 11.09h-1.325a29.436 29.436 0 0 1-22.43-8.168 29.446 29.446 0 0 1-8.995-22.11v-42.636a25.18 25.18 0 0 1 7.152-17.746 25.516 25.516 0 0 1 18.45-7.856h19.421c14.137 0 25.598 11.461 25.598 25.602zm0 0" fill="#fac176" opacity="1" data-original="#fac176"></path><path d="M105.93 282.012v8.828a32.586 32.586 0 0 1-24.274 10.68h-1.238a25.75 25.75 0 0 1-27.453-26.48v-8.83a25.75 25.75 0 0 0 27.453 26.481h1.238a32.586 32.586 0 0 0 24.274-10.68zM52.965 234.61v10.769a24.822 24.822 0 0 1-5.738 16.152 18.114 18.114 0 0 1-13.86 6.711 14.04 14.04 0 0 1-12.8-7.152 21.646 21.646 0 0 1-2.91-11.121v-15.36c.003-9.41 7.628-17.035 17.034-17.039h1.239c9.406.004 17.03 7.63 17.035 17.04zM335.45 258.617v51.113c0 14.125-8.829 25.602-35.313 25.602h-1.5a42.63 42.63 0 0 1-30.157-12.48 42.622 42.622 0 0 1-12.48-30.16v-34.075c0-14.137 11.46-25.597 25.602-25.597h28.246c14.14 0 25.601 11.46 25.601 25.597zm0 0" fill="#fac176" opacity="1" data-original="#fac176"></path><path d="M406.07 249.793v42.637a29.446 29.446 0 0 1-8.996 22.11 29.436 29.436 0 0 1-22.43 8.167h-1.324a37.855 37.855 0 0 1-26.78-11.09 37.838 37.838 0 0 1-11.09-26.781v-35.043c0-14.14 11.46-25.602 25.597-25.602h19.422a25.516 25.516 0 0 1 18.449 7.856 25.18 25.18 0 0 1 7.152 17.746zm0 0" fill="#fac176" opacity="1" data-original="#fac176"></path><path d="M459.035 266.21v8.83a25.75 25.75 0 0 1-27.453 26.48h-1.238a32.586 32.586 0 0 1-24.274-10.68v-8.828a32.586 32.586 0 0 0 24.274 10.68h1.238a25.75 25.75 0 0 0 27.453-26.48zM494.344 234.61v15.359a21.646 21.646 0 0 1-2.91 11.12 14.04 14.04 0 0 1-12.801 7.153 18.114 18.114 0 0 1-13.86-6.71 24.822 24.822 0 0 1-5.738-16.153v-10.77c.004-9.41 7.63-17.035 17.035-17.039h1.239c9.406.004 17.03 7.63 17.035 17.04zm0 0" fill="#fac176" opacity="1" data-original="#fac176"></path></g><path fill="#f5efca" d="M256 258.617v25.25a42.613 42.613 0 0 1-42.637 42.637h-1.5c-26.484 0-35.312-11.477-35.312-25.602v-42.285c0-14.137 11.46-25.597 25.601-25.597h28.246c14.141 0 25.602 11.46 25.602 25.597zm0 0" opacity="1" data-original="#f5efca"></path><path fill="#f5efca" d="M176.55 249.793v26.215a37.838 37.838 0 0 1-11.09 26.781 37.855 37.855 0 0 1-26.78 11.09h-1.325a29.436 29.436 0 0 1-22.43-8.168 29.446 29.446 0 0 1-8.995-22.11v-33.808a25.18 25.18 0 0 1 7.152-17.746 25.516 25.516 0 0 1 18.45-7.856h19.421c14.137 0 25.598 11.461 25.598 25.602zm0 0" opacity="1" data-original="#f5efca"></path><path fill="#f9eab0" d="M113.082 232.047a25.18 25.18 0 0 0-7.152 17.746v32.219a32.586 32.586 0 0 1-24.274 10.68h-1.238a25.75 25.75 0 0 1-27.453-26.48v-25.247c0-14.14 11.46-25.602 25.601-25.602H89.16a25.385 25.385 0 0 1 21.098 11.301 20.967 20.967 0 0 1 2.824 5.383zm0 0" opacity="1" data-original="#f9eab0"></path><path fill="#f9eab0" d="M52.965 234.61v1.94a24.822 24.822 0 0 1-5.738 16.153 18.114 18.114 0 0 1-13.86 6.711 14.04 14.04 0 0 1-12.8-7.152 21.646 21.646 0 0 1-2.91-11.121v-6.532c.003-9.41 7.628-17.035 17.034-17.039h1.239c9.406.004 17.03 7.63 17.035 17.04zm0 0" opacity="1" data-original="#f9eab0"></path><path fill="#f5efca" d="M335.45 258.617v42.285c0 14.125-8.829 25.602-35.313 25.602h-1.5A42.613 42.613 0 0 1 256 283.867v-25.25c0-14.137 11.46-25.597 25.602-25.597h28.246c14.14 0 25.601 11.46 25.601 25.597zm0 0" opacity="1" data-original="#f5efca"></path><path fill="#f5efca" d="M406.07 249.793v33.809a29.446 29.446 0 0 1-8.996 22.109 29.436 29.436 0 0 1-22.43 8.168h-1.324a37.855 37.855 0 0 1-26.78-11.09 37.838 37.838 0 0 1-11.09-26.781v-26.215c0-14.14 11.46-25.602 25.597-25.602h19.422a25.516 25.516 0 0 1 18.449 7.856 25.18 25.18 0 0 1 7.152 17.746zm0 0" opacity="1" data-original="#f5efca"></path><path fill="#f9eab0" d="M459.035 240.965v25.246a25.75 25.75 0 0 1-27.453 26.48h-1.238a32.586 32.586 0 0 1-24.274-10.68v-32.218a25.18 25.18 0 0 0-7.152-17.746 20.967 20.967 0 0 1 2.824-5.383 25.385 25.385 0 0 1 21.098-11.3h10.594c6.789 0 13.3 2.698 18.101 7.5 4.8 4.8 7.5 11.312 7.5 18.1zm0 0" opacity="1" data-original="#f9eab0"></path><path fill="#f9eab0" d="M494.344 234.61v6.53a21.646 21.646 0 0 1-2.91 11.122 14.04 14.04 0 0 1-12.801 7.152 18.114 18.114 0 0 1-13.86-6.71 24.822 24.822 0 0 1-5.738-16.153v-1.942c.004-9.41 7.63-17.035 17.035-17.039h1.239c9.406.004 17.03 7.63 17.035 17.04zm0 0" opacity="1" data-original="#f9eab0"></path><path fill="#fb7b76" d="M503.172 269.566v68.235c0 28.16-110.61 51.113-247.172 51.113S8.828 365.961 8.828 337.801v-68.235a8.482 8.482 0 0 1 2.52-6.02 8.487 8.487 0 0 1 6.043-2.456h3.175a14.04 14.04 0 0 0 12.801 7.152 18.114 18.114 0 0 0 13.86-6.71 24.822 24.822 0 0 0 5.738-16.153v29.66a25.75 25.75 0 0 0 27.453 26.48h1.238a32.586 32.586 0 0 0 24.274-10.68v1.59a29.446 29.446 0 0 0 8.996 22.11 29.436 29.436 0 0 0 22.43 8.168h1.324a37.855 37.855 0 0 0 26.78-11.09 37.838 37.838 0 0 0 11.09-26.781v24.894c0 14.125 8.829 25.602 35.313 25.602h1.5a42.63 42.63 0 0 0 30.157-12.48 42.622 42.622 0 0 0 12.48-30.16 42.622 42.622 0 0 0 12.48 30.16 42.63 42.63 0 0 0 30.157 12.48h1.5c26.484 0 35.312-11.477 35.312-25.602v-24.894a37.838 37.838 0 0 0 11.09 26.781 37.855 37.855 0 0 0 26.781 11.09h1.325a29.436 29.436 0 0 0 22.43-8.168 29.446 29.446 0 0 0 8.995-22.11v-1.59a32.586 32.586 0 0 0 24.274 10.68h1.238a25.75 25.75 0 0 0 27.453-26.48v-29.66a24.822 24.822 0 0 0 5.738 16.152 18.114 18.114 0 0 0 13.86 6.711 14.04 14.04 0 0 0 12.8-7.152h3.176a8.487 8.487 0 0 1 6.043 2.457 8.482 8.482 0 0 1 2.52 6.02zm0 0" opacity="1" data-original="#fb7b76"></path></g></svg>