<svg xmlns="http://www.w3.org/2000/svg" version="1.1" xmlns:xlink="http://www.w3.org/1999/xlink" width="512" height="512" x="0" y="0" viewBox="0 0 512 512" style="enable-background:new 0 0 512 512" xml:space="preserve" class=""><g><path fill="#ed6f6d" d="M408 24c-21.95 0-41.83 9.72-56.29 25.47a88.521 88.521 0 0 0-15.2 22.99 205.127 205.127 0 0 0-161.02 0 88.521 88.521 0 0 0-15.2-22.99C145.83 33.72 125.95 24 104 24c-44.18 0-80 39.4-80 88s35.82 88 80 88c19.07 0 48-16 48-16s9.79 14.68 16 24c32 48 0 96 8 152s24 40 24 128h112c0-88 16-72 24-128s-24-104 8-152c6.21-9.32 16-24 16-24s28.93 16 48 16c44.18 0 80-39.4 80-88s-35.82-88-80-88zm-256 88c0 30.928-21.49 56-48 56s-48-25.072-48-56 21.49-56 48-56 48 25.072 48 56zm256-56c26.51 0 48 25.072 48 56s-21.49 56-48 56-48-25.072-48-56 21.49-56 48-56z" opacity="1" data-original="#ed6f6d"></path><path fill="#ff9494" d="M351.71 49.47a88.521 88.521 0 0 0-15.2 22.99 205.127 205.127 0 0 0-161.02 0 88.521 88.521 0 0 0-15.2-22.99C173.96 40.11 204.91 24 256 24s82.04 16.11 95.71 25.47z" opacity="1" data-original="#ff9494" class=""></path><ellipse cx="432" cy="176" fill="#f7cca9" rx="40" ry="32" transform="rotate(-45 432 176.092)" opacity="1" data-original="#f7cca9"></ellipse><ellipse cx="80" cy="176" fill="#f7cca9" rx="32" ry="40" transform="rotate(-45 79.974 176.028)" opacity="1" data-original="#f7cca9"></ellipse><g fill="#ff9494"><path d="M208 320s-8 16 8 56 16 112 16 112h-32c0-88-16-72-24-128s24-104-8-152c-6.21-9.32-16-24-16-24-12.1-22.68-9.24-50.29 0-80 0 0 88 24 88 104v76.223a32 32 0 0 1-17.689 28.622zM304 320s8 16-8 56-16 112-16 112h32c0-88 16-72 24-128s-24-104 8-152c6.21-9.32 16-24 16-24 12.1-22.68 9.24-50.29 0-80 0 0-88 24-88 104v76.223a32 32 0 0 0 17.689 28.622z" fill="#ff9494" opacity="1" data-original="#ff9494" class=""></path></g></g></svg>