<svg xmlns="http://www.w3.org/2000/svg" version="1.1" xmlns:xlink="http://www.w3.org/1999/xlink" width="512" height="512" x="0" y="0" viewBox="0 0 512 512" style="enable-background:new 0 0 512 512" xml:space="preserve" class=""><g><path fill="#f47c7c" d="m478.14 149.48-35.36-11.69a8.007 8.007 0 0 0-9.28 3.33l-18.55 29.46-29.53 7.82-85.11-85 16.02-27.57 27.18-17.02a8.051 8.051 0 0 0 3.6-5.2l6.86-34.02c.87-4.33-1.93-8.55-6.26-9.42-4.33-.87-8.55 1.93-9.42 6.26l-6.18 30.65-18.12 11.35-9.51-21.45c-1.79-4.04-6.52-5.86-10.56-4.07s-5.86 6.52-4.07 10.56l11.59 26.15-16.4 28.23L224.97 104l-58.86 15.68-35.16-35.02 11.63-8.21a7.994 7.994 0 0 0 3.38-6.8l-1.3-39.69c-.14-4.42-3.84-7.87-8.26-7.73s-7.88 3.84-7.73 8.26l1.16 35.38-12.93 9.14-28.54-6.73c-4.3-1.01-8.61 1.65-9.62 5.95s1.65 8.61 5.95 9.62l29.85 7.04 40.2 40.05L139 189.87l-15.72 58.73-47.02 12.6-9.58-22.44a7.996 7.996 0 0 0-7.36-4.86H36.37c-4.42 0-8 3.58-8 8s3.58 8 8 8h17.66l8.09 18.96-18.96 18.74c-3.14 3.11-3.17 8.17-.07 11.31a7.99 7.99 0 0 0 11.31.07l21.32-21.07 51.69-13.85 86.18 86.07-16.38 60.76-36.31 12.44a7.989 7.989 0 0 0-4.97 10.16 8.005 8.005 0 0 0 10.16 4.98l32.4-11.1 7.47 25.62a8.006 8.006 0 0 0 9.92 5.44c4.24-1.24 6.68-5.68 5.44-9.92L212.13 417l16.9-62.72 58.81-15.81 39.06-10.42a29.756 29.756 0 0 0 7.92 14.66l35 36.14a29.76 29.76 0 0 0 4.81 4.01c.45 1.67.99 3.27 1.66 4.76.02.04.03.07.05.11l21.19 45.75c.67 1.44 1.45 2.79 2.31 4.07-.39.95-.75 1.91-1.05 2.92l-14.9 48.08a8.02 8.02 0 0 0 .57 6.11c1 1.88 2.7 3.29 4.73 3.91l42.93 13.11c.78.24 1.57.35 2.34.35 3.42 0 6.59-2.21 7.64-5.65l14.8-48.13c2.63-8.76 1.15-18.15-3.79-25.7.21-.49.4-.98.59-1.49 2.78-7.63 2.43-15.88-.98-23.25l-21.17-45.59c-2.38-5.13-5.97-9.32-10.47-12.33-1.3-4.97-3.84-9.52-7.49-13.27l-35.14-36.15a30.376 30.376 0 0 0-15.17-8.46l10.55-39.3 15.72-58.83 28.09-7.44 35.07 35.02a7.974 7.974 0 0 0 5.65 2.34c2.05 0 4.1-.78 5.66-2.35 3.12-3.13 3.12-8.19-.01-11.31l-33.8-33.76 13.48-21.42 29.42 9.73c4.19 1.38 8.72-.89 10.11-5.08 1.39-4.22-.88-8.75-5.08-10.13z" opacity="1" data-original="#f47c7c" class=""></path><path fill="#e94444" d="m303.98 195.46-21.87-21.72c-20.2-20.18-53.08-20.18-73.28 0-9.75 9.74-15.12 22.74-15.12 36.61s5.37 26.87 15.12 36.61c.01 0 .01.01.02.02l21.87 21.72c10.07 10.06 23.32 15.08 36.59 15.08s26.55-5.03 36.69-15.08c9.75-9.74 15.12-22.74 15.12-36.61s-5.38-26.88-15.14-36.63z" opacity="1" data-original="#e94444" class=""></path><path fill="#ffd772" d="m413.6 336.59-35.14-36.15c-11.66-11.97-30.93-12.31-43-.74-5.87 5.7-9.14 13.36-9.23 21.56-.08 8.1 2.97 15.71 8.61 21.43l35 36.14c5.97 6.12 13.92 9.2 21.89 9.2 7.6 0 15.22-2.81 21.11-8.46 5.85-5.68 9.13-13.32 9.24-21.51.12-8.11-2.9-15.74-8.48-21.47zM256.35 198.45c-12.5 0-22.67 10.21-22.67 22.77 0 12.55 10.17 22.77 22.67 22.77 12.56 0 22.78-10.21 22.78-22.77.01-12.56-10.21-22.77-22.78-22.77z" opacity="1" data-original="#ffd772" class=""></path><path fill="#f47c7c" d="m452.73 407.78-21.17-45.59c-2.38-5.13-5.97-9.32-10.47-12.33.69 2.63 1.03 5.38 1 8.19-.11 8.19-3.39 15.83-9.24 21.51-5.89 5.65-13.51 8.46-21.11 8.46a30.6 30.6 0 0 1-17.08-5.19c.45 1.67.99 3.27 1.66 4.76.02.04.03.07.05.11l21.19 45.75c5.17 11.04 16.2 17.54 27.68 17.54 4.27 0 8.61-.9 12.73-2.81 7.38-3.41 12.97-9.5 15.76-17.14 2.76-7.63 2.42-15.89-1-23.26z" opacity="1" data-original="#f47c7c" class=""></path><path fill="#ffd772" d="M453.12 432.52c-2.95 6.94-8.28 12.47-15.17 15.66a30.205 30.205 0 0 1-12.73 2.81c-9.98 0-19.62-4.92-25.37-13.47-.39.95-.75 1.91-1.05 2.92l-14.9 48.08a8.02 8.02 0 0 0 .57 6.11c1 1.88 2.7 3.29 4.73 3.91l42.93 13.11c.78.24 1.57.35 2.34.35 3.42 0 6.59-2.21 7.64-5.65l14.8-48.13c2.64-8.75 1.16-18.14-3.79-25.7z" opacity="1" data-original="#ffd772" class=""></path><path fill="#d83131" d="m303.98 195.46-21.87-21.72c-20.2-20.18-53.08-20.18-73.28 0-.81.81-1.58 1.65-2.33 2.5 19.62-10.54 44.66-7.56 61.21 8.96l21.87 21.72c9.77 9.75 15.14 22.75 15.14 36.62 0 12.68-4.5 24.62-12.71 34.02 4.3-2.31 8.35-5.27 11.99-8.88 9.75-9.74 15.12-22.74 15.12-36.61s-5.38-26.86-15.14-36.61z" opacity="1" data-original="#d83131"></path><path fill="#fbba58" d="m413.6 336.59-35.14-36.15c-11.66-11.97-30.93-12.31-43-.74a30.391 30.391 0 0 0-4.29 5.22c11.29-4.84 24.92-2.55 33.96 6.73l35.14 36.15c5.58 5.73 8.6 13.35 8.49 21.46-.08 5.89-1.81 11.49-4.95 16.29 3.26-1.4 6.33-3.39 9.04-5.98 5.85-5.68 9.13-13.32 9.24-21.51.11-8.11-2.91-15.74-8.49-21.47zM256.35 198.45c-7.76 0-14.61 3.94-18.7 9.92 2.79-1.23 5.87-1.92 9.1-1.92 12.56 0 22.78 10.21 22.78 22.77 0 4.75-1.46 9.16-3.96 12.81 7.98-3.55 13.56-11.54 13.56-20.81.01-12.56-10.21-22.77-22.78-22.77z" opacity="1" data-original="#fbba58"></path><path fill="#ee6161" d="m452.73 407.78-21.17-45.59c-2.38-5.13-5.97-9.32-10.47-12.33.69 2.63 1.03 5.38 1 8.19-.07 5.33-1.5 10.42-4.09 14.9.07.15.15.29.22.44l21.17 45.59c3.42 7.37 3.77 15.63.98 23.25a30.62 30.62 0 0 1-3.13 6.24c.23-.1.47-.19.7-.3 7.38-3.41 12.97-9.5 15.76-17.14 2.79-7.62 2.45-15.88-.97-23.25z" opacity="1" data-original="#ee6161"></path><path fill="#fbba58" d="M453.12 432.52c-2.06 4.85-5.3 8.98-9.4 12.13 1.54 5.5 1.56 11.4-.14 17.03l-14.8 48.13c-.08.25-.19.48-.29.72l3.64 1.11c.78.24 1.57.35 2.34.35 3.42 0 6.59-2.21 7.64-5.65l14.8-48.13c2.64-8.74 1.16-18.13-3.79-25.69z" opacity="1" data-original="#fbba58"></path><g fill="#e94444"><path d="m301.44 59.6-16.4 28.23 3.18-.86c2.76-.74 5.71.04 7.73 2.06l4.36 4.35 16.02-27.57 27.18-17.02a8.051 8.051 0 0 0 3.6-5.2l6.86-34.02c.87-4.33-1.93-8.55-6.26-9.42-4.33-.87-8.55 1.93-9.42 6.26l-6.18 30.65-18.12 11.35-9.51-21.45c-1.79-4.04-6.52-5.86-10.56-4.07s-5.86 6.52-4.07 10.56zM124.15 260.77a8.006 8.006 0 0 1-2.07-7.73l1.19-4.46-47.02 12.6-9.58-22.44a7.996 7.996 0 0 0-7.36-4.86H36.37c-4.42 0-8 3.58-8 8s3.58 8 8 8h17.66l8.09 18.96-18.96 18.74c-3.14 3.11-3.17 8.17-.07 11.31a7.99 7.99 0 0 0 11.31.07l21.32-21.07 51.69-13.85zM84.68 83.83l29.85 7.04 40.2 40.05 1.17-4.38c.74-2.77 2.9-4.93 5.67-5.67l4.54-1.21-35.16-35.02 11.63-8.21a7.994 7.994 0 0 0 3.38-6.8l-1.3-39.69c-.14-4.42-3.84-7.87-8.26-7.73s-7.88 3.84-7.73 8.26l1.16 35.38-12.93 9.14-28.54-6.73c-4.3-1.01-8.61 1.65-9.62 5.95-1.03 4.29 1.64 8.6 5.94 9.62zM212.15 416.97l16.9-62.72-4.45 1.2c-.69.18-1.38.27-2.08.27-2.09 0-4.13-.82-5.65-2.34l-3.28-3.27-16.38 60.76-36.31 12.44a7.989 7.989 0 0 0-4.97 10.16 8.005 8.005 0 0 0 10.16 4.98l32.4-11.1 7.47 25.62a8.006 8.006 0 0 0 9.92 5.44c4.24-1.24 6.68-5.68 5.44-9.92zM478.14 149.48l-35.36-11.69a8.007 8.007 0 0 0-9.28 3.33l-18.55 29.46-29.53 7.82 3.25 3.25a8.028 8.028 0 0 1 2.08 7.73l-1.2 4.48 28.09-7.44 35.07 35.02a7.974 7.974 0 0 0 5.65 2.34c2.05 0 4.1-.78 5.66-2.35 3.12-3.13 3.12-8.19-.01-11.31l-33.8-33.76 13.48-21.42 29.42 9.73c4.19 1.38 8.72-.89 10.11-5.08 1.39-4.2-.88-8.73-5.08-10.11z" fill="#e94444" opacity="1" data-original="#e94444" class=""></path></g><path fill="#ee6161" d="M365.94 186.99a7.963 7.963 0 0 1 2.09 7.73L351 258.03l-10.15 37.56c6.82-4.1 14.9-5.29 22.45-3.61l10.55-39.3 16.91-63.31c.74-2.76-.05-5.71-2.08-7.73l-92.73-92.61a7.978 7.978 0 0 0-7.73-2.06l-19.61 5.27c1.47.32 2.85 1.04 3.95 2.13z" opacity="1" data-original="#ee6161"></path></g></svg>