<svg xmlns="http://www.w3.org/2000/svg" version="1.1" xmlns:xlink="http://www.w3.org/1999/xlink" width="512" height="512" x="0" y="0" viewBox="0 0 512 512" style="enable-background:new 0 0 512 512" xml:space="preserve" class=""><g><path d="M256 126.482c112.405 0 205.833 69.333 249.533 113.744 8.623 8.764 8.623 22.784 0 31.547-43.7 44.412-137.128 113.745-249.533 113.745S50.167 316.185 6.467 271.774c-8.623-8.764-8.623-22.784 0-31.547C50.167 195.815 143.595 126.482 256 126.482z" style="" fill="#d1eff2" data-original="#d1eff2"></path><circle cx="256" cy="256" r="129.52" style="" fill="#76b7eb" data-original="#76b7eb" class=""></circle><path d="M188.989 145.145c-37.467 22.697-62.507 63.851-62.507 110.855 0 71.531 57.987 129.518 129.518 129.518 30.896 0 59.259-10.824 81.521-28.879-196.872 47.794-211.039-141.103-148.532-211.494z" style="opacity:0.1;enable-background:new ;" fill="#000000" opacity="1" data-original="#000000" class=""></path><circle cx="256" cy="256" r="63.45" style="" fill="#38648c" data-original="#38648c" class=""></circle><circle cx="318.2" cy="222.06" r="29.963" style="" fill="#ffffff" data-original="#ffffff"></circle><path d="M11.028 235.683C54.499 208.841 151.566 152.988 256 152.988s201.501 55.853 244.972 82.695c-45.421-44.435-136.331-109.2-244.972-109.2s-199.551 64.765-244.972 109.2z" style="opacity:0.15;enable-background:new ;" fill="#000000" opacity="1" data-original="#000000" class=""></path><g style="opacity:0.1;"><path d="M335.722 328.347a7.466 7.466 0 0 1-4.728-1.682l-9.153-7.445a7.5 7.5 0 0 1 9.465-11.637l9.153 7.445a7.5 7.5 0 0 1-4.737 13.319zM354.304 293.475a7.505 7.505 0 0 1-2.19-.328l-11.286-3.441a7.5 7.5 0 1 1 4.375-14.347l11.286 3.441a7.5 7.5 0 0 1-2.185 14.675zM246.549 365.833a7.5 7.5 0 0 1-7.476-8.191l1.086-11.749c.381-4.125 4.035-7.149 8.158-6.778a7.5 7.5 0 0 1 6.777 8.159l-1.086 11.749a7.5 7.5 0 0 1-7.459 6.81zM156.446 289.026a7.502 7.502 0 0 1-1.858-14.767l11.43-2.93a7.498 7.498 0 0 1 9.127 5.403 7.5 7.5 0 0 1-5.402 9.128l-11.43 2.93a7.554 7.554 0 0 1-1.867.236zM207.562 186.504a7.49 7.49 0 0 1-6.354-3.507l-6.284-9.987a7.5 7.5 0 1 1 12.696-7.988l6.284 9.987a7.5 7.5 0 0 1-6.342 11.495zM298.113 182.87a7.5 7.5 0 0 1-6.642-10.974l5.463-10.458a7.5 7.5 0 1 1 13.295 6.944l-5.463 10.459a7.498 7.498 0 0 1-6.653 4.029z" fill="#000000" opacity="1" data-original="#000000" class=""></path></g></g></svg>