<svg xmlns="http://www.w3.org/2000/svg" version="1.1" xmlns:xlink="http://www.w3.org/1999/xlink" width="512" height="512" x="0" y="0" viewBox="0 0 64 64" style="enable-background:new 0 0 512 512" xml:space="preserve"><g><circle cx="55.3" cy="15.5" r="8" fill="#34444c" opacity="1" data-original="#34444c"></circle><circle cx="55.3" cy="15.5" r="4" fill="#cfd8dc" opacity="1" data-original="#cfd8dc"></circle><path fill="#cfd8dc" d="M23.4 43.5h-7.3C9.6 43.5 4 38.6 3.2 32.1L.8 12.9C.3 9.2 2.6 5.6 6.2 4.4l2.1-.7c1.6-.5 3.3.3 3.8 1.9s-.3 3.3-1.9 3.8l-2.1.6c-.9.3-1.5 1.2-1.4 2.1l2.4 19.2c.4 3.5 3.4 6.1 6.9 6.1h7.3c3.5 0 6.5-2.6 6.9-6.1l2.4-19.2c.1-.9-.5-1.8-1.4-2.1l-2.1-.7c-1.6-.5-2.4-2.2-1.9-3.8s2.2-2.4 3.8-1.9l2.1.7c3.6 1.2 5.9 4.8 5.4 8.6l-2.4 19.2c-.6 6.5-6.1 11.4-12.7 11.4z" opacity="1" data-original="#cfd8dc"></path><g fill="#b0bec5"><path d="M10.1 5.6c.5 1.6-.3 3.3-1.9 3.8l-2.1.6c-.9.3-1.5 1.2-1.4 2.1l2.4 19.2c.4 3.5 3.4 6.1 6.9 6.1h2c-3.5 0-6.5-2.6-6.9-6.1L6.7 12.2c-.1-.9.5-1.8 1.4-2.1l2.1-.7c1.6-.5 2.4-2.2 1.9-3.8S9.9 3.1 8.3 3.7h-.1c.9.3 1.6.9 1.9 1.9zM33.3 4.4l-2.1-.7c-.7-.2-1.3-.2-1.9 0l2 .7c3.6 1.2 5.9 4.8 5.4 8.6l-2.4 19.2c-.8 6.5-6.4 11.4-12.9 11.4h2c6.5 0 12.1-4.9 12.9-11.4L38.7 13c.5-3.8-1.8-7.4-5.4-8.6z" fill="#b0bec5" opacity="1" data-original="#b0bec5"></path></g><path fill="#29b6f6" d="M40.3 63.5h-5.5c-9.9 0-18-8.1-18-18v-5c0-1.7 1.3-3 3-3s3 1.3 3 3v5c0 6.6 5.4 12 12 12h5.5c6.6 0 12-5.4 12-12v-23c0-1.7 1.3-3 3-3s3 1.3 3 3v23c0 9.9-8.1 18-18 18z" opacity="1" data-original="#29b6f6"></path><g fill="#29b6f6"><path d="M55.3 19.5c-.4 0-.7.1-1 .2 1.2.4 2 1.5 2 2.8v23c0 9.9-8.1 18-18 18h2c9.9 0 18-8.1 18-18v-23c0-1.7-1.4-3-3-3zM29.2 34.5c-1.3 1.8-3.4 3-5.7 3h-7.3c-2.4 0-4.5-1.2-5.7-3H3.7c1.7 5.3 6.7 9 12.4 9h7.3c5.7 0 10.7-3.7 12.4-9z" fill="#29b6f6" opacity="1" data-original="#29b6f6"></path><path d="M33.8 34.5c-1.7 5.3-6.7 9-12.4 9h2c5.7 0 10.7-3.7 12.4-9z" fill="#29b6f6" opacity="1" data-original="#29b6f6"></path></g><path fill="#34444c" d="M10.8 12.5h1c.8 0 1.5-.7 1.5-1.5V2c0-.8-.7-1.5-1.5-1.5h-1c-.9 0-1.5.7-1.5 1.5v9c0 .8.6 1.5 1.5 1.5zM27.8 12.5h1c.8 0 1.5-.7 1.5-1.5V2c0-.8-.7-1.5-1.5-1.5h-1c-.8 0-1.5.7-1.5 1.5v9c0 .8.6 1.5 1.5 1.5z" opacity="1" data-original="#34444c"></path></g></svg>