<svg xmlns="http://www.w3.org/2000/svg" version="1.1" xmlns:xlink="http://www.w3.org/1999/xlink" width="512" height="512" x="0" y="0" viewBox="0 0 56 56" style="enable-background:new 0 0 512 512" xml:space="preserve" class=""><g><path d="M54.5 20.801h-53a1.5 1.5 0 0 0-1.5 1.5v13.585c0 6.341 5.159 11.5 11.5 11.5h33c6.341 0 11.5-5.159 11.5-11.5V22.301a1.5 1.5 0 0 0-1.5-1.5zM53 35.887c0 4.687-3.813 8.5-8.5 8.5h-33c-4.687 0-8.5-3.813-8.5-8.5V23.801h50v12.086zM1.908 18.801h52.184a1.502 1.502 0 0 0 1.44-1.922c-1.425-4.867-5.961-8.266-11.031-8.266h-33c-5.07 0-9.606 3.399-11.031 8.266a1.5 1.5 0 0 0 1.438 1.922zm9.592-7.188h33c3.036 0 5.812 1.649 7.317 4.188H4.183c1.505-2.539 4.281-4.188 7.317-4.188z" style="" fill="#00c27c" data-original="#010002" opacity="1" class=""></path><path d="M11.389 36.492h14.918c2.577 0 4.674-1.937 4.674-4.316 0-2.38-2.097-4.316-4.674-4.316H11.389c-2.577 0-4.674 1.936-4.674 4.316s2.097 4.316 4.674 4.316zm0-5.634h14.918c.907 0 1.674.603 1.674 1.316 0 .713-.767 1.316-1.674 1.316H11.389c-.907 0-1.674-.603-1.674-1.316 0-.713.767-1.316 1.674-1.316zM44.283 37.534a5.364 5.364 0 0 0 5.358-5.358 5.364 5.364 0 0 0-5.358-5.358 5.365 5.365 0 0 0-5.359 5.358 5.365 5.365 0 0 0 5.359 5.358zm0-7.718a2.36 2.36 0 0 1 2.358 2.358 2.36 2.36 0 0 1-2.358 2.358 2.361 2.361 0 0 1-2.359-2.358c0-1.3 1.058-2.358 2.359-2.358z" style="" fill="#00c27c" data-original="#010002" opacity="1" class=""></path></g></svg>