<svg width="18" height="19" viewBox="0 0 18 19" fill="none" xmlns="http://www.w3.org/2000/svg">
<path fill-rule="evenodd" clip-rule="evenodd" d="M9.00001 7.79998C9.95478 7.79998 10.8705 7.42069 11.5456 6.74556C12.2207 6.07043 12.6 5.15476 12.6 4.19998C12.6 3.2452 12.2207 2.32952 11.5456 1.65439C10.8705 0.97926 9.95478 0.599976 9.00001 0.599976C8.04523 0.599976 7.12955 0.97926 6.45442 1.65439C5.77929 2.32952 5.40001 3.2452 5.40001 4.19998C5.40001 5.15476 5.77929 6.07043 6.45442 6.74556C7.12955 7.42069 8.04523 7.79998 9.00001 7.79998ZM0.600006 18.6C0.600006 17.4969 0.817279 16.4046 1.23942 15.3854C1.66156 14.3663 2.2803 13.4403 3.06031 12.6603C3.84032 11.8803 4.76633 11.2615 5.78547 10.8394C6.8046 10.4172 7.8969 10.2 9.00001 10.2C10.1031 10.2 11.1954 10.4172 12.2145 10.8394C13.2337 11.2615 14.1597 11.8803 14.9397 12.6603C15.7197 13.4403 16.3385 14.3663 16.7606 15.3854C17.1827 16.4046 17.4 17.4969 17.4 18.6H0.600006Z" fill="#E4E8F2"/>
</svg>
