<svg xmlns="http://www.w3.org/2000/svg" version="1.1" xmlns:xlink="http://www.w3.org/1999/xlink" width="512" height="512" x="0" y="0" viewBox="0 0 512 512" style="enable-background:new 0 0 512 512" xml:space="preserve" class=""><g><path fill="#e6e7f5" d="M0 151v240c0 24.813 20.187 45 45 45h422c24.813 0 45-20.187 45-45V151l-260.154-10z" opacity="1" data-original="#e6e7f5"></path><path fill="#cfd1f4" d="M512 151v240c0 24.81-20.19 45-45 45H256V141.16z" opacity="1" data-original="#cfd1f4"></path><path fill="#ffca0f" d="M512 121c0-24.813-20.187-45-45-45H45C20.187 76 0 96.187 0 121v30h512z" opacity="1" data-original="#ffca0f"></path><path fill="#ffb301" d="M512 121v30H256V76h211c24.81 0 45 20.19 45 45z" opacity="1" data-original="#ffb301"></path><path fill="#30c4ff" d="M71 376c-5.514 0-10-4.486-10-10v-30c0-38.598 31.402-70 70-70s70 31.402 70 70v30c0 5.514-4.486 10-10 10z" opacity="1" data-original="#30c4ff"></path><path fill="#1b9cf7" d="M201 336v30c0 5.51-4.49 10-10 10h-59.5V266.01c38.718.255 69.5 31.91 69.5 69.99z" opacity="1" data-original="#1b9cf7"></path><g fill="#2f4247"><path d="M324 331h-53c-8.284 0-15 6.716-15 15s6.716 15 15 15h53c8.284 0 15-6.716 15-15s-6.716-15-15-15zM437 332h-53c-8.284 0-15 6.716-15 15s6.716 15 15 15h53c8.284 0 15-6.716 15-15s-6.716-15-15-15zM437 271H271c-8.284 0-15 6.716-15 15s6.716 15 15 15h166c8.284 0 15-6.716 15-15s-6.716-15-15-15zM271 240h166c8.284 0 15-6.716 15-15s-6.716-15-15-15H271c-8.284 0-15 6.716-15 15s6.716 15 15 15z" fill="#2f4247" opacity="1" data-original="#2f4247"></path></g><circle cx="131.5" cy="235.5" r="40.5" fill="#c56d59" opacity="1" data-original="#c56d59"></circle><path fill="#b65d49" d="M172 235.5c0 22.41-18.244 40.5-40.5 40.5v-81c22.33 0 40.5 18.17 40.5 40.5z" opacity="1" data-original="#b65d49"></path></g></svg>