<svg xmlns="http://www.w3.org/2000/svg" version="1.1" xmlns:xlink="http://www.w3.org/1999/xlink" width="512" height="512" x="0" y="0" viewBox="0 0 334.249 334.249" style="enable-background:new 0 0 512 512" xml:space="preserve" class=""><g><path d="M250.313 238.697c-18.667-6.681-51.458-11.736-51.458-81.376h-63.462c0 69.64-32.791 74.695-51.458 81.376 0 47.368 68.832 48.824 80.688 53.239v1.537s.922-.188 2.501-.68c1.579.492 2.501.68 2.501.68v-1.537c11.855-4.415 80.688-5.872 80.688-53.239z" style="" fill="#f3d8b6" data-original="#f3d8b6"></path><path d="M198.855 157.321H167.109v135.477l.016-.005c1.579.492 2.501.68 2.501.68v-1.537c11.856-4.414 80.688-5.871 80.688-53.238-18.668-6.682-51.459-11.737-51.459-81.377z" style="" fill="#eec8a2" data-original="#eec8a2"></path><path d="M287.105 293.568v40.681H47.143v-40.681c0-30.431 17.377-56.963 40.605-70.913 6.043-3.641 19.69-7.43 26.844-9.196 5.953-1.488 53.438-.271 53.438-.271s48.674-.218 54.627 1.271c7.154 1.766 17.802 4.554 23.844 8.196 23.228 13.951 40.604 40.482 40.604 70.913z" style="" fill="#4ee09f" data-original="#66a299" class="" opacity="1"></path><path d="M246.501 222.655c-6.042-3.641-16.69-6.429-23.844-8.195-5.953-1.488-54.627-1.271-54.627-1.271l-.921-.023v121.083h119.997v-40.681c-.001-30.431-17.377-56.962-40.605-70.913z" style="" fill="#4ee09f" data-original="#5a9291" class="" opacity="1"></path><path d="M229.374 126.544c-1.31 5.21-2.84 9.5-4.45 12.48-.08.15-.17.3-.25.46-4.72 8.56-12.21 18.46-21.88 26.27-9.85 7.95-21.95 13.73-35.67 13.73-27.21 0-48.04-22.72-57.55-40-.08-.16-.17-.31-.25-.46-1.61-2.98-3.14-7.27-4.45-12.48-6.38-25.15-7.97-71.67 8.79-94.41 19.81-26.89 53.46-13.84 53.46-13.84s33.65-13.05 53.46 13.84c16.76 22.74 15.169 69.26 8.79 94.41z" style="" fill="#f3dbc4" data-original="#f3dbc4" class=""></path><path d="M229.374 126.544c-1.31 5.21-2.84 9.5-4.45 12.48-.08.15-.17.3-.25.46-4.72 8.56-12.21 18.46-21.88 26.27-9.85 7.95-21.95 13.73-35.67 13.73V18.294s33.65-13.05 53.46 13.84c16.76 22.74 15.169 69.26 8.79 94.41z" style="" fill="#edceae" data-original="#edceae"></path><path d="M224.578 27.976c-2.159.08-25.469-13.121-41.382-16.355 91.081 18.513-128.625 30.477-26.02 1.516-29.41-9.014-57.539 14.472-56.495 36.488 1.759 37.07-4.778 36.505-.295 49.454s8.466 23.407 8.466 23.407.996 3.565 2.988-16.854-4.579-42.372 11.137-40.379c15.716 1.992 10.785 14.805 44.436 14.805 33.391 0 28.719-12.813 44.436-14.805 15.716-1.992 9.145 19.96 11.137 40.379s2.988 16.854 2.988 16.854 8.92-9.712 8.466-23.407c-.51-15.455 6.371-71.705-9.862-71.103z" style="" fill="#545465" data-original="#545465"></path><path d="M219.578 27.976c-2.16.019-20.469-13.121-36.382-16.355-8.193-1.665-12.81 18.023-16.016 18.37v50.063c.08 0 .153.003.234.003 33.391 0 28.719-12.813 44.436-14.805 15.716-1.992 9.145 19.96 11.137 40.379s2.988 16.854 2.988 16.854 8.786-9.708 8.466-23.407c-.343-14.787 4.489-71.271-14.863-71.102z" style="" fill="#494857" data-original="#494857" class=""></path><path d="M167.124 73.769c29.48 0 54.877 6.299 66.407 15.368h2.513V31.239S227.858 0 167.124 0c-59.469 0-68.92 31.239-68.92 31.239v57.898h2.513c11.53-9.069 36.926-15.368 66.407-15.368z" style="" fill="#4ee09f" data-original="#66a299" class="" opacity="1"></path><path d="M167.18 0v73.769c29.456.008 54.827 6.305 66.35 15.368h2.513V31.239c.001 0-8.18-31.232-68.863-31.239z" style="" fill="#4ee09f" data-original="#5a9291" class="" opacity="1"></path><path d="m135.71 118.633 23.348-9.887a20.69 20.69 0 0 1 16.133 0l23.348 9.887a20.685 20.685 0 0 1 12.619 19.048v9.886c0 8.307-4.97 15.809-12.619 19.048l-23.348 9.887a20.681 20.681 0 0 1-16.133 0l-23.348-9.887a20.686 20.686 0 0 1-12.619-19.048v-9.886a20.681 20.681 0 0 1 12.619-19.048z" style="" fill="#4ee09f" data-original="#66a299" class="" opacity="1"></path><path d="M115.163 96.334h10v41.059h-10z" style="" transform="rotate(-35.291 120.167 116.868)" fill="#4ee09f" data-original="#66a299" class="" opacity="1"></path><path d="m136.964 140.444-3.97 9.18-23.42-10.14c-.08-.16-.17-.31-.25-.46-1.61-2.98-3.14-7.27-4.45-12.48l32.09 13.9z" style="" fill="#4ee09f" data-original="#66a299" class="" opacity="1"></path><path d="M209.093 96.325h10v41.059h-10z" style="" transform="scale(-1) rotate(35.291 367.381 -673.087)" fill="#4ee09f" data-original="#5a9291" class="" opacity="1"></path><path d="M229.374 126.544c-1.31 5.21-2.84 9.5-4.45 12.48-.08.15-.17.3-.25.46l-23.42 10.14-3.97-9.18 32.09-13.9z" style="" fill="#4ee09f" data-original="#5a9291" class="" opacity="1"></path><path d="m198.538 118.632-23.348-9.887a20.68 20.68 0 0 0-8.067-1.638v71.033a20.68 20.68 0 0 0 8.067-1.638l23.348-9.887a20.686 20.686 0 0 0 12.619-19.048v-9.887a20.685 20.685 0 0 0-12.619-19.048zM187.673 241.457H95.404v92.792h13v-79.792h79.121z" style="" fill="#4ee09f" data-original="#5a9291" class="" opacity="1"></path><ellipse cx="229.298" cy="111.771" rx="17.187" ry="10.048" style="" transform="rotate(-69.249 229.305 111.774)" fill="#edceae" data-original="#edceae"></ellipse><ellipse cx="104.946" cy="111.779" rx="17.187" ry="10.048" style="" transform="rotate(69.249 104.95 111.782)" fill="#f3dbc4" data-original="#f3dbc4" class=""></ellipse></g></svg>