<svg xmlns="http://www.w3.org/2000/svg" version="1.1" xmlns:xlink="http://www.w3.org/1999/xlink" width="512" height="512" x="0" y="0" viewBox="0 0 96 96" style="enable-background:new 0 0 512 512" xml:space="preserve" class=""><g><path fill="#f7527b" d="M48 95.52A47.51 47.51 0 1 1 95.5 48 47.56 47.56 0 0 1 48 95.52z" opacity="1" data-original="#f7527b" class=""></path><path fill="#d42553" d="M89.25 48a41.26 41.26 0 1 1-81.52-9.06 14.59 14.59 0 0 1 7.7-9.77c10.51-5.31 8-3.57 14.21-9.43l6.2-5.86a15.81 15.81 0 0 1 6.45-3.7l5.51-1.59a21.93 21.93 0 0 1 12.86.14A41.27 41.27 0 0 1 89.25 48z" opacity="1" data-original="#d42553" class=""></path><path fill="#a22a53" d="M48 78.27a30.27 30.27 0 0 1-29.54-36.92A3.61 3.61 0 0 1 20.39 39c12.57-6.35 8.71-3.61 23-17.12a4.84 4.84 0 0 1 2-1.13l5.49-1.58a10.94 10.94 0 0 1 6.44 0A30.27 30.27 0 0 1 48 78.27z" opacity="1" data-original="#a22a53" class=""></path><path fill="#f7527b" d="M39.38 49.87a1 1 0 0 1-1.34.47 1 1 0 0 1-.47-1.34 17.77 17.77 0 0 0 1.3-6.9 19.42 19.42 0 0 0-1.33-7.1c-1.86-4.85-6.93-7.31-9.41-13.86l1.51-1.43a1 1 0 0 1 .23.36c2.26 6.43 7.4 8.67 9.54 14.21a20.72 20.72 0 0 1-.03 15.59z" opacity="1" data-original="#f7527b" class=""></path><path fill="#ffffff" stroke="#302d3d" stroke-linecap="round" stroke-linejoin="round" stroke-width="2" d="m65.07 48 .63-.81a2.29 2.29 0 0 1 4.08 1.2l.15 1.61a4.06 4.06 0 0 1-2.73 4.23" opacity="1" data-original="#ffffff"></path><path fill="#fbc4ab" d="M40.39 81.65c-5.47-.31-10.22-4.72-10.07-10.2a12.63 12.63 0 0 1 11.27-12.71c1.11-.13 2.45-.1 4-.18 4.38 0 9.58-1.35 13-4.39A30.2 30.2 0 0 1 56.32 50l-1.15-.48A1.94 1.94 0 0 1 54 47.37a7.16 7.16 0 0 0 .2-3c-.76-3.18-.67-7.42 1.41-10.22C60.74 27.19 70 26.74 75.1 30.7c18.19 14.06-.61 52.7-34.71 50.95z" opacity="1" data-original="#fbc4ab" class=""></path><path fill="#fbddc9" d="M75.65 50.47c1.25-5.65.43-11.43-4.21-15-2.69-2.06-8-1.77-11 2.24-2.59 3.48 1.45 10.47 4.27 14.74a6.06 6.06 0 0 0 10.94-1.98z" opacity="1" data-original="#fbddc9"></path><path fill="#fbc4ab" d="M32 76.84c-4.1-6.41-.18-17.62-.18-17.62a32.12 32.12 0 0 1-6 7.87A4.85 4.85 0 0 1 19 67l-3.91-3.91a4.32 4.32 0 0 1-.84-4.89l1.13-2.38a1 1 0 0 1 1.67-.28l3.16 3.15c.44-.63.95-1.37 1.51-2.23 3.52-5.36 9.09-10.8 14.87-8.32 7.29 3.14 4.54 18.68 4.54 18.68zM60.82 57.91s-9.73.34-10-8A19.8 19.8 0 0 0 49.34 43a2.05 2.05 0 0 0-3.89 1.3 14.41 14.41 0 0 1 .21 7c-1.1 6.23-.39 14.09 9.24 13.39z" opacity="1" data-original="#fbc4ab" class=""></path><g fill="#fb9c88"><path d="M43.09 66.6a1 1 0 1 1-2-.35 39.89 39.89 0 0 0 .47-7.51 16.76 16.76 0 0 1 2-.11 40.39 40.39 0 0 1-.47 7.97z" fill="#fb9c88" opacity="1" data-original="#fb9c88"></path><path d="M54.86 64.58a1 1 0 0 1-.93 1.07c-6.11.44-9.43-2.35-10.38-7l2-.07c0 .07 0 .13.05.2.23.34.72 5.44 8.16 4.9a1 1 0 0 1 1.1.9zM62.38 57a1 1 0 0 1-1 1 13.46 13.46 0 0 1-6.54-1.5 16.18 16.18 0 0 0 2.18-1.21 13.09 13.09 0 0 0 4.29.71 1 1 0 0 1 1.07 1z" fill="#fb9c88" opacity="1" data-original="#fb9c88"></path></g></g></svg>