<svg xmlns="http://www.w3.org/2000/svg" version="1.1" xmlns:xlink="http://www.w3.org/1999/xlink" width="512" height="512" x="0" y="0" viewBox="0 0 68 68" style="enable-background:new 0 0 512 512" xml:space="preserve" class=""><g><path fill="#ffc69f" d="m48.352 47.84 12.844-5.922C63.418 40.842 66 42.46 66 44.929a3.346 3.346 0 0 1-1.706 2.917S44.534 62.087 35.738 62.58c-5.711.32-21.073-8.916-21.073-8.916v-16.47s4.939-.138 10.751 0c4.198.1 8.74 2.227 12.232 5.378l7.83-.002a3.42 3.42 0 1 1 0 6.839H30.351z" opacity="1" data-original="#ffc69f" class=""></path><path fill="#8dd1fe" d="M17.652 37.534v17.373c0 2.213-1.786 4-4 4H6c-2.2 0-4-1.787-4-4V37.534c0-2.2 1.8-4 4-4h7.653c2.213 0 4 1.8 4 4z" opacity="1" data-original="#8dd1fe"></path><path fill="#ffffff" d="M47.184 45.907c.04 1.213-.92 2.2-2.12 2.2h-1.266a.669.669 0 0 1-.667-.667v-2.906c0-.36.293-.667.667-.667h1.106c1.174 0 2.24.88 2.28 2.04z" opacity="1" data-original="#ffffff"></path><path fill="#f7b69a" d="M48.897 45.99c.085.858-.215 1.756-.785 2.451a3.635 3.635 0 0 1-2.369 1.242c-1.748.095-3.427.086-5.143.1-1.708-.008-3.416-.017-5.124-.085-1.708-.06-3.416-.133-5.124-.289 1.708-.156 3.416-.228 5.124-.288 1.708-.068 3.416-.078 5.124-.087 1.698.005 3.436.031 5.103.076 1.582-.018 3.064-1.39 3.194-3.12z" opacity="1" data-original="#f7b69a"></path><path fill="#e9edf4" d="M14.666 54.266a2.094 2.094 0 0 1-2.107 2.107 2.103 2.103 0 0 1-2.106-2.107c0-1.16.946-2.106 2.106-2.106 1.174 0 2.107.947 2.107 2.106z" opacity="1" data-original="#e9edf4" class=""></path><path fill="#f14f4a" d="M60.117 18.403c-1.661 9.095-11.655 16.032-15.397 18.328a2.708 2.708 0 0 1-2.843 0c-3.742-2.296-13.736-9.233-15.397-18.328-1.172-6.39 3.254-12.72 9.76-12.984a10.384 10.384 0 0 1 7.054 2.355c1.905-1.573 4.386-2.462 7.063-2.355 6.506.264 10.932 6.595 9.76 12.984z" opacity="1" data-original="#f14f4a" class=""></path><path fill="#e9edf4" d="M63.18 22.885c0 .624-.51 1.134-1.133 1.134H51.58c-.5 0-.936-.329-1.084-.805l-1.922-6.318-4.946 12.602a1.114 1.114 0 0 1-1.051.715h-.009a1.149 1.149 0 0 1-1.051-.74l-3.763-10.236-2.062 4.15a1.12 1.12 0 0 1-1.01.632H24.216a1.129 1.129 0 1 1 0-2.26h9.767l2.917-5.882a1.127 1.127 0 0 1 2.07.115l3.648 9.908 5.044-12.849c.172-.435.608-.714 1.092-.714.485.016.904.336 1.044.797l2.62 8.625h9.629c.624 0 1.133.502 1.133 1.126z" opacity="1" data-original="#e9edf4" class=""></path></g></svg>