<svg width="20" height="20" viewBox="0 0 20 20" fill="none" xmlns="http://www.w3.org/2000/svg">
<path fill-rule="evenodd" clip-rule="evenodd" d="M5.19999 0.400024C4.88173 0.400024 4.57651 0.526453 4.35147 0.751496C4.12642 0.97654 3.99999 1.28176 3.99999 1.60002V2.80002H2.79999C2.16347 2.80002 1.55302 3.05288 1.10294 3.50297C0.65285 3.95306 0.399994 4.5635 0.399994 5.20002V17.2C0.399994 17.8365 0.65285 18.447 1.10294 18.8971C1.55302 19.3472 2.16347 19.6 2.79999 19.6H17.2C17.8365 19.6 18.447 19.3472 18.8971 18.8971C19.3471 18.447 19.6 17.8365 19.6 17.2V5.20002C19.6 4.5635 19.3471 3.95306 18.8971 3.50297C18.447 3.05288 17.8365 2.80002 17.2 2.80002H16V1.60002C16 1.28176 15.8736 0.97654 15.6485 0.751496C15.4235 0.526453 15.1183 0.400024 14.8 0.400024C14.4817 0.400024 14.1765 0.526453 13.9515 0.751496C13.7264 0.97654 13.6 1.28176 13.6 1.60002V2.80002H6.39999V1.60002C6.39999 1.28176 6.27357 0.97654 6.04852 0.751496C5.82348 0.526453 5.51825 0.400024 5.19999 0.400024ZM5.19999 6.40002C4.88173 6.40002 4.57651 6.52645 4.35147 6.7515C4.12642 6.97654 3.99999 7.28176 3.99999 7.60002C3.99999 7.91828 4.12642 8.22351 4.35147 8.44855C4.57651 8.6736 4.88173 8.80002 5.19999 8.80002H14.8C15.1183 8.80002 15.4235 8.6736 15.6485 8.44855C15.8736 8.22351 16 7.91828 16 7.60002C16 7.28176 15.8736 6.97654 15.6485 6.7515C15.4235 6.52645 15.1183 6.40002 14.8 6.40002H5.19999Z" fill="#E4E8F2"/>
</svg>
