<svg xmlns="http://www.w3.org/2000/svg" version="1.1" xmlns:xlink="http://www.w3.org/1999/xlink" width="512" height="512" x="0" y="0" viewBox="0 0 512 512" style="enable-background:new 0 0 512 512" xml:space="preserve" class=""><g><path fill="#fbcdbe" d="M209.462 299.01H189l-74.692-77.74h172.117z" opacity="1" data-original="#fbcdbe"></path><path fill="#fdbbab" d="m286.42 221.27-76.96 77.74h-9v-77.74z" opacity="1" data-original="#fdbbab"></path><path fill="#eff4fc" d="M380.533 328.892c-.63-20.636-7.769-40.09-20.643-56.257-12.899-16.199-30.309-27.523-50.437-32.773l-33.84-8.6a15.005 15.005 0 0 0-15.792 5.669l-59.271 58.053-60.904-59.88a15.001 15.001 0 0 0-14.211-3.842l-33.932 8.624c-41.824 10.91-71.034 48.71-71.034 91.924V497c0 8.284 6.716 15 15 15h330.07c8.284 0 15-6.716 15-15V329.35c.001-.153-.001-.305-.006-.458z" opacity="1" data-original="#eff4fc"></path><path fill="#d1dae8" d="M380.54 497c0 8.28-6.72 15-15 15H200.46V294.89l.09.09c27.94-27.445 57.646-56.289 60.09-59.07 3.72-4.24 9.5-6.04 14.97-4.65l33.84 8.6c41.602 10.85 69.814 47.572 71.08 89.03.018.271.01-8.123.01 168.11z" opacity="1" data-original="#d1dae8"></path><circle cx="200.462" cy="376" r="15" fill="#d1dae8" opacity="1" data-original="#d1dae8"></circle><path fill="#a3b2cc" d="M215.46 376c0 8.28-6.71 15-15 15v-30c8.29 0 15 6.72 15 15z" opacity="1" data-original="#a3b2cc"></path><circle cx="200.462" cy="436" r="15" fill="#d1dae8" opacity="1" data-original="#d1dae8"></circle><path fill="#a3b2cc" d="M215.46 436c0 8.28-6.71 15-15 15v-30c8.29 0 15 6.72 15 15z" opacity="1" data-original="#a3b2cc"></path><path fill="#fddbcc" d="M301.702 178.38c0 42.25-34.37 76.62-76.62 76.62h-56.76c-42.25 0-76.62-34.37-76.62-76.62v-54.098c6.529-6.205 12.992-11.432 21.03-14.266 23.641-8.334 52.768 4.084 91.17 4.084 35.328 0 74.836-9.037 97.68-35.96.227 1.73.078-4.085.12 100.24z" opacity="1" data-original="#fddbcc"></path><path fill="#fbcdbe" d="M301.702 178.38c0 29.49-16.75 55.15-41.24 67.95-23.72 12.409-42.607 7.568-60 8.67V114.06c36.066.946 77.864-8.509 101.12-35.92.228 1.688.085-4.327.12 100.24z" opacity="1" data-original="#fbcdbe"></path><path fill="#3f5379" d="M312.226 0H165.721c-40.814 0-74.02 33.205-74.02 74.02v45.108c.002 0-.001 15.872-.003 15.872 0 0 9.764-22.907 39.144-22.907 19.987 0 49.277 8.06 79.101 6.891C279.492 116.245 327.226 84.294 327.226 15c0-8.284-6.716-15-15-15z" opacity="1" data-original="#3f5379"></path><path fill="#29406b" d="M327.222 15c0 30.48-9.24 53.75-25.51 70.47-24.98 25.655-66.067 34.262-101.25 33.59V0h111.76c8.29 0 15 6.72 15 15z" opacity="1" data-original="#29406b"></path><circle cx="371.475" cy="391.95" r="120.05" fill="#cb2944" transform="rotate(-45 371.432 392.047)" opacity="1" data-original="#cb2944"></circle><path fill="#b2243b" d="M491.53 391.95c0 66.2-53.86 120.05-120.06 120.05V271.9c66.2 0 120.06 53.85 120.06 120.05z" opacity="1" data-original="#b2243b"></path><circle cx="371.475" cy="391.95" r="90.05" fill="#eff4fc" transform="rotate(-58.28 371.337 391.787)" opacity="1" data-original="#eff4fc"></circle><path fill="#d1dae8" d="M461.53 391.95c0 49.65-40.4 90.05-90.06 90.05V301.9c49.66 0 90.06 40.4 90.06 90.05z" opacity="1" data-original="#d1dae8"></path><path fill="#3f5379" d="M381.475 332c-8.284 0-15 6.716-15 15v29.95h-29.949c-8.284 0-15 6.716-15 15s6.716 15 15 15h44.949c8.284 0 15-6.716 15-15V347c0-8.284-6.716-15-15-15z" opacity="1" data-original="#3f5379"></path><path fill="#29406b" d="M396.47 347v44.95c0 8.28-6.71 15-15 15h-10v-71.13c2.66-2.38 6.16-3.82 10-3.82 8.29 0 15 6.72 15 15z" opacity="1" data-original="#29406b"></path></g></svg>