<svg xmlns="http://www.w3.org/2000/svg" version="1.1" xmlns:xlink="http://www.w3.org/1999/xlink" width="512" height="512" x="0" y="0" viewBox="0 0 512 512" style="enable-background:new 0 0 512 512" xml:space="preserve" class=""><g><circle cx="95.995" cy="64" r="64" style="" fill="#8f9bb3" data-original="#90a4ae" class="" opacity="1"></circle><circle cx="415.995" cy="64" r="64" style="" fill="#8f9bb3" data-original="#90a4ae" class="" opacity="1"></circle><circle cx="255.995" cy="64" r="64" style="" fill="#8f9bb3" data-original="#455a64" class="" opacity="1"></circle><path d="M305.531 160h-99.04c-16.512 0-30.208 12.384-31.84 28.8l-14.56 145.6c-.448 4.512 1.024 8.96 4.064 12.352a15.994 15.994 0 0 0 11.84 5.248h17.504l13.12 131.2c1.632 16.384 15.36 28.8 31.872 28.8h35.04a31.91 31.91 0 0 0 31.84-28.8l13.12-131.2h17.504c4.544 0 8.832-1.92 11.872-5.248a15.889 15.889 0 0 0 4.032-12.352l-14.56-145.568C335.707 172.384 322.011 160 305.531 160z" style="" fill="#8f9bb3" data-original="#455a64" class="" opacity="1"></path><path d="m128.219 331.2 14.56-145.568c.896-9.056 4.192-17.12 8.384-24.576-1.888-.352-3.648-1.056-5.632-1.056h-99.04c-16.512 0-30.208 12.384-31.84 28.8L.091 334.4c-.448 4.512 1.024 8.96 4.064 12.352A15.994 15.994 0 0 0 15.995 352h17.504l13.12 99.2c1.632 16.384 15.36 28.8 31.872 28.8h35.04a31.91 31.91 0 0 0 31.84-28.8l9.6-72.512c-5.376-2.624-10.4-5.888-14.496-10.4-9.184-10.24-13.6-23.648-12.256-37.088zM497.339 188.832C495.707 172.384 482.043 160 465.531 160h-99.04c-2.016 0-3.776.704-5.696 1.056 4.192 7.456 7.488 15.52 8.384 24.576l14.56 145.568c1.376 13.312-3.008 26.816-12.064 36.896-4.16 4.576-9.248 7.872-14.624 10.528l9.6 72.512c1.632 16.416 15.328 28.8 31.84 28.8h35.04a31.91 31.91 0 0 0 31.84-28.8l13.12-99.2h17.504c4.544 0 8.832-1.92 11.872-5.248a15.889 15.889 0 0 0 4.032-12.352l-14.56-145.504z" style="" fill="#8f9bb3" data-original="#90a4ae" class="" opacity="1"></path></g></svg>