<svg width="13" height="14" viewBox="0 0 13 14" fill="none" xmlns="http://www.w3.org/2000/svg">
<path fill-rule="evenodd" clip-rule="evenodd" d="M5.66675 12.8333C5.66675 13.0543 5.57895 13.2663 5.42267 13.4226C5.26639 13.5788 5.05443 13.6666 4.83342 13.6666C4.6124 13.6666 4.40044 13.5788 4.24416 13.4226C4.08788 13.2663 4.00008 13.0543 4.00008 12.8333V3.66665C4.00008 3.44563 4.08788 3.23367 4.24416 3.07739C4.40044 2.92111 4.6124 2.83331 4.83342 2.83331C5.05443 2.83331 5.26639 2.92111 5.42267 3.07739C5.57895 3.23367 5.66675 3.44563 5.66675 3.66665V12.8333ZM2.33341 12.8333C2.33341 13.0543 2.24562 13.2663 2.08934 13.4226C1.93306 13.5788 1.7211 13.6666 1.50008 13.6666C1.27907 13.6666 1.06711 13.5788 0.910826 13.4226C0.754546 13.2663 0.666748 13.0543 0.666748 12.8333V6.99998C0.666748 6.77897 0.754546 6.567 0.910826 6.41072C1.06711 6.25444 1.27907 6.16665 1.50008 6.16665C1.7211 6.16665 1.93306 6.25444 2.08934 6.41072C2.24562 6.567 2.33341 6.77897 2.33341 6.99998V12.8333ZM7.33342 12.8333V5.33331C7.33342 5.1123 7.42121 4.90034 7.57749 4.74406C7.73377 4.58778 7.94573 4.49998 8.16675 4.49998C8.38776 4.49998 8.59972 4.58778 8.756 4.74406C8.91228 4.90034 9.00008 5.1123 9.00008 5.33331V12.8333C9.00008 13.0543 8.91228 13.2663 8.756 13.4226C8.59972 13.5788 8.38776 13.6666 8.16675 13.6666C7.94573 13.6666 7.73377 13.5788 7.57749 13.4226C7.42121 13.2663 7.33342 13.0543 7.33342 12.8333ZM10.6667 1.16665C10.6667 0.945633 10.7545 0.733671 10.9108 0.577391C11.0671 0.421111 11.2791 0.333313 11.5001 0.333313C11.7211 0.333313 11.9331 0.421111 12.0893 0.577391C12.2456 0.733671 12.3334 0.945633 12.3334 1.16665V12.8333C12.3334 13.0543 12.2456 13.2663 12.0893 13.4226C11.9331 13.5788 11.7211 13.6666 11.5001 13.6666C11.2791 13.6666 11.0671 13.5788 10.9108 13.4226C10.7545 13.2663 10.6667 13.0543 10.6667 12.8333V1.16665Z" fill="#C5CEE0"/>
</svg>
