<svg xmlns="http://www.w3.org/2000/svg" version="1.1" xmlns:xlink="http://www.w3.org/1999/xlink" width="512" height="512" x="0" y="0" viewBox="0 0 512 512" style="enable-background:new 0 0 512 512" xml:space="preserve"><g><path d="M170.951 174.174H73.713c-12.096 0-21.901 9.805-21.901 21.901v294.024c0 12.096 9.806 21.901 21.901 21.901h97.238c12.096 0 21.901-9.805 21.901-21.901V196.075c.001-12.096-9.805-21.901-21.901-21.901z" style="" fill="#78baf6" data-original="#78baf6"></path><path d="M170.952 174.174h-26.307c12.096 0 21.901 9.805 21.901 21.901v294.024c0 12.096-9.806 21.901-21.901 21.901h26.307c12.096 0 21.901-9.805 21.901-21.901V196.075c0-12.096-9.806-21.901-21.901-21.901z" style="" fill="#1885da" data-original="#1885da"></path><path d="M101.21 72.759h42.244a8.54 8.54 0 0 1 8.54 8.54v67.414H92.671V81.299a8.54 8.54 0 0 1 8.539-8.54z" style="" fill="#d8e6f0" data-original="#d8e6f0"></path><path d="M143.454 72.759h-17.643a8.54 8.54 0 0 1 8.54 8.539v67.414h17.643V81.299a8.54 8.54 0 0 0-8.54-8.54zM82.127 148.713h80.411a5.174 5.174 0 0 1 5.174 5.174v20.288H76.953v-20.288a5.174 5.174 0 0 1 5.174-5.174z" style="" fill="#aac0d1" data-original="#aac0d1"></path><path d="M162.538 148.713h-24.345a5.174 5.174 0 0 1 5.174 5.174v20.288h24.345v-20.288a5.175 5.175 0 0 0-5.174-5.174z" style="" fill="#8da5b5" data-original="#8da5b5"></path><path d="M122.332 110.372a7.726 7.726 0 0 1-7.726-7.726v-.671a7.726 7.726 0 1 1 15.452 0v.671a7.725 7.725 0 0 1-7.726 7.726z" style="" fill="#202d4c" data-original="#202d4c"></path><path d="M51.812 256.784h141.041V347H51.812z" style="" fill="#d8e6f0" data-original="#d8e6f0"></path><path d="M166.546 256.783h26.307v90.216h-26.307z" style="" fill="#aac0d1" data-original="#aac0d1"></path><path d="M439.339 169.904v313.759c0 15.65-12.687 28.337-28.337 28.337H249.317c-15.65 0-28.337-12.687-28.337-28.337V169.904c0-23.978 19.438-43.415 43.415-43.415h131.529c23.978 0 43.415 19.438 43.415 43.415z" style="" fill="#fee9a1" data-original="#fee9a1"></path><path d="M395.924 126.489h-26.689c23.978 0 43.415 19.438 43.415 43.415v313.759c0 15.65-12.687 28.337-28.337 28.337h26.689c15.65 0 28.337-12.687 28.337-28.337V169.904c0-23.977-19.437-43.415-43.415-43.415z" style="" fill="#fdca67" data-original="#fdca67"></path><path d="M386.576 99.08v27.409H273.743V99.08a5.95 5.95 0 0 1 5.949-5.949h100.935a5.95 5.95 0 0 1 5.949 5.949z" style="" fill="#d8e6f0" data-original="#d8e6f0"></path><path d="M380.627 93.131h-21.376a5.95 5.95 0 0 1 5.949 5.949v27.409h21.376V99.08a5.95 5.95 0 0 0-5.949-5.949zM302.847 40.297h54.625v52.834h-54.625z" style="" fill="#aac0d1" data-original="#aac0d1"></path><path d="M368.249 0H276.43a2.686 2.686 0 0 0-2.686 2.686V37.61a2.686 2.686 0 0 0 2.686 2.686h179.722c4.124 0 5.585-5.46 2.014-7.52l-28.14-16.235A123.641 123.641 0 0 0 368.249 0z" style="" fill="#d8e6f0" data-original="#d8e6f0"></path><path d="M330.16 398.944c28.809 0 52.163-23.354 52.163-52.163v-55.073c0-28.809-23.354-52.163-52.163-52.163-28.809 0-52.163 23.354-52.163 52.163v55.073c0 28.809 23.354 52.163 52.163 52.163z" style="" fill="#a49cf5" data-original="#a49cf5"></path><path d="M144.767 366.919h138.958c25.645 0 46.435 20.789 46.435 46.435v76.612c0 12.169-9.865 22.034-22.034 22.034h-187.76c-12.169 0-22.034-9.865-22.034-22.034v-76.612c0-25.645 20.789-46.435 46.435-46.435z" style="" fill="#d8e6f0" data-original="#d8e6f0"></path><path d="M283.725 366.92h-24.561c25.645 0 46.435 20.789 46.435 46.435v76.612c0 12.169-9.865 22.034-22.034 22.034h24.561c12.169 0 22.034-9.865 22.034-22.034v-76.612c0-25.646-20.79-46.435-46.435-46.435z" style="" fill="#aac0d1" data-original="#aac0d1"></path><path d="M283.725 366.919H144.767c-25.645 0-46.435 20.789-46.435 46.435v11.686H330.16v-11.686c0-25.645-20.79-46.435-46.435-46.435z" style="" fill="#ff7870" data-original="#ff7870"></path><path d="M283.725 366.92h-24.561c25.645 0 46.435 20.789 46.435 46.435v11.686h24.561v-11.686a46.26 46.26 0 0 0-4.579-20.132c-7.5-15.564-23.424-26.303-41.856-26.303z" style="" fill="#d7352e" data-original="#d7352e"></path></g></svg>